<svg version="1.1" id="Layer_1" xmlns="http://www.w3.org/2000/svg" xmlns:xlink="http://www.w3.org/1999/xlink" x="0px" y="0px"
	 width="100%" viewBox="0 0 1024 816" enable-background="new 0 0 1024 816" xml:space="preserve">
<path fill="#000000" opacity="1.000000" stroke="none" 
	d="
M943.957825,324.000000 
	C943.966675,451.498749 943.974365,578.497498 943.989380,705.496277 
	C943.989868,709.670837 943.925110,713.845581 942.588440,717.847107 
	C939.158142,728.115906 930.250916,734.294739 918.871826,734.296448 
	C806.206299,734.313171 693.540710,734.346375 580.875305,734.232727 
	C575.868164,734.227722 572.165283,735.397400 568.590698,739.106750 
	C560.896179,747.091614 550.739014,750.474548 540.130188,752.556580 
	C518.503845,756.800842 497.088531,756.393738 476.048950,749.261597 
	C469.498291,747.040955 463.375305,743.823914 458.793274,738.601929 
	C455.686829,735.061584 452.252869,734.262390 447.819305,734.265930 
	C335.987122,734.354797 224.154816,734.334839 112.322540,734.314392 
	C109.497696,734.313843 106.606247,734.440247 103.859535,733.914124 
	C91.621078,731.569580 83.848763,721.642761 83.823883,708.287109 
	C83.772049,680.454163 83.849571,652.621094 83.854752,624.788025 
	C83.880394,486.956024 83.899132,349.124054 83.922150,211.292068 
	C83.925255,192.698059 93.665756,182.950363 112.294991,182.905762 
	C119.461533,182.888596 126.635796,182.709885 133.791962,182.984558 
	C138.244247,183.155457 140.006897,181.833496 139.854828,177.080307 
	C139.524597,166.757523 139.713943,156.416946 139.753052,146.083862 
	C139.792938,135.548981 145.356628,128.195724 155.573105,125.881241 
	C187.385895,118.674210 219.464127,113.082153 251.921570,109.539337 
	C278.794098,106.606125 305.704926,104.965614 332.701599,105.906250 
	C377.056580,107.451714 419.954620,115.885094 460.391632,134.816528 
	C478.766937,143.419281 495.569397,154.463684 510.344208,168.469864 
	C511.403992,169.474548 512.202026,170.865234 514.052979,171.203278 
	C519.504272,166.554672 524.867615,161.573807 530.641907,157.126511 
	C557.934631,136.105942 589.112549,123.689415 622.334229,115.604813 
	C658.574341,106.785675 695.338928,104.390808 732.421326,106.016075 
	C779.432861,108.076530 825.709229,115.626518 871.599243,125.726997 
	C882.653992,128.160172 887.959839,134.929428 888.047058,146.356354 
	C888.124695,156.522354 888.309387,166.696014 888.002075,176.852844 
	C887.852844,181.783493 889.674316,183.221298 894.376404,183.017685 
	C901.695984,182.700699 909.039490,182.906860 916.372620,182.935730 
	C934.165222,183.005768 943.858582,192.590363 943.921387,210.499374 
	C944.025940,240.332077 943.966003,270.165375 943.971924,299.998413 
	C943.973511,307.832275 943.962891,315.666138 943.957825,324.000000 
M162.338150,324.499939 
	C162.345474,432.141724 162.352631,539.783508 162.360428,647.425293 
	C162.360931,654.289246 162.549759,654.407349 169.530258,652.990112 
	C214.459702,643.869202 259.811127,638.183350 305.656494,637.025940 
	C332.490997,636.348511 359.197693,638.191040 385.723907,642.597290 
	C426.476257,649.366699 464.739136,662.461548 498.884521,686.290833 
	C499.790802,686.923401 500.563721,687.988892 502.023865,687.597046 
	C503.192383,686.187439 502.641998,684.453125 502.642334,682.868347 
	C502.678223,521.239075 502.674011,359.609741 502.752594,197.980484 
	C502.754242,194.541245 501.751190,191.925522 499.426849,189.499451 
	C490.614655,180.301529 480.804321,172.336060 469.953186,165.700470 
	C431.794067,142.365646 389.566864,132.838684 345.604431,129.330215 
	C317.103577,127.055664 288.671997,128.748520 260.318207,131.546783 
	C229.503464,134.587936 198.997375,139.717285 168.713882,146.227829 
	C163.652420,147.315964 162.200409,149.408829 162.218094,154.539398 
	C162.412277,210.859039 162.339111,267.179596 162.338150,324.499939 
M865.093811,574.500000 
	C865.373291,531.017395 864.806763,487.534424 865.478760,444.049622 
	C865.908142,416.262817 865.553650,388.463989 865.557434,360.670532 
	C865.566772,291.522400 865.541016,222.374207 865.687744,153.226349 
	C865.696594,149.050415 864.326660,147.376022 860.380188,146.507843 
	C815.102600,136.547592 769.348572,130.028198 723.005981,128.516754 
	C683.833862,127.239189 645.234192,131.460968 607.664124,143.285187 
	C578.012024,152.617386 551.019958,166.462189 528.904358,188.849808 
	C526.201477,191.585968 525.226990,194.386383 525.228699,198.135208 
	C525.302673,359.591919 525.297424,521.048645 525.338318,682.505371 
	C525.338745,684.234436 524.699585,686.144043 526.015442,687.685974 
	C527.639587,687.850037 528.594055,686.789612 529.637329,686.039062 
	C556.152832,666.964172 585.937927,655.277710 617.405518,647.599548 
	C664.997681,635.986877 713.315735,635.126221 761.817017,639.027100 
	C793.991211,641.614746 825.912476,646.309326 857.564880,652.726318 
	C864.941650,654.221802 865.003845,654.157227 865.018799,646.480774 
	C865.065063,622.820557 865.070374,599.160278 865.093811,574.500000 
M832.319519,686.949646 
	C843.289001,688.906433 854.256836,690.872437 865.228516,692.817017 
	C873.084961,694.209412 880.812378,696.451965 888.815125,696.868408 
	C897.867188,697.339539 904.062622,691.613953 904.622742,682.585693 
	C904.705139,681.257324 904.658691,679.920471 904.658691,678.587585 
	C904.659485,525.628784 904.659180,372.670044 904.655518,219.711258 
	C904.655518,218.212250 904.757568,216.692780 904.555725,215.217941 
	C903.861572,210.146011 901.781860,206.001846 896.686768,203.954727 
	C890.403931,201.430466 888.069336,202.931900 888.069397,209.596298 
	C888.070923,357.389771 888.075928,505.183228 888.078552,652.976685 
	C888.078613,655.975586 888.244324,658.988770 888.015015,661.970825 
	C887.170593,672.953430 878.454956,679.633667 867.590515,677.730896 
	C850.557922,674.747620 833.556458,671.574707 816.490479,668.797363 
	C790.859070,664.626099 765.063354,661.509460 739.124817,660.504822 
	C712.670288,659.480225 686.208252,659.720764 659.829346,663.161926 
	C630.084961,667.042114 601.274536,674.008240 574.022888,686.757629 
	C565.900574,690.557617 557.978516,694.753296 549.526672,700.416016 
	C561.545227,697.255615 572.240112,694.099792 583.094788,691.653259 
	C615.764709,684.289734 648.767334,679.296265 682.271912,677.526306 
	C713.109009,675.897278 743.839294,676.690857 774.567017,679.464050 
	C793.630981,681.184631 812.547485,683.950195 832.319519,686.949646 
M123.348938,326.499939 
	C123.349091,444.468414 123.346497,562.436890 123.353798,680.405334 
	C123.354507,691.775208 129.656723,697.751648 140.976364,696.731384 
	C146.091690,696.270325 151.159958,695.157166 156.212875,694.154968 
	C190.332214,687.387817 224.623184,681.681335 259.312805,678.898560 
	C288.042389,676.593872 316.808502,675.944275 345.652527,677.510437 
	C374.136658,679.057129 402.251740,682.897217 430.201172,688.378052 
	C445.681427,691.413635 460.877655,695.598877 477.371613,699.915588 
	C466.702118,692.767151 456.449951,687.641235 445.882324,683.151855 
	C415.076416,670.064575 382.756561,663.678589 349.498901,661.204895 
	C313.804993,658.550110 278.269531,660.558289 242.811798,664.474304 
	C217.174789,667.305786 191.759415,671.697937 166.454330,676.702820 
	C162.715927,677.442261 158.986115,678.580322 155.110138,678.136169 
	C145.120987,676.991394 139.730835,670.010803 139.731018,658.263672 
	C139.732834,546.792908 139.741806,435.322205 139.748566,323.851471 
	C139.750885,285.694855 139.756821,247.538223 139.750748,209.381592 
	C139.749756,203.110016 137.282562,201.488785 131.378220,203.821228 
	C126.126427,205.895889 123.357727,210.519135 123.353958,217.528244 
	C123.334625,253.518799 123.348091,289.509369 123.348938,326.499939 
z"/>
<path fill="#000000" opacity="1.000000" stroke="none" 
	d="
M447.992493,541.006165 
	C438.063538,549.792236 438.127380,549.738831 430.060272,540.098633 
	C398.832214,502.781250 367.561707,465.499359 336.296082,428.213409 
	C335.242035,426.956390 334.071228,425.797241 332.809204,424.435272 
	C329.749023,426.131653 327.957855,428.775726 325.995026,431.123657 
	C294.156982,469.208344 262.335907,507.307465 230.661880,545.528442 
	C227.984299,548.759521 226.151031,549.132141 223.135635,546.298950 
	C219.740768,543.109192 216.132736,540.122437 212.432449,537.288940 
	C209.380234,534.951721 209.194122,533.051636 211.782120,529.999939 
	C228.162537,510.684875 244.340225,491.198120 260.625214,471.801910 
	C278.516022,450.493103 296.400574,429.178467 314.425079,407.983063 
	C316.832489,405.152100 315.790039,403.470917 313.887787,401.199219 
	C293.025604,376.285614 272.213470,351.330078 251.415894,326.362488 
	C237.871033,310.101807 224.414429,293.767334 210.812500,277.554657 
	C208.484940,274.780365 208.401154,272.886749 211.424545,270.619781 
	C215.284332,267.725647 218.998337,264.604248 222.534012,261.321106 
	C225.309814,258.743591 227.003418,259.217834 229.342484,262.057465 
	C247.139282,283.662720 265.081604,305.148254 282.999084,326.653992 
	C298.463928,345.215973 313.957489,363.754028 329.430634,382.309052 
	C330.273560,383.319855 331.045410,384.389954 332.244781,385.943390 
	C336.287537,381.185333 339.834290,377.074036 343.313477,372.906311 
	C374.062775,336.071716 404.830017,299.251953 435.484100,262.338196 
	C437.945740,259.373871 439.681519,258.737335 442.653259,261.590576 
	C445.888184,264.696472 449.432526,267.529724 453.093048,270.128082 
	C456.415070,272.486176 456.749481,274.455109 454.025604,277.689911 
	C438.789368,295.784058 423.740479,314.035797 408.603912,332.214050 
	C389.524689,355.127228 370.469879,378.061127 351.274475,400.876617 
	C348.696869,403.940338 348.991394,405.871033 351.507568,408.856323 
	C385.225067,448.860321 418.757751,489.020050 452.486786,529.014282 
	C455.613495,532.721802 456.396698,535.272156 451.775146,537.975281 
	C450.495667,538.723633 449.426697,539.831909 447.992493,541.006165 
z"/>
<path fill="#000000" opacity="1.000000" stroke="none" 
	d="
M404.750366,395.714417 
	C430.257996,375.060547 465.479126,386.937866 472.756866,418.320038 
	C477.937103,440.657806 463.158264,463.492981 440.626923,467.964844 
	C417.543579,472.546265 395.341949,457.290192 391.545929,434.392883 
	C389.031219,419.224365 393.526672,406.530060 404.750366,395.714417 
M422.180908,449.443542 
	C435.088745,454.412079 447.779297,450.113037 453.852509,438.714539 
	C459.588867,427.948303 456.479614,414.121674 446.722992,407.010376 
	C435.054871,398.505829 419.226318,401.558899 411.446503,413.814636 
	C403.594604,426.183960 407.954926,441.481781 422.180908,449.443542 
z"/>
<path fill="#000000" opacity="1.000000" stroke="none" 
	d="
M371.928162,281.440002 
	C377.983490,306.225708 365.295715,328.522400 342.249115,334.222473 
	C319.761810,339.784210 296.826416,325.735565 291.755951,303.293732 
	C286.497131,280.018158 300.917267,257.424164 324.022949,252.736526 
	C344.963226,248.488205 364.313446,259.961365 371.928162,281.440002 
M321.560699,316.072174 
	C335.651550,321.585541 348.713898,316.765076 354.653870,303.859619 
	C359.954071,292.344086 355.194183,278.049103 344.030182,271.954346 
	C332.455780,265.635529 317.420074,269.765839 310.949127,281.041718 
	C303.704895,293.665039 307.825867,308.055420 321.560699,316.072174 
z"/>
<path fill="#000000" opacity="1.000000" stroke="none" 
	d="
M229.487671,385.333313 
	C252.918106,383.735657 271.993683,400.778809 274.133636,424.762177 
	C276.002014,445.702179 258.621857,466.279480 237.309525,468.360260 
	C213.051010,470.728607 192.921906,454.195374 191.259598,429.157471 
	C189.664368,405.129852 208.412888,387.178131 229.487671,385.333313 
M219.026718,447.528442 
	C220.183777,448.179138 221.301773,448.914917 222.504105,449.466980 
	C231.536591,453.614136 242.230988,451.827759 249.346558,445.022034 
	C256.475952,438.203094 258.976135,426.591003 255.292252,417.407257 
	C251.683365,408.410522 242.470230,402.250580 232.639191,402.261383 
	C222.082199,402.272980 212.910919,408.783844 209.435333,418.734192 
	C205.800323,429.140930 209.040421,439.350311 219.026718,447.528442 
z"/>
<path fill="#000000" opacity="1.000000" stroke="none" 
	d="
M379.536621,530.504211 
	C388.156342,529.093262 394.360901,524.719055 398.824677,516.995911 
	C403.661346,520.436768 406.402954,525.025269 409.478882,529.163330 
	C410.926392,531.110657 408.353058,532.754883 407.161285,534.167969 
	C392.565521,551.473877 364.219696,551.743408 348.509521,534.795410 
	C331.232666,516.157288 333.259888,488.360260 353.055634,472.458588 
	C358.142242,468.372620 358.768280,468.377960 363.123535,473.408997 
	C365.368408,476.002258 368.084747,478.276215 369.593811,481.848114 
	C356.923035,489.206635 350.326965,499.330841 355.224701,514.205078 
	C358.509094,524.179688 367.797882,530.329224 379.536621,530.504211 
z"/>
<path fill="#000000" opacity="1.000000" stroke="none" 
	d="
M301.661316,473.688110 
	C306.365356,468.196655 306.378357,468.195251 311.767181,472.358612 
	C326.455231,483.706604 331.932159,502.699982 325.585144,520.277710 
	C319.349670,537.546448 303.642334,548.109802 284.872528,547.250610 
	C273.220886,546.717285 263.968964,541.165466 256.531677,532.374512 
	C255.482864,531.134827 254.843781,529.835266 256.061523,528.359131 
	C259.097351,524.679260 262.156372,521.018494 265.750153,516.695679 
	C271.461090,525.661072 278.808136,531.049438 289.026825,530.522461 
	C295.383118,530.194641 300.903473,527.277832 305.076996,522.339172 
	C310.681427,515.707275 312.791870,508.201538 310.694702,499.558350 
	C308.651123,491.136078 302.841858,485.955963 295.625397,482.112732 
	C296.994537,478.437164 299.470306,476.382599 301.661316,473.688110 
z"/>
<path fill="#000000" opacity="1.000000" stroke="none" 
	d="
M232.505936,317.048950 
	C228.288773,323.143585 224.153702,328.830170 224.257584,336.599640 
	C224.507599,355.298920 243.947037,366.966980 260.084869,357.669861 
	C263.894318,355.475189 265.776825,356.243927 268.371735,359.207306 
	C276.452484,368.435486 276.304871,369.416534 264.776001,374.360809 
	C246.259537,382.301788 225.868134,376.336731 214.631195,359.691956 
	C203.840195,343.707733 205.758530,321.224152 218.985809,307.651581 
	C221.303040,305.273895 223.259186,304.697906 225.440903,307.704987 
	C227.677368,310.787537 230.685028,313.272583 232.505936,317.048950 
z"/>
<path fill="#000000" opacity="1.000000" stroke="none" 
	d="
M440.444092,339.404419 
	C441.011688,331.844482 439.141479,325.399384 434.171356,320.182159 
	C431.865295,317.761475 432.173798,316.050262 434.278381,313.885376 
	C435.896362,312.220978 437.455719,310.418762 438.652161,308.442352 
	C441.132111,304.345612 443.343567,304.885468 446.303619,308.071930 
	C459.482758,322.259216 460.747070,345.962524 448.993439,361.550385 
	C435.804596,379.041779 412.132599,383.081177 394.227753,371.051971 
	C390.779846,368.735535 390.085785,366.565704 393.112488,363.544403 
	C393.700195,362.957672 394.209290,362.292328 394.756042,361.664429 
	C399.947266,355.702728 399.947357,355.702789 407.240204,359.021790 
	C420.305817,364.967957 435.835999,357.379059 439.571503,343.215302 
	C439.868164,342.090332 440.096252,340.947296 440.444092,339.404419 
z"/>
<path fill="#000000" opacity="1.000000" stroke="none" 
	d="
M385.929535,308.916626 
	C382.540588,312.655975 380.072754,316.771088 376.089600,319.945251 
	C375.944244,310.283783 388.447205,295.095581 399.950043,292.027893 
	C394.783417,298.261688 390.476135,303.458649 385.929535,308.916626 
z"/>
<path fill="#000000" opacity="1.000000" stroke="none" 
	d="
M280.338104,310.637329 
	C275.379517,304.679596 270.645264,298.998444 265.579651,292.919586 
	C274.439423,293.230988 287.852966,308.857544 289.060944,320.047424 
	C285.362854,317.308990 283.257843,313.814667 280.338104,310.637329 
z"/>
<path fill="#000000" opacity="1.000000" stroke="none" 
	d="
M584.532166,515.236206 
	C571.686707,470.887634 579.248352,430.999146 609.631409,396.448761 
	C630.053894,373.225128 656.226074,360.218140 687.202515,357.636871 
	C733.610352,353.769714 770.519104,371.169159 797.876526,408.511902 
	C810.119385,425.223419 816.474426,444.396210 818.455566,465.089539 
	C822.254517,504.769287 809.435913,538.378357 780.839783,565.618896 
	C756.509827,588.795532 726.740051,600.117737 693.304443,597.812195 
	C639.705994,594.116394 603.759094,565.641663 584.532166,515.236206 
M602.078064,465.399963 
	C600.921204,473.858765 600.992798,482.287720 602.137695,490.767853 
	C609.392578,544.500061 660.475708,582.815430 713.937012,574.536926 
	C767.152588,566.296570 805.019104,513.452820 795.433899,460.806000 
	C784.340271,399.874023 722.730957,363.802032 665.216492,385.498535 
	C629.028748,399.149902 608.097595,426.133698 602.078064,465.399963 
z"/>
<path fill="#000000" opacity="1.000000" stroke="none" 
	d="
M615.432251,230.562775 
	C614.526489,233.517288 614.058899,236.141968 614.158020,238.824722 
	C614.300232,242.670837 612.918091,243.937057 608.779907,243.559753 
	C596.571045,242.446579 586.633240,248.945786 583.506897,259.476929 
	C579.288025,273.688110 589.906860,287.518860 605.351013,287.618958 
	C625.849731,287.751831 646.350098,287.608551 666.849182,287.710144 
	C669.152527,287.721527 672.515381,286.322571 673.539978,289.327911 
	C674.818604,293.078522 674.695435,297.238831 673.554382,301.123383 
	C673.133118,302.557465 671.328308,302.339539 670.014526,302.339203 
	C647.015320,302.333282 624.007385,302.688019 601.019775,302.161774 
	C584.661255,301.787262 569.882507,287.156738 567.802979,270.630219 
	C565.493408,252.275421 576.551636,235.211075 594.542725,230.038208 
	C598.488892,228.903610 600.560852,227.202469 601.985168,223.251785 
	C609.305115,202.947372 627.101318,191.130722 648.758545,192.084915 
	C652.029907,192.229065 653.077637,190.640060 654.377991,188.382080 
	C664.321167,171.116013 678.645142,159.940872 698.628906,156.570007 
	C720.503723,152.880127 744.331299,163.254898 755.981262,182.048431 
	C758.054810,185.393402 760.422607,186.876602 764.159729,187.399963 
	C783.133057,190.056915 795.265137,200.696960 800.390076,219.175919 
	C801.052490,221.564575 802.500000,222.676712 804.664612,223.542450 
	C823.406067,231.037964 833.781555,249.746201 830.147156,269.329346 
	C826.642090,288.214783 809.636536,302.214508 789.815979,302.321320 
	C769.983643,302.428223 750.148621,302.215393 730.318665,302.459106 
	C725.374756,302.519836 723.030334,301.162842 723.755066,296.004303 
	C723.892944,295.023254 723.877930,293.996216 723.767212,293.009003 
	C723.300720,288.847839 725.165405,287.544373 729.245300,287.575012 
	C749.077026,287.723969 768.911133,287.729065 788.743225,287.600281 
	C804.492249,287.498016 816.111023,275.592621 815.690491,260.295227 
	C815.367981,248.563568 806.654297,238.579391 794.710327,236.255981 
	C787.038452,234.763626 787.038391,234.763626 786.672363,227.195786 
	C785.934753,211.944183 771.549622,200.427734 755.147644,202.449753 
	C751.075012,202.951813 749.365540,202.014984 747.683472,198.309723 
	C740.538330,182.570114 728.514587,172.805313 711.016479,171.265762 
	C692.312866,169.620117 678.739685,178.460129 668.803162,193.690948 
	C666.154114,197.751541 664.051636,202.125305 662.564209,206.734070 
	C661.589600,209.754028 660.190125,210.677032 657.053162,209.420410 
	C639.966492,202.575653 620.924133,211.565094 615.432251,230.562775 
z"/>
<path fill="#000000" opacity="1.000000" stroke="none" 
	d="
M724.720093,262.344055 
	C726.764221,266.269623 729.470398,269.469788 730.996460,274.274200 
	C724.966553,273.399811 719.752319,272.730896 714.570129,271.869202 
	C708.686401,270.890869 708.369873,271.079285 708.369263,277.181824 
	C708.367371,295.842010 708.246277,314.503967 708.485596,333.161194 
	C708.546265,337.893005 707.212341,339.536987 702.322754,339.459045 
	C689.656738,339.257141 689.654114,339.470184 689.653076,326.731903 
	C689.651733,310.070984 689.539368,293.408875 689.720093,276.749939 
	C689.768066,272.328125 688.663147,270.740143 683.984314,271.767151 
	C678.708130,272.925232 673.269653,273.343292 667.746643,274.104584 
	C668.376099,269.884186 695.307556,224.019958 699.500793,220.068283 
	C707.901184,234.157715 716.211914,248.096664 724.720093,262.344055 
z"/>
<path fill="#000000" opacity="1.000000" stroke="none" 
	d="
M745.577026,436.465881 
	C737.423950,453.098969 729.356873,469.358734 721.510620,485.724365 
	C718.655701,491.679108 714.501038,496.135101 708.740845,499.272308 
	C688.851807,510.104675 668.995056,520.996399 649.116821,531.848816 
	C648.271667,532.310181 647.335083,532.604065 646.454041,532.970581 
	C644.894714,530.956726 646.459961,529.593933 647.103638,528.264038 
	C656.390442,509.076813 665.883789,489.988403 675.030029,470.734894 
	C678.405151,463.629822 683.426636,458.500977 690.238159,454.810974 
	C708.835449,444.736115 727.380188,434.564178 745.972412,424.479889 
	C747.647278,423.571442 749.220703,422.138947 751.908325,422.627930 
	C750.563721,427.570312 747.667053,431.647186 745.577026,436.465881 
M708.298950,472.396118 
	C703.858887,466.478577 698.693726,465.069824 693.300842,468.305573 
	C688.736389,471.044281 686.861572,477.135254 689.141113,481.819763 
	C691.698730,487.075470 697.752869,489.435364 703.052429,487.242279 
	C708.319214,485.062805 710.581543,479.313293 708.298950,472.396118 
z"/>
<path fill="#000000" opacity="1.000000" stroke="none" 
	d="
M692.975281,394.683899 
	C693.929016,390.933441 695.970093,388.992645 699.526794,389.369720 
	C703.446594,389.785278 704.721863,392.757416 704.976074,396.090240 
	C705.253967,399.733582 705.224243,403.419525 705.046753,407.073212 
	C704.854736,411.028046 702.908936,414.033905 698.675232,413.935303 
	C694.672302,413.842102 692.980286,410.806763 692.852478,407.095032 
	C692.715088,403.104828 692.873657,399.104462 692.975281,394.683899 
z"/>
<path fill="#000000" opacity="1.000000" stroke="none" 
	d="
M692.750366,557.633545 
	C692.755737,554.187378 692.675110,551.189758 692.798218,548.200500 
	C692.987244,543.612610 695.566162,540.576538 699.168274,540.831787 
	C703.641846,541.148743 704.824951,544.406738 705.018555,548.167358 
	C705.180786,551.319092 705.147461,554.489441 705.027771,557.645020 
	C704.878906,561.568787 703.904602,565.190125 699.091675,565.348511 
	C694.293335,565.506470 693.031433,562.116333 692.750366,557.633545 
z"/>
<path fill="#000000" opacity="1.000000" stroke="none" 
	d="
M775.922852,483.322357 
	C772.803284,483.293396 770.146362,483.410583 767.515930,483.198547 
	C764.089905,482.922363 761.864807,480.928986 761.876099,477.471466 
	C761.888184,473.789215 764.073853,471.719177 767.880127,471.689301 
	C771.848450,471.658173 775.817322,471.704132 779.785645,471.672058 
	C783.894592,471.638824 786.690613,473.386383 786.602234,477.701996 
	C786.518860,481.772644 783.715942,483.349243 779.869690,483.308441 
	C778.712402,483.296143 777.554688,483.316620 775.922852,483.322357 
z"/>
<path fill="#000000" opacity="1.000000" stroke="none" 
	d="
M623.025757,483.340851 
	C620.550903,483.305664 618.537354,483.414276 616.557373,483.205078 
	C613.004578,482.829590 611.112122,480.540924 611.193115,477.148468 
	C611.270020,473.928192 613.298706,471.851898 616.615784,471.740845 
	C621.274170,471.584900 625.948486,471.571075 630.603943,471.773529 
	C633.912964,471.917419 635.901733,474.127411 635.985046,477.277405 
	C636.075623,480.700531 633.985474,482.874268 630.494019,483.214233 
	C628.181213,483.439392 625.833984,483.311310 623.025757,483.340851 
z"/>
</svg>