<svg version="1.1" id="Layer_1" xmlns="http://www.w3.org/2000/svg" xmlns:xlink="http://www.w3.org/1999/xlink" x="0px" y="0px"
	 width="100%" viewBox="0 0 1024 1024" enable-background="new 0 0 1024 1024" xml:space="preserve">
<path fill="#000000" opacity="1.000000" stroke="none" 
	d="
M515.688110,182.446808 
	C522.907776,221.808563 528.243652,261.037842 534.419678,300.134033 
	C540.103210,336.112518 546.001587,372.057159 551.828308,408.012939 
	C552.515991,412.256592 552.791077,416.602081 554.863525,421.433533 
	C589.426758,398.907257 622.516174,374.594910 658.114502,353.742554 
	C637.113403,389.034546 615.078735,423.366852 594.407166,458.207886 
	C595.662781,460.251648 597.208984,460.395233 598.656921,460.629028 
	C650.588745,469.013733 702.517090,477.419983 754.459656,485.737640 
	C778.128723,489.527832 801.835449,493.082947 825.498657,496.908630 
	C828.171936,497.340851 831.684021,496.741058 833.641602,501.638428 
	C752.801697,515.033569 672.214233,527.230591 590.686340,541.695007 
	C613.753296,577.260437 636.310669,612.040283 659.399353,647.639282 
	C654.656067,647.963440 652.208801,645.839966 649.720276,644.202271 
	C633.021606,633.212463 616.402954,622.101196 599.732483,611.068420 
	C585.421631,601.597290 571.080811,592.171509 556.738525,582.748169 
	C555.516418,581.945251 554.420044,580.794800 551.749695,580.933044 
	C544.438049,621.399536 538.582886,662.303467 532.295898,703.136536 
	C526.048645,743.711975 520.728149,784.438354 514.147888,825.337219 
	C509.743591,823.751465 510.028046,821.165344 509.720154,818.956177 
	C506.023132,792.427612 502.554077,765.865601 498.636047,739.369934 
	C493.331390,703.497437 487.715668,667.670776 482.178528,631.832886 
	C479.765656,616.216187 477.215088,600.620911 474.731964,585.015076 
	C474.523346,583.703857 474.459747,582.349182 473.072083,580.929321 
	C468.397491,582.303589 464.714447,585.793152 460.692902,588.515381 
	C434.344666,606.350830 408.148071,624.412476 381.335663,641.550781 
	C377.360779,644.091431 373.437653,646.933167 367.938751,647.291260 
	C389.919922,612.086426 412.374878,577.295837 433.804474,541.303284 
	C427.417175,538.812927 421.057159,538.609070 414.951385,537.551270 
	C382.997681,532.015747 351.009644,526.668213 318.989502,521.529724 
	C286.467102,516.310608 253.892212,511.418610 221.343079,506.365662 
	C213.454453,505.140991 205.569733,503.887268 197.698914,502.554321 
	C195.874481,502.245361 193.071686,502.651886 193.124329,499.875183 
	C193.169540,497.491119 195.752182,497.771790 197.464401,497.495514 
	C213.726929,494.871185 229.999863,492.311523 246.264328,489.699127 
	C288.815460,482.864563 331.372162,476.064117 373.909454,469.144348 
	C392.467285,466.125427 410.984314,462.855316 429.515961,459.676392 
	C431.299866,459.370392 433.055908,458.901917 435.687317,458.317261 
	C412.508728,423.432312 389.652222,389.032135 366.509491,354.201172 
	C370.250488,352.842987 371.974823,354.757935 373.785461,355.922211 
	C405.313995,376.195892 436.809906,396.520172 468.320862,416.821228 
	C469.833008,417.795441 471.417664,418.657166 472.695526,419.410339 
	C474.797943,418.657410 474.568970,417.177612 474.754700,415.908081 
	C479.399170,384.157684 484.000183,352.400909 488.695465,320.658051 
	C492.198364,296.976349 495.942993,273.329987 499.357788,249.635864 
	C502.631653,226.920013 504.876617,204.026031 509.032135,181.479111 
	C511.260101,169.390564 509.500671,158.450943 506.038361,147.232117 
	C501.964264,134.030853 492.237549,127.882607 479.448883,125.260902 
	C474.621368,124.271255 469.541138,124.646111 464.883911,122.855782 
	C465.023163,120.822701 466.406158,121.083817 467.471863,120.943924 
	C470.112091,120.597389 472.776031,120.407661 475.401978,119.980125 
	C496.290070,116.579269 504.739746,107.685333 507.714478,86.673813 
	C509.445129,74.449181 509.376862,62.107872 510.660736,49.863518 
	C510.807800,48.460793 510.201019,46.849277 511.841095,45.620541 
	C513.929443,46.969540 513.206482,49.132519 513.300415,50.954220 
	C513.951660,63.587181 514.827209,76.206337 517.091003,88.663345 
	C520.896118,109.602272 528.343567,116.625175 549.447327,120.087364 
	C552.727051,120.625435 556.408386,119.915337 559.922302,122.657448 
	C555.231628,124.762634 550.636597,124.315125 546.332336,125.014084 
	C531.122070,127.484047 521.132141,135.454117 517.307800,150.709488 
	C514.711975,161.064102 511.913849,171.355713 515.688110,182.446808 
M420.500000,501.237732 
	C361.240326,501.237732 301.980652,501.237732 242.720978,501.237732 
	C242.696045,501.666412 242.671127,502.095123 242.646194,502.523804 
	C246.675919,502.601074 250.451309,504.003876 254.357452,504.537415 
	C280.566803,508.117371 306.657318,512.449524 332.753754,516.743408 
	C377.710205,524.140442 422.666229,531.541626 467.590271,539.131287 
	C471.209991,539.742798 473.518097,538.917175 475.965637,536.447388 
	C486.515411,525.801636 497.210907,515.300354 507.830841,504.723846 
	C508.607819,503.950043 509.752319,503.366852 509.711578,501.238037 
	C480.302582,501.238037 450.901276,501.238037 420.500000,501.237732 
M511.666931,235.503372 
	C511.666931,230.249619 511.666931,224.995865 511.666931,219.742111 
	C509.545746,226.681107 508.656860,233.600876 507.645447,240.502670 
	C503.883514,266.173157 500.081696,291.837769 496.294098,317.504456 
	C493.017181,339.710846 489.729370,361.915649 486.464294,384.123779 
	C483.101654,406.995392 479.782410,429.873444 476.387512,452.740234 
	C475.865936,456.253540 476.496307,459.059021 479.099060,461.800201 
	C488.618530,471.825745 497.874725,482.100922 507.279816,492.235901 
	C508.582916,493.640228 509.728851,495.377045 511.670258,495.727051 
	C511.670258,409.283508 511.670258,322.892853 511.666931,235.503372 
M535.371277,479.881775 
	C529.764832,486.100281 522.870789,491.139435 517.161194,499.014435 
	C607.455994,499.014435 696.505249,499.014435 785.554504,499.014435 
	C771.665222,495.880493 757.736450,493.571991 743.795471,491.339539 
	C710.801636,486.055969 677.794006,480.858154 644.807190,475.531342 
	C616.417725,470.946960 588.045471,466.255188 559.676941,461.542969 
	C556.461426,461.008850 553.961426,461.579498 551.591614,464.028381 
	C546.498352,469.291656 541.141907,474.300140 535.371277,479.881775 
M514.323730,511.671326 
	C514.323730,600.264404 514.323730,688.857544 514.323730,778.144104 
	C519.776001,742.079163 525.365906,706.771973 530.397278,671.385376 
	C536.224487,630.401062 543.456970,589.646057 549.947937,548.770996 
	C550.679626,544.163757 550.045715,540.957336 546.812744,537.578918 
	C537.831543,528.193726 529.195312,518.479065 520.367554,508.945709 
	C518.750488,507.199280 517.309753,505.159424 514.933289,503.982269 
	C513.915894,506.455078 514.514893,508.632721 514.323730,511.671326 
M612.984680,588.467529 
	C603.864136,574.556152 594.749756,560.640747 585.614746,546.738831 
	C584.536743,545.098389 583.627441,542.953186 581.180420,543.282776 
	C573.733582,544.285767 566.307983,545.447144 557.672607,546.724548 
	C583.833984,575.662170 609.265869,603.201660 638.227600,627.392456 
	C629.944031,614.620728 621.660461,601.849060 612.984680,588.467529 
M460.175659,553.680115 
	C435.800873,577.804871 411.103485,601.621704 388.918549,627.870850 
	C393.921387,626.377441 397.570251,622.908081 401.651428,620.161682 
	C424.018921,605.109680 446.302185,589.932556 468.608917,574.790344 
	C469.971130,573.865601 471.780243,573.060486 471.694885,571.153687 
	C471.342010,563.270752 469.637787,555.645813 467.513977,547.878357 
	C464.436462,549.426697 462.609528,551.374390 460.175659,553.680115 
M443.673035,426.820953 
	C426.464233,409.293427 409.212860,391.811462 390.225800,376.185089 
	C389.984070,376.872192 390.040802,377.219513 390.218506,377.486206 
	C407.456818,403.359558 424.703125,429.227600 441.956085,455.091187 
	C442.606445,456.066101 443.360657,457.247253 444.630371,457.081024 
	C452.119080,456.100464 459.684448,455.428650 467.665039,452.705078 
	C460.114624,443.227905 451.712463,435.664978 443.673035,426.820953 
M569.518982,445.017395 
	C592.701172,422.439606 615.938477,399.914856 638.158508,374.443024 
	C636.287537,375.019897 635.811157,375.055542 635.468628,375.288239 
	C609.883118,392.671387 584.307190,410.068726 558.735352,427.471954 
	C557.485046,428.322845 556.069702,429.259979 556.283447,430.966064 
	C557.199280,438.278473 557.806885,445.666382 560.482117,453.507935 
	C563.736206,450.457733 566.375122,447.984222 569.518982,445.017395 
z"/>
<path fill="#000000" opacity="1.000000" stroke="none" 
	d="
M715.403625,260.581360 
	C764.046387,303.735870 797.191589,356.200714 814.532898,418.568878 
	C818.324097,432.203705 820.925171,446.082977 822.983154,460.070251 
	C823.200378,461.546936 823.203796,463.058563 823.253174,464.555695 
	C823.324036,466.706390 822.930298,468.790985 820.362915,469.019806 
	C817.825439,469.245941 817.032471,467.356781 816.712769,465.173859 
	C815.772949,458.755371 815.050537,452.291534 813.787537,445.935944 
	C796.634521,359.619873 751.993835,291.124115 679.404419,241.436768 
	C639.060486,213.821426 594.225952,197.090195 545.507629,191.285843 
	C542.933105,190.979111 539.915710,190.626526 540.163025,187.383026 
	C540.448486,183.638840 543.674255,184.143158 546.382751,184.472870 
	C592.245850,190.055771 634.611633,205.465530 673.877319,229.686722 
	C688.525024,238.722260 702.267334,248.937790 715.403625,260.581360 
z"/>
<path fill="#000000" opacity="1.000000" stroke="none" 
	d="
M477.341919,191.460297 
	C437.346161,196.948654 400.192230,209.561111 365.598663,229.448700 
	C307.423523,262.893158 263.588745,309.674316 235.500198,370.817444 
	C221.998001,400.208984 212.824158,430.854279 210.032349,463.228302 
	C209.975266,463.890228 209.873962,464.553070 209.732269,465.202148 
	C209.277573,467.284851 208.435608,469.250031 205.928360,469.018494 
	C203.044647,468.752258 202.684067,466.391846 202.969650,464.143433 
	C203.891006,456.889557 204.744293,449.615143 206.030762,442.421448 
	C216.025192,386.534241 239.570724,336.961670 276.703491,294.112427 
	C324.629822,238.807907 384.521362,203.349564 456.224976,188.168945 
	C463.701263,186.586121 471.311768,185.614166 478.882233,184.511185 
	C481.726807,184.096725 485.633057,182.970016 486.012482,187.351685 
	C486.357178,191.332657 482.512787,190.957016 479.773926,191.287094 
	C479.113739,191.366638 478.444916,191.374741 477.341919,191.460297 
z"/>
<path fill="#000000" opacity="1.000000" stroke="none" 
	d="
M795.829224,628.731201 
	C778.374268,666.135803 755.271179,699.180725 725.924561,727.626404 
	C678.786255,773.317444 623.155640,803.015137 558.303955,814.791443 
	C554.220276,815.533020 550.055359,815.816833 545.952393,816.466370 
	C543.294922,816.886963 540.458618,817.183105 540.176208,813.743408 
	C539.902039,810.404114 542.962036,810.163940 545.455383,809.755432 
	C552.677429,808.572144 559.965454,807.689026 567.107361,806.135437 
	C634.069153,791.568909 690.151611,758.126526 735.892151,707.442505 
	C776.071716,662.920593 801.684082,610.872009 813.587158,552.099854 
	C814.708069,546.565613 815.352234,540.935974 816.295166,535.363770 
	C816.710632,532.908936 816.969666,529.909973 820.598999,530.608337 
	C823.788940,531.222046 823.337219,533.970825 823.006042,536.275208 
	C819.658264,559.570679 814.229553,582.355164 805.836914,604.370789 
	C802.755005,612.455078 799.291443,620.393921 795.829224,628.731201 
z"/>
<path fill="#000000" opacity="1.000000" stroke="none" 
	d="
M472.583038,815.447327 
	C451.043365,812.721558 430.771027,806.847473 411.056763,799.073547 
	C332.516968,768.102905 274.456879,714.452881 235.858398,639.659668 
	C219.227890,607.434265 209.222549,572.988831 203.997131,537.138062 
	C203.901199,536.479919 203.828171,535.815125 203.799103,535.151062 
	C203.706757,533.041748 203.847321,530.922791 206.523163,530.625671 
	C209.054718,530.344543 209.991608,532.062866 210.354187,534.279053 
	C211.428223,540.844055 212.375717,547.434814 213.651581,553.960999 
	C225.003601,612.027466 250.419464,663.179138 289.816162,707.263245 
	C331.030792,753.381470 381.377655,785.119873 441.013885,801.875488 
	C454.005890,805.525757 467.210266,808.215027 480.623810,809.848999 
	C483.179718,810.160278 486.647522,810.267151 485.990997,814.131775 
	C485.428619,817.442200 482.503143,817.013184 479.923615,816.549133 
	C477.633881,816.137268 475.323242,815.841736 472.583038,815.447327 
z"/>
<path fill="#000000" opacity="1.000000" stroke="none" 
	d="
M907.438232,513.448486 
	C900.799133,521.322144 898.525208,530.593445 897.498230,540.440063 
	C894.642395,539.219360 895.014832,537.354614 894.721130,535.811584 
	C893.880310,531.393250 892.768188,527.053955 891.187683,522.835144 
	C885.955139,508.867828 873.803467,505.519531 861.017944,503.354279 
	C854.362854,502.227203 847.621155,501.611084 840.931519,500.765808 
	C841.025024,498.228180 842.726746,498.818604 843.884888,498.694794 
	C851.821960,497.846252 859.694214,496.637146 867.540771,495.138550 
	C882.411560,492.298401 890.833313,483.327057 893.741577,468.677887 
	C894.338562,465.670929 894.363586,462.401215 896.500854,459.504486 
	C898.974243,462.303741 898.440613,465.702942 899.121094,468.648102 
	C902.786377,484.511749 910.554932,492.208984 926.615051,494.828094 
	C939.916992,496.997406 953.371338,497.796539 966.808472,498.683655 
	C968.303284,498.782349 970.165833,497.992676 971.582214,500.832031 
	C965.046448,501.286346 958.915222,501.707428 952.784790,502.139709 
	C941.519592,502.933990 930.175415,503.097015 919.253540,506.548767 
	C914.898438,507.925140 910.951904,509.952026 907.438232,513.448486 
z"/>
<path fill="#000000" opacity="1.000000" stroke="none" 
	d="
M180.871811,498.616516 
	C182.386612,498.735046 183.585754,498.638092 184.492004,500.310150 
	C180.445236,502.062836 176.257126,501.432129 172.330734,502.132111 
	C166.442703,503.181793 160.508575,503.878815 154.672104,505.325562 
	C142.315369,508.388489 135.547791,516.612793 132.311417,528.441162 
	C131.292953,532.163452 131.110672,536.151062 129.095703,540.154236 
	C127.146645,538.069336 127.216904,535.828308 126.856079,533.855774 
	C123.429016,515.121826 115.136597,507.008026 96.287750,504.291809 
	C83.928246,502.510742 71.466415,501.899994 59.007988,501.285614 
	C57.301735,501.201508 55.405674,501.732910 52.925777,499.248383 
	C59.733570,498.688843 65.496460,498.177643 71.265518,497.749542 
	C80.555145,497.060272 89.858864,496.424103 99.029701,494.747986 
	C115.621918,491.715546 123.579323,483.577454 126.642357,466.871094 
	C127.082939,464.468109 127.586617,462.076660 128.140244,459.279999 
	C131.357285,461.139984 130.674683,464.066864 131.023743,466.173553 
	C133.893845,483.495422 143.689987,493.514954 161.210815,495.837280 
	C167.636826,496.689026 174.044846,497.676636 180.871811,498.616516 
z"/>
<path fill="#000000" opacity="1.000000" stroke="none" 
	d="
M513.756592,833.516846 
	C514.990662,839.442200 515.947693,845.005676 517.870544,850.359436 
	C521.407959,860.208557 528.149292,866.447571 538.270874,869.118347 
	C543.270996,870.437866 548.309631,871.421875 553.478088,871.772705 
	C555.372803,871.901367 557.505859,871.393311 559.268372,873.511597 
	C555.146729,875.408875 550.800354,875.048401 546.717896,875.873779 
	C524.946716,880.275513 517.488464,888.539307 515.264221,910.755676 
	C514.436401,919.024353 513.336914,927.265320 513.252502,935.593689 
	C513.239624,936.866943 513.313721,938.243591 511.098297,939.701660 
	C510.622955,934.118835 510.051178,929.163086 509.810394,924.191345 
	C509.374847,915.199829 508.455750,906.305847 506.027740,897.594299 
	C503.364166,888.037476 497.552429,881.588318 488.020325,878.546509 
	C482.775299,876.872803 477.495758,875.486572 471.960419,875.184875 
	C469.560303,875.054077 467.141144,874.759155 464.876953,873.131348 
	C476.812927,870.730652 489.744751,871.121460 499.186584,862.026672 
	C508.456573,853.097290 508.931854,840.430664 511.410065,828.561829 
	C514.038635,829.711487 513.015381,831.749146 513.756592,833.516846 
z"/>
<path fill="#000000" opacity="1.000000" stroke="none" 
	d="
M777.665405,235.934662 
	C784.946106,239.996979 788.223816,245.977127 786.675720,251.844437 
	C784.673340,259.433105 777.317078,264.462372 770.608459,262.829102 
	C762.676636,260.898010 757.632446,253.142120 759.583923,245.878113 
	C761.790649,237.664124 768.851990,233.645523 777.665405,235.934662 
z"/>
<path fill="#000000" opacity="1.000000" stroke="none" 
	d="
M256.032562,262.465698 
	C247.860657,264.010498 240.904022,259.878326 238.989334,252.692139 
	C237.100220,245.601852 240.946640,238.230988 247.836624,235.738220 
	C254.387756,233.368057 261.492920,236.392410 264.553528,242.853882 
	C267.901886,249.922897 265.583008,257.236359 258.679596,261.301666 
	C257.967529,261.721008 257.172638,261.999664 256.032562,262.465698 
z"/>
<path fill="#000000" opacity="1.000000" stroke="none" 
	d="
M768.222412,734.752563 
	C776.890625,732.428406 783.862427,736.078064 786.339478,743.904907 
	C788.376404,750.341003 784.544922,757.650085 777.702454,760.381287 
	C771.278381,762.945618 763.622253,759.725281 760.557434,753.169861 
	C757.305359,746.213867 760.125061,739.141296 768.222412,734.752563 
z"/>
<path fill="#000000" opacity="1.000000" stroke="none" 
	d="
M252.910065,761.255493 
	C245.122070,760.498962 240.180939,756.493530 238.889175,750.243774 
	C237.683319,744.409668 240.578415,738.259216 245.803238,735.555359 
	C252.939667,731.862244 260.931824,734.370178 264.441559,741.403992 
	C268.000763,748.536865 265.022827,756.848755 257.636810,760.136230 
	C256.302368,760.730286 254.772964,760.886414 252.910065,761.255493 
z"/>
<path fill="#000000" opacity="1.000000" stroke="none" 
	d="
M692.200989,308.076416 
	C693.584717,304.869629 693.183960,301.450165 696.188782,297.754608 
	C697.520691,309.570251 702.724854,317.160675 715.482361,318.162170 
	C703.410828,319.847931 697.244446,326.346375 695.464233,338.153687 
	C693.697693,326.520721 687.570618,319.985992 675.995972,318.660156 
	C681.854187,315.139832 689.722290,316.133453 692.200989,308.076416 
z"/>
<path fill="#000000" opacity="1.000000" stroke="none" 
	d="
M312.705566,317.114014 
	C324.609253,316.530365 328.540649,308.636688 329.948517,297.215759 
	C333.482361,303.048340 332.611847,308.704681 336.310059,312.400635 
	C339.949066,316.037445 345.455811,315.635345 349.911133,318.165802 
	C347.507172,319.540833 332.452484,334.680084 330.644104,337.382721 
	C329.021240,336.378418 328.956726,334.633636 328.645172,333.060455 
	C327.196655,325.746613 323.114502,321.249512 315.494263,320.133545 
	C312.434601,319.685486 312.471344,319.434692 312.705566,317.114014 
z"/>
<path fill="#000000" opacity="1.000000" stroke="none" 
	d="
M702.849121,677.248291 
	C707.150513,678.773926 711.135559,680.104675 716.010071,681.732483 
	C710.708130,684.636047 704.906189,683.918457 701.245239,687.806580 
	C697.721497,691.549011 698.255615,697.155518 695.483948,702.079956 
	C692.791992,697.154663 693.243042,691.632446 689.700989,687.874390 
	C686.211304,684.171997 680.808105,684.686401 675.849487,681.945129 
	C680.582520,679.037109 686.225037,679.729248 689.723450,676.093628 
	C693.200134,672.480591 692.855530,667.116760 695.330078,662.482056 
	C698.799622,667.133667 697.530518,673.703064 702.849121,677.248291 
z"/>
<path fill="#000000" opacity="1.000000" stroke="none" 
	d="
M313.779541,680.485596 
	C322.923706,679.425964 328.062012,674.770081 329.060883,665.829956 
	C329.150452,665.028259 329.567139,664.250183 329.911163,663.497314 
	C330.021210,663.256592 330.387085,663.132751 331.590942,662.274597 
	C332.419830,673.912659 338.237549,680.667175 350.360748,681.328613 
	C345.830322,684.505310 340.257111,684.215454 336.507233,687.701782 
	C332.667389,691.271790 333.694000,697.026550 330.707031,701.628113 
	C327.998535,696.893738 328.431152,691.325012 324.725555,687.726868 
	C321.105896,684.212158 315.886353,684.329407 311.633453,682.669800 
	C311.295258,680.819824 312.510681,680.872314 313.779541,680.485596 
z"/>
<path fill="#000000" opacity="1.000000" stroke="none" 
	d="
M867.311707,414.462799 
	C865.413025,417.778748 863.026917,419.180145 859.879517,416.930634 
	C857.819946,415.458649 857.079834,413.178986 858.273132,410.793579 
	C859.317383,408.706268 861.207153,407.531342 863.582642,408.125885 
	C866.599121,408.880859 867.792480,411.052734 867.311707,414.462799 
z"/>
<path fill="#000000" opacity="1.000000" stroke="none" 
	d="
M843.898193,347.620575 
	C842.127686,351.369965 839.573730,352.818512 836.221008,350.596893 
	C833.619446,348.872986 833.487366,346.202698 835.217041,343.643127 
	C836.336914,341.985992 838.103882,341.413483 840.017456,341.832642 
	C842.857666,342.454773 844.052673,344.429962 843.898193,347.620575 
z"/>
<path fill="#000000" opacity="1.000000" stroke="none" 
	d="
M190.511322,347.513000 
	C189.169174,350.951843 186.970490,352.362335 183.790283,350.982605 
	C181.207779,349.862274 180.127975,347.604370 181.132477,344.872162 
	C182.040009,342.403687 184.102570,341.349274 186.673645,341.806519 
	C189.571823,342.321869 190.759186,344.296173 190.511322,347.513000 
z"/>
<path fill="#000000" opacity="1.000000" stroke="none" 
	d="
M868.271118,559.743164 
	C864.761963,558.380127 863.585205,556.072937 864.716614,552.889465 
	C865.542664,550.565247 867.517700,549.583130 869.892273,549.955688 
	C872.611755,550.382385 873.900940,552.407593 873.820862,554.944397 
	C873.722290,558.069397 871.749939,559.665833 868.271118,559.743164 
z"/>
<path fill="#000000" opacity="1.000000" stroke="none" 
	d="
M403.106934,154.719818 
	C398.459106,152.094757 397.565491,148.576126 400.663391,146.204941 
	C402.334747,144.925674 404.222107,144.482208 406.185059,145.721970 
	C407.855225,146.776855 408.832672,148.237122 408.540375,150.260162 
	C408.124573,153.137817 406.265717,154.503647 403.106934,154.719818 
z"/>
<path fill="#000000" opacity="1.000000" stroke="none" 
	d="
M853.678223,625.627930 
	C851.025940,628.288879 848.501526,628.406189 846.148682,625.947754 
	C844.498962,624.223938 844.240356,622.114319 845.715027,620.111938 
	C847.236694,618.045715 849.361755,617.110107 851.742249,618.359192 
	C854.628967,619.873962 855.626038,622.252197 853.678223,625.627930 
z"/>
<path fill="#000000" opacity="1.000000" stroke="none" 
	d="
M166.848038,414.456543 
	C164.845856,417.613403 162.593445,419.331696 159.382095,416.888947 
	C157.309341,415.312286 156.851517,413.033234 157.999054,410.690186 
	C159.046326,408.551819 160.961166,407.431183 163.293884,408.091736 
	C166.182343,408.909637 167.630936,410.936249 166.848038,414.456543 
z"/>
<path fill="#000000" opacity="1.000000" stroke="none" 
	d="
M848.868408,383.169708 
	C847.071411,380.375214 846.858765,377.915436 849.359680,375.883972 
	C851.033325,374.524506 853.014648,374.301605 854.864563,375.535858 
	C857.239380,377.120239 858.061462,379.476685 856.651062,381.952454 
	C854.851501,385.111328 852.128967,385.446442 848.868408,383.169708 
z"/>
<path fill="#000000" opacity="1.000000" stroke="none" 
	d="
M825.752686,319.044861 
	C822.441467,321.018280 820.015198,320.305511 818.383484,317.358582 
	C817.047546,314.945953 817.980286,312.858582 820.001648,311.294617 
	C821.947327,309.789185 824.100952,309.874512 825.873108,311.500366 
	C828.344238,313.767487 828.466187,316.309174 825.752686,319.044861 
z"/>
<path fill="#000000" opacity="1.000000" stroke="none" 
	d="
M201.978760,310.099365 
	C205.461563,310.941223 207.432892,312.800323 206.651474,316.158539 
	C206.095123,318.549530 204.326004,320.238007 201.634277,320.093353 
	C199.211075,319.963135 197.622375,318.392639 197.206604,316.098633 
	C196.595551,312.727325 198.425644,310.848450 201.978760,310.099365 
z"/>
<path fill="#000000" opacity="1.000000" stroke="none" 
	d="
M745.855103,216.223206 
	C747.861511,219.737137 746.591614,221.971848 743.663086,223.468582 
	C741.389160,224.630737 739.426758,223.822632 737.974365,221.875198 
	C736.491333,219.886642 736.483887,217.759232 738.220520,215.965897 
	C740.588379,213.520752 743.143127,213.457062 745.855103,216.223206 
z"/>
<path fill="#000000" opacity="1.000000" stroke="none" 
	d="
M823.112122,681.018799 
	C825.601013,682.921814 825.835632,685.121582 824.756409,687.411011 
	C823.929871,689.164429 822.301697,690.091736 820.335693,690.044373 
	C818.315735,689.995728 816.955383,688.741150 816.159668,687.019470 
	C815.432373,685.445740 815.511902,683.757629 816.628601,682.342468 
	C818.252930,680.283936 820.330505,679.731506 823.112122,681.018799 
z"/>
<path fill="#000000" opacity="1.000000" stroke="none" 
	d="
M743.369446,781.491455 
	C739.429077,782.383423 737.602478,780.428650 737.090515,777.279480 
	C736.698486,774.868530 738.181274,773.179382 740.471252,772.382751 
	C743.125000,771.459656 745.069214,772.602905 746.280640,774.874817 
	C747.900208,777.912292 746.379944,779.903198 743.369446,781.491455 
z"/>
<path fill="#000000" opacity="1.000000" stroke="none" 
	d="
M167.345062,592.111145 
	C165.209991,594.245789 163.111664,594.865051 160.836426,593.261902 
	C158.858124,591.867981 158.249023,589.843811 158.928253,587.553955 
	C159.502197,585.619080 160.982498,584.566467 162.944778,584.322388 
	C166.818329,583.840454 168.695099,586.883301 167.345062,592.111145 
z"/>
<path fill="#000000" opacity="1.000000" stroke="none" 
	d="
M591.756226,849.218994 
	C594.915588,850.385254 596.537537,852.246094 595.670105,855.366943 
	C595.090454,857.451904 593.462219,858.716675 591.329529,858.852905 
	C588.928650,859.006226 587.088501,857.721863 586.518616,855.419128 
	C585.541321,851.470154 587.663391,849.610718 591.756226,849.218994 
z"/>
<path fill="#000000" opacity="1.000000" stroke="none" 
	d="
M157.815857,449.880371 
	C154.109787,451.749115 151.589325,450.639832 150.336273,447.298004 
	C149.273041,444.462433 150.882187,442.410767 153.476212,441.451660 
	C156.257797,440.423187 158.303787,441.716034 159.510681,444.298950 
	C160.502289,446.421112 159.644806,448.144806 157.815857,449.880371 
z"/>
<path fill="#000000" opacity="1.000000" stroke="none" 
	d="
M438.755676,137.331757 
	C441.199188,140.936523 440.663940,143.696136 437.034180,145.382416 
	C434.480011,146.569016 432.356995,145.353775 431.262787,142.995941 
	C429.924194,140.111328 431.028198,137.813141 433.808777,136.373474 
	C435.483856,135.506180 437.035126,135.992661 438.755676,137.331757 
z"/>
<path fill="#000000" opacity="1.000000" stroke="none" 
	d="
M802.336121,289.872437 
	C798.747009,288.068695 797.747742,285.498108 799.603333,282.393188 
	C800.926514,280.179077 803.221008,279.499847 805.645020,280.740448 
	C808.031738,281.961975 808.788879,284.117401 808.030151,286.600403 
	C807.261108,289.117310 805.390747,290.272705 802.336121,289.872437 
z"/>
<path fill="#000000" opacity="1.000000" stroke="none" 
	d="
M172.891327,374.836487 
	C175.932083,375.818207 177.534424,377.555481 177.090576,380.485840 
	C176.761124,382.660797 175.322403,384.075562 173.116791,384.346039 
	C170.279068,384.694061 168.080322,383.536316 167.543900,380.635162 
	C166.853912,376.903534 168.900436,375.096100 172.891327,374.836487 
z"/>
<path fill="#000000" opacity="1.000000" stroke="none" 
	d="
M874.287537,443.817566 
	C875.603333,447.547791 874.047485,449.594849 870.974854,450.562439 
	C868.614502,451.305725 866.791382,450.189972 865.720398,448.032990 
	C864.641296,445.859558 864.972595,443.713440 866.885986,442.271637 
	C869.562561,440.254669 872.096375,440.719513 874.287537,443.817566 
z"/>
<path fill="#000000" opacity="1.000000" stroke="none" 
	d="
M225.852966,286.419189 
	C224.511566,288.725983 222.997360,290.179047 220.504105,289.636719 
	C218.601715,289.222900 217.273972,287.998169 216.769302,286.090576 
	C216.269043,284.199707 216.696533,282.454285 218.212753,281.166504 
	C219.682327,279.918335 221.399353,279.389709 223.234482,280.356262 
	C225.520447,281.560272 226.579636,283.427307 225.852966,286.419189 
z"/>
<path fill="#000000" opacity="1.000000" stroke="none" 
	d="
M856.025085,589.843384 
	C856.222168,586.435303 857.773621,584.420715 860.866211,584.309631 
	C863.214905,584.225220 864.908264,585.592773 865.470825,588.010803 
	C866.031616,590.421326 865.103394,592.336365 863.009338,593.409302 
	C859.504089,595.205200 857.422913,593.415894 856.025085,589.843384 
z"/>
<path fill="#000000" opacity="1.000000" stroke="none" 
	d="
M155.923019,549.912964 
	C159.565475,550.934692 160.878845,553.143372 160.023483,556.375977 
	C159.402756,558.721924 157.570618,559.952271 155.179077,559.746765 
	C152.523560,559.518677 150.993576,557.725952 150.832840,555.157410 
	C150.635269,552.000183 152.474258,550.328247 155.923019,549.912964 
z"/>
<path fill="#000000" opacity="1.000000" stroke="none" 
	d="
M586.700317,138.937012 
	C588.533997,136.499710 590.615356,135.777588 593.046082,137.014816 
	C595.002991,138.010910 595.930481,139.802399 595.650330,141.989410 
	C595.392456,144.002563 593.999573,145.248352 592.161316,145.867722 
	C588.497375,147.102280 585.969727,144.115646 586.700317,138.937012 
z"/>
<path fill="#000000" opacity="1.000000" stroke="none" 
	d="
M684.536499,811.462646 
	C688.316895,810.833923 690.368530,812.373352 690.595764,815.745117 
	C690.786377,818.575256 689.070251,820.528870 686.325928,820.895935 
	C683.710510,821.245667 681.966370,819.551758 681.271484,817.125610 
	C680.517334,814.492554 681.918396,812.756470 684.536499,811.462646 
z"/>
<path fill="#000000" opacity="1.000000" stroke="none" 
	d="
M718.655884,800.242432 
	C716.034668,803.308167 713.356873,803.876526 710.825806,800.973694 
	C708.890991,798.754700 709.315247,796.254944 711.416016,794.296204 
	C713.460022,792.390442 715.730042,792.787231 717.729004,794.456299 
	C719.472168,795.911865 719.637512,797.851440 718.655884,800.242432 
z"/>
<path fill="#000000" opacity="1.000000" stroke="none" 
	d="
M205.589081,680.539795 
	C209.006454,682.112915 210.158173,684.477844 208.601013,687.545105 
	C207.540009,689.635132 205.492661,690.644836 203.126617,689.814392 
	C200.644485,688.943115 199.414917,686.976868 199.828094,684.351013 
	C200.297104,681.370422 202.357590,680.274841 205.589081,680.539795 
z"/>
<path fill="#000000" opacity="1.000000" stroke="none" 
	d="
M803.287598,718.372009 
	C799.757629,719.126221 797.682251,717.804504 797.047119,714.718079 
	C796.559082,712.346497 797.671082,710.511902 799.995789,709.608765 
	C802.513794,708.630493 804.750244,709.210083 805.929199,711.625061 
	C807.275879,714.383484 806.560303,716.795044 803.287598,718.372009 
z"/>
<path fill="#000000" opacity="1.000000" stroke="none" 
	d="
M279.291473,215.757965 
	C281.166443,213.305771 283.261810,212.678894 285.641144,213.992508 
	C287.333252,214.926712 288.320587,216.491241 288.176300,218.521713 
	C288.033783,220.527512 286.926453,221.945923 285.109955,222.714279 
	C281.374512,224.294312 278.605530,221.232361 279.291473,215.757965 
z"/>
<path fill="#000000" opacity="1.000000" stroke="none" 
	d="
M436.373352,849.411865 
	C439.244019,850.994934 440.215729,853.091858 439.146423,855.843201 
	C438.418396,857.716309 436.819946,858.688293 434.850983,858.736572 
	C432.613525,858.791443 431.079437,857.546326 430.272095,855.518982 
	C428.936676,852.165405 431.302155,849.622986 436.373352,849.411865 
z"/>
<path fill="#000000" opacity="1.000000" stroke="none" 
	d="
M623.965576,839.899536 
	C627.700439,840.864868 628.952393,843.130554 628.104736,846.372437 
	C627.479248,848.764771 625.591064,849.894775 623.173828,849.628662 
	C620.716858,849.358154 619.265625,847.635437 619.018433,845.310486 
	C618.679932,842.125366 620.494934,840.394348 623.965576,839.899536 
z"/>
<path fill="#000000" opacity="1.000000" stroke="none" 
	d="
M311.853455,802.737671 
	C306.885559,801.266663 305.247040,798.466858 307.226959,795.421448 
	C308.296143,793.776917 309.859344,792.899536 311.868866,793.224548 
	C314.047546,793.576965 315.529755,794.913452 315.919403,797.048279 
	C316.452759,799.970398 314.838104,801.702454 311.853455,802.737671 
z"/>
<path fill="#000000" opacity="1.000000" stroke="none" 
	d="
M655.779785,158.827713 
	C658.908142,159.834610 660.205811,161.727310 659.537048,164.591843 
	C658.991638,166.927795 657.405212,168.250076 654.915955,168.269348 
	C652.618530,168.287140 651.000977,167.031631 650.553162,164.954697 
	C649.740295,161.184341 651.291992,158.894379 655.779785,158.827713 
z"/>
<path fill="#000000" opacity="1.000000" stroke="none" 
	d="
M839.156616,650.443237 
	C842.427185,654.686768 841.859497,658.276367 838.081848,659.161011 
	C836.021301,659.643555 834.141663,659.166138 832.820068,657.368591 
	C831.653564,655.781982 831.352905,654.038330 832.454895,652.315002 
	C833.983398,649.924744 836.129700,649.173584 839.156616,650.443237 
z"/>
<path fill="#000000" opacity="1.000000" stroke="none" 
	d="
M627.833191,152.378922 
	C626.309509,154.946762 624.395996,156.108368 621.815674,155.281296 
	C619.708862,154.606018 618.681885,152.888992 618.638000,150.702972 
	C618.597290,148.675751 619.678345,147.239258 621.445007,146.369812 
	C624.933899,144.652802 627.793945,147.138245 627.833191,152.378922 
z"/>
<path fill="#000000" opacity="1.000000" stroke="none" 
	d="
M337.359985,175.817947 
	C339.249084,173.322586 341.487488,173.044983 343.774200,174.082184 
	C345.547516,174.886536 346.374603,176.578476 346.244598,178.580643 
	C346.113342,180.602737 344.953949,181.957520 343.159607,182.718750 
	C339.448944,184.292969 336.665344,181.226242 337.359985,175.817947 
z"/>
<path fill="#000000" opacity="1.000000" stroke="none" 
	d="
M316.412781,196.152527 
	C316.348450,199.844040 314.565063,201.403503 311.339264,201.269333 
	C308.833679,201.165115 307.259888,199.655396 306.909454,197.282043 
	C306.510773,194.581863 308.049713,192.698456 310.539062,192.047180 
	C313.602051,191.245804 315.723969,192.519653 316.412781,196.152527 
z"/>
<path fill="#000000" opacity="1.000000" stroke="none" 
	d="
M173.442917,618.203369 
	C177.293777,617.814026 179.119629,619.502197 179.247131,622.906799 
	C179.350784,625.674438 177.700943,627.221558 175.116638,627.573059 
	C172.372635,627.946289 170.743011,626.302124 170.058197,623.852112 
	C169.307388,621.165955 170.773895,619.472717 173.442917,618.203369 
z"/>
<path fill="#000000" opacity="1.000000" stroke="none" 
	d="
M286.599335,773.523438 
	C288.886200,776.326904 288.618988,778.712463 286.181458,780.709412 
	C284.300751,782.250366 282.179993,782.260010 280.323212,780.615906 
	C278.320618,778.842529 277.985229,776.552307 279.473969,774.396301 
	C281.244598,771.832031 283.660583,771.389771 286.599335,773.523438 
z"/>
<path fill="#000000" opacity="1.000000" stroke="none" 
	d="
M342.394958,820.463257 
	C338.560608,821.470764 336.509308,819.857971 335.882233,816.611389 
	C335.416504,814.199951 336.711365,812.376404 339.070770,811.651672 
	C341.704010,810.842896 343.717316,812.001221 344.799072,814.362183 
	C345.928802,816.827881 345.083496,818.886780 342.394958,820.463257 
z"/>
<path fill="#000000" opacity="1.000000" stroke="none" 
	d="
M373.113159,836.048950 
	C369.404419,837.124451 367.150787,835.867065 366.419159,832.499756 
	C365.831146,829.793457 367.350739,827.914978 369.840302,827.189941 
	C372.492096,826.417664 374.395325,827.829285 375.374146,830.233948 
	C376.319611,832.556580 375.360718,834.438354 373.113159,836.048950 
z"/>
<path fill="#000000" opacity="1.000000" stroke="none" 
	d="
M659.778687,829.517151 
	C660.731873,833.136902 659.599976,835.435242 656.350220,836.348267 
	C653.925659,837.029480 652.150818,835.882324 651.196594,833.637634 
	C650.237061,831.380554 650.844299,829.358154 652.768860,827.931824 
	C655.385010,825.992859 657.691467,826.650635 659.778687,829.517151 
z"/>
<path fill="#000000" opacity="1.000000" stroke="none" 
	d="
M397.890594,845.656860 
	C397.751404,842.102051 399.403625,840.200562 402.433929,839.954102 
	C404.814453,839.760559 406.513794,841.272461 407.098175,843.582703 
	C407.693878,845.937866 406.725311,847.956482 404.597900,848.964966 
	C401.452026,850.456177 399.203491,849.222778 397.890594,845.656860 
z"/>
<path fill="#000000" opacity="1.000000" stroke="none" 
	d="
M688.816284,176.099121 
	C691.005310,179.084930 690.470337,181.460098 687.953064,183.327408 
	C685.881226,184.864273 683.774170,184.288376 682.096008,182.589447 
	C680.383057,180.855286 680.084900,178.606003 681.496643,176.658768 
	C683.392273,174.044281 685.935608,174.112656 688.816284,176.099121 
z"/>
<path fill="#000000" opacity="1.000000" stroke="none" 
	d="
M185.606079,658.569580 
	C182.856537,655.551453 182.904099,652.805542 185.889145,650.643677 
	C188.374695,648.843628 190.657776,649.874023 192.328308,652.177551 
	C193.546127,653.856750 193.328705,655.645935 192.148270,657.279602 
	C190.532700,659.515686 188.367935,659.733398 185.606079,658.569580 
z"/>
<path fill="#000000" opacity="1.000000" stroke="none" 
	d="
M714.867432,202.218307 
	C711.304260,201.999008 709.668701,200.302505 709.703186,197.132126 
	C709.728027,194.851868 710.999573,193.422211 713.147400,192.913391 
	C715.494019,192.357483 717.520325,193.148621 718.546509,195.327988 
	C720.171753,198.779526 718.626465,200.968246 714.867432,202.218307 
z"/>
<path fill="#000000" opacity="1.000000" stroke="none" 
	d="
M373.666626,167.032867 
	C369.831787,167.383118 367.828125,165.789902 367.812256,162.340973 
	C367.799835,159.645554 369.546844,158.123169 372.161377,157.822647 
	C374.428131,157.562119 376.040253,158.802124 376.792664,160.806229 
	C377.844727,163.608368 376.485718,165.557724 373.666626,167.032867 
z"/>
<path fill="#000000" opacity="1.000000" stroke="none" 
	d="
M226.474838,717.388916 
	C223.499802,719.529724 221.112411,719.099731 219.350662,716.418579 
	C218.140579,714.577026 218.324966,712.506836 219.881760,710.899963 
	C221.600388,709.126160 223.898590,708.938965 225.816040,710.265076 
	C228.390930,712.045898 228.871948,714.504395 226.474838,717.388916 
z"/>
</svg>