<svg version="1.1" id="Layer_1" xmlns="http://www.w3.org/2000/svg" xmlns:xlink="http://www.w3.org/1999/xlink" x="0px" y="0px"
	 width="100%" viewBox="0 0 864 1024" enable-background="new 0 0 864 1024" xml:space="preserve">
<path fill="currentColor" opacity="1.000000" stroke="none" 
	d="
M865.000000,547.531372 
	C856.301147,550.358337 847.421631,549.055237 838.643433,549.013000 
	C833.465454,548.988159 831.207642,550.266296 829.910767,555.682983 
	C824.651550,577.648376 806.757874,591.299011 784.067200,591.384460 
	C772.234070,591.429016 760.400696,591.420654 748.567505,591.392273 
	C740.638123,591.373291 738.432861,589.496704 738.184082,581.483276 
	C737.884277,571.825806 738.062988,562.153198 738.056091,552.487122 
	C738.049194,542.820557 737.922607,533.150635 738.145447,523.489014 
	C738.240906,519.352478 737.311829,517.430054 732.617493,517.766235 
	C727.494141,518.132996 722.299988,517.668335 717.145935,517.393127 
	C713.760010,517.212341 712.292664,518.472046 712.358887,521.983337 
	C712.707520,540.474915 711.966125,558.974609 712.789001,577.466797 
	C712.943787,580.943970 712.551208,584.449402 712.343140,587.937744 
	C712.109619,591.854309 709.460144,593.433105 706.046631,593.827393 
	C702.703796,594.213623 700.229553,592.615906 698.915161,589.514343 
	C697.989258,587.329529 698.019470,584.965576 698.021484,582.621033 
	C698.038513,562.954651 697.936218,543.287354 698.112061,523.622559 
	C698.153625,518.980652 697.140320,517.204346 691.919739,517.628723 
	C684.817017,518.206116 677.613647,517.489746 670.452515,517.419495 
	C664.295166,517.359070 664.097778,517.607239 664.104919,523.946167 
	C664.126221,542.779175 664.167969,561.612244 664.178955,580.445251 
	C664.184448,589.868103 662.636414,591.391113 653.081726,591.391113 
	C628.248596,591.391113 603.415466,591.393616 578.582397,591.350647 
	C570.816345,591.337219 568.808960,589.341370 568.717224,581.611633 
	C568.640991,575.185608 568.701599,568.757935 568.701599,561.135010 
	C552.915466,574.380371 539.303894,587.519958 534.273987,607.169495 
	C532.447632,614.304138 531.316345,621.501526 531.325134,628.874146 
	C531.342224,643.207336 531.309570,657.540710 531.371704,671.873657 
	C531.379211,673.609619 530.722961,675.533325 532.086914,677.029175 
	C533.158264,677.263184 533.767273,676.684448 534.380615,676.126831 
	C542.466370,668.775818 551.663330,663.138184 561.462708,658.387817 
	C581.677979,648.588257 594.277893,632.238953 601.501160,611.378540 
	C602.530090,608.407043 603.670654,605.715454 606.946350,604.785767 
	C612.313843,603.262451 616.796875,607.939636 615.745850,614.128113 
	C614.844910,619.433167 612.576721,624.307251 610.098572,629.025391 
	C605.823120,637.165466 600.709351,644.753784 594.489624,651.567627 
	C592.957520,653.246155 591.555420,655.043274 590.041748,656.847595 
	C591.860413,658.298096 593.580933,657.859863 595.170410,657.863586 
	C611.170166,657.901428 627.170654,657.811218 643.169495,657.941162 
	C646.927246,657.971741 649.759644,656.927124 652.430237,654.154907 
	C655.168701,651.312195 658.594421,649.131470 662.375610,646.142151 
	C654.950012,638.357544 652.982605,628.954712 655.597168,618.633484 
	C657.122498,612.612366 660.532104,607.762207 665.592529,604.112183 
	C675.711365,596.813538 689.867249,597.455811 698.620300,606.367920 
	C707.619019,615.530029 713.062866,627.846497 699.892578,646.525574 
	C704.254333,649.659790 708.653076,652.858093 712.371338,656.831299 
	C712.867981,657.362000 713.859314,657.608093 714.644592,657.664307 
	C738.469727,659.367981 760.830933,655.835693 779.857056,639.811462 
	C783.585083,636.671631 786.117249,633.079468 787.573730,628.475586 
	C789.491516,622.413208 792.235168,616.696838 795.967102,611.521057 
	C805.226135,598.680176 818.326904,593.003601 833.639954,591.838623 
	C839.607849,591.384644 845.631653,591.456360 851.573792,592.631226 
	C857.105713,593.724976 859.352295,596.884094 857.803345,602.344910 
	C851.277527,625.351440 835.455017,642.952515 809.366577,645.845947 
	C808.869812,645.901001 808.326782,646.113342 807.882751,645.984802 
	C798.177246,643.174438 791.573853,648.585632 785.001587,654.391174 
	C782.436096,656.657288 779.447083,658.444092 776.690552,660.420898 
	C777.641602,662.602844 779.499878,662.773743 780.910095,663.483643 
	C796.021729,671.091614 805.017395,683.569824 809.637878,699.500549 
	C811.503418,705.932556 809.650085,708.848694 803.074158,710.245911 
	C774.222168,716.375916 749.352478,703.577271 739.170654,677.802002 
	C737.791626,674.310974 735.742737,673.110779 732.040588,673.133057 
	C721.694885,673.195251 721.703796,673.045044 722.259766,682.990906 
	C722.362000,684.820007 722.428467,686.657898 722.375244,688.487732 
	C722.194458,694.705994 719.712341,697.092651 713.469299,697.407532 
	C698.172119,698.178955 682.871643,697.970764 666.700562,697.216736 
	C671.072693,703.049622 674.951355,707.022400 682.387878,706.847351 
	C699.975708,706.433228 715.168823,712.239441 726.134216,726.662354 
	C731.853943,734.185364 735.503662,742.802612 737.328552,752.054626 
	C738.550598,758.250427 736.588501,760.794861 730.349487,761.606079 
	C709.203247,764.355591 678.505066,756.865723 668.942749,725.821045 
	C667.318909,720.549194 664.588989,716.109192 660.492859,712.513550 
	C654.188660,706.979675 650.105347,699.303955 642.248840,695.103210 
	C638.498535,693.098022 638.620911,687.899841 639.051636,683.634888 
	C639.367432,680.507202 639.820129,677.393311 640.202820,674.344971 
	C638.364014,672.571350 636.253296,673.220337 634.363708,673.213684 
	C615.697388,673.147644 597.030579,673.099548 578.364441,673.178101 
	C551.887329,673.289612 531.806030,692.892517 531.425964,719.486816 
	C531.092529,742.815125 530.994507,766.159180 531.447510,789.483521 
	C532.206726,828.573242 556.047791,859.845642 592.275452,870.023865 
	C604.035095,873.327820 616.287842,873.608215 628.253662,875.652039 
	C652.609253,879.812012 674.206421,890.012024 693.271606,905.657837 
	C694.167419,906.392883 695.019043,907.227966 695.718323,908.147949 
	C698.212402,911.429260 698.795654,914.855042 695.753906,918.091797 
	C692.859741,921.171326 689.471985,920.928894 686.264526,918.671204 
	C681.090637,915.029175 676.161133,911.034485 670.933350,907.475403 
	C652.620789,895.007935 631.897339,889.995789 610.178589,888.363342 
	C560.416443,884.622925 522.800598,848.206604 517.525085,798.728821 
	C516.957275,793.403503 516.722961,788.105225 516.722534,782.777222 
	C516.718201,733.277649 517.280396,683.769897 516.543274,634.281433 
	C516.058105,601.713257 528.207458,575.756348 552.706482,555.002502 
	C554.460693,553.516479 556.110474,551.907288 557.493286,549.181885 
	C553.419312,549.181885 549.343506,549.261414 545.271851,549.163330 
	C539.096375,549.014587 535.935120,546.101562 535.833374,539.960266 
	C535.577698,524.515503 540.699524,511.429596 553.805725,502.468536 
	C557.679626,499.819855 557.616699,498.061859 555.187805,494.272064 
	C543.621765,476.225800 554.983032,452.611176 575.424683,451.715210 
	C585.894226,451.256348 593.985962,455.823090 599.310913,464.503204 
	C605.098694,473.938049 604.671021,483.832886 599.299805,493.492523 
	C598.414734,495.084290 597.461914,496.638275 596.558533,498.220062 
	C596.490784,498.338562 596.569214,498.540527 596.583557,498.764160 
	C597.011108,500.126282 598.316895,500.670349 599.387817,501.406799 
	C612.303711,510.288177 617.435669,523.224670 618.235474,538.223572 
	C618.670166,546.375793 615.794312,549.108765 607.716125,549.167908 
	C601.049866,549.216675 594.381653,549.264099 587.717102,549.150635 
	C584.586609,549.097412 583.175598,550.151917 583.280640,553.492981 
	C583.474243,559.653748 583.414978,565.825378 583.333740,571.990784 
	C583.286133,575.603943 584.918701,577.039246 588.492249,577.027283 
	C607.325073,576.964233 626.158386,576.977051 644.991211,577.046753 
	C648.311523,577.059021 649.769348,575.899658 649.746460,572.369812 
	C649.638489,555.704163 649.672791,539.036987 649.764526,522.370972 
	C649.782166,519.163879 648.498291,517.880371 645.330933,517.869812 
	C641.336792,517.856506 637.339294,517.611755 633.351196,517.347656 
	C628.840393,517.048950 625.757446,514.186523 625.870911,510.253876 
	C625.997375,505.871216 628.648193,503.516296 632.809570,503.171173 
	C636.950928,502.827698 641.132690,502.840302 645.293518,502.905762 
	C648.412903,502.954834 649.789917,501.835907 649.776306,498.536713 
	C649.687134,476.870636 649.643494,455.203491 649.785767,433.538025 
	C649.816589,428.840027 646.955627,429.106934 643.852539,429.108246 
	C619.852722,429.118286 595.852966,429.119934 571.853149,429.106384 
	C562.076050,429.100861 559.723999,426.811127 559.624634,417.098999 
	C559.554749,410.266418 559.476990,403.429199 559.654053,396.600586 
	C559.760925,392.478485 558.015198,390.862732 553.996216,391.030273 
	C549.836182,391.203735 545.663452,391.167755 541.498535,391.095856 
	C539.013611,391.052948 537.038147,391.828735 535.240417,393.593750 
	C516.928528,411.572906 498.662689,429.600647 480.197205,447.421234 
	C461.621368,465.348358 454.241791,487.746429 454.185669,512.829834 
	C454.028687,582.995483 454.181671,653.161804 454.212189,723.327820 
	C454.212921,724.994507 454.217163,726.661133 454.209991,728.327820 
	C454.175842,736.266479 452.802765,738.157837 447.020721,738.241089 
	C441.233948,738.324341 439.677307,736.315002 439.677429,728.523438 
	C439.678589,656.857422 439.735382,585.191284 439.675049,513.525330 
	C439.659943,495.555206 435.732635,478.526672 426.456543,462.916199 
	C424.228424,459.166534 421.753723,455.632416 418.685364,452.544708 
	C398.836243,432.570770 377.870697,413.719543 358.781799,392.982056 
	C357.398468,391.479248 355.711761,391.114960 353.822998,391.116211 
	C348.823151,391.119476 343.820374,391.222778 338.824493,391.082275 
	C335.340210,390.984314 334.151886,392.494232 334.225891,395.885651 
	C334.389435,403.382080 334.296295,410.884430 334.284302,418.384308 
	C334.270599,426.941315 332.158783,429.118896 323.740082,429.127472 
	C299.406952,429.152283 275.073853,429.137177 250.740723,429.155212 
	C244.007874,429.160217 243.990677,429.188202 243.990585,435.760498 
	C243.990341,456.093597 244.139511,476.428192 243.915146,496.758728 
	C243.861038,501.662445 245.546860,503.254578 250.270416,502.964691 
	C253.897797,502.742065 257.604889,503.042725 261.217163,503.541199 
	C266.010498,504.202606 268.440521,507.073090 267.941345,511.172974 
	C267.397400,515.640198 264.380188,517.297119 260.227173,517.352783 
	C256.061249,517.408569 251.892990,517.469238 247.728439,517.388855 
	C244.791000,517.332092 243.610260,518.417786 243.649185,521.531250 
	C243.855453,538.027039 244.012024,554.526367 243.873596,571.021790 
	C243.834961,575.626099 245.383301,577.098816 249.937866,577.054626 
	C268.269104,576.876648 286.604340,576.908813 304.935699,577.097351 
	C309.225494,577.141418 310.964142,575.844971 310.725128,571.390137 
	C310.413025,565.573303 310.548340,559.725769 310.667053,553.895020 
	C310.736176,550.501282 309.361847,549.074829 305.933044,549.136963 
	C298.935455,549.263794 291.933197,549.247864 284.934418,549.162354 
	C278.339172,549.081726 275.810760,546.659241 275.745972,540.077209 
	C275.594055,524.648804 280.882263,511.583862 293.597198,502.359497 
	C297.477478,499.544464 297.696167,497.670685 295.198090,493.715363 
	C284.100037,476.143433 294.667206,453.557068 314.587219,451.731720 
	C325.571777,450.725189 333.890656,455.583099 339.433136,464.485199 
	C345.260681,473.845093 345.298462,484.023407 339.111298,493.290497 
	C336.237976,497.594147 336.791809,499.432861 340.743103,502.306000 
	C352.843292,511.104645 357.758514,523.726074 358.199219,538.251404 
	C358.447754,546.443481 355.651794,549.072327 347.551208,549.184265 
	C344.235107,549.230103 340.917877,549.191833 337.116943,549.191833 
	C338.357269,553.626465 341.699249,555.663269 344.416199,558.078857 
	C354.233307,566.807129 362.468597,576.697144 368.255463,588.592468 
	C374.043549,600.490417 377.028412,613.021179 377.046875,626.197754 
	C377.121552,679.530457 377.389893,732.865601 376.998047,786.195496 
	C376.707031,825.802246 359.901062,856.437317 325.060242,876.340942 
	C312.404541,883.570801 298.553558,887.481567 284.101959,888.137512 
	C256.446045,889.392761 232.194229,898.984741 210.711609,916.140747 
	C209.286270,917.278992 207.793488,918.370972 206.206528,919.260498 
	C203.154053,920.971619 200.395660,920.300842 198.129669,917.740540 
	C195.930435,915.255798 195.344711,912.496399 197.091354,909.473633 
	C198.813461,906.493347 201.546631,904.506775 204.220963,902.558716 
	C223.181046,888.747375 243.596298,878.162048 267.232788,875.159546 
	C279.602325,873.588318 292.117004,873.128296 304.177734,869.466003 
	C335.871368,859.841919 359.670502,829.979980 361.826843,796.846619 
	C363.527863,770.709473 362.854401,744.528076 362.380463,718.389587 
	C361.908722,692.372986 341.382172,673.260864 315.354584,673.166931 
	C296.688416,673.099487 278.021667,673.174072 259.355194,673.203430 
	C257.720367,673.205994 256.085724,673.343506 253.923782,673.442444 
	C254.143768,676.662170 254.248016,679.594421 254.562164,682.503967 
	C255.293274,689.275085 252.941986,693.373230 247.342285,698.318298 
	C238.735916,705.918579 229.501068,713.817017 225.351700,725.588440 
	C216.157181,751.672546 191.329941,766.102234 164.158524,761.582520 
	C156.784927,760.356079 154.733124,757.264099 156.563995,750.138062 
	C162.739609,726.101440 178.720764,710.562866 200.730972,707.352417 
	C204.014252,706.873535 207.452713,706.367004 210.682373,706.829712 
	C218.403534,707.936035 222.504669,703.177063 227.071259,697.914551 
	C213.592331,697.914551 200.643250,697.933105 187.694290,697.898376 
	C185.199829,697.891663 182.690170,697.813232 180.214935,697.529175 
	C174.433228,696.865723 172.048218,694.286804 171.604294,688.488708 
	C171.233627,683.647461 172.230453,678.907410 172.959473,673.754150 
	C168.173218,672.719299 163.568405,673.211975 158.999512,673.411316 
	C156.555252,673.517944 155.961334,675.602478 155.194809,677.495544 
	C143.630981,706.054443 119.811821,714.841431 91.430511,710.369934 
	C84.048164,709.206848 82.349548,705.915344 84.549515,698.600708 
	C89.731544,681.370972 100.186615,668.668640 117.719101,661.128296 
	C113.114799,657.637390 108.734802,654.776001 104.914536,651.299561 
	C100.493393,647.276306 95.983543,645.897278 89.745132,645.936523 
	C70.008553,646.060608 54.496819,637.457031 43.947617,620.483521 
	C40.673222,615.215088 38.452984,609.442261 36.225212,603.707520 
	C33.819607,597.515015 36.006664,593.210327 42.598087,592.412415 
	C69.048851,589.210693 95.894783,595.504517 105.714546,627.277222 
	C107.452179,632.899475 110.662056,637.232422 115.263901,640.930542 
	C128.902390,651.890503 144.373322,657.458801 161.821655,657.678650 
	C162.488235,657.687073 163.170120,657.593323 163.819366,657.701050 
	C175.976105,659.718811 185.908371,655.820740 193.766693,645.793091 
	C188.010330,639.077271 185.043045,630.874451 186.944199,621.400146 
	C188.226852,615.008118 191.158768,609.452515 196.217865,605.233704 
	C205.809921,597.234802 220.518555,597.558777 230.295151,605.880920 
	C241.771896,615.650269 242.409088,628.728821 232.018616,646.718750 
	C236.358200,649.634644 240.700760,652.679138 244.240952,656.678345 
	C244.814240,657.325989 246.018738,657.713562 246.933044,657.716370 
	C265.728302,657.775146 284.523743,657.760620 303.492188,657.760620 
	C303.212280,655.288330 301.399261,654.425964 300.221771,653.182190 
	C290.082062,642.471802 282.638916,630.201904 278.414154,616.028198 
	C277.685944,613.585083 277.201385,611.086670 278.307678,608.701294 
	C279.607666,605.898132 282.083069,604.473206 285.084839,604.262878 
	C287.845490,604.069519 290.012634,605.497314 291.129517,607.926208 
	C292.725922,611.397827 293.933624,615.046082 295.377289,618.590393 
	C302.231293,635.417603 313.395752,648.504761 329.555786,656.954956 
	C340.928711,662.901978 352.407837,668.584900 361.081787,678.629211 
	C362.521790,676.792480 361.991364,675.070312 361.996521,673.514587 
	C362.050659,657.181885 362.099640,640.848450 361.991730,624.516235 
	C361.869141,605.962585 355.022675,590.117859 342.152618,576.867249 
	C337.102356,571.667603 331.954254,566.541077 325.294281,561.302307 
	C325.294281,569.033569 325.337524,575.630188 325.282684,582.225952 
	C325.222260,589.492004 323.372650,591.339417 316.015533,591.350525 
	C290.349152,591.389160 264.682678,591.397949 239.016296,591.375061 
	C231.650894,591.368530 229.652908,589.867371 229.560684,582.360596 
	C229.329605,563.550598 229.581421,544.734863 229.616547,525.921387 
	C229.631500,517.910095 229.605057,517.953186 221.770706,517.886353 
	C214.775253,517.826660 207.764130,517.907227 200.791962,517.443726 
	C196.517838,517.159607 195.278030,518.618164 195.308777,522.758667 
	C195.464706,543.757324 195.413666,564.757812 195.379684,585.757507 
	C195.369507,592.041992 191.148560,595.232056 185.701294,593.242859 
	C182.152847,591.947144 181.224243,588.928101 180.992905,585.676453 
	C180.756882,582.358826 180.880676,579.014282 180.878220,575.681519 
	C180.865417,558.348328 180.752457,541.013977 180.934006,523.682739 
	C180.979218,519.366699 179.628769,517.648682 175.216675,517.835571 
	C170.402039,518.039551 165.538513,517.924255 160.742004,517.467773 
	C156.610764,517.074585 155.153168,518.308411 155.194946,522.604858 
	C155.386124,542.269592 155.303146,561.937012 155.291580,581.603516 
	C155.286865,589.642761 153.605438,591.366760 145.681747,591.391479 
	C133.681976,591.428955 121.681923,591.426514 109.682114,591.394470 
	C87.777786,591.335999 71.954201,579.891235 64.926170,559.069580 
	C61.597603,549.208191 61.597588,549.208008 51.129997,549.189636 
	C45.796730,549.180298 40.460987,549.270264 35.130878,549.136047 
	C29.531805,548.995117 26.990938,546.433899 26.688137,540.786072 
	C25.822962,524.648987 31.364725,511.425995 44.574886,501.720490 
	C45.645626,500.933838 46.678165,500.094788 47.718353,499.267395 
	C47.840019,499.170624 47.896900,498.992462 48.356506,498.250031 
	C42.208729,489.510193 38.518349,479.822968 42.764614,468.727081 
	C44.927929,463.074158 48.580452,458.653503 53.613182,455.385468 
	C63.389565,449.037048 75.952774,450.016113 84.635147,457.727264 
	C95.649529,467.509552 96.579735,479.829712 87.649422,498.045380 
	C88.004776,499.917572 89.783012,500.466888 91.066772,501.398071 
	C104.914307,511.442749 109.789116,525.514587 109.227966,541.956360 
	C109.063759,546.767883 106.547203,549.008179 101.432709,549.138733 
	C95.436714,549.291748 89.433777,549.156860 83.434082,549.189941 
	C81.639099,549.199829 79.844917,549.354187 77.417313,549.473450 
	C78.643196,556.698425 81.538315,562.515076 86.260422,567.324524 
	C92.208565,573.382629 99.437233,576.881348 108.078560,576.941467 
	C117.244698,577.005249 126.413437,576.883362 135.576859,577.059570 
	C139.345642,577.132019 140.966599,575.935303 140.928909,571.918152 
	C140.775635,555.586426 140.801483,539.251892 140.917786,522.919556 
	C140.943588,519.294495 139.656631,517.776917 135.974487,517.854431 
	C132.153320,517.934937 128.316620,517.672668 124.498543,517.396667 
	C120.617561,517.116028 118.238861,514.804077 118.016258,511.037445 
	C117.784599,507.117523 119.855957,504.270752 123.820343,503.426361 
	C126.070679,502.947052 128.449142,502.942535 130.770081,502.940521 
	C161.269775,502.914062 191.769531,502.930298 222.269257,502.925781 
	C229.555298,502.924713 229.561859,502.907776 229.580276,495.414917 
	C229.595016,489.415009 229.639404,483.414581 229.582825,477.415222 
	C229.521469,470.909393 229.477127,470.915192 222.747055,470.920471 
	C207.413879,470.932495 192.080658,470.963165 176.747513,470.941895 
	C149.964706,470.904755 134.047089,458.893646 126.886955,433.107361 
	C126.037376,430.047760 124.503883,429.102173 121.604118,429.173157 
	C107.083054,429.528595 92.609634,429.144318 78.381287,425.781006 
	C76.030739,425.225311 74.862885,426.148529 74.584747,428.395355 
	C74.421333,429.715485 74.501854,431.068451 74.304008,432.381226 
	C73.691330,436.446625 71.713974,439.351746 67.222626,439.285797 
	C62.977032,439.223450 61.031940,436.484344 60.618382,432.539124 
	C59.903828,425.722565 59.197849,418.862122 63.312946,412.726715 
	C64.500603,410.955994 63.807785,409.640656 62.894852,408.169006 
	C57.216354,399.015411 54.980679,388.825867 53.970722,378.276794 
	C52.965576,367.777863 56.816719,364.254700 66.984619,366.631775 
	C84.053223,370.622162 99.215355,377.539001 107.895554,394.079285 
	C110.550613,399.138550 112.458000,404.507843 113.225128,410.121796 
	C114.112244,416.613831 118.842926,414.377563 122.427307,414.612549 
	C126.432617,414.875092 125.763115,411.733398 125.766457,409.348175 
	C125.790031,392.515076 125.663361,375.681091 125.811127,358.849365 
	C125.847038,354.758545 124.502670,353.190552 120.343193,353.341949 
	C113.685829,353.584229 107.011581,353.452606 100.346199,353.357452 
	C94.312286,353.271332 91.981682,350.899445 91.760574,344.813141 
	C91.136551,327.635712 97.437363,313.967468 112.194710,304.599274 
	C112.614868,304.332581 113.034241,304.047638 113.392540,303.706665 
	C113.618538,303.491608 113.730057,303.156281 113.889053,302.872681 
	C103.604774,285.574097 104.153236,272.836304 115.613464,262.732361 
	C125.367912,254.132309 139.022812,253.905777 149.537552,262.169556 
	C161.401535,271.493713 162.508118,284.500122 152.929779,302.529510 
	C153.503769,304.646729 155.519577,305.429199 157.044907,306.610931 
	C169.832825,316.518280 174.951370,329.798798 174.239441,345.616058 
	C173.994598,351.055908 171.595154,353.253540 165.925766,353.334717 
	C159.093887,353.432556 152.256866,353.475677 145.427460,353.314240 
	C141.933487,353.231659 140.237457,354.241516 140.257645,358.086365 
	C140.372162,379.918793 140.028214,401.757416 140.419174,423.583527 
	C140.754501,442.303436 154.832870,455.788208 173.523239,455.946747 
	C190.355270,456.089539 207.190475,455.902985 224.021423,456.102173 
	C228.144394,456.150970 229.535034,454.990234 229.252869,450.712769 
	C228.903564,445.417358 229.367584,440.063446 229.569275,434.738159 
	C229.718124,430.808594 228.209946,428.848083 224.000977,429.110107 
	C220.349167,429.337494 216.668777,429.214844 213.004730,429.112915 
	C206.379898,428.928589 203.626617,426.165253 203.608704,419.524628 
	C203.557037,400.368469 203.588806,381.212067 203.573563,362.055786 
	C203.568665,355.898438 203.477844,349.740967 203.505753,343.583893 
	C203.523041,339.766052 202.146088,337.604858 197.908890,337.848999 
	C195.601685,337.981934 193.252838,337.662903 190.941376,337.390106 
	C187.036041,336.929169 185.028091,334.470062 184.743912,330.720062 
	C184.451630,326.863312 186.413803,323.939941 190.116562,323.399933 
	C197.203903,322.366272 204.459198,322.163025 211.502396,323.432587 
	C216.749924,324.378540 218.203552,328.748627 218.190704,333.747070 
	C218.136246,354.913391 218.168335,376.079926 218.168915,397.246399 
	C218.169022,401.579681 218.263428,405.915619 218.138687,410.245300 
	C218.048996,413.357727 219.145264,414.759491 222.465607,414.751526 
	C253.298431,414.677795 284.131592,414.683289 314.964478,414.741974 
	C318.294495,414.748322 319.913696,413.563904 319.840729,410.096008 
	C319.739075,405.265289 319.757935,400.428741 319.869324,395.598022 
	C319.942413,392.428436 318.586304,391.065979 315.410980,391.103210 
	C308.745667,391.181366 302.077393,391.183685 295.412506,391.078949 
	C287.939911,390.961578 284.906250,388.165680 284.883057,380.837036 
	C284.834961,365.643951 289.959595,352.661072 302.572906,343.554626 
	C306.427673,340.771637 306.766418,338.914001 304.164581,334.894409 
	C295.883057,322.100311 298.791046,307.001801 310.631805,298.583710 
	C322.544403,290.114563 338.089935,292.224182 347.355591,303.567261 
	C354.326050,312.100586 355.331879,324.734436 349.130219,333.886658 
	C346.243774,338.146301 346.750671,340.300537 350.784332,343.497864 
	C360.743164,351.392090 366.356567,361.904388 367.465393,374.760834 
	C367.874359,379.502228 368.194244,384.592346 374.016205,386.968414 
	C375.505890,385.016724 375.455444,382.676147 375.609253,380.446594 
	C376.802887,363.137787 385.825043,350.134735 398.456940,339.217499 
	C401.983795,336.169434 406.027466,336.721283 408.868927,340.752502 
	C424.086273,362.341522 427.331604,387.980957 407.717987,409.954590 
	C402.893555,415.359528 402.036804,414.188721 408.077759,420.406647 
	C417.364319,429.965271 426.627625,439.546570 435.914062,449.105347 
	C436.804993,450.022400 437.789581,450.848450 438.844910,451.822144 
	C440.157928,449.691864 439.653748,447.655640 439.656860,445.732941 
	C439.699493,419.399902 439.733582,393.066742 439.686951,366.733734 
	C439.617920,327.722687 422.260071,299.574402 386.806915,282.843781 
	C380.479431,279.857819 374.213684,276.739166 367.857758,273.815887 
	C356.087158,268.402313 345.657227,261.160095 336.158661,250.203049 
	C336.158661,257.099823 336.178223,262.677917 336.148773,268.255737 
	C336.137360,270.419006 336.265686,272.626373 335.889801,274.735077 
	C335.166138,278.794434 332.890625,281.466003 328.408722,281.204346 
	C323.963104,280.944702 321.766785,278.118073 321.699066,273.967926 
	C321.530457,263.637665 321.401917,253.294891 321.742798,242.973190 
	C321.914490,237.774292 320.552795,234.986618 315.195007,233.174316 
	C299.647339,227.915268 287.129791,218.051437 276.766571,205.465271 
	C273.772583,201.829086 270.360504,200.348831 265.600037,200.166687 
	C242.062653,199.266251 224.235794,183.185043 217.859726,157.565018 
	C214.300690,143.264252 217.612656,139.297607 232.169250,140.975861 
	C244.755981,142.427002 256.643921,145.762375 266.487122,154.465958 
	C275.565643,162.493408 280.021118,172.809387 282.241180,184.384384 
	C282.584198,186.172684 282.876312,188.049286 283.652985,189.663208 
	C288.805115,200.369156 308.628998,216.038406 320.450378,218.901520 
	C321.303101,218.466705 321.546509,217.682175 321.552002,216.823883 
	C321.621338,205.991501 321.609589,195.157974 321.776367,184.327179 
	C321.824432,181.204163 319.964935,180.015778 317.588074,178.854645 
	C309.899963,175.098938 302.786438,170.557297 297.129272,163.956589 
	C286.981964,152.116913 284.375488,138.263947 286.104187,123.254890 
	C286.560455,119.293228 287.169495,115.321465 288.103546,111.449661 
	C289.222412,106.811775 292.319885,104.985924 296.751099,106.665649 
	C317.950806,114.701820 333.875031,127.531158 336.843414,151.820969 
	C337.270966,155.319473 337.029602,158.779419 336.839935,162.281357 
	C335.903320,179.575684 334.693695,196.960327 337.495331,214.122650 
	C340.077423,229.940109 347.899567,243.163605 360.685242,253.178299 
	C361.601990,253.896347 362.561737,254.564545 363.539673,255.196915 
	C363.935181,255.452698 364.433197,255.550064 365.462280,255.936401 
	C363.753601,247.302948 363.029205,238.985413 363.660767,230.532394 
	C364.727722,216.252655 369.259521,213.311829 382.219574,219.476608 
	C399.116699,227.514130 412.030304,239.061203 414.814087,258.833496 
	C415.699768,265.124329 415.750671,271.467285 414.663116,277.748810 
	C414.287842,279.916412 414.409485,281.742950 416.265198,283.104248 
	C424.909058,289.445068 432.138123,297.218628 438.832245,305.888580 
	C440.144196,303.638306 439.651703,301.618378 439.654755,299.705383 
	C439.692291,276.205688 439.677704,252.705887 439.684387,229.206131 
	C439.684814,227.707184 439.558746,226.173965 439.821045,224.715973 
	C440.507355,220.901550 443.108490,218.981445 446.788116,218.737320 
	C450.443176,218.494812 452.829346,220.493668 453.709137,223.964493 
	C454.150421,225.705414 454.110870,227.594589 454.111572,229.416794 
	C454.120758,253.749771 454.093475,278.082733 454.095947,302.415710 
	C454.096100,304.013885 454.264465,305.612030 454.441345,308.748352 
	C461.116302,297.783752 468.961090,289.752350 477.859924,282.724670 
	C479.575775,281.369629 479.301941,279.748627 479.122528,277.801270 
	C478.373108,269.666107 477.796875,261.443726 480.216064,253.497482 
	C486.263763,233.632614 500.884216,222.696228 519.768921,216.621445 
	C524.961365,214.951126 528.270020,217.890060 529.250244,223.928177 
	C530.811340,233.544464 531.090027,243.142334 528.906067,252.714279 
	C528.763245,253.340149 528.732727,253.991623 528.562500,255.307083 
	C533.417480,253.885223 536.557007,250.712921 539.490540,247.583603 
	C550.879578,235.434586 557.045471,220.849106 557.613708,204.285202 
	C558.138733,188.982315 557.946777,173.668106 557.061157,158.332672 
	C556.102478,141.731949 563.066040,128.249893 576.345337,118.160591 
	C582.605713,113.404144 589.211487,109.202362 596.704346,106.632362 
	C601.140015,105.110970 604.850647,106.570854 605.821777,110.845772 
	C610.106873,129.708038 610.143311,147.959061 596.690186,163.798477 
	C591.189575,170.274765 584.220825,174.819778 576.606934,178.353287 
	C573.437012,179.824402 572.220032,181.871658 572.267883,185.336273 
	C572.421326,196.450272 572.324951,207.567719 572.324951,219.203568 
	C578.869690,218.228058 583.575012,215.092163 588.199036,211.993988 
	C596.305969,206.562225 602.737305,199.315720 609.005371,191.939270 
	C610.811768,189.813370 611.142273,187.112030 611.680115,184.506378 
	C618.325867,152.308990 642.460938,140.243546 670.334351,140.721619 
	C675.194702,140.804977 677.686096,143.749680 677.157776,148.645264 
	C674.113892,176.848755 658.619385,197.824646 626.063782,200.148010 
	C622.632141,200.392914 619.928833,201.409195 617.826111,204.045181 
	C606.760071,217.917435 593.143677,228.263748 576.244446,234.023819 
	C573.196960,235.062531 572.288818,237.081070 572.337219,240.126297 
	C572.485718,249.457413 572.463196,258.791321 572.489990,268.124237 
	C572.495728,270.120636 572.553162,272.128662 572.371155,274.111511 
	C571.929382,278.921906 569.391113,281.355042 565.115173,281.250031 
	C560.982849,281.148529 558.108337,278.470490 557.883972,273.872345 
	C557.616272,268.384430 557.802551,262.875488 557.721863,257.376678 
	C557.695496,255.582672 558.012634,253.706757 556.983093,252.033920 
	C556.629578,252.067810 556.187195,251.975494 556.037415,252.143768 
	C544.051514,265.605988 528.182434,273.052856 512.214783,280.267822 
	C495.886475,287.645813 481.078156,296.961243 470.412354,311.777863 
	C460.618958,325.382568 454.757019,340.693451 454.417023,357.332062 
	C453.777069,388.651306 454.200134,419.992249 454.192352,451.324188 
	C454.192169,451.977448 454.326569,452.630768 454.536163,454.542389 
	C465.327484,439.694153 478.612610,428.438324 490.506409,415.742615 
	C486.192474,409.674957 481.239288,404.688507 477.942749,398.437805 
	C468.090240,379.756104 473.025452,356.952148 485.566223,340.725372 
	C488.963013,336.330200 493.303680,336.489868 497.606262,340.736267 
	C510.378998,353.342194 519.365112,367.687439 518.314697,386.559631 
	C518.279724,387.187592 518.470947,387.828156 518.625549,388.971954 
	C523.544800,385.904388 526.486328,382.179626 526.606445,376.481903 
	C526.892456,362.907501 532.717285,351.982483 543.449890,343.984161 
	C547.554016,340.925629 547.439941,338.677826 545.175293,334.648376 
	C538.317261,322.446075 540.052551,309.177856 549.126282,300.801819 
	C558.867737,291.809418 573.815063,291.110321 583.943665,299.173370 
	C594.463196,307.547668 597.351074,322.140442 590.803528,333.837311 
	C587.164734,340.337799 587.214905,340.277344 593.014465,345.091156 
	C604.640137,354.740784 609.463989,367.407013 608.943665,382.234344 
	C608.733337,388.229248 605.697937,390.993896 599.730652,391.082336 
	C592.899109,391.183594 586.060730,391.213593 579.232849,391.015137 
	C575.366211,390.902710 573.767822,392.379211 573.931885,396.264923 
	C574.128601,400.923859 574.073608,405.596710 574.013428,410.262054 
	C573.973755,413.337402 575.132507,414.789978 578.422913,414.781860 
	C609.422363,414.705414 640.422119,414.681519 671.421570,414.754150 
	C675.698853,414.764160 675.708191,412.197815 675.703369,409.150024 
	C675.664185,384.483643 675.663574,359.817139 675.667236,335.150696 
	C675.668640,325.476776 678.098450,323.030243 687.752747,322.971863 
	C692.085571,322.945648 696.424683,322.864349 700.750671,323.048340 
	C705.821899,323.263977 709.121277,326.322784 709.148560,330.498260 
	C709.175659,334.642151 706.397766,337.129913 701.172424,337.641022 
	C700.840759,337.673462 700.509583,337.717712 700.177063,337.733612 
	C690.198059,338.210022 690.198059,338.209564 690.205994,348.200562 
	C690.224365,371.367004 690.255127,394.533478 690.255127,417.699921 
	C690.255066,427.168365 688.273193,429.125854 678.860779,429.138367 
	C675.360840,429.143005 671.859253,429.221680 668.361572,429.136292 
	C665.492065,429.066254 664.025391,430.136993 664.074646,433.200745 
	C664.173706,439.365723 664.191528,445.534393 664.092163,451.699127 
	C664.038879,455.004730 665.691345,456.074921 668.713623,456.061249 
	C687.045898,455.978302 705.389771,456.326385 723.707214,455.777405 
	C739.806274,455.294861 752.837463,441.443756 752.960571,425.366882 
	C753.130249,403.201752 752.941589,381.033936 753.081543,358.868408 
	C753.106995,354.834900 751.909302,353.138123 747.667053,353.306915 
	C741.011230,353.571716 734.335571,353.443604 727.670532,353.340851 
	C721.733093,353.249298 719.748230,351.021088 719.516418,345.078552 
	C718.813599,327.060547 725.861145,313.054047 741.816284,302.963654 
	C734.924866,294.272217 731.373962,284.960663 735.546631,274.166656 
	C737.861572,268.178375 741.831421,263.612091 747.239136,260.281311 
	C757.786255,253.784958 770.173401,254.868866 778.614258,262.955139 
	C789.468506,273.353424 789.943176,285.615265 779.985840,303.005310 
	C787.137024,307.872589 793.667847,313.382690 797.538391,321.499542 
	C801.156799,329.087402 802.327942,337.064148 801.936523,345.305725 
	C801.669678,350.924591 799.003418,353.272583 793.268494,353.351501 
	C786.603149,353.443298 779.930908,353.533722 773.270874,353.327454 
	C769.499756,353.210663 767.877563,354.321106 767.917847,358.389923 
	C768.086304,375.387970 767.988037,392.388641 768.002991,409.388336 
	C768.005249,411.911011 767.746216,414.831970 771.568604,414.553741 
	C774.984375,414.305084 779.481506,416.596649 780.559387,410.480591 
	C785.701294,381.304657 807.193542,370.453918 830.569458,365.946838 
	C836.520142,364.799469 840.590759,368.920074 840.098206,375.609558 
	C839.274292,386.800751 837.269043,397.766663 831.460876,407.627258 
	C829.998840,410.109283 829.737488,411.860077 831.325134,414.765808 
	C834.920654,421.346405 833.693542,428.660583 832.386719,435.684448 
	C831.932617,438.124695 829.598999,439.392242 827.087952,439.597656 
	C824.126465,439.839905 821.925781,438.366974 820.520325,435.878967 
	C819.798828,434.601715 819.321411,433.116302 819.052246,431.665863 
	C817.847656,425.173981 817.887146,425.156647 811.594543,426.437622 
	C798.942993,429.013062 786.135376,429.514435 773.292114,429.038513 
	C769.314270,428.891052 767.481873,430.058319 766.436829,434.131042 
	C760.416321,457.593781 743.047791,470.912262 718.740173,470.995850 
	C702.573914,471.051453 686.405762,471.092804 670.241577,470.891907 
	C665.825928,470.837036 663.869141,472.006165 664.123413,476.797180 
	C664.485046,483.611572 664.448425,490.468414 664.154358,497.288696 
	C663.964111,501.700409 665.556885,503.035950 669.902710,503.016235 
	C700.901733,502.875458 731.901794,502.938354 762.901489,502.971893 
	C765.223633,502.974396 767.582703,503.042725 769.859436,503.447357 
	C774.032654,504.189087 775.592529,507.222046 775.537964,511.095917 
	C775.482422,515.040344 773.285522,516.977112 769.312683,517.499695 
	C765.119446,518.051392 760.994019,517.473816 756.842285,517.405151 
	C753.822754,517.355225 752.264038,518.194824 752.289856,521.637817 
	C752.417358,538.636719 752.406128,555.637329 752.323120,572.636719 
	C752.307068,575.932739 753.735596,577.050964 756.835449,577.019409 
	C766.833679,576.917664 776.843933,577.211426 786.829163,576.825134 
	C799.408142,576.338623 810.843201,567.279724 814.843750,555.271057 
	C816.547607,550.156372 816.008850,549.285095 810.790405,549.209167 
	C804.958191,549.124207 799.122681,549.243469 793.291321,549.131836 
	C787.506531,549.021179 784.924866,546.631042 784.681702,541.031189 
	C783.975586,524.768494 789.360535,511.199738 803.019775,501.717133 
	C806.490051,499.307953 806.494324,497.563080 804.429626,494.144012 
	C794.056152,476.965637 801.307617,457.569855 819.938110,452.026184 
	C836.006653,447.244843 853.009155,461.352600 852.629639,478.912628 
	C852.470764,486.264709 849.423523,492.370483 845.010254,498.570221 
	C854.126465,504.258728 860.857117,511.625793 864.841797,521.693848 
	C865.000000,530.354248 865.000000,538.708496 865.000000,547.531372 
M663.668091,663.136108 
	C659.171692,666.905579 656.411377,671.738098 654.907593,677.357239 
	C653.477966,682.699768 654.083801,683.635010 659.516968,683.606812 
	C673.331482,683.535095 687.145386,683.320190 700.959839,683.269897 
	C707.156799,683.247375 707.889587,682.379211 706.105286,676.328613 
	C700.735352,658.119202 680.463440,651.505737 663.668091,663.136108 
M237.750366,673.851318 
	C231.282425,661.136353 218.891190,654.716187 206.667221,657.746460 
	C194.856567,660.674255 186.784744,670.659851 186.997482,682.102295 
	C188.391190,683.322754 190.124481,683.037537 191.751892,683.061340 
	C205.732956,683.266052 219.714325,683.459045 233.696167,683.598511 
	C239.873672,683.660156 240.356995,682.976501 238.808517,676.929382 
	C238.602783,676.125916 238.300827,675.347168 237.750366,673.851318 
M809.178101,514.625000 
	C804.204956,518.713867 801.701050,524.167297 800.035461,530.260071 
	C799.020325,533.973389 800.146362,535.077454 803.726440,535.058533 
	C818.522095,534.980286 833.318787,534.963501 848.114319,535.050110 
	C851.921143,535.072449 853.121582,533.911133 852.096741,529.966675 
	C847.134705,510.868500 827.227661,503.383331 809.178101,514.625000 
M93.366295,529.061096 
	C88.924355,515.323120 79.871452,508.781525 65.970215,509.264771 
	C54.225800,509.673004 45.478344,517.079224 42.341137,529.270935 
	C40.968037,534.606934 41.210178,534.980347 46.699070,534.991150 
	C60.822342,535.018921 74.945763,535.007385 89.069008,534.969849 
	C90.686600,534.965576 92.414932,535.347473 93.854050,534.194214 
	C93.957672,533.858154 94.166946,533.531494 94.130684,533.234863 
	C93.990021,532.084290 93.771233,530.943298 93.366295,529.061096 
M337.489838,518.074341 
	C328.438873,509.413422 318.040222,506.868225 306.261261,511.522186 
	C297.239624,515.086731 291.170380,524.445740 291.204865,534.564331 
	C308.374481,534.564331 325.543823,534.564331 342.978210,534.564331 
	C342.613525,528.463074 341.181000,523.273132 337.489838,518.074341 
M560.567261,535.055847 
	C573.064575,535.051514 585.562378,534.983093 598.058899,535.079041 
	C602.220703,535.110962 603.304565,533.492371 602.248779,529.531250 
	C599.221252,518.171875 591.950928,511.523071 580.467041,509.515259 
	C564.872864,506.788757 550.145752,519.333557 551.321472,534.534485 
	C553.975037,535.451355 556.815552,534.964966 560.567261,535.055847 
M568.500000,376.085663 
	C575.321716,376.065002 582.146851,375.905548 588.964050,376.071747 
	C593.617188,376.185150 594.289062,373.918732 593.321350,370.088165 
	C590.600037,359.316345 578.171814,350.107178 566.658691,350.400208 
	C554.971497,350.697662 544.213806,359.454559 541.657776,370.542572 
	C540.751709,374.473053 541.953796,376.160645 546.036804,376.100098 
	C553.189636,375.994049 560.345459,376.080048 568.500000,376.085663 
M760.511597,313.411652 
	C744.888672,314.403656 733.796082,325.410797 735.428467,338.393890 
	C735.857117,338.538879 736.317383,338.829346 736.778809,338.831146 
	C752.241394,338.891418 767.704041,338.917358 783.166687,338.965942 
	C786.966064,338.977875 786.965759,336.648529 786.412231,333.885315 
	C784.068542,322.185059 775.291138,315.007202 760.511597,313.411652 
M327.300903,350.379395 
	C313.687042,350.802765 303.456543,358.485413 300.628937,370.301300 
	C299.754517,373.955261 300.452026,376.126495 304.771545,376.099701 
	C319.259705,376.009796 333.748657,375.973419 348.236908,376.024750 
	C352.209595,376.038788 353.078949,374.437500 352.104797,370.738800 
	C348.832428,358.314240 339.946075,352.684357 327.300903,350.379395 
M114.671326,338.951385 
	C129.394928,338.951385 144.118530,338.951385 158.813126,338.951385 
	C159.029633,324.726227 146.979492,313.252258 132.902664,313.394196 
	C118.276894,313.541656 106.662003,324.873810 107.443779,338.315338 
	C109.428230,339.453186 111.633789,338.764557 114.671326,338.951385 
M837.684387,606.249695 
	C822.878296,605.936890 811.528198,611.674683 804.774780,625.246338 
	C802.364868,630.089294 803.181091,631.341125 808.441162,630.940063 
	C822.631104,629.858154 832.542725,622.320068 839.194641,610.099792 
	C839.869873,608.859497 841.412720,606.995911 837.684387,606.249695 
M111.064461,696.693665 
	C125.045647,694.597961 134.363358,686.676208 140.194656,673.975769 
	C126.978378,668.675049 104.587517,682.058899 102.300514,696.758484 
	C104.988129,696.758484 107.595230,696.758484 111.064461,696.693665 
M217.703613,638.375854 
	C218.688110,637.762451 219.754868,637.249207 220.643570,636.519226 
	C226.057892,632.071777 227.100876,624.749756 223.176941,619.110229 
	C219.791214,614.244141 212.431274,612.468384 207.121613,615.236511 
	C201.622742,618.103394 199.091553,625.529480 201.544174,631.599976 
	C204.057602,637.820984 210.270752,640.655212 217.703613,638.375854 
M503.676086,383.505981 
	C503.576843,373.479858 500.185730,364.869141 493.094055,357.536011 
	C484.101562,368.837433 484.677155,391.658600 499.554443,401.145508 
	C502.200745,395.826172 503.426575,390.245819 503.676086,383.505981 
M84.015678,617.501892 
	C75.859779,608.857544 65.910019,605.316589 53.991280,606.459473 
	C57.813522,621.716736 78.437836,634.729675 90.465973,629.699951 
	C89.946182,625.080505 87.208878,621.561707 84.015678,617.501892 
M829.682190,466.398743 
	C828.527222,466.258667 827.375305,466.036713 826.216675,465.992493 
	C820.755920,465.783997 816.995178,468.417084 814.756531,473.231262 
	C812.388184,478.324280 813.604980,483.025848 817.018005,487.156097 
	C820.156372,490.953857 825.512451,492.286621 830.161194,490.585541 
	C835.180786,488.748810 838.101257,484.897919 838.510986,479.741791 
	C838.993652,473.669434 835.968689,469.258453 829.682190,466.398743 
M405.827606,368.704285 
	C404.878296,364.895355 404.044708,361.034027 401.302307,357.966339 
	C390.320862,366.005524 386.048889,389.102539 395.044586,401.082489 
	C404.061188,394.763000 408.494934,382.006836 405.827606,368.704285 
M569.980896,332.670807 
	C575.586853,331.262878 578.909485,327.601837 579.722656,321.992737 
	C580.505920,316.589386 578.558411,312.126373 573.753967,309.259033 
	C569.113281,306.489410 564.529358,306.953491 560.188538,310.035339 
	C555.989990,313.016113 554.142029,318.751617 555.657410,323.850586 
	C557.288269,329.338165 562.179260,332.551147 569.980896,332.670807 
M174.167648,745.024536 
	C174.261902,747.898743 176.488434,746.851685 177.874802,746.861511 
	C185.469620,746.915527 192.258484,744.300781 198.248184,739.829468 
	C204.082016,735.474548 207.808426,729.558105 210.260452,722.634705 
	C196.426468,719.316284 180.942429,727.903442 174.167648,745.024536 
M72.570190,490.199249 
	C79.566124,486.176819 81.858559,479.297668 78.450439,472.553833 
	C75.495857,466.707489 68.454475,464.324432 62.247078,467.070129 
	C56.681458,469.531921 53.854904,476.601929 56.029419,482.622253 
	C58.509377,489.488190 64.614952,492.524689 72.570190,490.199249 
M691.902161,632.043945 
	C692.253662,630.606689 692.788818,629.186646 692.925110,627.729309 
	C693.549988,621.045898 689.835449,615.677490 683.756165,614.299744 
	C677.198120,612.813538 671.592957,615.925476 669.164856,622.400574 
	C666.987366,628.207520 669.708557,635.043579 675.386292,638.029602 
	C681.088135,641.028320 687.012268,639.097900 691.902161,632.043945 
M634.562805,184.187820 
	C649.439819,179.488525 659.882019,168.340469 659.990540,157.041229 
	C645.335083,156.855820 634.562500,164.122620 628.790100,178.087921 
	C626.203125,184.346603 626.889526,185.217499 634.562805,184.187820 
M758.827759,672.924683 
	C757.273804,673.148621 755.488098,672.375000 754.232849,673.905762 
	C758.621765,688.897400 778.416809,700.562195 791.240723,695.780701 
	C789.403442,684.242737 775.174561,673.944214 758.827759,672.924683 
M265.557770,178.959213 
	C259.897888,164.404099 245.240799,154.565125 234.205750,157.913315 
	C235.468964,172.456177 253.686813,187.373474 266.114532,184.006363 
	C266.922394,182.501785 265.997772,181.126404 265.557770,178.959213 
M566.710083,471.317200 
	C566.256714,472.201569 565.724854,473.055084 565.362976,473.975403 
	C563.311279,479.192261 564.556335,483.776917 568.334167,487.681885 
	C571.642517,491.101593 577.853149,492.164032 582.208496,490.058197 
	C587.091614,487.697205 588.991333,483.504242 588.893250,478.249695 
	C588.792908,472.879089 586.101074,468.459503 581.510071,466.909607 
	C575.987793,465.045288 571.031982,466.034637 566.710083,471.317200 
M338.771912,320.462341 
	C337.737610,311.550354 330.632721,305.785339 323.280121,307.892120 
	C317.333038,309.596191 313.684204,314.992035 314.308411,321.159302 
	C314.949341,327.491791 319.933105,332.382874 326.046906,332.679535 
	C332.688446,333.001801 337.205566,328.941956 338.771912,320.462341 
M137.331360,271.757629 
	C136.360703,271.533905 135.400970,271.206879 134.417664,271.103058 
	C127.649315,270.388672 122.289299,274.179382 120.722565,280.737701 
	C119.300415,286.690765 123.027863,292.975708 129.350861,295.286133 
	C135.041885,297.365631 141.286423,294.459045 144.182800,288.382416 
	C147.204010,282.043945 145.163483,276.634735 137.331360,271.757629 
M768.451355,293.041718 
	C768.923340,292.577759 769.438843,292.150085 769.860596,291.644226 
	C774.313477,286.303253 774.004272,278.791260 769.156921,274.166626 
	C764.373169,269.602661 757.495911,269.506927 752.549927,273.935455 
	C747.586060,278.379974 746.902039,285.056610 750.853210,290.497803 
	C755.062988,296.295349 761.541870,297.450439 768.451355,293.041718 
M319.929199,143.689560 
	C316.383087,134.936691 309.578644,129.602463 301.425049,125.046326 
	C298.040894,140.290787 306.774811,159.161880 321.610931,163.817947 
	C323.667694,157.122238 321.944763,150.770096 319.929199,143.689560 
M328.110901,473.468903 
	C324.445099,467.136017 319.285736,464.763885 313.249786,466.636078 
	C307.842010,468.313446 304.812469,473.029327 305.033051,479.426331 
	C305.246857,485.626587 308.952637,489.882751 315.238434,491.147491 
	C324.146149,492.939758 330.714417,484.469238 328.110901,473.468903 
M702.838013,725.574402 
	C698.329163,723.299988 693.487854,722.155273 688.518494,721.613525 
	C685.407776,721.274475 683.754456,722.249268 684.920654,725.939697 
	C688.868958,738.434143 706.596802,748.937866 719.532959,746.285706 
	C718.286804,738.728271 712.583801,731.488037 702.838013,725.574402 
M579.475586,159.979935 
	C590.244629,151.352859 596.678833,134.244385 592.397766,125.619926 
	C577.197998,130.978699 567.408569,150.107620 573.255798,163.143372 
	C575.598511,163.205948 577.112183,161.501923 579.475586,159.979935 
M398.800903,271.453094 
	C400.054932,271.479340 400.471802,270.705597 400.690338,269.613037 
	C403.368866,256.221222 392.388000,238.879669 378.876862,235.192688 
	C375.469635,248.388412 384.030731,264.452484 398.800903,271.453094 
M494.466858,271.350647 
	C508.467438,267.363037 519.965698,246.883636 514.525452,235.624527 
	C500.357574,239.309723 490.883545,255.512726 494.466858,271.350647 
M797.377808,403.951019 
	C796.742737,407.057648 794.591187,409.983246 796.019714,413.360260 
	C813.761414,413.659088 825.468079,394.063507 823.216980,383.216095 
	C811.700378,386.153320 802.486328,391.840027 797.377808,403.951019 
M71.010147,390.561157 
	C71.442406,391.987610 71.739471,393.472656 72.328583,394.831085 
	C76.555725,404.578583 83.631721,411.063660 94.135841,413.428162 
	C96.155838,413.882843 98.707474,414.659576 98.497757,410.883514 
	C97.798073,398.285034 83.039314,384.210693 70.174889,383.973419 
	C69.780075,385.982697 70.371437,387.890137 71.010147,390.561157 
z"/>
<path fill="currentColor" opacity="1.000000" stroke="none" 
	d="
M363.589325,129.999847 
	C363.524048,119.337440 363.468292,109.174988 363.391205,99.012688 
	C363.335083,91.615822 364.956146,89.961784 372.455902,89.841568 
	C373.122253,89.830879 373.788849,89.835220 374.455322,89.831268 
	C383.376740,89.778297 383.376740,89.778236 383.651276,80.790726 
	C383.827179,75.032608 385.795929,72.737656 391.532440,72.932739 
	C410.029205,73.561783 427.569275,77.538925 442.377808,89.431244 
	C445.574493,91.998413 447.707733,92.179108 450.943298,89.622795 
	C465.511871,78.112511 482.568604,73.668716 500.769165,72.977608 
	C508.354431,72.689590 510.223511,74.751572 510.274872,82.303200 
	C510.326416,89.887070 510.326447,89.886734 517.972412,89.891792 
	C519.805176,89.893005 521.640930,89.829803 523.470032,89.913322 
	C528.079651,90.123833 530.393127,92.408676 530.383301,97.197731 
	C530.323059,126.689705 530.372986,156.181900 530.312561,185.673874 
	C530.300049,191.784302 528.294922,193.848984 522.193176,193.918671 
	C510.531128,194.051865 498.859558,194.226212 487.205261,193.903091 
	C476.984650,193.619736 467.332092,195.480698 458.107513,199.759583 
	C450.548584,203.265854 443.236237,203.266342 435.534058,199.634247 
	C427.671722,195.926682 419.267609,193.905090 410.391113,194.043060 
	C398.564209,194.226913 386.731720,194.067795 374.901703,194.033920 
	C364.654175,194.004578 363.648987,193.035278 363.629120,182.985840 
	C363.594513,165.490555 363.600647,147.995193 363.589325,129.999847 
M440.709412,153.500031 
	C440.711639,138.668488 440.580566,123.834961 440.799286,109.006607 
	C440.862976,104.689095 439.338409,101.789986 435.952545,99.318146 
	C425.022522,91.338631 412.701630,87.255325 399.392426,85.714897 
	C395.709656,85.288635 395.304993,87.414818 395.310577,90.283356 
	C395.353912,112.613953 395.397125,134.944916 395.288269,157.275040 
	C395.270752,160.857910 396.570404,162.367874 400.113495,162.677322 
	C412.401123,163.750549 423.878571,167.549530 434.716278,173.382950 
	C436.277283,174.223160 437.776794,175.490036 440.709778,174.463867 
	C440.709778,168.010727 440.709778,161.255280 440.709412,153.500031 
M453.109894,124.500198 
	C453.109314,132.984131 452.997803,141.469894 453.139313,149.951462 
	C453.280304,158.400436 452.523865,166.919128 453.624268,175.945343 
	C455.878632,175.058578 457.013763,174.776840 457.978973,174.207169 
	C469.194672,167.587936 481.279816,163.661224 494.259735,162.705612 
	C497.892487,162.438156 498.051300,160.241501 498.046478,157.581207 
	C498.006592,135.456833 497.924377,113.332260 497.996094,91.208206 
	C498.008728,87.312683 496.639832,85.726616 492.689911,86.207893 
	C479.757233,87.783684 467.758453,91.737419 457.168854,99.556877 
	C454.247284,101.714195 452.847565,104.305786 453.024078,108.032616 
	C453.267761,113.178368 453.101837,118.343521 453.109894,124.500198 
M510.380798,110.731140 
	C510.379028,129.043625 510.395020,147.356125 510.365143,165.668564 
	C510.355530,171.562836 508.828003,173.259933 502.929596,174.101562 
	C501.616852,174.288895 500.265320,174.190231 498.945007,174.340698 
	C490.983337,175.248123 483.072113,176.363174 475.898773,180.368423 
	C488.445374,180.780411 500.920197,180.741196 513.394470,180.807266 
	C516.616638,180.824326 517.823486,179.348099 517.822693,176.251984 
	C517.816467,152.945602 517.872742,129.639221 517.898010,106.332825 
	C517.900330,104.217484 517.637451,102.321510 514.842773,102.103188 
	C512.064148,101.886124 510.850281,103.322838 510.552185,105.812355 
	C510.394531,107.128952 510.432190,108.468933 510.380798,110.731140 
M383.600220,147.500214 
	C383.597321,144.335617 383.594116,141.171005 383.591553,138.006409 
	C383.583221,127.679901 383.619934,117.353035 383.536224,107.027145 
	C383.514648,104.364540 382.830536,101.973724 379.331482,102.098183 
	C375.845490,102.222183 376.047638,104.809662 376.014252,107.124260 
	C375.949341,111.620186 376.004608,116.117851 376.009888,120.614792 
	C376.031158,138.769562 376.036896,156.924393 376.091644,175.079056 
	C376.099060,177.533386 375.745361,180.586243 379.441528,180.619003 
	C392.023987,180.730499 404.608032,180.661636 417.331238,180.661636 
	C416.902679,178.927338 415.680206,179.046204 414.859528,178.758301 
	C407.282196,176.100327 399.505188,174.497742 391.442444,174.232330 
	C385.109711,174.023895 383.633575,172.350830 383.611023,165.988831 
	C383.590363,160.159332 383.602844,154.329742 383.600220,147.500214 
z"/>
<path fill="currentColor" opacity="1.000000" stroke="none" 
	d="
M412.962341,887.410889 
	C404.303986,887.406067 396.137054,887.482483 387.972748,887.369568 
	C382.156006,887.289124 379.817078,884.912598 379.759460,879.105469 
	C379.673492,870.440491 379.664917,861.773438 379.751648,853.108521 
	C379.821045,846.171936 381.872620,843.791321 388.987549,843.498779 
	C399.136780,843.081543 409.307983,843.039001 419.467682,843.116028 
	C423.315308,843.145203 424.813690,841.921814 424.737885,837.945129 
	C424.531433,827.116577 424.590179,816.281555 424.655731,805.449768 
	C424.695068,798.953369 426.894531,796.741699 433.388336,796.665588 
	C442.553009,796.558167 451.720032,796.539001 460.885040,796.609253 
	C467.046356,796.656433 469.250885,798.907471 469.290466,805.145813 
	C469.359192,815.977661 469.481049,826.814331 469.224030,837.640503 
	C469.123108,841.890503 470.082703,843.461121 474.743500,843.236572 
	C484.388184,842.771790 494.068817,842.946533 503.733124,843.031250 
	C510.761383,843.092896 513.555847,845.529419 513.833496,852.590637 
	C514.193420,861.742126 514.099609,870.918823 513.942566,880.080200 
	C513.862732,884.738037 511.451019,887.508057 506.420013,887.478943 
	C496.265472,887.420166 486.110504,887.434265 475.955688,887.430725 
	C469.292145,887.428406 469.286499,887.438171 469.287506,893.940002 
	C469.292419,925.603577 469.305725,957.267212 469.304321,988.930786 
	C469.303955,997.473755 467.555756,999.291077 459.181946,999.331055 
	C451.016327,999.370056 442.850006,999.358826 434.684540,999.294678 
	C426.437714,999.229797 425.027405,997.864624 425.021301,989.704163 
	C424.997406,957.707336 424.885620,925.709229 425.176727,893.714966 
	C425.223114,888.621338 424.100037,886.596130 418.948303,887.373596 
	C417.156097,887.644104 415.288239,887.413025 412.962341,887.410889 
M439.123108,969.494263 
	C439.123993,972.659607 439.353729,975.845520 439.070374,978.985229 
	C438.676422,983.350769 440.339478,985.232178 444.735931,984.681946 
	C445.884491,984.538208 447.086731,984.509033 448.228088,984.675476 
	C453.251312,985.408020 454.811523,983.394348 454.777710,978.297729 
	C454.567688,946.646240 454.664337,914.992798 454.676636,883.339966 
	C454.679871,874.961975 456.487946,873.098694 464.961792,873.018677 
	C474.623413,872.927429 484.288788,872.858398 493.947754,873.037598 
	C498.096313,873.114502 499.757690,871.367737 499.563873,867.408142 
	C499.498779,866.078369 499.442474,864.734863 499.554230,863.412231 
	C499.904968,859.259521 498.018036,858.027771 493.966736,858.121582 
	C483.477051,858.364319 472.977234,858.267639 462.482758,858.167297 
	C456.511475,858.110168 454.729004,856.275208 454.692780,850.354004 
	C454.632660,840.525391 454.770142,830.695190 454.666260,820.867310 
	C454.556946,810.523254 456.551331,811.208191 444.698303,810.997070 
	C440.129883,810.915833 439.075287,812.770081 439.162079,816.944519 
	C439.393982,828.101624 439.292603,839.266602 439.252472,850.428162 
	C439.230469,856.550110 437.679199,858.140503 431.578430,858.193115 
	C422.249847,858.273499 412.919983,858.190918 403.590912,858.237183 
	C393.429718,858.287537 394.351501,856.673279 394.202667,868.082336 
	C394.154388,871.785461 395.553986,873.087891 399.179993,873.039429 
	C409.173706,872.905762 419.170990,872.946655 429.165924,873.029968 
	C437.410797,873.098694 439.182251,874.930603 439.178070,883.034302 
	C439.163300,911.521790 439.139435,940.009216 439.123108,969.494263 
z"/>
<path fill="currentColor" opacity="1.000000" stroke="none" 
	d="
M215.313324,251.057312 
	C204.820572,236.256546 206.821823,220.038971 220.055664,210.798950 
	C230.638550,203.409851 244.238098,204.402924 253.602127,213.248627 
	C262.612488,221.760254 264.559540,236.143967 258.099243,246.701523 
	C256.986328,248.520279 255.743500,250.259506 254.619431,251.947266 
	C255.731384,254.108047 257.685608,254.850418 259.278381,255.992233 
	C272.767456,265.662109 277.218048,279.471893 276.968689,295.249359 
	C276.882416,300.707367 273.804688,303.173248 268.264832,303.366852 
	C256.346008,303.783356 256.346100,303.783356 256.345764,315.791473 
	C256.345642,320.789948 256.550690,325.799347 256.286133,330.783783 
	C256.028137,335.644226 258.078278,337.371582 262.790222,337.039276 
	C266.768616,336.758759 270.787720,336.881866 274.781158,337.030884 
	C279.931641,337.223145 283.123108,340.067841 283.289429,344.344086 
	C283.458282,348.685089 280.497192,351.725342 275.168213,351.877380 
	C266.844513,352.114807 258.505615,352.109406 250.180420,351.907867 
	C244.415146,351.768280 241.834610,348.947266 241.772476,342.974792 
	C241.658127,331.979340 241.547241,320.977173 241.822311,309.987518 
	C241.935974,305.447052 241.087585,303.553955 235.885757,303.712402 
	C224.909775,304.046875 213.907715,303.559875 202.917099,303.367218 
	C196.336029,303.251831 193.842575,300.818665 193.719635,294.295837 
	C193.405060,277.603363 199.641861,264.174164 213.616302,254.626892 
	C214.744446,253.856140 216.661743,253.423279 215.313324,251.057312 
M232.500031,288.923096 
	C240.483978,288.923248 248.468262,288.967804 256.451752,288.908051 
	C261.816986,288.867889 262.593506,287.777161 260.870758,282.551971 
	C257.432617,272.123932 249.938553,266.019714 239.496017,263.674316 
	C226.446960,260.743439 211.114487,271.307098 209.064545,284.083160 
	C208.505646,287.566345 209.369080,289.045868 213.038147,288.959473 
	C219.188995,288.814636 225.345795,288.922058 232.500031,288.923096 
M229.941010,243.635696 
	C235.973892,246.256699 239.902603,245.681549 243.973068,241.581451 
	C247.769852,237.757019 248.779800,232.504181 246.620941,227.809937 
	C244.400482,222.981735 239.371185,219.994629 234.123474,220.387146 
	C229.088699,220.763733 224.788437,224.121246 223.398712,228.760696 
	C221.678574,234.503174 223.413391,238.762466 229.941010,243.635696 
z"/>
<path fill="currentColor" opacity="1.000000" stroke="none" 
	d="
M649.061279,207.725525 
	C660.796082,204.127304 672.702087,207.319962 679.541626,216.421600 
	C688.757385,228.685654 686.293457,240.704437 677.158020,252.469040 
	C683.519592,256.512817 688.721680,261.291016 692.786804,267.306366 
	C698.689758,276.041168 699.874207,285.863556 699.606323,295.963196 
	C699.472961,300.988861 696.659119,303.311249 691.419800,303.356567 
	C680.089661,303.454651 668.754822,303.564606 657.429077,303.327545 
	C653.190308,303.238831 651.962585,304.772552 652.038086,308.827606 
	C652.236694,319.488098 652.145203,330.155457 652.059753,340.819214 
	C651.990662,349.449127 649.743896,351.774658 641.016968,351.832275 
	C633.358643,351.882812 625.696350,351.597321 618.038696,351.364624 
	C613.293457,351.220398 610.438538,348.663452 610.276917,344.655487 
	C610.109558,340.503235 613.059387,337.302216 617.848389,337.017517 
	C622.498535,336.741028 627.186768,336.701416 631.837158,336.950684 
	C636.052002,337.176636 637.542542,335.195221 637.537415,331.353424 
	C637.526672,323.355438 637.487976,315.356415 637.601379,307.359833 
	C637.645813,304.225525 636.130737,303.269379 633.289001,303.384186 
	C630.960754,303.478210 628.623840,303.396393 626.291748,303.347778 
	C619.690735,303.210144 616.882812,300.563934 616.830566,293.897614 
	C616.703491,277.679688 622.503967,264.337006 636.218140,254.975327 
	C636.905579,254.506012 637.608765,254.055664 638.262329,253.542633 
	C638.505066,253.352081 638.626343,253.006714 639.084167,252.294724 
	C632.866943,243.768631 629.430054,234.376648 633.486572,223.576263 
	C636.289429,216.113678 641.570007,211.111130 649.061279,207.725525 
M678.306885,288.944733 
	C685.168335,288.799347 685.819946,287.874451 683.684631,281.312256 
	C680.252136,270.764069 668.410278,263.008026 656.319885,263.389374 
	C645.275696,263.737732 635.318115,271.952362 632.593933,282.962402 
	C631.424866,287.687439 632.350281,288.889130 637.391052,288.904816 
	C650.711792,288.946228 664.032654,288.937073 678.306885,288.944733 
M653.539734,244.108170 
	C660.046509,248.411377 668.428711,242.740372 670.344421,236.109497 
	C672.228455,229.588379 668.019531,222.436539 661.257690,220.713852 
	C655.960144,219.364212 649.807373,222.212372 647.428467,227.115448 
	C644.424805,233.306183 646.339661,239.146973 653.539734,244.108170 
z"/>
<path fill="currentColor" opacity="1.000000" stroke="none" 
	d="
M393.659851,468.285309 
	C410.836334,481.415222 417.640015,498.373932 414.603851,519.415710 
	C414.084045,523.018005 414.262512,526.733215 414.261353,530.396301 
	C414.239441,599.394348 414.233002,668.392395 414.248627,737.390442 
	C414.249634,741.838623 414.259735,746.165833 409.348755,748.430420 
	C404.105225,750.848389 400.375397,748.788574 399.894745,743.063354 
	C399.755737,741.407349 399.831299,739.732117 399.830933,738.065735 
	C399.816681,672.901001 399.739410,607.736023 399.910950,542.571777 
	C399.925507,537.036560 398.380341,533.729736 393.368835,531.111877 
	C367.850403,517.781494 361.709259,493.385986 367.816101,469.672150 
	C368.392181,467.435181 369.249359,465.216644 370.326019,463.174072 
	C372.357391,459.320343 375.496613,458.217285 379.550629,460.096161 
	C384.396759,462.342072 389.167877,464.713989 393.659851,468.285309 
M391.185638,485.328156 
	C388.118378,482.978363 385.750793,479.491333 381.453949,479.065277 
	C375.898438,492.734467 386.916412,514.718079 400.449432,516.790527 
	C401.411133,505.317047 400.465118,494.495728 391.185638,485.328156 
z"/>
<path fill="currentColor" opacity="1.000000" stroke="none" 
	d="
M493.391785,618.000122 
	C493.397705,655.981079 493.392731,693.462097 493.424377,730.943054 
	C493.427612,734.768372 493.822144,738.598206 493.717499,742.417297 
	C493.632690,745.512878 492.887726,748.612366 489.106140,749.164917 
	C485.202545,749.735168 482.318634,748.001526 480.586517,744.458130 
	C479.363831,741.956970 479.660278,739.237427 479.659058,736.590759 
	C479.626923,668.125488 479.646301,599.660156 479.564270,531.195007 
	C479.555115,523.547974 478.650085,515.897034 478.750275,508.255676 
	C479.063812,484.344971 495.716248,467.611115 514.825073,460.120239 
	C519.443726,458.309631 523.114990,460.171875 524.631287,465.041046 
	C532.397766,489.980713 527.989990,516.230286 501.567627,530.399170 
	C495.522003,533.641052 493.097046,537.541626 493.218079,544.539734 
	C493.638580,568.853577 493.387177,593.179016 493.391785,618.000122 
M507.905487,506.351410 
	C513.044067,497.779633 515.121216,488.757446 512.514343,478.754028 
	C498.317474,483.827789 488.947784,504.426361 494.496429,517.299316 
	C499.502899,515.523071 502.745331,512.944885 507.905487,506.351410 
z"/>
<path fill="currentColor" opacity="1.000000" stroke="none" 
	d="
M354.949341,905.991638 
	C344.386078,913.571411 333.883026,920.613464 324.046265,928.599304 
	C312.217896,938.201843 302.518280,949.308594 296.814392,963.674133 
	C294.844269,968.635986 291.229370,970.152893 287.411407,968.496582 
	C283.401398,966.756958 282.054138,962.960327 283.699554,958.026367 
	C283.857300,957.553345 284.025757,957.083313 284.207184,956.618958 
	C288.440613,945.783752 294.621094,936.199036 302.655914,927.791504 
	C303.773315,926.622192 305.280426,925.727722 305.842987,923.458435 
	C302.367981,922.614014 298.921997,923.287842 295.566742,923.436523 
	C282.346619,924.022217 269.277100,925.226318 258.284454,933.901489 
	C254.856689,936.606689 251.968994,939.791809 249.108444,943.043701 
	C245.828720,946.772095 241.875763,947.379761 238.609528,944.781982 
	C235.281891,942.135315 234.773041,938.213867 237.791168,934.132202 
	C248.501495,919.647766 263.244568,911.984436 280.852539,909.801880 
	C294.050903,908.165955 307.329895,907.242371 320.360687,904.333679 
	C335.557312,900.941528 348.695953,893.931335 359.627960,882.807190 
	C360.760956,881.654236 361.698242,880.159424 364.134552,879.726196 
	C365.315399,884.227295 366.686401,888.731018 367.611542,893.324585 
	C367.997223,895.239868 366.222382,896.654846 364.853333,897.837036 
	C361.707764,900.553345 358.444641,903.133545 354.949341,905.991638 
z"/>
<path fill="currentColor" opacity="1.000000" stroke="none" 
	d="
M588.866455,925.502014 
	C598.232239,934.943420 605.462219,945.419067 610.009338,957.650208 
	C611.904114,962.746826 610.561218,966.810974 606.427490,968.545715 
	C602.250244,970.298706 598.763794,968.324585 596.682190,962.833923 
	C590.130310,945.551819 577.184021,933.756042 562.829529,923.130066 
	C551.999756,915.113342 540.294556,908.288330 530.383728,899.010376 
	C527.080017,895.917603 524.730347,893.062256 527.703857,888.412781 
	C529.303406,885.911682 528.339478,882.461914 530.150574,879.999146 
	C531.237488,879.737793 531.894287,880.283386 532.427185,880.904907 
	C546.799011,897.666138 566.156982,903.793091 587.079285,906.844543 
	C599.893311,908.713440 613.004028,908.581787 625.498169,912.668274 
	C636.338501,916.213867 645.832825,921.745544 653.259338,930.544739 
	C654.984070,932.588318 656.538757,934.710938 657.460266,937.277161 
	C658.600159,940.451782 657.489746,942.875549 655.004517,944.713562 
	C652.529968,946.543518 649.798767,946.909546 647.104797,945.068787 
	C646.291016,944.512756 645.499695,943.831604 644.915161,943.046204 
	C634.300903,928.784241 619.024902,924.584473 602.402954,923.473755 
	C597.444397,923.142395 592.445007,923.422607 587.210144,923.422607 
	C586.777161,924.309753 588.236572,924.525269 588.866455,925.502014 
z"/>
<path fill="currentColor" opacity="1.000000" stroke="none" 
	d="
M409.596497,829.971069 
	C404.480927,830.425415 401.939606,827.399353 399.840210,823.841370 
	C391.249573,809.282471 390.687622,794.223083 399.058105,779.691833 
	C410.396545,760.008118 428.729980,751.582031 450.705292,753.013489 
	C472.266327,754.417908 489.098846,764.685120 497.739746,785.509705 
	C503.329712,798.981689 501.134766,811.912842 493.631561,824.132568 
	C490.456421,829.303589 486.378815,831.097656 482.613281,829.022827 
	C478.903137,826.978455 478.163696,823.239441 481.157227,817.669312 
	C490.816620,799.695374 483.849426,784.252930 473.041168,776.079834 
	C461.701843,767.505066 448.929291,765.409241 435.210236,768.933105 
	C427.424530,770.932922 420.690033,774.773865 415.482239,780.941956 
	C405.737091,792.483948 406.305237,804.879700 412.595245,817.764648 
	C415.854156,824.440552 415.294830,826.493652 409.596497,829.971069 
z"/>
<path fill="currentColor" opacity="1.000000" stroke="none" 
	d="
M186.297028,238.323090 
	C180.838760,242.765976 175.392059,246.584518 169.446960,249.665558 
	C162.935867,253.039993 158.701828,251.748581 156.690643,244.817917 
	C148.958206,218.171494 152.105667,194.711334 177.374023,177.961685 
	C180.150604,176.121185 182.919662,174.252777 185.810883,172.605606 
	C190.410461,169.985138 194.087830,170.897339 196.046722,175.651291 
	C204.955246,197.270828 204.735168,220.038574 186.297028,238.323090 
M183.747757,191.698502 
	C169.565582,198.990494 164.501083,218.681686 169.619446,231.814575 
	C177.777832,227.312439 183.496948,220.899841 185.693436,211.922272 
	C187.338348,205.199066 188.404129,198.241760 183.747757,191.698502 
z"/>
<path fill="currentColor" opacity="1.000000" stroke="none" 
	d="
M733.089417,194.030609 
	C743.322632,211.096588 741.793396,228.711609 736.806458,246.426971 
	C735.436035,251.295303 730.805542,252.910172 725.772278,250.423752 
	C698.551331,236.976685 689.474609,217.842468 693.074341,192.226013 
	C693.836853,186.799637 695.060669,181.418121 697.649841,176.488068 
	C700.554199,170.957855 703.732300,169.881943 708.973267,172.959106 
	C718.220581,178.388519 726.745911,184.700943 733.089417,194.030609 
M725.822388,226.118759 
	C726.626587,208.886230 719.591553,194.672394 708.931213,191.991257 
	C703.169128,206.952179 710.981873,226.512070 724.831055,231.707077 
	C726.110046,230.331741 725.532043,228.572586 725.822388,226.118759 
z"/>
<path fill="currentColor" opacity="1.000000" stroke="none" 
	d="
M494.801147,949.242432 
	C487.496002,942.868042 483.516754,934.934692 481.114685,926.085693 
	C479.983734,921.919434 481.065826,918.922119 485.501160,917.522888 
	C490.195709,916.041931 493.181335,916.999207 494.554077,921.613220 
	C498.821960,935.958557 508.844055,943.293457 522.893921,946.672485 
	C538.319824,950.382324 550.994629,958.544800 560.086243,971.816833 
	C561.826050,974.356567 563.270203,976.933594 561.837219,980.154358 
	C559.984802,984.317627 555.164307,985.717712 551.434998,983.095886 
	C550.625732,982.526917 549.806885,981.873047 549.232178,981.083740 
	C540.012512,968.424011 527.204529,961.734985 512.238403,958.340088 
	C505.841827,956.889160 500.138184,953.706787 494.801147,949.242432 
z"/>
<path fill="currentColor" opacity="1.000000" stroke="none" 
	d="
M369.894836,946.757202 
	C371.562805,946.304993 372.833771,945.907776 374.124939,945.593689 
	C386.846527,942.499390 395.165070,934.816284 398.948456,922.179382 
	C400.466675,917.108398 403.028381,915.923828 407.991943,917.383179 
	C412.754944,918.783569 414.273193,921.430115 412.716278,926.564270 
	C407.647156,943.280334 396.895233,954.678345 379.882538,958.998230 
	C365.843353,962.563049 353.798309,968.544495 345.119934,980.576233 
	C341.908722,985.028320 338.104431,985.611816 334.834717,983.200439 
	C331.156494,980.487671 330.755676,976.283752 333.848663,971.714539 
	C342.546112,958.865967 354.783600,951.069519 369.894836,946.757202 
z"/>
</svg>
