<svg version="1.1" id="Layer_1" xmlns="http://www.w3.org/2000/svg" xmlns:xlink="http://www.w3.org/1999/xlink" x="0px" y="0px"
	 width="774" height="569" viewBox="0 0 774 569" enable-background="new 0 0 774 569" xml:space="preserve">
<path fill="none" opacity="1.000000" stroke="none" 
	d="
M730.000000,570.000000 
	C513.642578,570.000000 297.285187,570.000000 80.462708,569.632080 
	C78.694931,567.238647 77.543114,565.093872 76.057205,563.213013 
	C73.221939,559.624268 69.421570,559.193726 65.456543,560.857910 
	C61.429371,562.548218 63.282776,565.716736 63.920296,568.517029 
	C64.028587,568.992737 63.977470,569.504761 64.000000,570.000000 
	C43.004478,570.000000 22.008959,570.000000 1.010080,570.000000 
	C1.006720,380.378265 1.006720,190.756546 1.006720,1.067411 
	C258.899994,1.067411 516.800049,1.067411 774.850037,1.067411 
	C774.850037,190.666580 774.850037,380.333282 774.850037,570.000000 
	C766.923523,570.000000 758.925659,570.000000 750.473511,569.579041 
	C750.344177,565.738037 750.910339,562.315002 750.868469,558.899414 
	C750.852905,557.632507 749.675964,555.643066 748.575500,555.249268 
	C742.728516,553.156860 734.255859,558.654968 732.866089,565.349792 
	C731.805786,567.100708 730.902893,568.550354 730.000000,570.000000 
M442.829529,516.499878 
	C442.832886,521.164673 443.169556,525.857605 442.778015,530.489014 
	C441.531647,545.232666 452.260468,559.595459 471.441803,559.461975 
	C540.102478,558.984131 608.770264,558.990967 677.431152,559.444214 
	C695.313782,559.562195 706.719666,547.424011 706.649414,530.370605 
	C706.255188,434.709412 706.283569,339.046356 706.303894,243.383942 
	C706.304932,238.514954 704.931152,234.856033 701.539551,231.402283 
	C680.755676,210.237732 660.018494,189.025085 639.496033,167.607788 
	C635.216064,163.141220 630.563354,161.226288 624.502380,161.260422 
	C602.004089,161.387085 579.504578,161.274139 557.005493,161.251617 
	C555.212524,161.249817 553.419495,161.251373 551.124390,161.251373 
	C551.124390,159.176422 551.130493,157.555817 551.123413,155.935272 
	C551.067932,143.269272 550.848145,130.600922 551.032654,117.938431 
	C551.106262,112.882584 549.449097,109.029549 545.936157,105.495277 
	C524.671143,84.101326 503.466827,62.646400 482.355499,41.100891 
	C478.845978,37.519199 475.060669,35.976006 469.985779,35.985630 
	C408.488464,36.102264 346.990784,36.029446 285.493225,36.034374 
	C268.009277,36.035774 257.117798,46.924541 257.086182,64.396278 
	C257.030975,94.895012 257.014160,125.393822 256.981598,155.892593 
	C256.979706,157.660843 256.981323,159.429092 256.981323,161.424408 
	C254.020355,161.424408 251.692871,161.425064 249.365372,161.424286 
	C209.533630,161.410858 169.701904,161.386642 129.870163,161.388733 
	C113.156052,161.389618 102.149689,172.220612 102.137161,188.749420 
	C102.051033,302.411469 101.979149,416.073486 101.927582,529.735535 
	C101.918930,548.814209 112.071709,559.237366 131.115234,559.260437 
	C200.445633,559.344482 269.776245,559.321350 339.106689,559.247131 
	C355.034210,559.230042 365.568848,548.633179 365.681244,532.516968 
	C365.840454,509.685577 365.733459,486.852356 365.740143,464.019928 
	C365.740662,462.200958 365.740204,460.381989 365.740204,458.550873 
	C370.105011,458.502472 372.238403,460.401947 372.985504,464.509247 
	C373.876740,469.408752 375.206390,474.237396 376.522736,479.048431 
	C378.309021,485.577209 381.178894,488.007416 387.865326,488.113983 
	C398.861694,488.289215 409.863831,488.259735 420.861450,488.134705 
	C426.794403,488.067230 430.158752,485.465027 431.757172,479.743530 
	C433.143311,474.781860 434.321777,469.744415 435.248413,464.677582 
	C436.022461,460.444916 438.375854,458.785492 442.828308,458.994446 
	C442.828308,477.904236 442.828308,496.702057 442.829529,516.499878 
z"/>
<path fill="none" opacity="1.000000" stroke="none" 
	d="
M733.023438,565.048462 
	C734.255859,558.654968 742.728516,553.156860 748.575500,555.249268 
	C749.675964,555.643066 750.852905,557.632507 750.868469,558.899414 
	C750.910339,562.315002 750.344177,565.738037 750.009644,569.579041 
	C746.969421,570.000000 743.938782,570.000000 740.425171,569.621216 
	C738.287476,562.575012 737.708008,562.223755 733.023438,565.048462 
z"/>
<path fill="none" opacity="1.000000" stroke="none" 
	d="
M64.466858,570.000000 
	C63.977470,569.504761 64.028587,568.992737 63.920296,568.517029 
	C63.282776,565.716736 61.429371,562.548218 65.456543,560.857910 
	C69.421570,559.193726 73.221939,559.624268 76.057205,563.213013 
	C77.543114,565.093872 78.694931,567.238647 79.998825,569.632080 
	C74.977905,570.000000 69.955818,570.000000 64.466858,570.000000 
z"/>
<path fill="none" opacity="1.000000" stroke="none" 
	d="
M732.866089,565.349792 
	C737.708008,562.223755 738.287476,562.575012 739.971069,569.621216 
	C736.969421,570.000000 733.938782,570.000000 730.454102,570.000000 
	C730.902893,568.550354 731.805786,567.100708 732.866089,565.349792 
z"/>
<path fill="currentColor" opacity="1.000000" stroke="none" 
	d="
M442.828918,515.999878 
	C442.828308,496.702057 442.828308,477.904236 442.828308,458.994446 
	C438.375854,458.785492 436.022461,460.444916 435.248413,464.677582 
	C434.321777,469.744415 433.143311,474.781860 431.757172,479.743530 
	C430.158752,485.465027 426.794403,488.067230 420.861450,488.134705 
	C409.863831,488.259735 398.861694,488.289215 387.865326,488.113983 
	C381.178894,488.007416 378.309021,485.577209 376.522736,479.048431 
	C375.206390,474.237396 373.876740,469.408752 372.985504,464.509247 
	C372.238403,460.401947 370.105011,458.502472 365.740204,458.550873 
	C365.740204,460.381989 365.740662,462.200958 365.740143,464.019928 
	C365.733459,486.852356 365.840454,509.685577 365.681244,532.516968 
	C365.568848,548.633179 355.034210,559.230042 339.106689,559.247131 
	C269.776245,559.321350 200.445633,559.344482 131.115234,559.260437 
	C112.071709,559.237366 101.918930,548.814209 101.927582,529.735535 
	C101.979149,416.073486 102.051033,302.411469 102.137161,188.749420 
	C102.149689,172.220612 113.156052,161.389618 129.870163,161.388733 
	C169.701904,161.386642 209.533630,161.410858 249.365372,161.424286 
	C251.692871,161.425064 254.020355,161.424408 256.981323,161.424408 
	C256.981323,159.429092 256.979706,157.660843 256.981598,155.892593 
	C257.014160,125.393822 257.030975,94.895012 257.086182,64.396278 
	C257.117798,46.924541 268.009277,36.035774 285.493225,36.034374 
	C346.990784,36.029446 408.488464,36.102264 469.985779,35.985630 
	C475.060669,35.976006 478.845978,37.519199 482.355499,41.100891 
	C503.466827,62.646400 524.671143,84.101326 545.936157,105.495277 
	C549.449097,109.029549 551.106262,112.882584 551.032654,117.938431 
	C550.848145,130.600922 551.067932,143.269272 551.123413,155.935272 
	C551.130493,157.555817 551.124390,159.176422 551.124390,161.251373 
	C553.419495,161.251373 555.212524,161.249817 557.005493,161.251617 
	C579.504578,161.274139 602.004089,161.387085 624.502380,161.260422 
	C630.563354,161.226288 635.216064,163.141220 639.496033,167.607788 
	C660.018494,189.025085 680.755676,210.237732 701.539551,231.402283 
	C704.931152,234.856033 706.304932,238.514954 706.303894,243.383942 
	C706.283569,339.046356 706.255188,434.709412 706.649414,530.370605 
	C706.719666,547.424011 695.313782,559.562195 677.431152,559.444214 
	C608.770264,558.990967 540.102478,558.984131 471.441803,559.461975 
	C452.260468,559.595459 441.531647,545.232666 442.778015,530.489014 
	C443.169556,525.857605 442.832886,521.164673 442.828918,515.999878 
M564.303223,441.202148 
	C585.861755,453.769440 607.424194,466.330200 628.971558,478.916534 
	C630.688049,479.919220 632.513123,480.880188 633.918274,482.241791 
	C636.932434,485.162476 637.277222,488.749939 635.096863,492.242645 
	C632.901184,495.759735 629.580200,496.928192 625.593567,495.392456 
	C624.207703,494.858612 622.902161,494.089874 621.610962,493.340668 
	C592.414734,476.400543 563.230591,459.439575 534.031494,442.504517 
	C527.180786,438.531250 520.283875,434.637787 513.892151,430.984192 
	C511.448242,434.449707 509.631287,437.866211 507.042664,440.533905 
	C500.200256,447.585358 493.130188,454.426758 485.945801,461.132172 
	C480.259521,466.439514 476.628845,466.554657 469.849152,462.317871 
	C466.416077,460.172394 463.010620,457.982758 459.074310,455.484070 
	C459.074310,481.087097 459.058441,505.733856 459.082489,530.380554 
	C459.091492,539.605103 462.492676,542.951416 471.829315,542.954651 
	C540.481750,542.978027 609.134216,542.990234 677.786621,542.996216 
	C686.784912,542.997009 690.133240,539.646790 690.133240,530.642578 
	C690.132874,437.828522 690.123718,345.014465 690.117004,252.200409 
	C690.116882,250.579315 690.117004,248.958221 690.117004,246.910431 
	C688.079163,246.910431 686.451904,246.911179 684.824707,246.910309 
	C672.660583,246.903839 660.493591,247.063538 648.333130,246.849426 
	C632.066772,246.563049 621.305481,235.448074 621.222961,219.183151 
	C621.158691,206.519302 621.130676,193.855240 621.053772,181.191483 
	C621.046204,179.944244 620.809631,178.698395 620.691650,177.569244 
	C619.963318,177.427185 619.645386,177.310913 619.327393,177.310806 
	C570.171143,177.293442 521.014771,177.253265 471.858612,177.304321 
	C463.172485,177.313339 458.983124,181.592651 458.941284,190.249771 
	C458.843872,210.411850 458.849823,230.574402 458.815460,250.736771 
	C458.810822,253.468643 458.814880,256.200500 458.814880,259.619263 
	C463.616211,256.505615 467.742798,253.792435 471.907623,251.139359 
	C475.860352,248.621399 480.004700,248.552246 483.495544,251.608383 
	C494.360687,261.120453 504.899414,270.981934 513.713074,282.972992 
	C520.542175,279.001129 527.697876,274.836609 534.856201,270.676453 
	C552.398193,260.481659 569.932251,250.273163 587.489807,240.105240 
	C592.517456,237.193634 596.746155,237.939178 599.196838,242.022537 
	C601.682617,246.164398 600.326843,250.912857 595.726257,254.005432 
	C594.485535,254.839447 593.162537,255.552338 591.868530,256.305664 
	C568.153076,270.112000 544.426331,283.898834 520.726624,297.732025 
	C514.300781,301.482727 507.955780,305.372101 501.501953,309.240845 
	C503.379028,314.138733 504.848389,318.568115 506.809540,322.767883 
	C507.498535,324.243347 509.219788,325.776855 510.770325,326.211670 
	C516.046082,327.691071 521.448914,328.725006 526.816528,329.866608 
	C532.177246,331.006744 534.918335,334.545624 535.023071,339.742340 
	C535.261353,351.562347 535.241455,363.390106 535.142761,375.213165 
	C535.097534,380.634460 531.947205,383.796875 526.774048,384.918701 
	C521.572449,386.046722 516.290588,386.840271 511.145355,388.172333 
	C509.521729,388.592682 507.559784,389.977600 506.903931,391.438110 
	C504.948853,395.791718 503.565155,400.401917 501.849365,405.217468 
	C522.497742,417.140137 543.068298,429.017853 564.303223,441.202148 
M118.106155,491.499969 
	C118.105042,504.163055 118.087440,516.826111 118.108009,529.489197 
	C118.124573,539.686096 121.392220,542.971985 131.558456,542.973145 
	C200.044846,542.981079 268.531250,542.978821 337.017639,542.968445 
	C346.244080,542.967102 349.192139,540.022156 349.207550,530.632874 
	C349.246368,506.970947 349.220856,483.308990 349.221161,459.647034 
	C349.221161,458.562500 349.221161,457.477966 349.221161,455.609344 
	C344.909698,458.357025 341.338501,460.699097 337.702209,462.935303 
	C331.795776,466.567596 327.939331,466.297272 322.883148,461.506744 
	C316.352722,455.319489 309.859375,449.076996 303.658051,442.565033 
	C300.349182,439.090454 297.688293,434.998810 294.525177,430.914795 
	C289.282623,433.958588 283.398346,437.385376 277.504303,440.795258 
	C246.839722,458.535522 216.182709,476.288879 185.497101,493.992706 
	C180.146469,497.079681 175.828445,496.336426 173.293518,492.163391 
	C170.680008,487.860962 172.246597,483.279633 177.441376,480.065247 
	C178.147964,479.628052 178.886780,479.243225 179.605408,478.825104 
	C218.852325,455.990204 258.101776,433.159607 297.339172,410.308350 
	C300.439545,408.502716 303.456146,406.553192 306.447754,404.709930 
	C304.782349,400.296234 303.591949,396.276031 301.733429,392.592926 
	C300.846802,390.835968 298.906586,389.014832 297.067047,388.450745 
	C292.315155,386.993530 287.321228,386.349701 282.484100,385.140411 
	C276.177521,383.563751 273.454071,380.779541 273.269745,374.419006 
	C272.941772,363.099487 272.915833,351.755676 273.270752,340.437958 
	C273.472778,333.995819 276.544067,330.940063 282.874023,329.438751 
	C287.890137,328.249023 292.990295,327.401611 297.977509,326.110138 
	C299.327423,325.760559 300.953461,324.599548 301.504822,323.381775 
	C303.479004,319.021393 305.046417,314.476837 306.895721,309.668945 
	C305.467102,308.727600 304.010681,307.675781 302.470184,306.766388 
	C269.107300,287.071442 235.738022,267.387360 202.362488,247.713837 
	C193.911224,242.732147 185.360107,237.915054 176.996994,232.790375 
	C171.979004,229.715515 170.772476,225.263077 173.238541,220.914642 
	C175.796829,216.403564 180.401352,215.735764 186.276184,219.202957 
	C208.482086,232.308380 230.658783,245.463287 252.856369,258.582764 
	C254.037598,259.280914 255.310181,259.824493 256.584595,260.462189 
	C256.584595,232.458588 256.584595,205.057541 256.584595,177.450516 
	C254.548996,177.450516 252.895126,177.450699 251.241241,177.450500 
	C211.749146,177.445831 172.257034,177.457306 132.764969,177.425980 
	C121.754463,177.417236 118.146980,180.979446 118.145844,192.059311 
	C118.135674,291.539520 118.121193,391.019714 118.106155,491.499969 
M285.881897,52.144585 
	C277.337677,52.504360 273.370941,56.437481 273.323090,64.859528 
	C273.238770,79.690208 273.242126,94.521461 273.236420,109.352493 
	C273.216370,161.511124 273.187378,213.669800 273.280518,265.828247 
	C273.283813,267.672821 273.993347,270.366760 275.308624,271.214722 
	C281.832977,275.421051 288.671448,279.140137 294.869263,282.724396 
	C296.829254,279.933167 298.220337,277.217041 300.272430,275.160461 
	C308.036591,267.379364 315.961975,259.756104 323.936218,252.188889 
	C327.854401,248.470718 332.325928,248.488190 336.789978,251.206268 
	C341.622040,254.148407 346.271698,257.401855 351.194885,260.175201 
	C352.630707,260.984039 354.857788,261.120636 356.504852,260.704712 
	C368.474701,257.682190 376.431885,251.085800 376.270355,237.595276 
	C376.260834,236.796921 376.701569,235.997025 376.908325,235.191589 
	C378.403107,229.369110 381.066986,226.993652 387.057892,226.900726 
	C398.386841,226.724991 409.720367,226.681320 421.050079,226.785843 
	C426.967316,226.840439 429.807220,229.157776 431.412354,234.949219 
	C432.787903,239.912491 434.092896,244.916245 435.017609,249.977264 
	C435.837524,254.464706 438.350739,256.282074 442.862976,256.479858 
	C442.862976,234.153107 442.839630,212.161346 442.870209,190.169678 
	C442.895447,172.003189 453.563263,161.360245 471.782684,161.314133 
	C491.279572,161.264786 510.776642,161.267776 530.273621,161.248383 
	C532.046143,161.246628 533.818665,161.248154 535.122559,161.248154 
	C535.122559,147.826294 535.122559,135.083557 535.122559,122.003014 
	C520.207520,122.003014 505.910583,122.062088 491.614319,121.985146 
	C479.198639,121.918327 469.246796,113.653893 466.955505,101.427521 
	C466.347656,98.183922 466.237793,94.813431 466.217285,91.499229 
	C466.137177,78.554703 466.184601,65.609390 466.184601,52.879158 
	C465.364990,52.535534 465.069641,52.303383 464.773987,52.303062 
	C405.450165,52.238544 346.126343,52.190403 285.881897,52.144585 
M379.620819,420.964569 
	C367.723877,416.408325 357.773682,409.156372 349.955017,399.042999 
	C343.860779,402.521576 338.294098,406.218811 332.300201,408.993042 
	C324.212677,412.736359 319.646301,419.482727 315.319000,426.659790 
	C313.923767,428.973846 313.894043,430.782440 316.084625,432.740540 
	C320.554382,436.735962 324.935272,440.845490 329.135590,445.121338 
	C331.231628,447.255035 332.848785,447.039337 335.143585,445.499237 
	C339.560059,442.535095 343.996307,439.478699 348.792084,437.252930 
	C351.170074,436.149323 354.663727,435.950684 357.133209,436.819336 
	C365.105347,439.623474 372.795563,443.217590 380.677612,446.294128 
	C384.623016,447.834106 386.907013,450.333893 387.646698,454.565765 
	C388.476349,459.312592 389.519165,464.043304 390.865570,468.665558 
	C391.263550,470.031677 392.964539,471.958649 394.134613,472.006409 
	C401.589813,472.310638 409.063538,472.161224 416.775909,472.161224 
	C418.186127,466.047729 419.708008,460.273621 420.807983,454.420197 
	C421.680206,449.778473 424.235413,447.359802 428.648956,445.803436 
	C436.145386,443.159943 443.503967,440.073730 450.751526,436.799500 
	C454.138336,435.269440 456.992249,435.138336 460.115845,437.153656 
	C465.414093,440.572113 470.809631,443.839905 476.613800,447.450653 
	C481.904266,442.305511 487.205048,437.282593 492.301880,432.060638 
	C493.131592,431.210571 493.777679,429.049927 493.285309,428.227081 
	C490.401581,423.407928 488.056091,417.634369 483.833984,414.385559 
	C476.032715,408.382599 467.059723,403.902313 458.655365,398.836273 
	C437.419098,425.081573 404.953125,430.246552 379.620819,420.964569 
M463.514038,276.060974 
	C458.940216,280.163544 454.409943,280.034515 448.937683,277.207062 
	C442.488373,273.874725 435.541412,271.428680 428.654572,269.048767 
	C424.480591,267.606384 421.764404,265.407288 420.849213,260.971741 
	C419.842163,256.090851 418.458984,251.287613 417.449738,246.407104 
	C416.924530,243.867386 415.826233,242.781525 413.099579,242.864151 
	C407.107880,243.045685 401.103729,243.036102 395.111176,242.869843 
	C392.436920,242.795670 391.270996,243.716385 390.753906,246.364288 
	C389.671021,251.909637 388.515900,257.470337 386.844727,262.855408 
	C386.257233,264.748596 384.383118,266.816956 382.565918,267.655273 
	C374.439484,271.404236 366.025696,274.532684 357.916534,278.315765 
	C354.324402,279.991577 351.398132,280.016266 348.153595,277.846436 
	C343.594147,274.797211 338.963501,271.837921 334.209808,269.107452 
	C333.064972,268.449860 330.696381,268.168396 329.944763,268.859863 
	C324.211121,274.134583 318.738739,279.693329 313.381287,284.970459 
	C319.942657,302.567505 337.074005,306.299774 349.997406,315.677765 
	C364.351715,298.544739 381.965851,289.153320 404.070648,289.045959 
	C426.425476,288.937378 444.035126,298.748199 458.385529,315.461792 
	C471.663452,306.434021 488.015991,301.893982 495.718628,284.490662 
	C493.341187,282.488586 490.500641,280.188660 487.764893,277.770233 
	C484.052673,274.488525 480.625519,268.782501 476.696655,268.437500 
	C472.750671,268.091034 468.339203,273.046356 463.514038,276.060974 
M519.319275,364.271362 
	C519.340820,359.606201 519.083435,354.918121 519.464233,350.282501 
	C519.826477,345.871674 517.981812,343.987396 513.845215,343.276306 
	C509.427277,342.516815 505.117462,341.128265 500.699615,340.367554 
	C496.206360,339.593872 493.792389,337.199432 492.546570,332.811401 
	C491.075195,327.628906 488.961517,322.628754 486.985809,317.160736 
	C482.895050,319.523834 479.575256,321.396545 476.300964,323.345764 
	C473.057678,325.276581 469.860291,327.284454 466.756592,329.188660 
	C474.154175,351.209045 474.165802,358.229645 466.890900,385.136780 
	C473.299652,388.886749 479.822205,392.703308 487.092255,396.957245 
	C489.164154,391.416870 491.276764,386.564056 492.770050,381.527649 
	C494.011017,377.342194 496.412689,375.117950 500.627472,374.256439 
	C505.509552,373.258453 510.289856,371.769135 515.162292,370.714630 
	C518.295776,370.036438 519.837524,368.483429 519.319275,364.271362 
M324.361298,319.061096 
	C322.409576,317.512421 321.154694,318.022858 320.351715,320.314667 
	C318.981232,324.226074 317.151550,328.020935 316.212402,332.028229 
	C314.933167,337.486694 311.829834,340.189240 306.361542,340.968231 
	C301.938385,341.598328 297.639343,343.093353 293.217316,343.740265 
	C289.533600,344.279236 288.666809,346.191040 288.839417,349.532990 
	C289.105225,354.679657 289.261139,359.850464 289.067352,364.996094 
	C288.930878,368.620178 290.152863,370.451691 293.806976,371.105316 
	C298.375580,371.922516 302.843658,373.286163 307.394012,374.225342 
	C311.526703,375.078278 314.105865,377.274872 315.443115,381.389099 
	C317.101013,386.490051 319.223877,391.439880 321.267548,396.772369 
	C328.350952,392.723358 334.799438,389.037262 341.456970,385.231659 
	C334.246155,366.449341 333.813477,347.836823 341.576813,329.182159 
	C335.845703,325.805298 330.427917,322.613007 324.361298,319.061096 
M408.617584,409.257751 
	C422.893433,408.095612 434.354309,401.528381 444.420227,390.842163 
	C438.077240,387.266327 432.277832,383.779724 426.247894,380.752197 
	C424.762329,380.006317 422.103333,380.066040 420.701630,380.925812 
	C409.097565,388.043396 397.836700,387.770203 386.557251,380.241760 
	C385.445496,379.499756 383.282410,379.051392 382.283844,379.631409 
	C376.297974,383.108368 370.510101,386.926270 364.187653,390.926117 
	C376.122253,404.230713 390.238312,410.730713 408.617584,409.257751 
M381.926666,310.261932 
	C376.050507,314.359344 370.174347,318.456726 363.355042,323.211792 
	C371.013031,327.489044 377.033081,330.971466 383.199341,334.172119 
	C384.176605,334.679382 386.085327,334.336609 387.102936,333.676727 
	C398.317688,326.404816 409.459595,326.133331 420.727386,333.530731 
	C421.690948,334.163330 423.384674,334.769104 424.213501,334.349304 
	C430.687622,331.070343 437.033051,327.537231 443.508240,324.033905 
	C428.689880,305.834930 404.814056,300.472717 381.926666,310.261932 
M511.458618,105.811142 
	C514.989319,105.811142 518.519958,105.811142 522.050659,105.811142 
	C522.271790,105.320580 522.492920,104.830017 522.714050,104.339455 
	C509.161896,91.536446 495.609741,78.733437 482.401215,66.255074 
	C482.401215,75.476692 482.193176,85.573311 482.474152,95.656303 
	C482.662201,102.404907 486.578125,105.733513 493.490753,105.800880 
	C499.149719,105.856041 504.809662,105.811935 511.458618,105.811142 
M662.082703,214.418045 
	C653.665161,206.724487 645.247681,199.030930 637.868896,192.286728 
	C637.868896,200.587967 637.623779,211.000229 637.979492,221.391907 
	C638.140625,226.098251 641.167480,230.137131 645.894226,230.403320 
	C656.208984,230.984161 666.579102,230.582886 676.926575,230.582886 
	C677.347839,230.011322 677.769165,229.439743 678.190430,228.868179 
	C672.986877,224.219101 667.783264,219.570023 662.082703,214.418045 
M362.938751,341.552460 
	C360.682098,340.309387 358.425446,339.066345 355.835571,337.639740 
	C350.844879,350.829163 350.775146,363.447784 355.586578,376.881409 
	C362.392670,373.122620 368.758789,369.659973 375.042908,366.054291 
	C375.672028,365.693359 376.083984,364.477783 376.123657,363.636536 
	C376.790680,349.504059 376.774017,349.503174 364.443359,342.406677 
	C364.156403,342.241486 363.864624,342.084747 362.938751,341.552460 
M452.742157,338.999786 
	C452.067963,338.809570 451.183777,338.244019 450.751282,338.485901 
	C445.110382,341.641327 439.501160,344.857330 433.959778,348.184387 
	C432.254425,349.208282 432.003174,364.544922 433.690430,365.562042 
	C439.766022,369.224548 445.932098,372.736938 452.076569,376.313385 
	C457.281006,366.352325 457.542694,352.923523 452.742157,338.999786 
z"/>
<path fill="none" opacity="1.000000" stroke="none" 
	d="
M563.971069,441.048859 
	C543.068298,429.017853 522.497742,417.140137 501.849365,405.217468 
	C503.565155,400.401917 504.948853,395.791718 506.903931,391.438110 
	C507.559784,389.977600 509.521729,388.592682 511.145355,388.172333 
	C516.290588,386.840271 521.572449,386.046722 526.774048,384.918701 
	C531.947205,383.796875 535.097534,380.634460 535.142761,375.213165 
	C535.241455,363.390106 535.261353,351.562347 535.023071,339.742340 
	C534.918335,334.545624 532.177246,331.006744 526.816528,329.866608 
	C521.448914,328.725006 516.046082,327.691071 510.770325,326.211670 
	C509.219788,325.776855 507.498535,324.243347 506.809540,322.767883 
	C504.848389,318.568115 503.379028,314.138733 501.501953,309.240845 
	C507.955780,305.372101 514.300781,301.482727 520.726624,297.732025 
	C544.426331,283.898834 568.153076,270.112000 591.868530,256.305664 
	C593.162537,255.552338 594.485535,254.839447 595.726257,254.005432 
	C600.326843,250.912857 601.682617,246.164398 599.196838,242.022537 
	C596.746155,237.939178 592.517456,237.193634 587.489807,240.105240 
	C569.932251,250.273163 552.398193,260.481659 534.856201,270.676453 
	C527.697876,274.836609 520.542175,279.001129 513.713074,282.972992 
	C504.899414,270.981934 494.360687,261.120453 483.495544,251.608383 
	C480.004700,248.552246 475.860352,248.621399 471.907623,251.139359 
	C467.742798,253.792435 463.616211,256.505615 458.814880,259.619263 
	C458.814880,256.200500 458.810822,253.468643 458.815460,250.736771 
	C458.849823,230.574402 458.843872,210.411850 458.941284,190.249771 
	C458.983124,181.592651 463.172485,177.313339 471.858612,177.304321 
	C521.014771,177.253265 570.171143,177.293442 619.327393,177.310806 
	C619.645386,177.310913 619.963318,177.427185 620.691650,177.569244 
	C620.809631,178.698395 621.046204,179.944244 621.053772,181.191483 
	C621.130676,193.855240 621.158691,206.519302 621.222961,219.183151 
	C621.305481,235.448074 632.066772,246.563049 648.333130,246.849426 
	C660.493591,247.063538 672.660583,246.903839 684.824707,246.910309 
	C686.451904,246.911179 688.079163,246.910431 690.117004,246.910431 
	C690.117004,248.958221 690.116882,250.579315 690.117004,252.200409 
	C690.123718,345.014465 690.132874,437.828522 690.133240,530.642578 
	C690.133240,539.646790 686.784912,542.997009 677.786621,542.996216 
	C609.134216,542.990234 540.481750,542.978027 471.829315,542.954651 
	C462.492676,542.951416 459.091492,539.605103 459.082489,530.380554 
	C459.058441,505.733856 459.074310,481.087097 459.074310,455.484070 
	C463.010620,457.982758 466.416077,460.172394 469.849152,462.317871 
	C476.628845,466.554657 480.259521,466.439514 485.945801,461.132172 
	C493.130188,454.426758 500.200256,447.585358 507.042664,440.533905 
	C509.631287,437.866211 511.448242,434.449707 513.892151,430.984192 
	C520.283875,434.637787 527.180786,438.531250 534.031494,442.504517 
	C563.230591,459.439575 592.414734,476.400543 621.610962,493.340668 
	C622.902161,494.089874 624.207703,494.858612 625.593567,495.392456 
	C629.580200,496.928192 632.901184,495.759735 635.096863,492.242645 
	C637.277222,488.749939 636.932434,485.162476 633.918274,482.241791 
	C632.513123,480.880188 630.688049,479.919220 628.971558,478.916534 
	C607.424194,466.330200 585.861755,453.769440 563.971069,441.048859 
M568.555908,362.568817 
	C598.020508,362.563110 627.485107,362.584229 656.949585,362.526917 
	C662.237427,362.516632 665.105164,359.654388 665.250549,354.699951 
	C665.400208,349.598175 662.322021,346.240936 656.976257,346.232330 
	C624.681946,346.180450 592.387329,346.197693 560.093018,346.265289 
	C554.938171,346.276093 552.180908,348.987915 551.955688,353.733978 
	C551.724609,358.603943 554.499878,361.863068 559.600403,362.381622 
	C562.239563,362.649963 564.919373,362.518738 568.555908,362.568817 
M647.463745,381.187195 
	C626.171570,381.173981 604.879395,381.155304 583.587219,381.150482 
	C575.769165,381.148712 567.945557,381.006805 560.135010,381.256470 
	C554.909241,381.423462 551.989136,384.633179 551.964050,389.428772 
	C551.937439,394.513489 555.021973,397.923523 560.319092,397.935364 
	C592.423340,398.007080 624.528015,397.987335 656.632385,397.906006 
	C661.550659,397.893555 665.042847,394.473663 665.263184,390.036591 
	C665.491150,385.445068 662.018250,381.688416 656.927124,381.290680 
	C654.114990,381.070984 651.274719,381.211304 647.463745,381.187195 
M620.500000,327.006165 
	C632.479919,327.009277 644.468018,327.249268 656.433350,326.832458 
	C659.096313,326.739655 662.729736,325.005096 664.095398,322.864655 
	C667.758484,317.123199 663.833740,311.144745 656.717773,311.090424 
	C641.743774,310.976105 626.768311,311.049805 611.793457,311.047333 
	C594.821960,311.044525 577.850342,311.017090 560.878967,311.055420 
	C555.402649,311.067810 552.249268,313.727081 551.970459,318.327240 
	C551.645447,323.689728 554.954834,326.936005 561.098145,326.956512 
	C580.565247,327.021454 600.032715,326.996765 620.500000,327.006165 
M506.513092,503.477264 
	C527.004211,503.457428 547.495728,503.501862 567.986145,503.374878 
	C573.471497,503.340881 576.898987,500.015656 576.939392,495.362732 
	C576.979309,490.768463 573.398010,487.172241 568.088562,487.152191 
	C542.932983,487.057068 517.776733,487.068115 492.621002,487.151825 
	C487.268433,487.169678 483.719025,490.615448 483.694672,495.245636 
	C483.670013,499.934906 486.990326,503.133759 492.528381,503.393188 
	C496.850677,503.595734 501.188812,503.461792 506.513092,503.477264 
M565.253601,213.097214 
	C541.635498,213.091232 518.017395,213.074829 494.399261,213.085907 
	C487.712616,213.089050 484.080109,215.986053 484.106140,221.183914 
	C484.131470,226.243591 487.548492,228.915329 494.107147,228.953934 
	C499.096741,228.983307 504.086578,228.970428 509.076324,228.971588 
	C528.702637,228.976166 548.329041,229.015732 567.955200,228.962204 
	C574.786743,228.943573 578.618835,223.377686 575.856628,217.624695 
	C573.891235,213.531219 570.241455,212.820099 565.253601,213.097214 
M600.509277,433.065857 
	C619.328613,433.075592 638.148071,433.134613 656.967102,433.062683 
	C662.099487,433.043060 665.134094,429.868805 665.164612,425.010529 
	C665.195251,420.131348 662.192261,417.059631 657.033569,416.910980 
	C653.039856,416.795898 649.040222,416.881317 645.043213,416.881500 
	C626.557007,416.882263 608.070557,416.833191 589.584717,416.918671 
	C584.354858,416.942841 580.904663,420.483856 580.995178,425.248871 
	C581.082947,429.866089 584.349243,432.902222 589.522461,433.039917 
	C592.851074,433.128510 596.183716,433.062775 600.509277,433.065857 
M604.500854,275.704559 
	C599.671448,275.709991 594.840271,275.635651 590.013123,275.742096 
	C584.603027,275.861420 581.652588,278.663300 581.605896,283.497162 
	C581.559692,288.280731 584.488098,291.528931 589.829285,291.567749 
	C612.476196,291.732452 635.124878,291.726501 657.772461,291.642609 
	C661.931763,291.627167 664.600830,289.269165 665.230774,285.002808 
	C666.065491,279.349915 662.738525,275.746399 656.458862,275.725250 
	C639.472900,275.668091 622.486633,275.705200 604.500854,275.704559 
z"/>
<path fill="none" opacity="1.000000" stroke="none" 
	d="
M118.107071,490.999939 
	C118.121193,391.019714 118.135674,291.539520 118.145844,192.059311 
	C118.146980,180.979446 121.754463,177.417236 132.764969,177.425980 
	C172.257034,177.457306 211.749146,177.445831 251.241241,177.450500 
	C252.895126,177.450699 254.548996,177.450516 256.584595,177.450516 
	C256.584595,205.057541 256.584595,232.458588 256.584595,260.462189 
	C255.310181,259.824493 254.037598,259.280914 252.856369,258.582764 
	C230.658783,245.463287 208.482086,232.308380 186.276184,219.202957 
	C180.401352,215.735764 175.796829,216.403564 173.238541,220.914642 
	C170.772476,225.263077 171.979004,229.715515 176.996994,232.790375 
	C185.360107,237.915054 193.911224,242.732147 202.362488,247.713837 
	C235.738022,267.387360 269.107300,287.071442 302.470184,306.766388 
	C304.010681,307.675781 305.467102,308.727600 306.895721,309.668945 
	C305.046417,314.476837 303.479004,319.021393 301.504822,323.381775 
	C300.953461,324.599548 299.327423,325.760559 297.977509,326.110138 
	C292.990295,327.401611 287.890137,328.249023 282.874023,329.438751 
	C276.544067,330.940063 273.472778,333.995819 273.270752,340.437958 
	C272.915833,351.755676 272.941772,363.099487 273.269745,374.419006 
	C273.454071,380.779541 276.177521,383.563751 282.484100,385.140411 
	C287.321228,386.349701 292.315155,386.993530 297.067047,388.450745 
	C298.906586,389.014832 300.846802,390.835968 301.733429,392.592926 
	C303.591949,396.276031 304.782349,400.296234 306.447754,404.709930 
	C303.456146,406.553192 300.439545,408.502716 297.339172,410.308350 
	C258.101776,433.159607 218.852325,455.990204 179.605408,478.825104 
	C178.886780,479.243225 178.147964,479.628052 177.441376,480.065247 
	C172.246597,483.279633 170.680008,487.860962 173.293518,492.163391 
	C175.828445,496.336426 180.146469,497.079681 185.497101,493.992706 
	C216.182709,476.288879 246.839722,458.535522 277.504303,440.795258 
	C283.398346,437.385376 289.282623,433.958588 294.525177,430.914795 
	C297.688293,434.998810 300.349182,439.090454 303.658051,442.565033 
	C309.859375,449.076996 316.352722,455.319489 322.883148,461.506744 
	C327.939331,466.297272 331.795776,466.567596 337.702209,462.935303 
	C341.338501,460.699097 344.909698,458.357025 349.221161,455.609344 
	C349.221161,457.477966 349.221161,458.562500 349.221161,459.647034 
	C349.220856,483.308990 349.246368,506.970947 349.207550,530.632874 
	C349.192139,540.022156 346.244080,542.967102 337.017639,542.968445 
	C268.531250,542.978821 200.044846,542.981079 131.558456,542.973145 
	C121.392220,542.971985 118.124573,539.686096 118.108009,529.489197 
	C118.087440,516.826111 118.105042,504.163055 118.107071,490.999939 
M143.973404,393.301788 
	C145.542984,396.879822 148.523041,397.815216 152.123703,397.813263 
	C183.785583,397.796051 215.447495,397.836060 247.109314,397.797638 
	C253.192169,397.790253 256.648499,394.891876 256.799591,390.041046 
	C256.951599,385.160431 253.026886,381.246277 247.323654,381.229706 
	C215.662048,381.137695 183.999847,381.107697 152.338440,381.222473 
	C145.423248,381.247528 142.344009,385.639435 143.973404,393.301788 
M205.500031,346.111115 
	C188.009277,346.126251 170.518402,346.111694 153.027817,346.172363 
	C146.708694,346.194275 143.231293,349.157379 143.181000,354.313171 
	C143.132416,359.295288 146.714828,362.288879 152.979050,362.489838 
	C153.811172,362.516571 154.644699,362.502136 155.477585,362.502380 
	C185.128540,362.510437 214.779480,362.522308 244.430435,362.514862 
	C246.258453,362.514404 248.115524,362.537750 249.908813,362.243652 
	C254.663712,361.463867 257.315735,357.437042 256.232300,352.718262 
	C255.109528,347.828033 251.630127,346.119415 246.978592,346.118225 
	C233.485733,346.114685 219.992889,346.113525 205.500031,346.111115 
M231.600616,510.350098 
	C258.266785,510.355530 284.932953,510.367645 311.599121,510.353729 
	C313.760254,510.352600 315.977570,510.446320 318.070007,510.015869 
	C321.723755,509.264282 323.847656,506.794067 324.174744,503.060364 
	C324.525848,499.052246 322.572052,496.309937 318.861542,495.013275 
	C317.333466,494.479279 315.586914,494.405457 313.939331,494.402954 
	C284.773285,494.358612 255.607193,494.349579 226.441116,494.368378 
	C224.788925,494.369415 223.066666,494.432678 221.498596,494.886780 
	C217.479462,496.050568 215.365845,498.910492 215.650711,503.074402 
	C215.937851,507.271423 218.418854,509.802063 222.646652,510.207642 
	C225.290939,510.461304 227.973343,510.317505 231.600616,510.350098 
M170.500092,311.083099 
	C164.508270,311.079468 158.516052,311.032043 152.524719,311.084564 
	C146.609100,311.136383 143.044220,314.221008 143.164398,319.054230 
	C143.287369,323.999939 146.765930,326.990692 152.602722,327.009674 
	C164.086914,327.047028 175.571335,327.017303 187.055649,327.015869 
	C207.361252,327.013397 227.667114,327.066650 247.972336,326.978180 
	C254.771027,326.948517 258.568542,321.152039 255.670273,315.464020 
	C253.862244,311.915619 250.698639,311.011627 246.897003,311.023560 
	C221.764877,311.102570 196.632416,311.075928 170.500092,311.083099 
M204.496384,291.640594 
	C209.151016,291.629822 213.809540,291.734558 218.459259,291.577789 
	C223.754562,291.399200 226.928253,288.364349 226.949203,283.770538 
	C226.970215,279.168488 223.721985,275.750122 218.671936,275.725952 
	C196.064026,275.617737 173.455154,275.604431 150.847198,275.694885 
	C146.216339,275.713409 143.033432,279.300171 143.108337,283.701904 
	C143.190216,288.513977 146.780640,291.578461 152.628555,291.596649 
	C169.584808,291.649323 186.541275,291.630798 204.496384,291.640594 
M210.467667,416.873932 
	C207.472748,416.874268 204.477814,416.874359 201.482895,416.874969 
	C184.844513,416.878296 168.205811,416.826050 151.567947,416.919586 
	C146.657745,416.947174 143.170914,420.401642 143.051331,424.858856 
	C142.934875,429.200104 146.177353,432.999908 150.716171,433.020935 
	C173.676315,433.127411 196.637695,433.121399 219.597626,432.984100 
	C224.376358,432.955505 227.381744,429.468445 227.303726,424.958313 
	C227.226822,420.512054 224.116272,417.241577 219.436295,416.929504 
	C216.785522,416.752777 214.114380,416.881775 210.467667,416.873932 
z"/>
<path fill="none" opacity="1.000000" stroke="none" 
	d="
M286.342194,52.143150 
	C346.126343,52.190403 405.450165,52.238544 464.773987,52.303062 
	C465.069641,52.303383 465.364990,52.535534 466.184601,52.879158 
	C466.184601,65.609390 466.137177,78.554703 466.217285,91.499229 
	C466.237793,94.813431 466.347656,98.183922 466.955505,101.427521 
	C469.246796,113.653893 479.198639,121.918327 491.614319,121.985146 
	C505.910583,122.062088 520.207520,122.003014 535.122559,122.003014 
	C535.122559,135.083557 535.122559,147.826294 535.122559,161.248154 
	C533.818665,161.248154 532.046143,161.246628 530.273621,161.248383 
	C510.776642,161.267776 491.279572,161.264786 471.782684,161.314133 
	C453.563263,161.360245 442.895447,172.003189 442.870209,190.169678 
	C442.839630,212.161346 442.862976,234.153107 442.862976,256.479858 
	C438.350739,256.282074 435.837524,254.464706 435.017609,249.977264 
	C434.092896,244.916245 432.787903,239.912491 431.412354,234.949219 
	C429.807220,229.157776 426.967316,226.840439 421.050079,226.785843 
	C409.720367,226.681320 398.386841,226.724991 387.057892,226.900726 
	C381.066986,226.993652 378.403107,229.369110 376.908325,235.191589 
	C376.701569,235.997025 376.260834,236.796921 376.270355,237.595276 
	C376.431885,251.085800 368.474701,257.682190 356.504852,260.704712 
	C354.857788,261.120636 352.630707,260.984039 351.194885,260.175201 
	C346.271698,257.401855 341.622040,254.148407 336.789978,251.206268 
	C332.325928,248.488190 327.854401,248.470718 323.936218,252.188889 
	C315.961975,259.756104 308.036591,267.379364 300.272430,275.160461 
	C298.220337,277.217041 296.829254,279.933167 294.869263,282.724396 
	C288.671448,279.140137 281.832977,275.421051 275.308624,271.214722 
	C273.993347,270.366760 273.283813,267.672821 273.280518,265.828247 
	C273.187378,213.669800 273.216370,161.511124 273.236420,109.352493 
	C273.242126,94.521461 273.238770,79.690208 273.323090,64.859528 
	C273.370941,56.437481 277.337677,52.504360 286.342194,52.143150 
M422.500000,126.013496 
	C385.512695,126.027809 348.525360,126.041153 311.538055,126.059319 
	C309.705780,126.060219 307.858276,125.960274 306.044189,126.153954 
	C301.140717,126.677437 297.833282,130.261398 298.004395,134.692108 
	C298.181396,139.276138 301.532532,142.360962 306.657288,142.363327 
	C354.307373,142.385330 401.957489,142.383560 449.607544,142.340240 
	C455.328064,142.335037 459.109253,139.041077 459.186401,134.355347 
	C459.268250,129.381165 455.476746,126.062256 449.490967,126.026245 
	C440.827606,125.974129 432.163696,126.012970 422.500000,126.013496 
M426.903900,166.542526 
	C424.818726,162.051010 420.958282,161.290817 416.506256,161.299408 
	C381.175232,161.367645 345.844055,161.357040 310.512909,161.376617 
	C309.347321,161.377258 308.175598,161.376450 307.017273,161.487076 
	C301.354706,162.027878 297.972839,165.096344 298.018524,169.601471 
	C298.067108,174.392944 301.697021,177.559875 307.519409,177.566925 
	C344.183716,177.611328 380.848114,177.627945 417.512421,177.581970 
	C424.434387,177.573288 427.384613,174.228104 426.903900,166.542526 
M390.500000,107.049767 
	C399.661133,107.049965 408.822479,107.085281 417.983368,107.037674 
	C423.825531,107.007317 427.195770,103.993408 427.209717,98.951019 
	C427.223389,94.025154 423.705902,90.855324 417.921478,90.846519 
	C381.277130,90.790764 344.632690,90.766014 307.988281,90.768684 
	C301.722382,90.769142 298.077454,93.760139 297.966827,98.748535 
	C297.849609,104.034554 301.448181,107.022972 308.049438,107.027534 
	C335.199615,107.046295 362.349823,107.044212 390.500000,107.049767 
M311.644714,212.761002 
	C327.928009,212.745667 344.211548,212.780563 360.494415,212.689651 
	C366.790619,212.654495 370.283142,209.546463 370.160583,204.474487 
	C370.042542,199.588242 366.632080,196.807709 360.554535,196.770813 
	C353.243958,196.726440 345.932861,196.759857 338.622009,196.762970 
	C327.988037,196.767471 317.353333,196.703613 306.720398,196.811829 
	C301.535187,196.864594 297.911194,200.456314 298.033875,205.035904 
	C298.153900,209.516861 301.485504,212.499741 306.707184,212.753632 
	C308.033325,212.818115 309.365204,212.763458 311.644714,212.761002 
z"/>
<path fill="none" opacity="1.000000" stroke="none" 
	d="
M379.997803,421.071350 
	C404.953125,430.246552 437.419098,425.081573 458.655365,398.836273 
	C467.059723,403.902313 476.032715,408.382599 483.833984,414.385559 
	C488.056091,417.634369 490.401581,423.407928 493.285309,428.227081 
	C493.777679,429.049927 493.131592,431.210571 492.301880,432.060638 
	C487.205048,437.282593 481.904266,442.305511 476.613800,447.450653 
	C470.809631,443.839905 465.414093,440.572113 460.115845,437.153656 
	C456.992249,435.138336 454.138336,435.269440 450.751526,436.799500 
	C443.503967,440.073730 436.145386,443.159943 428.648956,445.803436 
	C424.235413,447.359802 421.680206,449.778473 420.807983,454.420197 
	C419.708008,460.273621 418.186127,466.047729 416.775909,472.161224 
	C409.063538,472.161224 401.589813,472.310638 394.134613,472.006409 
	C392.964539,471.958649 391.263550,470.031677 390.865570,468.665558 
	C389.519165,464.043304 388.476349,459.312592 387.646698,454.565765 
	C386.907013,450.333893 384.623016,447.834106 380.677612,446.294128 
	C372.795563,443.217590 365.105347,439.623474 357.133209,436.819336 
	C354.663727,435.950684 351.170074,436.149323 348.792084,437.252930 
	C343.996307,439.478699 339.560059,442.535095 335.143585,445.499237 
	C332.848785,447.039337 331.231628,447.255035 329.135590,445.121338 
	C324.935272,440.845490 320.554382,436.735962 316.084625,432.740540 
	C313.894043,430.782440 313.923767,428.973846 315.319000,426.659790 
	C319.646301,419.482727 324.212677,412.736359 332.300201,408.993042 
	C338.294098,406.218811 343.860779,402.521576 349.955017,399.042999 
	C357.773682,409.156372 367.723877,416.408325 379.997803,421.071350 
z"/>
<path fill="none" opacity="1.000000" stroke="none" 
	d="
M463.822876,275.869629 
	C468.339203,273.046356 472.750671,268.091034 476.696655,268.437500 
	C480.625519,268.782501 484.052673,274.488525 487.764893,277.770233 
	C490.500641,280.188660 493.341187,282.488586 495.718628,284.490662 
	C488.015991,301.893982 471.663452,306.434021 458.385529,315.461792 
	C444.035126,298.748199 426.425476,288.937378 404.070648,289.045959 
	C381.965851,289.153320 364.351715,298.544739 349.997406,315.677765 
	C337.074005,306.299774 319.942657,302.567505 313.381287,284.970459 
	C318.738739,279.693329 324.211121,274.134583 329.944763,268.859863 
	C330.696381,268.168396 333.064972,268.449860 334.209808,269.107452 
	C338.963501,271.837921 343.594147,274.797211 348.153595,277.846436 
	C351.398132,280.016266 354.324402,279.991577 357.916534,278.315765 
	C366.025696,274.532684 374.439484,271.404236 382.565918,267.655273 
	C384.383118,266.816956 386.257233,264.748596 386.844727,262.855408 
	C388.515900,257.470337 389.671021,251.909637 390.753906,246.364288 
	C391.270996,243.716385 392.436920,242.795670 395.111176,242.869843 
	C401.103729,243.036102 407.107880,243.045685 413.099579,242.864151 
	C415.826233,242.781525 416.924530,243.867386 417.449738,246.407104 
	C418.458984,251.287613 419.842163,256.090851 420.849213,260.971741 
	C421.764404,265.407288 424.480591,267.606384 428.654572,269.048767 
	C435.541412,271.428680 442.488373,273.874725 448.937683,277.207062 
	C454.409943,280.034515 458.940216,280.163544 463.822876,275.869629 
z"/>
<path fill="none" opacity="1.000000" stroke="none" 
	d="
M519.311829,364.738464 
	C519.837524,368.483429 518.295776,370.036438 515.162292,370.714630 
	C510.289856,371.769135 505.509552,373.258453 500.627472,374.256439 
	C496.412689,375.117950 494.011017,377.342194 492.770050,381.527649 
	C491.276764,386.564056 489.164154,391.416870 487.092255,396.957245 
	C479.822205,392.703308 473.299652,388.886749 466.890900,385.136780 
	C474.165802,358.229645 474.154175,351.209045 466.756592,329.188660 
	C469.860291,327.284454 473.057678,325.276581 476.300964,323.345764 
	C479.575256,321.396545 482.895050,319.523834 486.985809,317.160736 
	C488.961517,322.628754 491.075195,327.628906 492.546570,332.811401 
	C493.792389,337.199432 496.206360,339.593872 500.699615,340.367554 
	C505.117462,341.128265 509.427277,342.516815 513.845215,343.276306 
	C517.981812,343.987396 519.826477,345.871674 519.464233,350.282501 
	C519.083435,354.918121 519.340820,359.606201 519.311829,364.738464 
z"/>
<path fill="none" opacity="1.000000" stroke="none" 
	d="
M324.685699,319.240906 
	C330.427917,322.613007 335.845703,325.805298 341.576813,329.182159 
	C333.813477,347.836823 334.246155,366.449341 341.456970,385.231659 
	C334.799438,389.037262 328.350952,392.723358 321.267548,396.772369 
	C319.223877,391.439880 317.101013,386.490051 315.443115,381.389099 
	C314.105865,377.274872 311.526703,375.078278 307.394012,374.225342 
	C302.843658,373.286163 298.375580,371.922516 293.806976,371.105316 
	C290.152863,370.451691 288.930878,368.620178 289.067352,364.996094 
	C289.261139,359.850464 289.105225,354.679657 288.839417,349.532990 
	C288.666809,346.191040 289.533600,344.279236 293.217316,343.740265 
	C297.639343,343.093353 301.938385,341.598328 306.361542,340.968231 
	C311.829834,340.189240 314.933167,337.486694 316.212402,332.028229 
	C317.151550,328.020935 318.981232,324.226074 320.351715,320.314667 
	C321.154694,318.022858 322.409576,317.512421 324.685699,319.240906 
z"/>
<path fill="none" opacity="1.000000" stroke="none" 
	d="
M408.178162,409.288788 
	C390.238312,410.730713 376.122253,404.230713 364.187653,390.926117 
	C370.510101,386.926270 376.297974,383.108368 382.283844,379.631409 
	C383.282410,379.051392 385.445496,379.499756 386.557251,380.241760 
	C397.836700,387.770203 409.097565,388.043396 420.701630,380.925812 
	C422.103333,380.066040 424.762329,380.006317 426.247894,380.752197 
	C432.277832,383.779724 438.077240,387.266327 444.420227,390.842163 
	C434.354309,401.528381 422.893433,408.095612 408.178162,409.288788 
z"/>
<path fill="none" opacity="1.000000" stroke="none" 
	d="
M382.278931,310.121765 
	C404.814056,300.472717 428.689880,305.834930 443.508240,324.033905 
	C437.033051,327.537231 430.687622,331.070343 424.213501,334.349304 
	C423.384674,334.769104 421.690948,334.163330 420.727386,333.530731 
	C409.459595,326.133331 398.317688,326.404816 387.102936,333.676727 
	C386.085327,334.336609 384.176605,334.679382 383.199341,334.172119 
	C377.033081,330.971466 371.013031,327.489044 363.355042,323.211792 
	C370.174347,318.456726 376.050507,314.359344 382.278931,310.121765 
z"/>
<path fill="none" opacity="1.000000" stroke="none" 
	d="
M510.963898,105.811485 
	C504.809662,105.811935 499.149719,105.856041 493.490753,105.800880 
	C486.578125,105.733513 482.662201,102.404907 482.474152,95.656303 
	C482.193176,85.573311 482.401215,75.476692 482.401215,66.255074 
	C495.609741,78.733437 509.161896,91.536446 522.714050,104.339455 
	C522.492920,104.830017 522.271790,105.320580 522.050659,105.811142 
	C518.519958,105.811142 514.989319,105.811142 510.963898,105.811485 
z"/>
<path fill="none" opacity="1.000000" stroke="none" 
	d="
M662.331177,214.669495 
	C667.783264,219.570023 672.986877,224.219101 678.190430,228.868179 
	C677.769165,229.439743 677.347839,230.011322 676.926575,230.582886 
	C666.579102,230.582886 656.208984,230.984161 645.894226,230.403320 
	C641.167480,230.137131 638.140625,226.098251 637.979492,221.391907 
	C637.623779,211.000229 637.868896,200.587967 637.868896,192.286728 
	C645.247681,199.030930 653.665161,206.724487 662.331177,214.669495 
z"/>
<path fill="none" opacity="1.000000" stroke="none" 
	d="
M363.256897,341.738281 
	C363.864624,342.084747 364.156403,342.241486 364.443359,342.406677 
	C376.774017,349.503174 376.790680,349.504059 376.123657,363.636536 
	C376.083984,364.477783 375.672028,365.693359 375.042908,366.054291 
	C368.758789,369.659973 362.392670,373.122620 355.586578,376.881409 
	C350.775146,363.447784 350.844879,350.829163 355.835571,337.639740 
	C358.425446,339.066345 360.682098,340.309387 363.256897,341.738281 
z"/>
<path fill="none" opacity="1.000000" stroke="none" 
	d="
M452.866638,339.362671 
	C457.542694,352.923523 457.281006,366.352325 452.076569,376.313385 
	C445.932098,372.736938 439.766022,369.224548 433.690430,365.562042 
	C432.003174,364.544922 432.254425,349.208282 433.959778,348.184387 
	C439.501160,344.857330 445.110382,341.641327 450.751282,338.485901 
	C451.183777,338.244019 452.067963,338.809570 452.866638,339.362671 
z"/>
<path fill="currentColor" opacity="1.000000" stroke="none" 
	d="
M568.068359,362.568420 
	C564.919373,362.518738 562.239563,362.649963 559.600403,362.381622 
	C554.499878,361.863068 551.724609,358.603943 551.955688,353.733978 
	C552.180908,348.987915 554.938171,346.276093 560.093018,346.265289 
	C592.387329,346.197693 624.681946,346.180450 656.976257,346.232330 
	C662.322021,346.240936 665.400208,349.598175 665.250549,354.699951 
	C665.105164,359.654388 662.237427,362.516632 656.949585,362.526917 
	C627.485107,362.584229 598.020508,362.563110 568.068359,362.568420 
z"/>
<path fill="currentColor" opacity="1.000000" stroke="none" 
	d="
M647.955444,381.188232 
	C651.274719,381.211304 654.114990,381.070984 656.927124,381.290680 
	C662.018250,381.688416 665.491150,385.445068 665.263184,390.036591 
	C665.042847,394.473663 661.550659,397.893555 656.632385,397.906006 
	C624.528015,397.987335 592.423340,398.007080 560.319092,397.935364 
	C555.021973,397.923523 551.937439,394.513489 551.964050,389.428772 
	C551.989136,384.633179 554.909241,381.423462 560.135010,381.256470 
	C567.945557,381.006805 575.769165,381.148712 583.587219,381.150482 
	C604.879395,381.155304 626.171570,381.173981 647.955444,381.188232 
z"/>
<path fill="currentColor" opacity="1.000000" stroke="none" 
	d="
M620.000000,327.006439 
	C600.032715,326.996765 580.565247,327.021454 561.098145,326.956512 
	C554.954834,326.936005 551.645447,323.689728 551.970459,318.327240 
	C552.249268,313.727081 555.402649,311.067810 560.878967,311.055420 
	C577.850342,311.017090 594.821960,311.044525 611.793457,311.047333 
	C626.768311,311.049805 641.743774,310.976105 656.717773,311.090424 
	C663.833740,311.144745 667.758484,317.123199 664.095398,322.864655 
	C662.729736,325.005096 659.096313,326.739655 656.433350,326.832458 
	C644.468018,327.249268 632.479919,327.009277 620.000000,327.006439 
z"/>
<path fill="currentColor" opacity="1.000000" stroke="none" 
	d="
M506.016479,503.477295 
	C501.188812,503.461792 496.850677,503.595734 492.528381,503.393188 
	C486.990326,503.133759 483.670013,499.934906 483.694672,495.245636 
	C483.719025,490.615448 487.268433,487.169678 492.621002,487.151825 
	C517.776733,487.068115 542.932983,487.057068 568.088562,487.152191 
	C573.398010,487.172241 576.979309,490.768463 576.939392,495.362732 
	C576.898987,500.015656 573.471497,503.340881 567.986145,503.374878 
	C547.495728,503.501862 527.004211,503.457428 506.016479,503.477295 
z"/>
<path fill="currentColor" opacity="1.000000" stroke="none" 
	d="
M565.716064,213.097137 
	C570.241455,212.820099 573.891235,213.531219 575.856628,217.624695 
	C578.618835,223.377686 574.786743,228.943573 567.955200,228.962204 
	C548.329041,229.015732 528.702637,228.976166 509.076324,228.971588 
	C504.086578,228.970428 499.096741,228.983307 494.107147,228.953934 
	C487.548492,228.915329 484.131470,226.243591 484.106140,221.183914 
	C484.080109,215.986053 487.712616,213.089050 494.399261,213.085907 
	C518.017395,213.074829 541.635498,213.091232 565.716064,213.097137 
z"/>
<path fill="currentColor" opacity="1.000000" stroke="none" 
	d="
M600.011963,433.066010 
	C596.183716,433.062775 592.851074,433.128510 589.522461,433.039917 
	C584.349243,432.902222 581.082947,429.866089 580.995178,425.248871 
	C580.904663,420.483856 584.354858,416.942841 589.584717,416.918671 
	C608.070557,416.833191 626.557007,416.882263 645.043213,416.881500 
	C649.040222,416.881317 653.039856,416.795898 657.033569,416.910980 
	C662.192261,417.059631 665.195251,420.131348 665.164612,425.010529 
	C665.134094,429.868805 662.099487,433.043060 656.967102,433.062683 
	C638.148071,433.134613 619.328613,433.075592 600.011963,433.066010 
z"/>
<path fill="currentColor" opacity="1.000000" stroke="none" 
	d="
M605.000671,275.704712 
	C622.486633,275.705200 639.472900,275.668091 656.458862,275.725250 
	C662.738525,275.746399 666.065491,279.349915 665.230774,285.002808 
	C664.600830,289.269165 661.931763,291.627167 657.772461,291.642609 
	C635.124878,291.726501 612.476196,291.732452 589.829285,291.567749 
	C584.488098,291.528931 581.559692,288.280731 581.605896,283.497162 
	C581.652588,278.663300 584.603027,275.861420 590.013123,275.742096 
	C594.840271,275.635651 599.671448,275.709991 605.000671,275.704712 
z"/>
<path fill="currentColor" opacity="1.000000" stroke="none" 
	d="
M143.854736,392.933289 
	C142.344009,385.639435 145.423248,381.247528 152.338440,381.222473 
	C183.999847,381.107697 215.662048,381.137695 247.323654,381.229706 
	C253.026886,381.246277 256.951599,385.160431 256.799591,390.041046 
	C256.648499,394.891876 253.192169,397.790253 247.109314,397.797638 
	C215.447495,397.836060 183.785583,397.796051 152.123703,397.813263 
	C148.523041,397.815216 145.542984,396.879822 143.854736,392.933289 
z"/>
<path fill="currentColor" opacity="1.000000" stroke="none" 
	d="
M206.000031,346.111298 
	C219.992889,346.113525 233.485733,346.114685 246.978592,346.118225 
	C251.630127,346.119415 255.109528,347.828033 256.232300,352.718262 
	C257.315735,357.437042 254.663712,361.463867 249.908813,362.243652 
	C248.115524,362.537750 246.258453,362.514404 244.430435,362.514862 
	C214.779480,362.522308 185.128540,362.510437 155.477585,362.502380 
	C154.644699,362.502136 153.811172,362.516571 152.979050,362.489838 
	C146.714828,362.288879 143.132416,359.295288 143.181000,354.313171 
	C143.231293,349.157379 146.708694,346.194275 153.027817,346.172363 
	C170.518402,346.111694 188.009277,346.126251 206.000031,346.111298 
z"/>
<path fill="currentColor" opacity="1.000000" stroke="none" 
	d="
M231.119629,510.351074 
	C227.973343,510.317505 225.290939,510.461304 222.646652,510.207642 
	C218.418854,509.802063 215.937851,507.271423 215.650711,503.074402 
	C215.365845,498.910492 217.479462,496.050568 221.498596,494.886780 
	C223.066666,494.432678 224.788925,494.369415 226.441116,494.368378 
	C255.607193,494.349579 284.773285,494.358612 313.939331,494.402954 
	C315.586914,494.405457 317.333466,494.479279 318.861542,495.013275 
	C322.572052,496.309937 324.525848,499.052246 324.174744,503.060364 
	C323.847656,506.794067 321.723755,509.264282 318.070007,510.015869 
	C315.977570,510.446320 313.760254,510.352600 311.599121,510.353729 
	C284.932953,510.367645 258.266785,510.355530 231.119629,510.351074 
z"/>
<path fill="currentColor" opacity="1.000000" stroke="none" 
	d="
M171.000076,311.083374 
	C196.632416,311.075928 221.764877,311.102570 246.897003,311.023560 
	C250.698639,311.011627 253.862244,311.915619 255.670273,315.464020 
	C258.568542,321.152039 254.771027,326.948517 247.972336,326.978180 
	C227.667114,327.066650 207.361252,327.013397 187.055649,327.015869 
	C175.571335,327.017303 164.086914,327.047028 152.602722,327.009674 
	C146.765930,326.990692 143.287369,323.999939 143.164398,319.054230 
	C143.044220,314.221008 146.609100,311.136383 152.524719,311.084564 
	C158.516052,311.032043 164.508270,311.079468 171.000076,311.083374 
z"/>
<path fill="currentColor" opacity="1.000000" stroke="none" 
	d="
M203.997025,291.640381 
	C186.541275,291.630798 169.584808,291.649323 152.628555,291.596649 
	C146.780640,291.578461 143.190216,288.513977 143.108337,283.701904 
	C143.033432,279.300171 146.216339,275.713409 150.847198,275.694885 
	C173.455154,275.604431 196.064026,275.617737 218.671936,275.725952 
	C223.721985,275.750122 226.970215,279.168488 226.949203,283.770538 
	C226.928253,288.364349 223.754562,291.399200 218.459259,291.577789 
	C213.809540,291.734558 209.151016,291.629822 203.997025,291.640381 
z"/>
<path fill="currentColor" opacity="1.000000" stroke="none" 
	d="
M210.960037,416.873474 
	C214.114380,416.881775 216.785522,416.752777 219.436295,416.929504 
	C224.116272,417.241577 227.226822,420.512054 227.303726,424.958313 
	C227.381744,429.468445 224.376358,432.955505 219.597626,432.984100 
	C196.637695,433.121399 173.676315,433.127411 150.716171,433.020935 
	C146.177353,432.999908 142.934875,429.200104 143.051331,424.858856 
	C143.170914,420.401642 146.657745,416.947174 151.567947,416.919586 
	C168.205811,416.826050 184.844513,416.878296 201.482895,416.874969 
	C204.477814,416.874359 207.472748,416.874268 210.960037,416.873474 
z"/>
<path fill="currentColor" opacity="1.000000" stroke="none" 
	d="
M423.000000,126.013245 
	C432.163696,126.012970 440.827606,125.974129 449.490967,126.026245 
	C455.476746,126.062256 459.268250,129.381165 459.186401,134.355347 
	C459.109253,139.041077 455.328064,142.335037 449.607544,142.340240 
	C401.957489,142.383560 354.307373,142.385330 306.657288,142.363327 
	C301.532532,142.360962 298.181396,139.276138 298.004395,134.692108 
	C297.833282,130.261398 301.140717,126.677437 306.044189,126.153954 
	C307.858276,125.960274 309.705780,126.060219 311.538055,126.059319 
	C348.525360,126.041153 385.512695,126.027809 423.000000,126.013245 
z"/>
<path fill="currentColor" opacity="1.000000" stroke="none" 
	d="
M426.990662,166.893478 
	C427.384613,174.228104 424.434387,177.573288 417.512421,177.581970 
	C380.848114,177.627945 344.183716,177.611328 307.519409,177.566925 
	C301.697021,177.559875 298.067108,174.392944 298.018524,169.601471 
	C297.972839,165.096344 301.354706,162.027878 307.017273,161.487076 
	C308.175598,161.376450 309.347321,161.377258 310.512909,161.376617 
	C345.844055,161.357040 381.175232,161.367645 416.506256,161.299408 
	C420.958282,161.290817 424.818726,162.051010 426.990662,166.893478 
z"/>
<path fill="currentColor" opacity="1.000000" stroke="none" 
	d="
M390.000000,107.049782 
	C362.349823,107.044212 335.199615,107.046295 308.049438,107.027534 
	C301.448181,107.022972 297.849609,104.034554 297.966827,98.748535 
	C298.077454,93.760139 301.722382,90.769142 307.988281,90.768684 
	C344.632690,90.766014 381.277130,90.790764 417.921478,90.846519 
	C423.705902,90.855324 427.223389,94.025154 427.209717,98.951019 
	C427.195770,103.993408 423.825531,107.007317 417.983368,107.037674 
	C408.822479,107.085281 399.661133,107.049965 390.000000,107.049782 
z"/>
<path fill="currentColor" opacity="1.000000" stroke="none" 
	d="
M311.169586,212.762268 
	C309.365204,212.763458 308.033325,212.818115 306.707184,212.753632 
	C301.485504,212.499741 298.153900,209.516861 298.033875,205.035904 
	C297.911194,200.456314 301.535187,196.864594 306.720398,196.811829 
	C317.353333,196.703613 327.988037,196.767471 338.622009,196.762970 
	C345.932861,196.759857 353.243958,196.726440 360.554535,196.770813 
	C366.632080,196.807709 370.042542,199.588242 370.160583,204.474487 
	C370.283142,209.546463 366.790619,212.654495 360.494415,212.689651 
	C344.211548,212.780563 327.928009,212.745667 311.169586,212.762268 
z"/>
</svg>
