<svg version="1.1" id="Layer_1" xmlns="http://www.w3.org/2000/svg" xmlns:xlink="http://www.w3.org/1999/xlink" x="0px" y="0px"
	 width="100%" viewBox="0 0 1024 880" enable-background="new 0 0 1024 880" xml:space="preserve">
<path fill="currentColor" opacity="1.000000" stroke="none" 
	d="
M596.237671,667.329468 
	C588.573059,673.617737 579.511719,672.508667 571.027588,672.921143 
	C544.245300,674.223267 517.441650,675.155090 490.636383,675.850464 
	C485.513367,675.983398 483.517334,677.661926 482.252441,682.550415 
	C472.206390,721.374878 461.855957,760.120483 451.634430,798.899658 
	C449.401123,807.372742 445.601288,809.740051 436.960785,807.647034 
	C364.660309,790.133179 292.343323,772.688965 219.843338,756.014587 
	C202.813873,752.098022 185.772766,748.231995 168.735184,744.350769 
	C159.104172,742.156738 156.426636,737.986328 157.988419,728.204102 
	C165.955917,678.299805 173.859650,628.385315 181.789124,578.474915 
	C182.101974,576.505737 182.293045,574.499756 182.811371,572.584045 
	C184.283264,567.144287 184.008698,562.473572 179.706207,557.942261 
	C175.932205,553.967590 175.647827,548.374939 177.356064,543.287720 
	C178.505615,539.864319 177.895752,537.362061 176.161041,534.472839 
	C158.667526,505.336670 141.249527,476.155060 123.853432,446.960541 
	C117.884392,436.943146 112.019936,426.863190 106.143532,416.790955 
	C104.355148,413.725647 102.258476,411.377075 98.779366,409.769348 
	C86.648247,404.163574 83.366524,390.387573 91.402679,379.636993 
	C93.402641,376.961487 94.456978,374.170380 94.620926,370.924469 
	C95.653481,350.481171 96.443466,330.021545 97.805344,309.600098 
	C99.045227,291.008087 99.250229,272.345551 101.475418,253.822830 
	C101.817451,250.975677 101.088165,248.810791 99.343597,246.493301 
	C89.967697,234.038284 96.951920,217.780746 112.476944,215.909714 
	C115.035248,215.601410 116.761642,214.571945 118.422783,212.799667 
	C148.043869,181.196655 177.684204,149.611633 207.369766,118.069221 
	C209.109268,116.220901 209.668182,114.263062 209.760284,111.795425 
	C210.343750,96.161369 225.376465,88.080269 238.665329,96.347122 
	C241.569199,98.153587 244.137802,98.636742 247.527512,98.124428 
	C286.844299,92.182182 326.193268,86.452927 365.523682,80.600067 
	C371.654602,79.687706 377.059235,78.594681 381.980103,73.131897 
	C391.612823,62.438274 408.035248,66.770096 413.329773,80.440590 
	C414.016907,82.214767 415.229004,83.030518 416.737396,83.799164 
	C460.225586,105.959869 503.712158,128.123856 547.177979,150.328384 
	C549.551453,151.540848 551.718933,151.828537 554.320068,150.902496 
	C561.637512,148.297318 567.834045,150.733643 572.859924,156.096848 
	C578.027527,161.611328 578.852783,168.219818 576.094299,175.146286 
	C575.136169,177.552063 574.455200,179.625427 575.443359,182.261185 
	C590.226074,221.693878 604.920349,261.159698 619.649292,300.612518 
	C620.113770,301.856537 620.466675,303.276459 621.310547,304.223053 
	C627.406921,311.061554 626.991333,318.411438 624.235352,326.608917 
	C620.207947,338.587738 618.087769,351.121124 614.778137,363.306793 
	C613.044495,369.690002 613.953247,374.789703 617.363831,380.248993 
	C630.339233,401.018890 643.033508,421.964386 655.836853,442.841766 
	C659.669189,449.090820 663.608398,455.276550 667.333008,461.588989 
	C673.196899,471.526855 671.529663,478.952942 662.376526,485.923584 
	C654.705505,491.765533 645.540649,494.629028 637.127258,498.981140 
	C623.121033,506.226318 623.072510,506.089203 628.169983,520.994019 
	C629.354431,524.457336 630.413147,527.966370 631.437988,531.481140 
	C634.433350,541.753784 631.526855,548.872314 622.246338,554.109436 
	C621.239136,554.677734 620.202393,555.193726 619.137451,555.756104 
	C619.334717,558.531616 621.627808,559.721069 622.982849,561.483154 
	C629.117920,569.461426 629.021301,575.764221 622.495972,583.436218 
	C621.308594,584.832214 620.321960,586.457642 618.943115,587.622620 
	C609.809570,595.339111 608.952026,605.324158 610.564758,616.233154 
	C611.487732,622.476868 611.519958,628.848877 612.354797,635.109558 
	C614.260254,649.398560 608.006592,659.514221 596.237671,667.329468 
M378.601501,580.779785 
	C376.041626,569.859131 373.481750,558.938477 370.622437,546.740417 
	C340.806122,579.589172 311.435272,611.010254 282.934418,643.836182 
	C330.267822,686.569092 377.003143,728.762085 423.738464,770.955078 
	C408.991791,707.469788 393.228363,644.689819 378.601501,580.779785 
M440.925568,231.587631 
	C449.298645,231.447998 457.510559,234.245117 466.121490,233.499420 
	C466.043854,231.193375 464.998199,229.861053 464.220062,228.426971 
	C442.704773,188.775223 421.188843,149.123856 399.674744,109.471489 
	C396.498840,103.618019 392.100616,103.506012 388.330780,109.229256 
	C365.431915,143.993805 342.538239,178.761810 319.677002,213.551102 
	C318.819489,214.856033 317.408203,216.085678 318.201447,218.346008 
	C340.207367,220.827240 362.301117,223.397079 384.414276,225.787415 
	C402.937653,227.789703 421.483673,229.582382 440.925568,231.587631 
M378.636688,485.998047 
	C379.516968,496.607086 380.517792,507.208252 381.209320,517.829590 
	C381.438416,521.348389 382.114777,522.905762 386.223480,522.241699 
	C423.664642,516.190674 461.143494,510.372833 498.586792,504.334686 
	C501.714874,503.830292 505.207184,504.154266 508.700439,501.595032 
	C462.390594,461.712280 416.440704,422.139496 370.490814,382.566711 
	C370.088318,382.842224 369.685822,383.117737 369.283325,383.393250 
	C372.355530,417.289490 375.427734,451.185730 378.636688,485.998047 
M335.327454,283.240570 
	C344.099457,305.433014 352.871460,327.625458 362.023041,350.778168 
	C396.003021,316.125946 429.005859,282.470154 462.129700,248.690994 
	C414.428101,243.538284 365.956848,238.302429 316.165588,232.923996 
	C322.207184,250.581375 328.818848,266.480682 335.327454,283.240570 
M538.767212,553.631531 
	C533.978210,543.007324 528.877136,532.508423 524.538635,521.703369 
	C522.521667,516.680176 519.879395,515.421997 514.777039,516.266541 
	C488.854340,520.557434 462.887604,524.582703 436.935150,528.694092 
	C424.349274,530.687866 411.761017,532.666443 399.173859,534.651978 
	C399.002289,535.140686 398.830719,535.629456 398.659149,536.118164 
	C458.018829,569.431885 517.378540,602.745605 576.738220,636.059326 
	C577.006104,635.814209 577.273987,635.569092 577.541870,635.324036 
	C564.724365,608.320068 551.906860,581.316162 538.767212,553.631531 
M310.726288,591.238220 
	C328.461578,571.707642 346.196869,552.177063 364.234222,532.313843 
	C332.920380,505.253510 301.985748,479.338470 269.838043,452.931122 
	C271.408051,511.406738 275.666199,568.442017 278.488098,626.807312 
	C289.717194,614.422485 299.988373,603.094177 310.726288,591.238220 
M491.530029,356.874817 
	C486.200836,324.522949 480.871643,292.171112 475.674103,260.618408 
	C442.822388,293.334259 410.110870,325.910492 377.326447,358.559326 
	C378.156342,359.621979 379.905243,359.474243 381.516937,359.688873 
	C387.619049,360.501465 393.725616,361.281372 399.825623,362.109619 
	C429.835876,366.184296 459.849457,370.235474 489.847107,374.401093 
	C493.254944,374.874329 494.107361,373.454376 493.679932,370.551270 
	C493.049927,366.272461 492.320648,362.008270 491.530029,356.874817 
M257.872040,140.685318 
	C272.917114,163.700745 287.311249,187.156113 304.137878,210.654053 
	C328.975006,173.259521 353.541901,137.268250 376.579254,100.135460 
	C374.386261,98.993927 372.904480,99.406364 371.444855,99.631783 
	C357.151001,101.839249 342.868134,104.119362 328.565094,106.265312 
	C303.406006,110.040054 278.232361,113.717842 253.070709,117.475685 
	C246.611160,118.440399 245.434433,120.997955 248.872314,126.612686 
	C251.653259,131.154526 254.594116,135.598434 257.872040,140.685318 
M271.657135,703.042603 
	C269.935059,714.885559 268.189056,726.725098 266.499756,738.572754 
	C265.477692,745.740784 265.694885,746.029480 272.669342,747.712097 
	C308.718842,756.409119 344.771088,765.095032 380.820770,773.791504 
	C391.331635,776.327148 401.837189,778.884644 412.345184,781.432190 
	C368.534424,739.983154 323.909729,699.893372 278.321747,659.338806 
	C276.059998,674.344971 273.961578,688.267273 271.657135,703.042603 
M213.040237,506.573914 
	C224.197174,487.447723 235.370728,468.331177 246.502045,449.190063 
	C250.405762,442.477325 250.391953,442.334534 243.095993,440.208862 
	C204.766876,429.041656 166.419647,417.936646 128.076813,406.816620 
	C127.011780,406.507751 125.877312,405.830231 124.590584,407.649567 
	C148.251358,448.512268 172.522156,489.280182 197.823013,530.548889 
	C204.089386,522.490417 207.992859,514.592590 213.040237,506.573914 
M296.793457,241.361771 
	C272.380249,265.466400 247.260788,288.866852 222.515381,314.446320 
	C264.251434,327.977936 305.097839,339.311676 346.224426,351.760803 
	C345.973694,350.093628 345.989471,349.577820 345.816376,349.136017 
	C331.858063,313.507507 317.844574,277.900543 303.964264,242.241714 
	C302.232422,237.792557 300.083557,238.605927 296.793457,241.361771 
M451.276855,124.284431 
	C439.626984,118.381187 427.977112,112.477936 416.327240,106.574684 
	C416.011871,106.870178 415.696503,107.165665 415.381104,107.461159 
	C437.177582,148.443771 459.244720,189.279373 481.605652,229.614349 
	C484.674316,229.146591 486.036713,227.615524 487.496033,226.284561 
	C504.463287,210.809402 521.439148,195.343506 538.358154,179.815704 
	C543.926086,174.705658 543.126770,171.003845 536.038513,167.405029 
	C507.994690,153.166641 479.973053,138.884552 451.276855,124.284431 
M366.363464,509.533722 
	C366.063538,505.884766 365.792023,502.233215 365.459137,498.587250 
	C362.524414,466.440948 359.663269,434.287567 356.572693,402.156219 
	C355.862793,394.775818 355.844727,387.282867 354.119354,379.944183 
	C350.674805,379.829285 348.677917,382.098450 346.478180,383.691895 
	C324.215424,399.818695 302.072845,416.108826 280.444733,433.085175 
	C275.012207,437.349274 274.932953,437.946228 280.168610,442.365509 
	C307.290039,465.258087 334.439301,488.117737 361.608734,510.953339 
	C362.947601,512.078613 364.125916,513.632874 366.503265,513.727783 
	C366.503265,512.523438 366.503265,511.409760 366.363464,509.533722 
M582.560608,485.905518 
	C601.332825,481.195496 620.104980,476.485474 638.877197,471.775452 
	C638.971252,471.292694 639.065308,470.809906 639.159424,470.327148 
	C597.826416,446.089203 556.493408,421.851227 515.026794,397.534912 
	C513.506775,401.056213 514.918152,403.590729 515.362793,406.125916 
	C520.386108,434.764557 525.618347,463.367004 530.533752,492.023865 
	C531.407410,497.117554 533.352051,498.076630 538.171692,496.814941 
	C552.644348,493.026367 567.231201,489.673798 582.560608,485.905518 
M501.078766,326.578705 
	C503.597443,341.231079 506.116089,355.883453 508.881927,371.973846 
	C539.208557,352.995453 568.337463,334.766541 597.466431,316.537659 
	C597.366028,315.951385 597.265686,315.365112 597.165283,314.778839 
	C561.943542,295.532654 526.721741,276.286438 491.500000,257.040253 
	C490.999573,257.401184 490.499115,257.762146 489.998688,258.123108 
	C493.639160,280.657684 497.279663,303.192261 501.078766,326.578705 
M496.211823,472.280975 
	C502.358246,477.525696 508.504669,482.770386 515.384277,488.640747 
	C515.036865,486.428986 514.882629,485.304138 514.681519,484.187744 
	C509.407471,454.906677 504.006927,425.647400 498.973724,396.325043 
	C498.162140,391.597107 496.069061,389.908478 491.646973,389.307465 
	C463.811310,385.524292 436.015015,381.449280 408.169250,377.744720 
	C400.243591,376.690308 392.339630,374.968567 383.784363,375.078003 
	C421.401550,407.594910 458.542694,439.700317 496.211823,472.280975 
M123.887650,388.776611 
	C123.919540,391.129578 125.905914,391.154602 127.402870,391.593872 
	C159.192139,400.922791 190.984253,410.242279 222.793381,419.503204 
	C231.033188,421.902161 239.332336,424.097260 248.030975,426.504089 
	C247.806198,425.226379 247.817017,424.545380 247.567978,423.978546 
	C234.639404,394.552582 221.736649,365.115082 208.697906,335.737946 
	C206.252258,330.227692 204.389969,329.821442 199.527145,333.244904 
	C179.229950,347.534088 158.913376,361.797791 138.762177,376.290924 
	C133.670273,379.953125 128.042435,383.054321 123.887650,388.776611 
M403.059998,580.399414 
	C398.821289,574.945068 394.582581,569.490784 390.343842,564.036438 
	C389.989960,564.208191 389.636078,564.379883 389.282196,564.551636 
	C405.598083,632.043396 421.913940,699.535217 438.276489,767.220093 
	C447.286194,734.099609 456.186951,701.208557 465.240570,668.359558 
	C466.156982,665.034668 464.617523,662.941162 462.926331,660.671936 
	C443.122253,634.099426 423.310608,607.532532 403.059998,580.399414 
M527.070129,624.487366 
	C485.769836,601.391052 444.469543,578.294739 403.169250,555.198364 
	C409.628174,565.170349 416.696716,574.423523 423.588684,583.806458 
	C440.446198,606.756653 457.221680,629.767212 474.031647,652.752319 
	C475.628143,654.935303 477.173828,656.719727 480.469025,656.551208 
	C499.912048,655.557434 519.367126,654.799133 538.817566,653.949951 
	C550.377625,653.445251 561.936707,652.919128 573.496155,652.402649 
	C573.642273,651.992371 573.788330,651.582092 573.934387,651.171814 
	C558.521729,642.405273 543.109070,633.638672 527.070129,624.487366 
M282.951324,413.428986 
	C303.217407,398.259735 323.483521,383.090515 343.749603,367.921295 
	C343.576813,367.422455 343.404022,366.923645 343.231262,366.424805 
	C303.449188,353.714874 263.380890,341.963226 223.033783,330.369446 
	C222.881790,333.092102 223.932327,334.660614 224.655685,336.304626 
	C232.096405,353.215302 239.557587,370.117004 247.041626,387.008545 
	C251.963409,398.117004 256.844849,409.244812 261.917908,420.284180 
	C264.297638,425.462646 266.141296,425.814514 270.742615,422.487183 
	C274.655334,419.657837 278.505157,416.741486 282.951324,413.428986 
M183.471130,696.864990 
	C183.362915,700.921936 181.564606,704.854675 182.429169,709.405396 
	C183.366333,708.720764 184.035934,708.282532 184.649155,707.776123 
	C209.419006,687.322083 234.130264,666.796448 259.008453,646.475098 
	C262.624146,643.521667 261.451813,641.536072 259.220581,638.715393 
	C242.387054,617.434937 225.651749,596.076843 208.842819,574.776855 
	C207.599411,573.201233 206.667343,571.190063 204.120712,570.164612 
	C197.252304,612.399170 190.453125,654.208130 183.471130,696.864990 
M133.792236,262.719238 
	C130.121475,259.714294 126.920525,256.095978 121.820137,253.052414 
	C119.524673,293.978241 116.347061,333.876099 115.286194,374.089752 
	C117.819389,373.951233 118.942352,372.892883 120.128670,372.044830 
	C139.358963,358.297363 158.579834,344.536713 177.790863,330.762360 
	C181.984802,327.755280 186.188507,324.756775 190.285690,321.621033 
	C194.788651,318.174744 194.854813,316.490051 190.761063,312.451752 
	C188.867294,310.583649 186.822418,308.866150 184.813385,307.117889 
	C167.984894,292.474091 151.148804,277.839020 133.792236,262.719238 
M531.290649,262.136261 
	C552.380066,273.650909 573.469482,285.165588 594.755432,296.787598 
	C595.611145,294.126434 594.501831,292.717133 593.947693,291.220276 
	C590.078308,280.769531 586.137512,270.345184 582.271973,259.893036 
	C573.847595,237.114563 565.480591,214.314850 557.030640,191.545898 
	C554.828918,185.613373 552.343018,184.898132 548.066040,188.929901 
	C531.472656,204.571716 514.901794,220.237747 498.389008,235.964584 
	C494.234924,239.920929 494.444611,241.356934 499.327026,244.135666 
	C509.740967,250.062637 520.208191,255.895996 531.290649,262.136261 
M597.757751,346.427734 
	C598.871948,341.669189 600.699890,337.049133 600.936829,331.433716 
	C573.289612,348.490753 546.087891,365.025696 518.594849,383.257355 
	C558.624084,406.804047 597.483093,429.662384 636.342102,452.520721 
	C635.546265,449.286713 634.216675,446.799347 632.763367,444.386444 
	C620.127258,423.407410 607.482422,402.433563 594.805725,381.479065 
	C592.370361,377.453369 591.376831,373.321014 592.583862,368.617249 
	C594.402710,361.529388 595.950928,354.372040 597.757751,346.427734 
M228.672501,576.854187 
	C239.966721,591.219910 251.260941,605.585632 262.555145,619.951355 
	C262.972839,619.718079 263.390503,619.484802 263.808167,619.251465 
	C260.542725,567.700745 257.978851,516.111084 255.086960,464.466553 
	C253.606018,465.941803 252.592346,467.442657 251.676224,469.000854 
	C239.028488,490.513184 226.434830,512.057495 213.704208,533.520630 
	C212.139923,536.157959 211.561447,538.283264 212.922943,541.309875 
	C214.271469,544.307678 214.630905,547.854126 213.227676,551.057678 
	C211.947739,553.979797 212.968292,556.166931 214.661774,558.388855 
	C219.200836,564.344421 223.710541,570.322327 228.672501,576.854187 
M219.350616,144.049423 
	C219.535065,141.296173 219.719513,138.542908 219.903976,135.789658 
	C219.574921,135.627975 219.245880,135.466293 218.916824,135.304611 
	C190.491608,165.591705 162.066391,195.878815 133.633682,226.173904 
	C135.543472,228.030106 137.118637,227.630142 138.545120,227.514572 
	C149.315842,226.641876 160.089188,225.966492 170.894943,225.555588 
	C182.013199,225.132782 193.089783,223.565964 204.207657,223.200439 
	C210.018936,223.009399 211.271118,220.240616 211.760803,215.296310 
	C214.085556,191.823196 216.656754,168.374512 219.350616,144.049423 
M229.897186,221.739700 
	C236.878220,221.439438 243.863464,221.214188 250.839340,220.822021 
	C262.463928,220.168533 274.083771,219.428223 285.702881,218.681976 
	C289.856720,218.415207 290.722534,216.874588 288.853516,213.252869 
	C288.473267,212.516037 287.985382,211.832520 287.522644,211.140778 
	C271.137238,186.648270 254.754028,162.154282 238.343124,137.678879 
	C237.658401,136.657684 237.269119,135.133301 235.530075,135.297394 
	C234.558167,136.398987 234.518692,137.737366 234.378006,139.063599 
	C233.080872,151.291580 231.749619,163.515961 230.463593,175.745102 
	C229.055252,189.137375 227.621567,202.527664 226.359650,215.933945 
	C226.152527,218.134293 224.967697,221.257629 229.897186,221.739700 
M190.750137,722.230713 
	C189.471405,723.854736 187.215134,724.744263 186.819489,727.784729 
	C208.178528,732.714722 229.474075,737.630066 251.482986,742.710022 
	C255.395264,716.002502 259.237305,689.774475 263.079315,663.546387 
	C262.550781,663.320557 262.022217,663.094666 261.493683,662.868835 
	C237.779770,682.127747 213.922302,701.212830 190.750137,722.230713 
M206.905594,263.677399 
	C207.908127,255.360062 209.157852,247.058426 209.010376,237.867706 
	C183.703812,239.316559 158.953308,240.733566 134.202789,242.150574 
	C134.044586,242.661545 133.886383,243.172531 133.728180,243.683502 
	C156.158005,262.894165 178.587814,282.104828 201.017624,301.315460 
	C201.559464,301.002838 202.101303,300.690186 202.643158,300.377533 
	C204.711823,288.538757 205.563004,276.531830 206.905594,263.677399 
M582.247925,552.270691 
	C569.350891,543.804565 556.453918,535.338379 543.556946,526.872192 
	C558.297363,561.987732 574.598572,596.209229 591.378784,631.652832 
	C590.599243,621.788269 589.962036,613.359314 589.258728,604.935852 
	C588.639771,597.522705 590.088501,590.735413 594.908081,584.845154 
	C597.646423,581.498535 600.225952,578.022400 602.949829,574.663696 
	C604.307739,572.989258 604.598389,571.655945 602.783875,569.989624 
	C596.296082,564.031555 590.322144,557.490479 582.247925,552.270691 
M231.049927,285.530670 
	C248.701736,268.792755 265.990814,251.692825 283.799377,233.619263 
	C264.657288,234.594559 246.745255,235.525070 228.830780,236.405655 
	C225.004990,236.593735 223.499069,238.261917 223.190842,242.289825 
	C222.304245,253.875748 220.707672,265.405975 219.727707,276.986664 
	C219.162933,283.660797 217.829453,290.311493 218.132812,297.044250 
	C218.698303,297.483398 219.263779,297.922546 219.829254,298.361725 
	C223.395309,294.247589 226.961380,290.133484 231.049927,285.530670 
M553.304016,507.905090 
	C550.621826,508.537781 547.939636,509.170471 545.073853,509.846466 
	C546.276611,512.196289 548.102173,513.105469 549.729187,514.172424 
	C561.130920,521.649597 573.026611,528.473267 583.833679,536.724854 
	C591.859985,542.853210 599.110901,543.558533 607.409851,538.543396 
	C607.550232,538.458557 607.713806,538.406311 607.872375,538.358032 
	C611.825806,537.152954 612.420166,534.648743 611.044617,531.004883 
	C608.991211,525.565369 607.193420,520.029297 605.296448,514.530945 
	C602.749878,507.149933 602.755554,500.192078 609.577087,493.806641 
	C590.465088,498.581024 572.279236,503.124023 553.304016,507.905090 
z"/>
<path fill="currentColor" opacity="1.000000" stroke="none" 
	d="
M833.000000,273.182831 
	C814.841431,273.182434 797.181580,273.296448 779.525085,273.103790 
	C774.898254,273.053314 771.206909,274.271973 767.752991,277.362671 
	C749.014709,294.130646 730.165222,310.774292 711.348938,327.455078 
	C708.358765,330.105896 705.409424,332.808899 702.320862,335.340973 
	C699.169006,337.924896 695.616760,338.991486 691.621216,337.352295 
	C687.645691,335.721344 685.842102,332.655273 685.504333,328.452423 
	C684.207520,312.314941 685.034058,296.152435 684.854431,280.002441 
	C684.780151,273.325623 684.835754,273.325012 678.339294,273.254517 
	C649.893005,272.945770 629.757263,252.600250 629.758118,224.161087 
	C629.759338,181.847107 629.647888,139.532593 629.835571,97.219429 
	C629.894958,83.849335 633.771118,71.456207 643.053833,61.513599 
	C652.825195,51.047657 665.195068,45.718025 679.579102,45.703831 
	C746.215210,45.638058 812.851501,45.619392 879.487610,45.669945 
	C907.194763,45.690964 924.406738,60.378731 929.237122,87.772141 
	C929.904419,91.556320 930.231018,95.339546 930.225830,99.187691 
	C930.169067,141.001831 930.347656,182.817276 930.061462,224.629639 
	C929.932129,243.523041 921.773010,258.274353 905.069641,267.821350 
	C897.913391,271.911591 890.056458,273.153076 881.977661,273.186798 
	C865.818787,273.254272 849.659241,273.191620 833.000000,273.182831 
M900.993103,72.506386 
	C895.986755,67.692032 890.196716,65.043083 883.066833,65.051262 
	C814.584290,65.129845 746.101562,65.129372 677.618896,65.091400 
	C670.299377,65.087341 664.532471,68.096947 659.408142,73.068146 
	C651.007385,81.217888 649.525269,91.724960 649.491943,102.514030 
	C649.365417,143.502380 649.220093,184.494232 649.641846,225.479019 
	C649.822327,243.011383 661.665894,253.667389 679.196899,253.685074 
	C683.362549,253.689270 687.528137,253.674744 691.693787,253.683975 
	C701.284119,253.705231 705.003967,257.314941 705.073425,266.923126 
	C705.154114,278.086365 705.058594,289.250854 705.135376,300.414124 
	C705.147156,302.121155 704.519226,304.043030 706.193359,305.816345 
	C722.705261,291.436615 739.394958,277.397217 755.467529,262.683716 
	C762.844666,255.930344 770.736267,252.862869 780.657471,252.942383 
	C814.480103,253.213440 848.306274,253.050339 882.131042,253.054718 
	C898.755066,253.056854 909.875305,242.459396 909.936646,225.865768 
	C910.096985,182.544022 910.024475,139.221359 910.003967,95.899086 
	C909.999878,87.252174 907.350708,79.523598 900.993103,72.506386 
z"/>
<path fill="currentColor" opacity="1.000000" stroke="none" 
	d="
M852.724182,108.865479 
	C860.751953,109.258835 865.194824,112.914589 865.227905,118.772980 
	C865.261414,124.688728 860.262146,128.946503 852.833862,128.954025 
	C804.681519,129.002808 756.529114,129.019394 708.376892,128.959915 
	C698.591309,128.947815 693.058655,121.478439 697.236755,114.205818 
	C699.437256,110.375572 702.992371,108.865135 707.302795,108.868744 
	C716.966553,108.876831 726.630371,108.865150 736.294128,108.864929 
	C774.949341,108.864029 813.604553,108.864418 852.724182,108.865479 
z"/>
<path fill="currentColor" opacity="1.000000" stroke="none" 
	d="
M717.064331,168.870087 
	C712.926758,168.762589 709.262817,168.738068 705.609436,168.529678 
	C700.268799,168.225037 696.255371,164.474304 695.866394,159.588562 
	C695.489685,154.857254 699.059448,150.190292 704.058655,149.082504 
	C705.500671,148.762970 707.033752,148.770142 708.525085,148.769730 
	C756.478394,148.756363 804.431763,148.758881 852.385071,148.767349 
	C854.375488,148.767700 856.355225,148.716568 858.287109,149.483765 
	C862.744812,151.253952 865.693481,155.711639 865.110046,159.992950 
	C864.472290,164.671997 860.482239,168.283356 855.392822,168.358353 
	C846.570007,168.488419 837.743958,168.399109 828.919250,168.401550 
	C797.949402,168.410110 766.979492,168.395142 736.009766,168.446915 
	C729.853882,168.457199 723.698364,168.722931 717.064331,168.870087 
z"/>
<path fill="currentColor" opacity="1.000000" stroke="none" 
	d="
M703.860596,189.165009 
	C734.436584,189.009842 764.595886,188.892059 794.754883,188.961182 
	C800.607483,188.974609 803.425537,192.583252 803.346985,198.879486 
	C803.273682,204.749863 800.335938,208.207733 794.682434,208.225937 
	C765.020142,208.321442 735.357300,208.304550 705.694946,208.228302 
	C700.849731,208.215851 697.577209,205.215012 696.583862,200.544022 
	C695.575195,195.801224 697.952209,191.893951 703.860596,189.165009 
z"/>
</svg>
