<svg version="1.1" id="Layer_1" xmlns="http://www.w3.org/2000/svg" xmlns:xlink="http://www.w3.org/1999/xlink" x="0px" y="0px"
	 width="100%" viewBox="0 0 1502 1005" enable-background="new 0 0 1502 1005" xml:space="preserve">
<path fill="none" opacity="1.000000" stroke="none" 
	d="
M974.000000,1006.000000 
	C649.333313,1006.000000 325.166656,1006.000000 1.000000,1006.000000 
	C1.000000,671.000000 1.000000,336.000000 1.000000,1.000000 
	C501.666656,1.000000 1002.333313,1.000000 1503.000000,1.000000 
	C1503.000000,336.000000 1503.000000,671.000000 1503.000000,1006.000000 
	C1326.833374,1006.000000 1150.666626,1006.000000 974.000000,1006.000000 
M232.650589,428.499939 
	C232.702362,576.316711 232.748795,724.133545 232.840317,871.950317 
	C232.842361,875.253723 232.884781,878.681213 233.715164,881.838623 
	C237.239502,895.239441 247.845703,902.447815 263.543030,902.449341 
	C397.697052,902.462646 531.851074,902.486694 666.005066,902.401978 
	C669.831238,902.399536 672.231201,903.857239 675.077637,906.247375 
	C682.931030,912.841736 690.738403,919.834412 699.608582,924.805664 
	C720.658447,936.602966 743.891418,938.724304 767.471191,936.699097 
	C793.734497,934.443237 816.852722,925.038818 834.915771,904.961792 
	C836.297485,903.426025 839.234070,902.630798 841.457092,902.612610 
	C862.786987,902.437744 884.118896,902.500610 905.450195,902.501953 
	C1018.772888,902.509033 1132.095825,902.400452 1245.417969,902.635315 
	C1265.713745,902.677368 1276.097778,887.436584 1276.055176,872.171143 
	C1275.587524,704.354797 1275.582642,536.537170 1275.467529,368.719879 
	C1275.424561,306.059082 1275.439209,243.398285 1275.386719,180.737518 
	C1275.375854,167.768707 1268.649414,158.906815 1256.883911,156.422272 
	C1254.152954,155.845535 1251.252686,155.958054 1248.429565,155.949097 
	C1234.816406,155.905930 1221.202881,155.929672 1207.132080,155.929672 
	C1207.132080,153.812256 1207.132202,152.187943 1207.132080,150.563629 
	C1207.131104,139.397995 1207.174683,128.232132 1207.115723,117.066795 
	C1207.065430,107.564545 1201.786743,101.317238 1192.417236,99.914406 
	C1188.981201,99.399956 1185.446167,99.412582 1181.956299,99.411499 
	C1108.129883,99.388542 1034.303467,99.413452 960.476990,99.392769 
	C934.462769,99.385483 908.496277,100.150093 882.721802,104.037224 
	C851.890137,108.687035 822.339050,117.240814 795.190125,133.034515 
	C780.170593,141.771942 766.472473,152.208389 754.435669,165.039871 
	C740.064819,149.985092 723.738770,138.034882 705.546875,128.670013 
	C668.227478,109.458664 627.937134,101.822205 586.561401,100.397392 
	C546.942383,99.033089 507.255646,99.514748 467.598114,99.423721 
	C419.103119,99.312416 370.607147,99.565720 322.112488,99.399406 
	C309.655670,99.356689 300.081177,105.556015 300.932556,120.867538 
	C301.576050,132.440430 301.059998,144.077774 301.059998,156.037048 
	C286.884583,156.037048 273.253906,156.001938 259.623505,156.045700 
	C241.514343,156.103867 232.664459,164.977936 232.662704,183.023254 
	C232.654755,264.515472 232.653046,346.007660 232.650589,428.499939 
z"/>
<path fill="currentColor" opacity="1.000000" stroke="none" 
	d="
M232.649826,427.999908 
	C232.653046,346.007660 232.654755,264.515472 232.662704,183.023254 
	C232.664459,164.977936 241.514343,156.103867 259.623505,156.045700 
	C273.253906,156.001938 286.884583,156.037048 301.059998,156.037048 
	C301.059998,144.077774 301.576050,132.440430 300.932556,120.867538 
	C300.081177,105.556015 309.655670,99.356689 322.112488,99.399406 
	C370.607147,99.565720 419.103119,99.312416 467.598114,99.423721 
	C507.255646,99.514748 546.942383,99.033089 586.561401,100.397392 
	C627.937134,101.822205 668.227478,109.458664 705.546875,128.670013 
	C723.738770,138.034882 740.064819,149.985092 754.435669,165.039871 
	C766.472473,152.208389 780.170593,141.771942 795.190125,133.034515 
	C822.339050,117.240814 851.890137,108.687035 882.721802,104.037224 
	C908.496277,100.150093 934.462769,99.385483 960.476990,99.392769 
	C1034.303467,99.413452 1108.129883,99.388542 1181.956299,99.411499 
	C1185.446167,99.412582 1188.981201,99.399956 1192.417236,99.914406 
	C1201.786743,101.317238 1207.065430,107.564545 1207.115723,117.066795 
	C1207.174683,128.232132 1207.131104,139.397995 1207.132080,150.563629 
	C1207.132202,152.187943 1207.132080,153.812256 1207.132080,155.929672 
	C1221.202881,155.929672 1234.816406,155.905930 1248.429565,155.949097 
	C1251.252686,155.958054 1254.152954,155.845535 1256.883911,156.422272 
	C1268.649414,158.906815 1275.375854,167.768707 1275.386719,180.737518 
	C1275.439209,243.398285 1275.424561,306.059082 1275.467529,368.719879 
	C1275.582642,536.537170 1275.587524,704.354797 1276.055176,872.171143 
	C1276.097778,887.436584 1265.713745,902.677368 1245.417969,902.635315 
	C1132.095825,902.400452 1018.772888,902.509033 905.450195,902.501953 
	C884.118896,902.500610 862.786987,902.437744 841.457092,902.612610 
	C839.234070,902.630798 836.297485,903.426025 834.915771,904.961792 
	C816.852722,925.038818 793.734497,934.443237 767.471191,936.699097 
	C743.891418,938.724304 720.658447,936.602966 699.608582,924.805664 
	C690.738403,919.834412 682.931030,912.841736 675.077637,906.247375 
	C672.231201,903.857239 669.831238,902.399536 666.005066,902.401978 
	C531.851074,902.486694 397.697052,902.462646 263.543030,902.449341 
	C247.845703,902.447815 237.239502,895.239441 233.715164,881.838623 
	C232.884781,878.681213 232.842361,875.253723 232.840317,871.950317 
	C232.748795,724.133545 232.702362,576.316711 232.649826,427.999908 
M1177.178345,687.500061 
	C1177.178345,501.754913 1177.178345,316.009735 1177.178345,129.948120 
	C1174.918335,129.948120 1173.116821,129.948059 1171.315430,129.948120 
	C1091.158325,129.951004 1011.001221,129.903549 930.844177,129.985168 
	C904.230774,130.012253 878.083496,133.740753 852.479919,141.023987 
	C821.932007,149.713684 795.224854,164.972000 773.074036,187.912399 
	C770.625061,190.448715 768.897217,193.010345 768.900024,197.005859 
	C769.043823,402.314453 769.061157,607.623108 769.104492,812.931763 
	C769.104797,814.316772 769.279114,815.701782 769.409973,817.649109 
	C770.744995,816.637573 771.522156,816.057190 772.290466,815.465393 
	C788.571838,802.926025 805.979858,792.258850 824.747192,783.840088 
	C880.100037,759.009766 938.272522,752.748840 998.124023,757.440552 
	C1041.689697,760.855713 1084.520752,769.237732 1127.514404,776.514709 
	C1143.901855,779.288391 1160.255005,782.264709 1177.178589,785.246399 
	C1177.178589,752.750000 1177.178589,720.625061 1177.178345,687.500061 
M738.973083,690.500000 
	C738.993530,526.365234 738.995911,362.230438 739.132019,198.095734 
	C739.135620,193.721909 738.164368,190.264648 734.822388,187.601852 
	C723.264832,178.393127 712.424927,168.000534 699.926819,160.309113 
	C664.180176,138.310486 623.940369,130.806549 582.885193,130.267838 
	C500.582031,129.187897 418.254730,129.943115 335.937408,129.951187 
	C334.491791,129.951324 333.046204,130.081558 331.474304,130.157166 
	C331.474304,348.548035 331.474304,566.612305 331.474304,784.982178 
	C333.066315,784.873413 334.376343,784.891968 335.648407,784.681335 
	C381.946167,777.016418 428.180573,768.944580 474.552277,761.758057 
	C518.888977,754.886902 563.380188,753.199158 607.874268,760.999756 
	C655.155701,769.289062 698.856262,785.949646 736.955566,815.833130 
	C737.506958,816.265686 738.220093,816.492004 738.972351,816.872559 
	C738.972351,774.815430 738.972351,733.157715 738.973083,690.500000 
M464.499786,857.654114 
	C555.411682,857.654114 646.323547,857.654114 737.497070,857.654114 
	C737.148010,856.680420 737.127808,856.313538 736.934021,856.127625 
	C716.960510,836.960815 694.868652,820.928833 669.320007,809.864563 
	C620.114258,788.555237 568.534302,783.761108 515.705566,787.482544 
	C468.281586,790.823181 421.607758,799.426086 374.879669,807.642517 
	C356.358459,810.899170 337.859375,814.296387 319.295288,817.288635 
	C308.550140,819.020569 301.248932,812.425720 301.036804,801.508362 
	C301.020599,800.675476 301.027740,799.842041 301.027802,799.008850 
	C301.039001,596.875916 301.050537,394.742981 301.062073,192.610046 
	C301.062164,190.986755 301.062073,189.363480 301.062073,187.486694 
	C293.391205,187.486694 286.150574,187.486694 278.384735,187.486694 
	C278.384735,189.475510 278.383575,191.261887 278.384918,193.048264 
	C278.406372,221.376831 278.451263,249.705399 278.446106,278.033966 
	C278.411530,467.502106 278.365479,656.970276 278.326721,846.438416 
	C278.324707,856.340515 279.781067,857.775757 289.528900,857.768311 
	C347.519196,857.723938 405.509460,857.690430 464.499786,857.654114 
M810.556396,825.044434 
	C796.108887,834.042603 783.180420,844.919250 770.166504,857.446716 
	C773.405273,857.446716 775.684326,857.445190 777.963379,857.446838 
	C922.277893,857.553833 1066.592407,857.660950 1210.906982,857.769287 
	C1214.406494,857.771912 1217.906250,857.817444 1221.405640,857.794922 
	C1227.900146,857.752991 1229.821167,855.885986 1229.921509,849.569092 
	C1229.945312,848.069641 1229.933228,846.569580 1229.933105,845.069763 
	C1229.930542,627.431335 1229.927612,409.792908 1229.924805,192.154495 
	C1229.924805,190.695435 1229.924927,189.236374 1229.924927,187.597900 
	C1222.127197,187.597900 1214.750610,187.597900 1207.127563,187.597900 
	C1207.127563,189.275513 1207.127441,190.594574 1207.127563,191.913635 
	C1207.129883,265.237457 1207.139648,338.561310 1207.132935,411.885132 
	C1207.121216,541.534973 1207.108521,671.184814 1207.066528,800.834656 
	C1207.062500,813.414734 1200.205078,819.261108 1187.913086,817.221802 
	C1136.522949,808.695923 1085.221924,799.589600 1033.729004,791.740295 
	C994.589783,785.774170 955.131958,784.005920 915.667847,789.053345 
	C878.449219,793.813538 843.256042,804.719910 810.556396,825.044434 
z"/>
<path fill="none" opacity="1.000000" stroke="none" 
	d="
M1177.178467,688.000122 
	C1177.178589,720.625061 1177.178589,752.750000 1177.178589,785.246399 
	C1160.255005,782.264709 1143.901855,779.288391 1127.514404,776.514709 
	C1084.520752,769.237732 1041.689697,760.855713 998.124023,757.440552 
	C938.272522,752.748840 880.100037,759.009766 824.747192,783.840088 
	C805.979858,792.258850 788.571838,802.926025 772.290466,815.465393 
	C771.522156,816.057190 770.744995,816.637573 769.409973,817.649109 
	C769.279114,815.701782 769.104797,814.316772 769.104492,812.931763 
	C769.061157,607.623108 769.043823,402.314453 768.900024,197.005859 
	C768.897217,193.010345 770.625061,190.448715 773.074036,187.912399 
	C795.224854,164.972000 821.932007,149.713684 852.479919,141.023987 
	C878.083496,133.740753 904.230774,130.012253 930.844177,129.985168 
	C1011.001221,129.903549 1091.158325,129.951004 1171.315430,129.948120 
	C1173.116821,129.948059 1174.918335,129.948120 1177.178345,129.948120 
	C1177.178345,316.009735 1177.178345,501.754913 1177.178467,688.000122 
M851.937012,504.373627 
	C850.946594,506.293304 849.904846,508.188477 848.974243,510.136749 
	C844.115417,520.308777 836.722229,527.406555 825.377563,529.803711 
	C821.355408,530.653564 817.356323,531.612244 813.409180,532.507080 
	C813.409180,539.196716 813.409180,545.585022 813.409180,551.841553 
	C847.694275,551.841553 881.621094,551.841553 915.731323,551.841553 
	C915.731323,545.135803 915.731323,538.689575 915.731323,531.998413 
	C912.554443,531.487610 909.434814,531.085754 906.359558,530.464355 
	C903.105042,529.806641 899.827454,529.142395 896.674255,528.126221 
	C887.498657,525.169128 884.192627,520.396912 886.842224,511.136505 
	C892.093567,492.782776 898.120911,474.647522 904.127991,456.521606 
	C904.523010,455.329620 907.455688,454.343048 909.213745,454.333710 
	C935.370544,454.194458 961.528381,454.218689 987.685913,454.249725 
	C993.170654,454.256256 1000.100830,452.453583 1003.742554,455.097168 
	C1007.561401,457.869293 1008.224609,464.987457 1010.271423,470.204468 
	C1010.392761,470.513702 1010.583740,470.797241 1010.690369,471.110413 
	C1015.555359,485.406738 1020.851196,499.576721 1025.106567,514.052551 
	C1027.556641,522.387207 1024.572754,526.513306 1016.163940,528.839478 
	C1010.913818,530.291748 1005.489746,531.114990 1000.136353,532.222107 
	C1000.136353,538.817627 1000.136353,545.370483 1000.136353,551.865540 
	C1043.736572,551.865540 1086.993042,551.865540 1130.473267,551.865540 
	C1130.473267,545.199036 1130.473267,538.766296 1130.473267,532.039429 
	C1128.571411,531.676758 1126.804810,531.249329 1125.012939,531.012390 
	C1110.115845,529.042603 1098.682373,522.335571 1092.626831,507.895966 
	C1089.609131,500.700104 1085.913574,493.780823 1083.050049,486.529053 
	C1051.617432,406.927948 1020.300659,327.281097 988.914795,247.661469 
	C985.205322,238.251251 986.853699,239.601517 977.247131,240.816010 
	C974.770203,241.129166 972.281921,241.355118 969.807373,241.684845 
	C964.591614,242.379807 958.116028,241.491577 954.521667,244.289856 
	C950.861938,247.139053 949.915039,253.585434 947.995605,258.540131 
	C926.627014,313.697418 905.386230,368.904297 883.925049,424.025452 
	C873.557190,450.654572 862.796204,477.130646 851.937012,504.373627 
M974.440430,619.498352 
	C970.276245,619.557190 966.091675,619.378235 961.952881,619.733093 
	C956.320557,620.215881 953.018311,624.143738 952.991272,629.808472 
	C952.957520,636.877319 957.692383,641.160339 965.838684,641.080811 
	C996.419189,640.782410 1026.742188,643.638000 1056.823242,648.885925 
	C1075.007568,652.058228 1093.074585,655.910034 1111.172974,659.562866 
	C1119.723145,661.288635 1125.996704,655.948669 1124.989502,647.577209 
	C1124.332764,642.118958 1121.376221,639.112366 1114.797607,637.544250 
	C1068.970947,626.620972 1022.616882,619.747314 974.440430,619.498352 
M875.363525,704.774475 
	C892.657776,701.493835 909.845764,697.360474 927.278137,695.189148 
	C942.588196,693.282104 958.169556,693.507385 973.636108,692.922424 
	C981.181763,692.637085 985.261536,688.055847 984.264038,680.589661 
	C983.454346,674.529358 979.258606,671.054199 972.392700,670.897888 
	C948.351318,670.350586 924.449280,671.929504 900.787781,676.254517 
	C876.516663,680.691040 852.807556,687.111816 830.527954,697.992310 
	C827.806946,699.321167 825.033203,701.290100 823.286560,703.691650 
	C820.632385,707.341125 821.484436,713.552612 824.415405,716.753235 
	C827.913147,720.572754 832.163025,720.757141 836.771423,719.030579 
	C849.363098,714.312744 861.972473,709.642456 875.363525,704.774475 
M1095.987793,685.605347 
	C1070.524902,681.654419 1045.083618,677.553650 1019.584778,673.850586 
	C1012.596741,672.835754 1007.541077,677.348328 1007.091492,683.720093 
	C1006.635864,690.175537 1010.805786,695.167786 1017.746277,695.725830 
	C1049.337280,698.265930 1080.361572,704.164978 1111.215454,711.141541 
	C1118.300903,712.743713 1123.043213,710.115295 1124.694946,703.812378 
	C1126.257324,697.850525 1122.655273,691.673157 1116.298218,690.065247 
	C1109.856201,688.435791 1103.313721,687.204285 1095.987793,685.605347 
M853.967407,659.361511 
	C875.324097,651.736084 897.307007,646.785278 919.779053,643.897095 
	C927.134094,642.951843 931.064514,637.957153 930.186829,630.851013 
	C929.418945,624.633545 924.225769,621.270020 916.839539,622.376099 
	C909.115356,623.532593 901.380676,624.662476 893.706726,626.103027 
	C871.105835,630.345703 849.161438,636.777832 828.267029,646.494202 
	C822.256287,649.289246 819.923401,655.369812 822.325073,660.998901 
	C824.682251,666.523804 830.710449,668.579163 837.045776,666.063904 
	C842.442200,663.921326 847.859009,661.830078 853.967407,659.361511 
z"/>
<path fill="none" opacity="1.000000" stroke="none" 
	d="
M738.972717,691.000000 
	C738.972351,733.157715 738.972351,774.815430 738.972351,816.872559 
	C738.220093,816.492004 737.506958,816.265686 736.955566,815.833130 
	C698.856262,785.949646 655.155701,769.289062 607.874268,760.999756 
	C563.380188,753.199158 518.888977,754.886902 474.552277,761.758057 
	C428.180573,768.944580 381.946167,777.016418 335.648407,784.681335 
	C334.376343,784.891968 333.066315,784.873413 331.474304,784.982178 
	C331.474304,566.612305 331.474304,348.548035 331.474304,130.157166 
	C333.046204,130.081558 334.491791,129.951324 335.937408,129.951187 
	C418.254730,129.943115 500.582031,129.187897 582.885193,130.267838 
	C623.940369,130.806549 664.180176,138.310486 699.926819,160.309113 
	C712.424927,168.000534 723.264832,178.393127 734.822388,187.601852 
	C738.164368,190.264648 739.135620,193.721909 739.132019,198.095734 
	C738.995911,362.230438 738.993530,526.365234 738.972717,691.000000 
M397.516693,549.265564 
	C396.059387,552.209717 397.964050,552.109070 399.995178,552.107666 
	C429.989777,552.086975 459.984497,552.125305 489.978638,552.006836 
	C491.547668,552.000610 493.650879,551.147949 494.596771,549.963623 
	C507.763672,533.477112 514.642883,509.153717 497.409180,487.601654 
	C491.590057,480.324341 484.839264,473.784027 479.132843,466.427063 
	C474.174591,460.034729 469.218964,453.376221 465.789581,446.114075 
	C457.216217,427.958832 462.290527,402.193970 476.399994,388.547302 
	C477.612244,389.602570 478.864227,390.647827 480.067413,391.746552 
	C494.954102,405.340576 509.945892,418.822083 524.690674,432.568420 
	C551.617920,457.672211 578.550415,482.774261 605.162720,508.209717 
	C615.561523,518.148621 624.059631,529.741150 629.550293,543.208435 
	C631.737610,548.573608 633.321716,554.184631 635.118713,559.501282 
	C641.760315,561.655151 646.301392,558.783997 650.324158,553.899414 
	C672.029907,527.543152 676.939514,488.897125 651.416809,459.686676 
	C642.662842,449.667847 632.904541,440.523804 623.557129,431.027344 
	C618.999023,426.396545 614.232361,421.968292 609.745361,417.271332 
	C606.478577,413.851654 603.901672,410.152100 605.146484,404.820099 
	C609.255188,387.220764 616.613892,371.206024 627.799377,356.977264 
	C628.822144,355.676270 629.759094,354.307739 630.414795,353.410095 
	C641.127563,357.112946 644.046631,366.229370 648.768127,375.665222 
	C652.781372,372.144196 657.183899,369.893280 659.057190,366.317383 
	C663.564392,357.713562 668.192871,348.802368 670.435303,339.454559 
	C676.510803,314.127808 666.481628,293.753571 643.338928,281.806885 
	C637.287354,278.682953 631.041565,275.935974 624.895874,272.993195 
	C610.991211,266.335175 599.303223,257.529907 593.961609,242.175095 
	C592.397644,237.679138 588.404663,236.387604 583.706909,238.729752 
	C581.283325,239.938080 578.749146,241.864182 577.408508,244.139725 
	C572.110046,253.133514 566.194824,261.980316 562.460144,271.636536 
	C553.048096,295.971649 561.077148,317.705261 583.491943,331.206970 
	C589.017029,334.535065 594.877625,337.306183 599.827881,339.932251 
	C591.354309,355.475281 582.852234,371.070587 574.318054,386.724762 
	C549.666077,363.680511 524.463806,340.401703 499.601990,316.764832 
	C486.934723,304.721680 474.691681,292.214447 462.609650,279.579620 
	C453.778442,270.344360 448.759247,258.947388 446.056732,246.514862 
	C444.517395,239.433258 437.626831,236.850815 432.419006,242.037674 
	C416.605072,257.788116 406.766144,276.416718 407.623810,299.371216 
	C408.229828,315.591583 415.425110,329.192017 426.304016,340.792786 
	C435.395142,350.487213 445.037994,359.664307 454.094818,368.728455 
	C447.166107,376.895203 440.101349,384.435760 433.931671,392.648712 
	C418.278381,413.486176 408.306702,436.682037 411.350281,463.173920 
	C413.022827,477.732147 417.598694,492.008667 421.477386,506.245483 
	C424.655121,517.909485 423.918945,521.916626 412.975067,527.247803 
	C405.190491,531.039978 400.938660,536.674255 398.988770,544.667419 
	C398.674194,545.956970 398.209503,547.209900 397.516693,549.265564 
M406.914215,686.460632 
	C401.895142,687.619812 396.835571,688.629395 391.866516,689.973572 
	C384.558197,691.950562 381.334534,697.138000 383.099487,703.637512 
	C384.741333,709.683411 390.433655,712.804626 397.205688,711.198120 
	C446.272186,699.558716 495.878967,692.403992 546.439453,692.974731 
	C552.909912,693.047791 557.140747,688.765625 557.289307,682.478394 
	C557.443481,675.956116 553.187561,670.881226 546.846313,671.000427 
	C530.540466,671.306824 514.206543,671.478455 497.947296,672.612732 
	C467.533600,674.734375 437.539856,679.961914 406.914215,686.460632 
M622.080383,650.272217 
	C638.670410,655.564880 655.281555,660.792725 671.839294,666.184448 
	C677.813965,668.129944 683.487366,666.248108 685.802002,661.133301 
	C688.094238,656.068176 686.045349,649.976746 680.878845,646.945190 
	C678.882202,645.773621 676.729736,644.844360 674.589600,643.944092 
	C629.792725,625.100647 582.815186,618.726196 534.595337,619.610352 
	C528.023071,619.730896 523.957825,624.237427 524.198059,630.479858 
	C524.442993,636.844788 528.866333,641.173279 535.584717,641.095825 
	C564.499390,640.762634 593.035950,643.903259 622.080383,650.272217 
M418.322723,631.889587 
	C409.561005,633.822815 400.789215,635.711853 392.040680,637.702942 
	C384.847748,639.339966 381.213867,644.585144 382.676331,651.018066 
	C384.204865,657.741760 389.847748,661.047913 397.198639,659.286499 
	C428.115082,651.878235 459.241791,645.748718 490.990234,643.148193 
	C497.950897,642.578064 501.771637,637.968933 501.253876,631.556824 
	C500.750214,625.319214 495.862823,620.870972 489.233276,621.759033 
	C465.847870,624.891479 442.511200,628.387512 418.322723,631.889587 
M661.327087,691.139404 
	C638.854370,682.545044 615.667908,676.810791 591.777222,674.013916 
	C584.614014,673.175293 579.927246,676.953308 579.184448,683.632080 
	C578.496277,689.819458 582.382568,695.010437 589.025635,695.843323 
	C617.446899,699.406555 644.676025,707.061646 670.782349,718.850525 
	C677.357361,721.819641 683.255005,719.812988 685.697876,714.371277 
	C688.323120,708.523315 685.787354,702.161438 679.354553,699.116882 
	C673.649414,696.416748 667.811218,693.997803 661.327087,691.139404 
z"/>
<path fill="none" opacity="1.000000" stroke="none" 
	d="
M463.999756,857.653687 
	C405.509460,857.690430 347.519196,857.723938 289.528900,857.768311 
	C279.781067,857.775757 278.324707,856.340515 278.326721,846.438416 
	C278.365479,656.970276 278.411530,467.502106 278.446106,278.033966 
	C278.451263,249.705399 278.406372,221.376831 278.384918,193.048264 
	C278.383575,191.261887 278.384735,189.475510 278.384735,187.486694 
	C286.150574,187.486694 293.391205,187.486694 301.062073,187.486694 
	C301.062073,189.363480 301.062164,190.986755 301.062073,192.610046 
	C301.050537,394.742981 301.039001,596.875916 301.027802,799.008850 
	C301.027740,799.842041 301.020599,800.675476 301.036804,801.508362 
	C301.248932,812.425720 308.550140,819.020569 319.295288,817.288635 
	C337.859375,814.296387 356.358459,810.899170 374.879669,807.642517 
	C421.607758,799.426086 468.281586,790.823181 515.705566,787.482544 
	C568.534302,783.761108 620.114258,788.555237 669.320007,809.864563 
	C694.868652,820.928833 716.960510,836.960815 736.934021,856.127625 
	C737.127808,856.313538 737.148010,856.680420 737.497070,857.654114 
	C646.323547,857.654114 555.411682,857.654114 463.999756,857.653687 
M506.368896,810.911560 
	C491.812866,812.603333 477.185181,813.833191 462.714783,816.077087 
	C425.717072,821.814270 388.788483,827.997498 351.838226,834.038940 
	C350.774475,834.212952 349.778015,834.798767 348.020233,835.472168 
	C457.600250,835.472168 566.173279,835.472168 675.633362,835.472168 
	C621.144043,811.661377 565.247253,804.112610 506.368896,810.911560 
z"/>
<path fill="none" opacity="1.000000" stroke="none" 
	d="
M810.876099,824.872681 
	C843.256042,804.719910 878.449219,793.813538 915.667847,789.053345 
	C955.131958,784.005920 994.589783,785.774170 1033.729004,791.740295 
	C1085.221924,799.589600 1136.522949,808.695923 1187.913086,817.221802 
	C1200.205078,819.261108 1207.062500,813.414734 1207.066528,800.834656 
	C1207.108521,671.184814 1207.121216,541.534973 1207.132935,411.885132 
	C1207.139648,338.561310 1207.129883,265.237457 1207.127563,191.913635 
	C1207.127441,190.594574 1207.127563,189.275513 1207.127563,187.597900 
	C1214.750610,187.597900 1222.127197,187.597900 1229.924927,187.597900 
	C1229.924927,189.236374 1229.924805,190.695435 1229.924805,192.154495 
	C1229.927612,409.792908 1229.930542,627.431335 1229.933105,845.069763 
	C1229.933228,846.569580 1229.945312,848.069641 1229.921509,849.569092 
	C1229.821167,855.885986 1227.900146,857.752991 1221.405640,857.794922 
	C1217.906250,857.817444 1214.406494,857.771912 1210.906982,857.769287 
	C1066.592407,857.660950 922.277893,857.553833 777.963379,857.446838 
	C775.684326,857.445190 773.405273,857.446716 770.166504,857.446716 
	C783.180420,844.919250 796.108887,834.042603 810.876099,824.872681 
M1120.500000,835.819702 
	C1133.570557,835.819702 1146.641113,835.819702 1159.711548,835.819702 
	C1158.119507,834.716125 1156.434326,834.199524 1154.713989,833.861267 
	C1099.956543,823.098083 1044.906738,814.223145 989.257507,809.673706 
	C936.970886,805.399170 886.273010,812.156616 837.879700,833.261169 
	C836.656433,833.794617 835.531128,834.552734 833.259216,835.820312 
	C929.612000,835.820312 1024.556030,835.820312 1120.500000,835.819702 
z"/>
<path fill="currentColor" opacity="1.000000" stroke="none" 
	d="
M852.075073,504.024841 
	C862.796204,477.130646 873.557190,450.654572 883.925049,424.025452 
	C905.386230,368.904297 926.627014,313.697418 947.995605,258.540131 
	C949.915039,253.585434 950.861938,247.139053 954.521667,244.289856 
	C958.116028,241.491577 964.591614,242.379807 969.807373,241.684845 
	C972.281921,241.355118 974.770203,241.129166 977.247131,240.816010 
	C986.853699,239.601517 985.205322,238.251251 988.914795,247.661469 
	C1020.300659,327.281097 1051.617432,406.927948 1083.050049,486.529053 
	C1085.913574,493.780823 1089.609131,500.700104 1092.626831,507.895966 
	C1098.682373,522.335571 1110.115845,529.042603 1125.012939,531.012390 
	C1126.804810,531.249329 1128.571411,531.676758 1130.473267,532.039429 
	C1130.473267,538.766296 1130.473267,545.199036 1130.473267,551.865540 
	C1086.993042,551.865540 1043.736572,551.865540 1000.136353,551.865540 
	C1000.136353,545.370483 1000.136353,538.817627 1000.136353,532.222107 
	C1005.489746,531.114990 1010.913818,530.291748 1016.163940,528.839478 
	C1024.572754,526.513306 1027.556641,522.387207 1025.106567,514.052551 
	C1020.851196,499.576721 1015.555359,485.406738 1010.690369,471.110413 
	C1010.583740,470.797241 1010.392761,470.513702 1010.271423,470.204468 
	C1008.224609,464.987457 1007.561401,457.869293 1003.742554,455.097168 
	C1000.100830,452.453583 993.170654,454.256256 987.685913,454.249725 
	C961.528381,454.218689 935.370544,454.194458 909.213745,454.333710 
	C907.455688,454.343048 904.523010,455.329620 904.127991,456.521606 
	C898.120911,474.647522 892.093567,492.782776 886.842224,511.136505 
	C884.192627,520.396912 887.498657,525.169128 896.674255,528.126221 
	C899.827454,529.142395 903.105042,529.806641 906.359558,530.464355 
	C909.434814,531.085754 912.554443,531.487610 915.731323,531.998413 
	C915.731323,538.689575 915.731323,545.135803 915.731323,551.841553 
	C881.621094,551.841553 847.694275,551.841553 813.409180,551.841553 
	C813.409180,545.585022 813.409180,539.196716 813.409180,532.507080 
	C817.356323,531.612244 821.355408,530.653564 825.377563,529.803711 
	C836.722229,527.406555 844.115417,520.308777 848.974243,510.136749 
	C849.904846,508.188477 850.946594,506.293304 852.075073,504.024841 
M939.081909,359.579773 
	C931.081543,381.922363 923.081177,404.264954 914.982056,426.883301 
	C941.829651,426.883301 968.147156,426.883301 994.943909,426.883301 
	C981.416321,390.780945 967.967468,354.888794 954.121948,317.938141 
	C948.906494,332.353302 944.115723,345.594604 939.081909,359.579773 
z"/>
<path fill="currentColor" opacity="1.000000" stroke="none" 
	d="
M974.923401,619.501953 
	C1022.616882,619.747314 1068.970947,626.620972 1114.797607,637.544250 
	C1121.376221,639.112366 1124.332764,642.118958 1124.989502,647.577209 
	C1125.996704,655.948669 1119.723145,661.288635 1111.172974,659.562866 
	C1093.074585,655.910034 1075.007568,652.058228 1056.823242,648.885925 
	C1026.742188,643.638000 996.419189,640.782410 965.838684,641.080811 
	C957.692383,641.160339 952.957520,636.877319 952.991272,629.808472 
	C953.018311,624.143738 956.320557,620.215881 961.952881,619.733093 
	C966.091675,619.378235 970.276245,619.557190 974.923401,619.501953 
z"/>
<path fill="currentColor" opacity="1.000000" stroke="none" 
	d="
M874.969238,704.863892 
	C861.972473,709.642456 849.363098,714.312744 836.771423,719.030579 
	C832.163025,720.757141 827.913147,720.572754 824.415405,716.753235 
	C821.484436,713.552612 820.632385,707.341125 823.286560,703.691650 
	C825.033203,701.290100 827.806946,699.321167 830.527954,697.992310 
	C852.807556,687.111816 876.516663,680.691040 900.787781,676.254517 
	C924.449280,671.929504 948.351318,670.350586 972.392700,670.897888 
	C979.258606,671.054199 983.454346,674.529358 984.264038,680.589661 
	C985.261536,688.055847 981.181763,692.637085 973.636108,692.922424 
	C958.169556,693.507385 942.588196,693.282104 927.278137,695.189148 
	C909.845764,697.360474 892.657776,701.493835 874.969238,704.863892 
z"/>
<path fill="currentColor" opacity="1.000000" stroke="none" 
	d="
M1096.401489,685.701904 
	C1103.313721,687.204285 1109.856201,688.435791 1116.298218,690.065247 
	C1122.655273,691.673157 1126.257324,697.850525 1124.694946,703.812378 
	C1123.043213,710.115295 1118.300903,712.743713 1111.215454,711.141541 
	C1080.361572,704.164978 1049.337280,698.265930 1017.746277,695.725830 
	C1010.805786,695.167786 1006.635864,690.175537 1007.091492,683.720093 
	C1007.541077,677.348328 1012.596741,672.835754 1019.584778,673.850586 
	C1045.083618,677.553650 1070.524902,681.654419 1096.401489,685.701904 
z"/>
<path fill="currentColor" opacity="1.000000" stroke="none" 
	d="
M853.617065,659.538818 
	C847.859009,661.830078 842.442200,663.921326 837.045776,666.063904 
	C830.710449,668.579163 824.682251,666.523804 822.325073,660.998901 
	C819.923401,655.369812 822.256287,649.289246 828.267029,646.494202 
	C849.161438,636.777832 871.105835,630.345703 893.706726,626.103027 
	C901.380676,624.662476 909.115356,623.532593 916.839539,622.376099 
	C924.225769,621.270020 929.418945,624.633545 930.186829,630.851013 
	C931.064514,637.957153 927.134094,642.951843 919.779053,643.897095 
	C897.307007,646.785278 875.324097,651.736084 853.617065,659.538818 
z"/>
<path fill="currentColor" opacity="1.000000" stroke="none" 
	d="
M397.665466,548.872681 
	C398.209503,547.209900 398.674194,545.956970 398.988770,544.667419 
	C400.938660,536.674255 405.190491,531.039978 412.975067,527.247803 
	C423.918945,521.916626 424.655121,517.909485 421.477386,506.245483 
	C417.598694,492.008667 413.022827,477.732147 411.350281,463.173920 
	C408.306702,436.682037 418.278381,413.486176 433.931671,392.648712 
	C440.101349,384.435760 447.166107,376.895203 454.094818,368.728455 
	C445.037994,359.664307 435.395142,350.487213 426.304016,340.792786 
	C415.425110,329.192017 408.229828,315.591583 407.623810,299.371216 
	C406.766144,276.416718 416.605072,257.788116 432.419006,242.037674 
	C437.626831,236.850815 444.517395,239.433258 446.056732,246.514862 
	C448.759247,258.947388 453.778442,270.344360 462.609650,279.579620 
	C474.691681,292.214447 486.934723,304.721680 499.601990,316.764832 
	C524.463806,340.401703 549.666077,363.680511 574.318054,386.724762 
	C582.852234,371.070587 591.354309,355.475281 599.827881,339.932251 
	C594.877625,337.306183 589.017029,334.535065 583.491943,331.206970 
	C561.077148,317.705261 553.048096,295.971649 562.460144,271.636536 
	C566.194824,261.980316 572.110046,253.133514 577.408508,244.139725 
	C578.749146,241.864182 581.283325,239.938080 583.706909,238.729752 
	C588.404663,236.387604 592.397644,237.679138 593.961609,242.175095 
	C599.303223,257.529907 610.991211,266.335175 624.895874,272.993195 
	C631.041565,275.935974 637.287354,278.682953 643.338928,281.806885 
	C666.481628,293.753571 676.510803,314.127808 670.435303,339.454559 
	C668.192871,348.802368 663.564392,357.713562 659.057190,366.317383 
	C657.183899,369.893280 652.781372,372.144196 648.768127,375.665222 
	C644.046631,366.229370 641.127563,357.112946 630.414795,353.410095 
	C629.759094,354.307739 628.822144,355.676270 627.799377,356.977264 
	C616.613892,371.206024 609.255188,387.220764 605.146484,404.820099 
	C603.901672,410.152100 606.478577,413.851654 609.745361,417.271332 
	C614.232361,421.968292 618.999023,426.396545 623.557129,431.027344 
	C632.904541,440.523804 642.662842,449.667847 651.416809,459.686676 
	C676.939514,488.897125 672.029907,527.543152 650.324158,553.899414 
	C646.301392,558.783997 641.760315,561.655151 635.118713,559.501282 
	C633.321716,554.184631 631.737610,548.573608 629.550293,543.208435 
	C624.059631,529.741150 615.561523,518.148621 605.162720,508.209717 
	C578.550415,482.774261 551.617920,457.672211 524.690674,432.568420 
	C509.945892,418.822083 494.954102,405.340576 480.067413,391.746552 
	C478.864227,390.647827 477.612244,389.602570 476.399994,388.547302 
	C462.290527,402.193970 457.216217,427.958832 465.789581,446.114075 
	C469.218964,453.376221 474.174591,460.034729 479.132843,466.427063 
	C484.839264,473.784027 491.590057,480.324341 497.409180,487.601654 
	C514.642883,509.153717 507.763672,533.477112 494.596771,549.963623 
	C493.650879,551.147949 491.547668,552.000610 489.978638,552.006836 
	C459.984497,552.125305 429.989777,552.086975 399.995178,552.107666 
	C397.964050,552.109070 396.059387,552.209717 397.665466,548.872681 
z"/>
<path fill="currentColor" opacity="1.000000" stroke="none" 
	d="
M407.321503,686.352295 
	C437.539856,679.961914 467.533600,674.734375 497.947296,672.612732 
	C514.206543,671.478455 530.540466,671.306824 546.846313,671.000427 
	C553.187561,670.881226 557.443481,675.956116 557.289307,682.478394 
	C557.140747,688.765625 552.909912,693.047791 546.439453,692.974731 
	C495.878967,692.403992 446.272186,699.558716 397.205688,711.198120 
	C390.433655,712.804626 384.741333,709.683411 383.099487,703.637512 
	C381.334534,697.138000 384.558197,691.950562 391.866516,689.973572 
	C396.835571,688.629395 401.895142,687.619812 407.321503,686.352295 
z"/>
<path fill="currentColor" opacity="1.000000" stroke="none" 
	d="
M621.669006,650.186401 
	C593.035950,643.903259 564.499390,640.762634 535.584717,641.095825 
	C528.866333,641.173279 524.442993,636.844788 524.198059,630.479858 
	C523.957825,624.237427 528.023071,619.730896 534.595337,619.610352 
	C582.815186,618.726196 629.792725,625.100647 674.589600,643.944092 
	C676.729736,644.844360 678.882202,645.773621 680.878845,646.945190 
	C686.045349,649.976746 688.094238,656.068176 685.802002,661.133301 
	C683.487366,666.248108 677.813965,668.129944 671.839294,666.184448 
	C655.281555,660.792725 638.670410,655.564880 621.669006,650.186401 
z"/>
<path fill="currentColor" opacity="1.000000" stroke="none" 
	d="
M418.739380,631.817627 
	C442.511200,628.387512 465.847870,624.891479 489.233276,621.759033 
	C495.862823,620.870972 500.750214,625.319214 501.253876,631.556824 
	C501.771637,637.968933 497.950897,642.578064 490.990234,643.148193 
	C459.241791,645.748718 428.115082,651.878235 397.198639,659.286499 
	C389.847748,661.047913 384.204865,657.741760 382.676331,651.018066 
	C381.213867,644.585144 384.847748,639.339966 392.040680,637.702942 
	C400.789215,635.711853 409.561005,633.822815 418.739380,631.817627 
z"/>
<path fill="currentColor" opacity="1.000000" stroke="none" 
	d="
M661.679443,691.297058 
	C667.811218,693.997803 673.649414,696.416748 679.354553,699.116882 
	C685.787354,702.161438 688.323120,708.523315 685.697876,714.371277 
	C683.255005,719.812988 677.357361,721.819641 670.782349,718.850525 
	C644.676025,707.061646 617.446899,699.406555 589.025635,695.843323 
	C582.382568,695.010437 578.496277,689.819458 579.184448,683.632080 
	C579.927246,676.953308 584.614014,673.175293 591.777222,674.013916 
	C615.667908,676.810791 638.854370,682.545044 661.679443,691.297058 
z"/>
<path fill="currentColor" opacity="1.000000" stroke="none" 
	d="
M506.825897,810.883545 
	C565.247253,804.112610 621.144043,811.661377 675.633362,835.472168 
	C566.173279,835.472168 457.600250,835.472168 348.020233,835.472168 
	C349.778015,834.798767 350.774475,834.212952 351.838226,834.038940 
	C388.788483,827.997498 425.717072,821.814270 462.714783,816.077087 
	C477.185181,813.833191 491.812866,812.603333 506.825897,810.883545 
z"/>
<path fill="currentColor" opacity="1.000000" stroke="none" 
	d="
M1120.000000,835.820007 
	C1024.556030,835.820312 929.612000,835.820312 833.259216,835.820312 
	C835.531128,834.552734 836.656433,833.794617 837.879700,833.261169 
	C886.273010,812.156616 936.970886,805.399170 989.257507,809.673706 
	C1044.906738,814.223145 1099.956543,823.098083 1154.713989,833.861267 
	C1156.434326,834.199524 1158.119507,834.716125 1159.711548,835.819702 
	C1146.641113,835.819702 1133.570557,835.819702 1120.000000,835.820007 
z"/>
<path fill="none" opacity="1.000000" stroke="none" 
	d="
M939.203430,359.207825 
	C944.115723,345.594604 948.906494,332.353302 954.121948,317.938141 
	C967.967468,354.888794 981.416321,390.780945 994.943909,426.883301 
	C968.147156,426.883301 941.829651,426.883301 914.982056,426.883301 
	C923.081177,404.264954 931.081543,381.922363 939.203430,359.207825 
z"/>
</svg>
