<svg xmlns="http://www.w3.org/2000/svg" viewBox="0 0 24 24" fill="none" stroke="#FFFFFF" stroke-width="1.8" stroke-linecap="round" stroke-linejoin="round">
  <!-- Center Petal -->
  <path d="M12 22c0 0-3.5-5-3.5-9.5a3.5 3.5 0 0 1 7 0c0 4.5-3.5 9.5-3.5 9.5Z"/>
  <!-- Left Petal -->
  <path d="M12 22c0 0-6.5-1.5-6.5-7 0-2.8 2-4.5 4.5-4.5"/>
  <!-- Right Petal -->
  <path d="M12 22c0 0 6.5-1.5 6.5-7 0-2.8-2-4.5-4.5-4.5"/>
  <!-- Bottom Left Petal -->
  <path d="M12 22c-2.5-1.5-5.5-.5-6.5-2 0 0 3.5-1.5 5.5.5"/>
  <!-- Bottom Right Petal -->
  <path d="M12 22c2.5-1.5 5.5-.5 6.5-2 0 0-3.5-1.5-5.5.5"/>
</svg>
