<svg version="1.1" id="Layer_1" xmlns="http://www.w3.org/2000/svg" xmlns:xlink="http://www.w3.org/1999/xlink" x="0px" y="0px"
	 width="100%" viewBox="0 0 1024 1024" enable-background="new 0 0 1024 1024" xml:space="preserve">
<path fill="#000000" opacity="1.000000" stroke="none" 
	d="
M200.691025,703.909546 
	C155.328476,707.066284 111.102127,714.110840 68.037941,727.428162 
	C66.987373,724.471252 68.555885,723.131531 69.424187,721.644104 
	C99.504021,670.115051 131.938995,620.061462 164.416794,570.033997 
	C166.995102,566.062500 170.547302,563.862244 174.960159,565.753540 
	C180.669464,568.200562 185.523972,567.958557 190.101120,563.678345 
	C190.355133,563.440857 191.024689,563.647705 193.034241,563.647705 
	C181.939056,585.380005 168.971054,605.164551 156.998627,625.498047 
	C144.955658,645.951294 132.711685,666.286194 120.191948,687.283142 
	C125.724617,687.843567 129.856674,686.439758 134.046890,685.685974 
	C176.505173,678.048523 219.324600,674.822144 262.375732,677.048950 
	C308.628540,679.441284 354.095917,686.684082 397.575684,703.561157 
	C426.618713,714.834412 453.190491,730.001770 474.874756,752.870300 
	C487.786011,766.486694 497.631927,782.016724 503.854034,799.672485 
	C505.555359,804.500122 508.391205,805.080322 512.521545,804.871155 
	C516.563965,804.666443 520.425781,805.643799 522.382263,799.947754 
	C533.847351,766.568054 556.787659,742.526306 586.200745,724.378235 
	C624.428589,700.791321 666.827698,689.342896 710.827026,682.548828 
	C736.736206,678.548157 762.761963,676.489990 788.907593,676.279968 
	C810.555542,676.106140 832.197632,677.372925 853.694580,680.148865 
	C869.700378,682.215759 885.739441,684.131653 901.551270,687.500061 
	C902.486145,687.699158 903.500305,687.525879 904.797485,687.525879 
	C904.957458,684.303345 902.950073,682.128479 901.585266,679.838989 
	C882.988647,648.642822 864.294250,617.504944 845.668091,586.326294 
	C842.336731,580.749817 839.142151,575.088562 836.021057,569.391602 
	C835.118042,567.743408 833.621826,566.107056 834.479736,563.945312 
	C834.864014,563.756226 835.311279,563.411743 835.423462,563.498779 
	C840.715759,567.606445 846.034546,568.337097 852.463196,565.467163 
	C856.685120,563.582520 859.824097,566.979004 862.150085,570.602722 
	C874.570007,589.952454 887.095032,609.234741 899.497559,628.595581 
	C918.910034,658.899109 937.903748,689.462402 956.104736,720.512390 
	C957.171936,722.333008 958.755615,723.983582 958.560669,726.368042 
	C956.744995,727.914795 955.000244,726.685242 953.377869,726.180176 
	C919.698669,715.696045 885.150024,709.779602 850.135193,706.125488 
	C824.928589,703.494934 799.665710,701.875183 774.341614,702.417664 
	C725.317993,703.467712 677.012085,709.276611 630.740906,726.661255 
	C607.216248,735.499756 585.021790,746.820190 566.051270,763.678650 
	C562.574707,766.768127 559.247070,770.025146 556.512146,773.970032 
	C562.236816,770.316162 567.846863,766.466187 573.705872,763.042236 
	C599.983948,747.685547 628.700500,739.552429 658.514648,734.768433 
	C689.694763,729.765198 721.110962,728.016235 752.623474,729.096436 
	C781.071594,730.071655 809.411194,732.569885 837.660767,736.385376 
	C869.197144,740.644714 900.317749,747.051331 931.526794,753.048035 
	C937.951599,754.282532 938.256165,754.126038 940.155334,747.587524 
	C941.068420,744.443726 942.091309,741.343384 945.906738,740.863708 
	C949.596863,740.399780 951.748474,742.778748 953.408081,745.649963 
	C961.744751,760.073059 970.058228,774.509644 978.368103,788.948181 
	C979.018494,790.078125 979.873169,791.205872 979.013672,792.720459 
	C977.017151,793.895447 975.144287,792.648682 973.365173,792.062134 
	C940.566833,781.249451 907.095093,773.184814 873.018677,767.692444 
	C847.216187,763.533752 821.293823,760.262146 795.226746,758.190552 
	C773.967224,756.500916 752.676697,755.191284 731.357605,755.485107 
	C692.960144,756.014282 654.846436,759.443481 617.658813,769.634277 
	C598.991760,774.749756 580.741211,781.142517 564.446228,792.004272 
	C556.980957,796.980347 550.258057,802.635742 548.258423,812.052490 
	C547.719482,814.590698 545.751038,815.491089 543.611877,816.037292 
	C523.199951,821.248962 502.767639,821.075867 482.335876,816.136475 
	C480.109558,815.598328 478.286713,814.540100 477.840942,812.031982 
	C476.380157,803.813232 470.773865,798.672974 464.456299,794.101074 
	C447.137878,781.567810 427.279022,774.821594 406.952515,769.344482 
	C374.628204,760.634521 341.600250,757.116333 308.194397,756.016724 
	C275.648712,754.945435 243.284622,756.817444 210.944885,760.115784 
	C169.981781,764.293640 129.369354,770.475586 89.562225,781.224243 
	C77.351295,784.521423 65.283348,788.346619 53.135250,791.879578 
	C51.258457,792.425415 49.428894,793.468689 47.317829,792.880798 
	C45.846325,791.072754 47.353382,789.727051 48.111370,788.398804 
	C56.285492,774.074219 64.500328,759.772949 72.741653,745.486877 
	C74.395454,742.620117 76.560059,740.198364 80.272385,740.812927 
	C83.749550,741.388611 84.867950,744.300720 85.772789,747.254456 
	C87.922371,754.271545 87.937744,754.321594 95.027138,752.890381 
	C123.253929,747.191833 151.499756,741.561340 180.011322,737.481628 
	C202.580093,734.252258 225.226654,731.735962 248.032227,730.539368 
	C266.170807,729.587708 284.299896,728.451294 302.452972,729.015198 
	C342.205170,730.250122 381.527740,734.404602 419.350983,747.773499 
	C435.148010,753.357117 449.966553,760.858765 463.753967,770.389404 
	C465.626465,771.683655 467.543396,772.913635 469.644440,773.890137 
	C459.523132,761.234131 446.510590,752.132874 432.680145,744.163025 
	C402.593414,726.825562 369.915588,716.750671 335.984436,710.368530 
	C300.816498,703.753662 265.274902,701.875671 229.575089,702.423584 
	C220.096558,702.569092 210.627914,703.359619 200.691025,703.909546 
z"/>
<path fill="#000000" opacity="1.000000" stroke="none" 
	d="
M483.444824,519.519287 
	C484.575256,487.765045 485.962677,456.481873 485.588745,425.163818 
	C485.451599,413.673798 484.970459,402.188080 484.677582,390.699646 
	C484.523895,384.670898 484.075806,383.925293 477.983215,384.401367 
	C451.755127,386.450745 425.599091,389.093231 400.093109,396.005096 
	C395.439941,397.266022 390.823303,398.677338 386.236237,400.162628 
	C380.999817,401.858185 379.689789,400.971619 379.693451,395.230804 
	C379.705017,377.069183 379.808350,358.907501 379.784515,340.745972 
	C379.773590,332.422058 380.009125,324.097107 379.171478,315.777344 
	C378.646301,310.561127 380.825897,308.943268 385.622406,310.497772 
	C408.569244,317.934662 432.310333,321.128998 456.167358,323.663025 
	C462.286255,324.312958 468.434174,324.782166 474.581146,325.046692 
	C479.526154,325.259521 481.016907,323.622559 480.454315,318.826843 
	C476.551788,285.558746 471.122284,252.597015 460.915253,220.571579 
	C458.537048,213.109756 456.203766,205.651306 453.093109,198.454834 
	C452.385498,196.817856 451.172058,195.105774 452.707916,193.344040 
	C454.150269,191.689499 456.026825,192.162720 457.829285,192.615051 
	C467.846008,195.128830 477.913879,197.238281 488.254456,198.065277 
	C513.620728,200.093979 538.808411,199.307571 563.820801,194.273895 
	C566.874268,193.659378 570.627319,191.205612 573.159302,194.463348 
	C575.487061,197.458206 572.313660,200.396484 571.277466,203.212158 
	C560.416870,232.722321 553.639160,263.209625 549.323608,294.286438 
	C548.110962,303.018982 547.224731,311.796387 546.117859,320.544220 
	C545.609375,324.562592 547.306763,325.972595 551.229614,325.593231 
	C578.563965,322.949860 605.902832,320.353729 632.483887,312.908936 
	C635.203064,312.147339 637.862366,311.168427 640.539612,310.261200 
	C645.151367,308.698395 647.203857,310.041351 647.157532,314.974396 
	C647.126465,318.287842 646.376160,321.595947 646.364014,324.907959 
	C646.285950,346.235016 646.302490,367.562561 646.348938,388.889832 
	C646.354370,391.376190 646.884399,393.860657 646.903137,396.347992 
	C646.932190,400.194397 644.710205,401.809174 641.055237,400.544312 
	C614.248718,391.267395 586.376953,387.771362 558.330261,385.209656 
	C554.519775,384.861633 550.696350,384.647186 546.890991,384.253784 
	C543.515625,383.904877 542.204102,385.263123 541.927368,388.697327 
	C540.694092,404.003784 541.342224,419.337708 541.039673,434.654968 
	C540.371460,468.479462 541.805420,502.271973 543.417114,536.042480 
	C545.432678,578.278503 549.369507,620.369507 553.973328,662.397095 
	C554.661133,668.676208 555.374268,674.954041 556.202393,681.215698 
	C556.632690,684.468872 555.664612,686.820618 553.197144,689.131714 
	C535.931885,705.302673 524.328674,725.121216 516.393677,747.225769 
	C515.276123,750.338806 515.390015,750.379700 513.342590,752.765503 
	C510.830383,752.282288 510.734863,749.977356 510.141083,748.208069 
	C502.583679,725.689453 490.394989,706.060730 473.426483,689.449585 
	C470.664337,686.745605 469.988617,684.096069 470.431824,680.150940 
	C473.737244,650.729370 476.684479,621.272644 478.921021,591.739624 
	C480.731232,567.836731 482.019592,543.910767 483.444824,519.519287 
z"/>
<path fill="#000000" opacity="1.000000" stroke="none" 
	d="
M742.925842,428.016357 
	C733.219788,393.810242 709.107422,374.442017 677.770020,362.281342 
	C673.586182,360.657806 669.338257,359.199554 665.144653,357.600281 
	C664.769104,357.457092 664.575562,356.836395 663.625977,355.473938 
	C683.374756,346.393372 703.749329,345.038879 724.074341,349.576508 
	C766.945251,359.147522 788.680176,388.179993 795.488220,430.463287 
	C811.279785,391.916412 816.954285,351.522247 817.183777,310.252808 
	C821.032654,310.200470 821.486755,312.482605 822.306763,314.138550 
	C832.815979,335.360901 839.335388,357.767487 842.373230,381.248535 
	C846.733215,414.948273 843.968750,447.968231 833.394043,480.293732 
	C823.995483,509.024170 809.020569,534.593445 789.300537,557.402222 
	C763.311401,587.461975 731.954590,610.972290 698.279968,631.640442 
	C671.703857,647.951782 643.773560,661.748230 616.161255,676.142334 
	C592.157410,688.655334 569.121948,702.594971 549.813782,721.939148 
	C545.980225,725.779846 543.161499,730.590027 538.489502,734.049072 
	C537.075500,731.806641 538.590515,730.333740 539.339844,728.910278 
	C546.530090,715.251099 555.776978,703.086365 566.447754,691.975342 
	C580.920837,676.905029 597.436462,664.195251 613.611206,651.082397 
	C644.315125,626.190796 674.215149,600.450378 699.115479,569.465393 
	C719.188354,544.487488 734.548889,517.086487 742.126160,485.725769 
	C746.718140,466.720551 747.754822,447.593872 742.925842,428.016357 
z"/>
<path fill="#000000" opacity="1.000000" stroke="none" 
	d="
M460.807007,693.207275 
	C476.351044,710.174744 487.351685,726.570740 487.866211,733.439331 
	C486.621155,733.733215 486.064453,732.773743 485.454712,732.038452 
	C467.691376,710.615906 445.047791,695.493591 421.007782,682.205811 
	C393.895050,667.219666 365.804291,654.064270 339.078125,638.345459 
	C302.719055,616.961182 268.546631,592.779968 240.217651,561.153748 
	C209.497696,526.858154 190.328720,486.995239 183.929001,441.331848 
	C177.883362,398.194611 184.230438,356.747040 202.479370,317.165100 
	C203.690475,314.538239 204.551559,311.582367 208.875122,309.060608 
	C209.369293,351.188293 214.745377,391.470764 230.824738,430.209167 
	C238.512009,383.423889 264.034607,354.229736 311.731964,348.021393 
	C331.013306,345.511688 354.669525,349.005402 361.837769,356.489868 
	C359.034698,359.428192 355.070984,359.797333 351.582733,361.044708 
	C333.122223,367.646027 316.433899,376.995819 303.062225,391.649445 
	C288.904114,407.164856 281.648804,425.668091 280.374268,446.380981 
	C278.561554,475.838562 287.210693,502.946838 300.374969,528.842102 
	C317.728790,562.978577 343.485016,590.331726 371.244598,616.010071 
	C395.355042,638.312805 421.971375,657.654602 446.513977,679.448425 
	C451.367004,683.757935 455.887756,688.441589 460.807007,693.207275 
z"/>
<path fill="#000000" opacity="1.000000" stroke="none" 
	d="
M780.393921,764.588989 
	C792.456848,765.727356 804.059143,766.790161 815.652283,767.945068 
	C817.730835,768.152039 820.641052,768.138916 820.441589,771.091736 
	C820.224670,774.303162 817.209717,773.930237 814.947937,773.839050 
	C784.969177,772.630066 754.975891,772.560730 725.043579,774.430481 
	C687.084595,776.801575 649.496521,781.760376 613.319092,794.315186 
	C601.480530,798.423584 590.203430,803.753235 579.736938,810.710876 
	C576.253418,813.026550 573.897949,815.721252 573.877014,820.410095 
	C573.847656,826.981628 569.683472,831.009094 564.005676,833.632568 
	C554.237732,838.145813 543.885132,840.713684 533.292786,842.060547 
	C512.415649,844.715332 491.757660,843.638794 471.533936,837.315491 
	C467.390839,836.020081 463.285095,834.612915 459.570404,832.341431 
	C455.538330,829.875916 452.532654,826.506714 452.692810,821.492188 
	C452.858521,816.303101 450.156555,813.168762 446.167389,810.528137 
	C430.698090,800.288208 413.556671,793.995422 395.836456,789.060486 
	C371.550201,782.296875 346.732971,778.681458 321.689056,776.144897 
	C285.139740,772.442932 248.508621,773.142761 211.874710,773.306335 
	C209.689377,773.316101 205.984924,774.709900 205.879211,771.004456 
	C205.783096,767.635864 209.565918,768.209167 211.793762,767.938904 
	C243.076263,764.143982 274.479767,762.078308 305.989807,762.996033 
	C346.069702,764.163330 385.702728,768.666870 423.970581,781.466492 
	C437.422852,785.966003 450.437531,791.505981 462.000671,799.994019 
	C467.344269,803.916565 471.248413,808.683533 471.783417,815.512573 
	C472.047791,818.887024 474.321838,819.863770 476.941925,820.746094 
	C493.370789,826.278564 510.263641,826.800110 527.320007,825.356445 
	C534.979004,824.708252 542.448547,823.060547 549.729431,820.566345 
	C552.431274,819.640686 554.504578,818.327393 554.589294,815.044312 
	C554.749573,808.832520 558.283447,804.555786 562.907227,800.926819 
	C576.669922,790.125488 592.730591,784.074707 609.180725,779.093567 
	C640.742432,769.536682 673.198975,765.365234 706.051819,763.574524 
	C730.716309,762.230164 755.322021,762.868652 780.393921,764.588989 
z"/>
<path fill="#000000" opacity="1.000000" stroke="none" 
	d="
M684.304810,320.802917 
	C657.101074,301.681885 659.818176,258.686829 690.989807,244.262238 
	C706.468262,237.099655 725.490723,239.810089 737.749512,250.891373 
	C751.906738,263.688782 756.629639,281.800629 750.426697,299.507538 
	C744.758179,315.688904 729.596069,327.125122 712.501892,328.405334 
	C702.287476,329.170319 693.039978,326.726990 684.304810,320.802917 
z"/>
<path fill="#000000" opacity="1.000000" stroke="none" 
	d="
M278.129700,304.691742 
	C265.204987,277.654724 279.562744,247.230789 308.212982,241.368362 
	C325.432526,237.844864 340.490082,242.922821 351.269836,257.060699 
	C362.235413,271.442352 364.427704,287.497742 356.109955,303.976593 
	C348.371307,319.308136 335.687531,327.857971 318.302795,328.353088 
	C300.267456,328.866669 287.125061,320.540436 278.129700,304.691742 
z"/>
</svg>