<svg version="1.1" id="Layer_1" xmlns="http://www.w3.org/2000/svg" xmlns:xlink="http://www.w3.org/1999/xlink" x="0px" y="0px"
	 width="100%" viewBox="0 0 1024 544" enable-background="new 0 0 1024 544" xml:space="preserve">
<path fill="currentColor" opacity="1.000000" stroke="none" 
	d="
M399.953613,513.981689 
	C397.575043,496.471497 404.610504,481.523010 410.301086,466.277313 
	C412.513641,460.349670 414.866394,454.466156 416.826019,448.455200 
	C418.184570,444.287994 420.725220,442.773712 425.001404,442.815521 
	C439.496429,442.957397 453.996429,442.707123 468.488800,442.948486 
	C473.311768,443.028778 474.741180,441.375977 474.732330,436.613556 
	C474.606171,368.630127 474.601807,300.646362 474.736908,232.663010 
	C474.746796,227.687668 473.366974,226.071228 468.246124,226.187302 
	C453.257355,226.527084 438.255402,226.237259 423.260162,226.370544 
	C419.786041,226.401413 417.342377,225.340881 415.142059,222.576874 
	C404.247253,208.890854 393.216278,195.312622 382.166168,181.751114 
	C376.843231,175.218430 379.136322,167.833969 379.675903,160.676453 
	C379.818390,158.786026 381.771698,158.192276 383.495544,158.058273 
	C385.484406,157.903671 387.489563,157.926987 389.487640,157.927063 
	C456.138245,157.929581 522.788879,157.939941 589.439453,157.944595 
	C596.449951,157.945084 596.429016,157.930923 596.790039,150.948059 
	C596.858154,149.630814 596.990173,148.269073 597.391357,147.024078 
	C603.177429,129.067459 591.724915,103.570328 574.129578,97.460114 
	C568.922546,95.651917 562.992310,95.565247 557.577393,93.396606 
	C546.141479,88.816574 534.492188,84.772491 522.992920,80.346306 
	C518.328674,78.550995 513.921387,78.059273 508.943420,79.555473 
	C493.323822,84.250175 481.900085,72.381851 479.042450,59.420826 
	C476.191406,46.489624 485.639038,34.097538 499.187897,32.167755 
	C510.651031,30.535049 520.441406,35.510838 525.068481,45.910042 
	C527.029358,50.317059 530.577515,52.435009 534.392395,54.460205 
	C547.191528,61.254906 560.634338,67.047272 572.722839,74.923759 
	C593.524048,88.477165 613.350342,103.710335 615.480164,131.319519 
	C616.113220,139.525696 620.882568,146.560257 620.286804,154.838974 
	C620.085571,157.634766 622.310486,157.899948 624.429688,157.906525 
	C629.928223,157.923584 635.427551,157.968765 640.925171,157.895126 
	C645.075134,157.839554 646.794006,159.765717 647.124573,163.912354 
	C647.842224,172.916779 646.078308,180.497864 639.562256,187.608841 
	C629.566467,198.517303 620.685242,210.455246 611.481262,222.075302 
	C609.105469,225.074677 606.510193,226.453278 602.585999,226.396240 
	C588.592285,226.192902 574.593445,226.244919 560.597412,226.337036 
	C551.051636,226.399841 551.359009,224.605377 551.354858,235.342377 
	C551.335632,284.997070 551.354187,334.651733 551.361206,384.306427 
	C551.363647,401.635559 551.366150,418.964691 551.380798,436.293823 
	C551.386230,442.727692 551.477783,442.822876 557.721863,442.832672 
	C572.051758,442.855164 586.383423,442.991394 600.710449,442.796051 
	C605.448059,442.731445 607.890198,444.453979 609.472595,448.997040 
	C614.235291,462.670258 619.422363,476.196075 624.488770,489.762665 
	C625.609070,492.762512 626.244141,495.782104 626.199829,499.016571 
	C626.092651,506.846527 626.212402,514.679321 626.143372,522.510193 
	C626.094666,528.031921 624.906982,529.135437 619.281921,529.240845 
	C617.283081,529.278320 615.283020,529.251648 613.283508,529.251709 
	C545.799744,529.252502 478.316010,529.251953 410.832245,529.254517 
	C399.956085,529.254883 399.956146,529.261047 399.954956,518.473877 
	C399.954834,517.142029 399.954010,515.810181 399.953613,513.981689 
M544.600403,268.500122 
	C544.606750,248.672836 544.535522,228.844986 544.678650,209.018692 
	C544.711182,204.525314 542.989441,201.682755 538.792358,200.326050 
	C521.974731,194.889694 505.126831,194.847443 488.243500,200.056641 
	C483.669617,201.467880 481.789093,204.200150 481.788940,209.250610 
	C481.787598,249.899399 482.010925,290.547363 481.538300,331.198578 
	C481.158905,363.835022 481.761688,396.482635 481.893555,429.125397 
	C481.937958,440.115417 482.111755,451.113464 481.760040,462.092896 
	C481.585480,467.541351 484.230774,469.955719 488.877655,471.343384 
	C504.433807,475.988800 520.059448,476.023315 535.676758,471.872711 
	C543.654907,469.752319 544.601379,468.239594 544.601746,459.941376 
	C544.604797,396.460968 544.601501,332.980560 544.600403,268.500122 
M610.499878,180.309174 
	C538.022156,180.309174 465.544434,180.309174 392.900238,180.309174 
	C393.015961,183.604263 394.184723,184.847809 395.207611,186.122253 
	C403.237030,196.126633 411.347717,206.066528 419.296173,216.134613 
	C421.214600,218.564636 423.554932,218.965408 426.332977,218.955627 
	C439.163574,218.910461 451.994385,218.940125 464.825134,218.945038 
	C474.638641,218.948776 474.638611,218.950150 474.642548,209.305374 
	C474.646637,199.359894 476.558685,196.016937 485.956451,193.137329 
	C504.253204,187.530960 522.705383,187.416656 540.935913,193.570587 
	C549.465332,196.449814 551.325989,199.505966 551.339661,208.315186 
	C551.342773,210.314774 551.470886,212.324417 551.315491,214.311752 
	C551.041870,217.811584 552.614136,218.995667 556.012695,218.971603 
	C570.842285,218.866562 585.673279,218.879959 600.503174,218.960052 
	C603.251282,218.974884 605.155151,218.045502 606.883179,215.886246 
	C614.898499,205.870590 623.074280,195.983459 631.126892,185.997345 
	C632.117188,184.769302 633.534851,183.588303 633.014832,181.112411 
	C626.010071,179.379822 618.700623,180.719635 610.499878,180.309174 
M417.658142,490.756500 
	C483.702148,490.756500 549.746155,490.756500 615.883179,490.756500 
	C616.242615,488.170959 615.354492,486.509247 614.746216,484.842804 
	C611.095276,474.840546 607.239868,464.910370 603.758545,454.850281 
	C602.589172,451.471375 600.905762,450.163940 597.288025,450.225677 
	C585.469482,450.427307 573.645386,450.309998 561.823425,450.310913 
	C550.756226,450.311768 550.756226,450.309265 551.558105,461.733307 
	C552.196289,470.825562 550.391602,473.958191 541.858459,477.415131 
	C529.696350,482.342316 516.953735,483.004700 504.068695,481.871368 
	C496.767181,481.229156 489.537964,480.036285 482.818268,476.851898 
	C477.461884,474.313599 473.785187,470.760712 474.567841,464.100403 
	C474.934509,460.980164 474.505676,457.774841 474.657593,454.618652 
	C474.813721,451.374756 473.454041,450.242279 470.239014,450.267090 
	C456.253357,450.375061 442.265198,450.402893 428.280701,450.233551 
	C424.935760,450.193085 423.547791,451.764648 422.547821,454.547699 
	C419.622528,462.688995 416.501831,470.760559 413.622620,478.917694 
	C412.321503,482.603912 410.393707,486.136047 410.029755,490.759583 
	C412.459381,490.759583 414.591522,490.759583 417.658142,490.756500 
M516.500000,498.272064 
	C510.334167,498.271454 504.168304,498.271301 498.002472,498.270233 
	C470.006378,498.265320 442.010284,498.256287 414.014191,498.257874 
	C407.487579,498.258270 407.473419,498.274628 407.416077,504.953186 
	C407.387451,508.285736 407.409943,511.618866 407.429840,514.951660 
	C407.470062,521.693054 407.475861,521.707275 414.353363,521.708008 
	C480.177521,521.714478 546.001709,521.715881 611.825867,521.717834 
	C612.825684,521.717896 613.827209,521.663452 614.824890,521.705994 
	C617.596130,521.824036 618.714233,520.476562 618.667603,517.761902 
	C618.590393,513.263977 618.346375,508.735718 618.746582,504.271698 
	C619.193298,499.288849 617.165039,498.137329 612.486206,498.164154 
	C580.825012,498.345612 549.162231,498.267517 516.500000,498.272064 
M513.500000,172.902237 
	C552.635925,172.899521 591.771790,172.899200 630.907715,172.887238 
	C632.904785,172.886627 634.903259,172.817429 636.898376,172.722061 
	C638.394226,172.650543 639.500488,171.979187 639.560181,170.342484 
	C639.618958,168.730820 640.262085,166.656357 638.446899,165.834641 
	C637.028198,165.192474 635.198120,165.339523 633.550842,165.339188 
	C553.447144,165.323120 473.343414,165.328918 393.239685,165.334839 
	C392.074249,165.334915 390.908752,165.365173 389.743347,165.384628 
	C386.329010,165.441544 386.014679,167.791565 386.486359,170.251892 
	C387.182617,173.883499 390.318695,172.837204 392.594360,172.841080 
	C432.562805,172.909180 472.531433,172.897278 513.500000,172.902237 
M544.481628,66.088356 
	C543.744751,65.704865 543.008789,65.319511 542.270813,64.938164 
	C530.723999,58.971375 530.812195,59.003479 526.380005,71.235443 
	C525.314392,74.176247 526.118713,75.427704 528.830627,76.430298 
	C540.668945,80.806915 552.506042,85.193985 564.250000,89.815071 
	C568.132019,91.342606 570.074585,90.068939 571.671753,86.610504 
	C573.347717,82.981400 572.469116,80.848618 568.902710,79.047287 
	C560.897400,75.003876 553.050476,70.646698 544.481628,66.088356 
M608.444763,157.918518 
	C612.791016,158.404861 613.853455,156.064102 613.664185,152.225891 
	C613.503540,148.967621 612.190552,147.354553 608.829956,147.353653 
	C605.863037,147.352859 603.439758,147.877213 603.390564,151.509094 
	C603.349487,154.548752 602.392273,158.278336 608.444763,157.918518 
M511.374512,39.700031 
	C505.825287,47.571209 503.330658,56.801556 499.831909,65.589973 
	C504.292725,57.326366 508.502289,48.952011 511.374512,39.700031 
M521.120117,66.439957 
	C520.723450,68.009369 519.592957,69.522896 520.690430,72.106583 
	C523.877014,67.475990 526.133972,63.369736 527.050598,57.171474 
	C523.404968,60.007915 522.728027,63.117992 521.120117,66.439957 
z"/>
</svg>
