<svg version="1.1" id="Layer_1" xmlns="http://www.w3.org/2000/svg" xmlns:xlink="http://www.w3.org/1999/xlink" x="0px" y="0px"
	 width="100%" viewBox="0 0 1024 1024" enable-background="new 0 0 1024 1024" xml:space="preserve">
<path fill="currentColor" opacity="1.000000" stroke="none" 
	d="
M471.917236,853.224609 
	C477.450287,861.172424 477.298279,869.414856 474.794312,877.927063 
	C471.891113,887.796448 466.770050,896.545227 461.194672,905.075439 
	C458.907196,908.575256 456.089569,910.454773 452.004700,908.048218 
	C448.648407,906.070862 448.135834,902.655762 450.881866,898.530945 
	C455.800690,891.142456 460.025909,883.454773 462.875671,875.009583 
	C466.252441,865.002869 464.064514,859.545776 454.304596,855.544739 
	C432.956879,846.793213 413.457520,835.247803 397.206390,818.634521 
	C381.565125,802.644775 370.389496,783.906799 362.807373,762.941406 
	C362.079590,760.928955 361.242432,758.956055 360.227051,756.384949 
	C354.509552,758.983215 349.087494,761.396912 343.707977,763.902039 
	C331.314484,769.673157 319.253113,776.078979 307.455566,782.985840 
	C302.751984,785.739441 299.654907,785.318054 297.630829,781.714661 
	C295.643341,778.176392 296.905487,774.865845 301.282562,772.293762 
	C317.967255,762.489380 335.324493,754.031189 352.972443,746.109375 
	C360.044373,742.934998 366.355347,741.569519 371.539581,749.719177 
	C379.807037,743.327942 387.049164,736.477051 392.780090,728.271240 
	C401.255127,716.136292 405.683838,702.513794 406.800629,687.706787 
	C408.481415,665.421509 407.888489,643.083679 408.496887,620.776917 
	C409.074219,599.610596 415.489807,580.339111 423.713531,561.239624 
	C441.102661,520.853638 457.771515,480.163696 474.085297,439.329803 
	C479.924591,424.713867 494.514679,418.673401 506.775024,425.798065 
	C508.915771,427.042053 510.837494,428.662903 512.890381,430.131165 
	C515.562256,429.543579 516.911316,427.176971 519.027405,425.923370 
	C531.181274,418.723175 546.143372,424.566254 552.021790,438.933746 
	C562.743225,465.138275 573.355347,491.387817 584.168701,517.554260 
	C592.310303,537.255676 600.587952,556.902649 609.005127,576.487854 
	C615.783813,592.260315 617.507080,608.924011 618.031067,625.774658 
	C618.652466,645.757629 618.380798,665.779419 619.431091,685.735229 
	C620.836609,712.440674 632.875244,733.664124 654.569214,749.370117 
	C662.155518,742.047729 663.870728,741.807983 673.518738,746.090149 
	C690.733643,753.730713 707.827576,761.606384 723.976440,771.370117 
	C725.256958,772.144348 726.607971,772.872925 727.703796,773.867676 
	C730.405090,776.319702 731.050537,779.269470 728.847229,782.336060 
	C726.801208,785.183594 723.932556,785.735779 720.892761,784.070923 
	C715.195435,780.950745 709.584473,777.672791 703.938477,774.459045 
	C693.058350,768.265930 681.471802,763.535706 670.214478,758.122986 
	C666.413696,756.295532 665.276123,758.229309 664.201233,761.371521 
	C653.688965,792.103088 635.430115,817.117676 608.887634,835.978394 
	C597.681641,843.941223 585.419006,849.898254 572.756470,855.119080 
	C562.250000,859.450989 559.793640,864.920410 563.460754,875.635742 
	C566.289917,883.902588 570.695007,891.335754 575.532043,898.562866 
	C578.303162,902.703247 577.577515,906.466736 573.877441,908.338074 
	C570.738220,909.925659 568.012329,909.228394 566.031677,906.310303 
	C559.552551,896.765076 553.691406,886.917664 550.822876,875.568787 
	C547.372986,861.920349 551.741882,852.086243 564.199341,845.648682 
	C565.642517,844.902893 567.380859,844.547974 568.290710,842.871765 
	C568.291870,840.813110 566.626831,839.748657 565.455566,838.419678 
	C556.311462,828.044250 547.021545,817.794800 538.005493,807.309631 
	C526.901550,794.396240 519.115601,779.557678 513.035645,763.152222 
	C503.237244,795.787231 478.421661,817.755920 457.046204,842.839417 
	C462.386627,846.220337 468.135895,848.092590 471.917236,853.224609 
M556.886780,483.519318 
	C551.227112,469.639160 545.710815,455.697876 539.832092,441.911133 
	C537.689331,436.885925 533.151123,434.637848 528.628052,435.303986 
	C523.985657,435.987701 519.965759,439.939453 519.488647,445.241089 
	C519.027283,450.367310 519.309204,455.561218 519.282776,460.725464 
	C519.273743,462.484711 520.063232,463.544891 521.932007,463.659637 
	C533.816895,464.389557 539.201965,472.293884 542.665771,482.384094 
	C546.396667,493.252380 550.200378,504.095673 553.983215,514.946045 
	C563.851562,543.251526 573.740601,571.549866 583.584229,599.864014 
	C585.366760,604.991394 584.284973,608.238647 580.406250,609.329285 
	C575.764404,610.634460 573.707825,607.803040 572.373535,603.950989 
	C570.847290,599.545105 569.211426,595.177246 567.679504,590.773254 
	C555.313477,555.223267 542.963806,519.667603 530.598450,484.117432 
	C529.524597,481.030090 527.738098,478.424957 524.791260,476.882721 
	C521.357300,475.085571 519.268799,476.216217 519.258850,480.091583 
	C519.192139,506.090942 519.245239,532.090576 519.211853,558.090149 
	C519.208557,560.658752 520.119202,562.219727 522.783752,562.562500 
	C532.291016,563.785706 537.353699,570.074463 540.169922,578.453796 
	C542.393372,585.069458 544.069336,591.872620 545.896790,598.617310 
	C550.423340,615.323914 554.910767,632.041138 559.382324,648.762573 
	C560.421448,652.648499 559.601746,656.004456 555.344666,657.050232 
	C551.036682,658.108521 548.893311,655.281067 547.865479,651.519592 
	C545.408386,642.527710 543.043945,633.510559 540.600708,624.514893 
	C536.935425,611.019531 533.350647,597.500549 529.485962,584.062256 
	C528.143738,579.395142 525.986816,575.029663 520.096924,574.873779 
	C518.815918,576.627014 519.190369,578.348999 519.190735,579.968445 
	C519.199951,628.467957 519.128723,676.967896 519.320251,725.466797 
	C519.402954,746.413086 525.218628,765.929932 535.998047,783.838379 
	C547.789185,803.427612 564.767578,818.752258 579.528931,835.899658 
	C581.314636,837.974060 582.900818,837.104675 584.791138,836.113953 
	C613.393188,821.123901 634.529968,799.138184 648.035950,769.690308 
	C650.491394,764.336487 649.899597,761.377930 645.246033,757.754272 
	C620.118408,738.187744 607.579285,712.187378 606.858276,680.425354 
	C606.434814,661.770508 606.289001,643.106567 605.621826,624.460938 
	C605.079407,609.300964 603.637817,594.338196 597.474182,580.039124 
	C583.760071,548.223816 570.580872,516.177856 556.886780,483.519318 
M481.050629,454.424500 
	C466.607819,489.355896 452.102325,524.261597 437.758881,559.233704 
	C433.211609,570.320801 427.710144,581.052979 424.375824,592.598145 
	C420.547119,605.855042 420.582275,619.602051 420.328583,633.235413 
	C419.966156,652.712585 420.014008,672.201294 418.319031,691.625427 
	C416.743286,709.683105 410.395355,725.846191 398.993744,740.062073 
	C392.890503,747.671814 385.449677,753.820068 378.178589,760.159363 
	C376.071655,761.996277 375.513031,763.414490 376.647949,766.058228 
	C389.825348,796.754700 410.945862,820.087219 440.565765,835.698059 
	C443.522278,837.256226 445.487061,837.356812 447.867279,834.661255 
	C459.663391,821.302002 472.241425,808.598938 483.005981,794.373657 
	C497.873932,774.725891 506.509430,752.518616 506.696533,727.750610 
	C507.070374,678.262451 506.862457,628.769836 506.865173,579.279053 
	C506.865265,577.846313 507.262970,576.248413 505.713806,574.834045 
	C502.470428,574.681274 500.407104,576.721436 498.774078,579.338440 
	C496.988098,582.200684 496.209595,585.473999 495.341553,588.682373 
	C489.734650,609.405212 484.202271,630.148376 478.563293,650.862427 
	C477.145691,656.069824 474.192657,658.333313 470.632294,657.002319 
	C466.160522,655.330688 466.191437,651.637390 467.155914,647.829224 
	C468.626160,642.024048 470.216675,636.249023 471.780518,630.467834 
	C476.343567,613.599487 480.760071,596.689270 485.551880,579.886108 
	C488.192963,570.624939 493.606262,563.806824 504.001068,562.633484 
	C506.483490,562.353271 506.844330,560.790283 506.843536,558.778931 
	C506.833130,532.617065 506.839417,506.455231 506.818848,480.293396 
	C506.817719,478.828705 507.048126,477.088226 505.280548,476.414490 
	C503.618591,475.780975 501.984955,476.255768 500.572479,477.312012 
	C497.637543,479.506775 496.149139,482.619446 494.989197,485.988007 
	C490.381897,499.367859 485.726532,512.731201 481.077637,526.096741 
	C472.053741,552.040100 463.018768,577.979736 453.997375,603.924011 
	C452.657288,607.777832 450.509949,610.539185 445.920563,609.352234 
	C442.168610,608.381897 441.044586,604.850830 442.670441,599.878479 
	C442.929169,599.087219 443.235107,598.311523 443.507935,597.524719 
	C453.217651,569.522522 462.917725,541.516968 472.638824,513.518738 
	C476.407471,502.664429 480.123291,491.790222 484.047577,480.992065 
	C487.439728,471.658203 493.022644,464.610840 503.839142,463.713501 
	C505.927704,463.540222 506.812653,462.468140 506.797607,460.495911 
	C506.759521,455.499146 506.995270,450.477325 506.570282,445.512695 
	C506.111572,440.153870 502.254242,436.133087 497.656281,435.358276 
	C492.987549,434.571594 488.454987,437.099457 486.074402,442.162750 
	C484.305573,445.924866 482.879517,449.848114 481.050629,454.424500 
z"/>
<path fill="currentColor" opacity="1.000000" stroke="none" 
	d="
M528.869995,377.000000 
	C528.873962,360.835114 528.846497,345.170166 528.894409,329.505402 
	C528.922180,320.428619 530.693359,318.705200 539.672363,318.701813 
	C553.837402,318.696472 568.004883,318.550873 582.166138,318.782684 
	C586.637390,318.855804 588.011719,317.231476 587.851501,312.959320 
	C587.595703,306.136261 587.601929,299.290405 587.847168,292.466766 
	C587.980896,288.744843 586.587036,287.387115 582.981079,287.443726 
	C571.821533,287.618958 560.659668,287.649811 549.498718,287.733887 
	C545.834290,287.761505 542.161255,287.951996 538.507263,287.767761 
	C530.717041,287.375092 528.902893,285.421021 528.887634,277.655090 
	C528.856873,261.990265 528.878662,246.325363 528.871582,230.660492 
	C528.868591,224.040634 528.843323,224.027008 522.178406,224.007294 
	C515.679260,223.988052 509.174255,224.120316 502.683136,223.879791 
	C498.568054,223.727310 497.147827,225.249542 497.194672,229.395859 
	C497.377228,245.558655 497.286133,261.724670 497.269043,277.889496 
	C497.260956,285.558167 495.288971,287.773529 487.502228,287.799316 
	C473.348877,287.846130 459.193939,287.624512 445.040741,287.435211 
	C438.482056,287.347504 438.291351,287.438568 438.284668,293.934174 
	C438.278473,299.933472 438.284058,305.932831 438.300659,311.932098 
	C438.319366,318.695770 438.327271,318.710510 445.335571,318.713409 
	C459.667267,318.719299 473.999023,318.684296 488.330627,318.713348 
	C495.225067,318.727295 497.252258,320.747498 497.259583,327.655823 
	C497.284546,351.153107 497.266052,374.650482 497.257416,398.147797 
	C497.256989,399.313324 497.320984,400.499695 497.135162,401.640564 
	C496.543640,405.272675 494.379425,407.411926 490.661560,407.206543 
	C486.994598,407.003998 485.602325,404.554138 485.610046,401.048798 
	C485.639465,387.717041 485.638489,374.385193 485.611328,361.053406 
	C485.593689,352.389465 485.435425,343.725098 485.493927,335.061981 
	C485.518097,331.478424 484.232880,330.226898 480.480042,330.288818 
	C466.818726,330.514221 453.151184,330.409119 439.486267,330.358215 
	C431.166290,330.327240 426.571808,325.649475 426.559540,317.302368 
	C426.546082,308.136932 426.562195,298.971375 426.599213,289.806000 
	C426.638428,280.096558 430.961212,275.699829 440.560120,275.674042 
	C453.558502,275.639130 466.559265,275.531616 479.554199,275.747009 
	C483.899261,275.819061 485.604492,274.153717 485.567291,269.968323 
	C485.450317,256.811829 485.422119,243.654495 485.381500,230.497406 
	C485.375336,228.504181 485.413422,226.505402 485.555176,224.518051 
	C486.173615,215.848373 490.617462,211.736496 499.446869,211.701920 
	C508.445709,211.666687 517.444946,211.669281 526.443726,211.708710 
	C536.010620,211.750626 540.958984,216.460724 541.077881,226.089020 
	C541.246704,239.752106 541.129517,253.418640 541.145020,267.083710 
	C541.154724,275.672607 541.163330,275.668030 549.495850,275.666443 
	C561.661133,275.664124 573.826416,275.641144 585.991638,275.680298 
	C594.765503,275.708527 599.675171,280.242950 599.920105,289.112885 
	C600.182190,298.604126 600.146118,308.113220 599.902527,317.605835 
	C599.686584,326.020386 595.000916,330.322510 586.525635,330.354706 
	C573.193970,330.405365 559.860107,330.510132 546.531372,330.310577 
	C542.388855,330.248535 541.042175,331.634216 541.074402,335.758514 
	C541.230774,355.754944 541.139221,375.753265 541.136047,395.750946 
	C541.135925,396.584167 541.156006,397.417633 541.142151,398.250580 
	C541.040833,404.323853 538.939636,407.345856 534.881165,407.266937 
	C530.990662,407.191284 528.984375,404.325409 528.923340,398.492798 
	C528.850037,391.495789 528.883057,384.497650 528.869995,377.000000 
z"/>
<path fill="currentColor" opacity="1.000000" stroke="none" 
	d="
M610.738831,872.704285 
	C633.500549,864.007019 653.577881,851.985779 669.165161,833.361023 
	C671.721863,830.306091 673.938232,826.967041 676.327148,823.770752 
	C679.293274,819.802185 682.721741,818.689758 685.556335,821.010315 
	C689.142029,823.945923 688.402771,827.219849 686.144104,830.715271 
	C674.971069,848.005371 659.836914,861.008057 642.290283,871.396606 
	C630.936646,878.118591 618.907166,883.354126 606.284668,887.190674 
	C601.098572,888.766968 597.995300,887.597717 596.763550,883.868896 
	C595.482117,879.989746 597.638428,876.851562 602.753418,875.200928 
	C605.283752,874.384399 607.829163,873.614685 610.738831,872.704285 
z"/>
<path fill="currentColor" opacity="1.000000" stroke="none" 
	d="
M389.003937,874.067810 
	C370.155365,863.788391 354.267853,850.669983 342.193390,833.199768 
	C341.249237,831.833618 340.201569,830.500366 339.504608,829.010254 
	C338.118439,826.046448 338.053680,823.080933 341.007996,820.992981 
	C344.185272,818.747681 347.097321,819.737488 349.306396,822.580200 
	C352.261658,826.383179 354.740295,830.577637 357.870361,834.220154 
	C375.079346,854.246704 397.187866,866.625671 421.933746,874.797974 
	C422.880463,875.110596 423.851532,875.348572 424.805420,875.640564 
	C428.678192,876.825684 430.976044,879.337341 429.843872,883.436035 
	C428.715698,887.520264 425.548126,888.632874 421.561249,887.470642 
	C410.348938,884.202209 399.616638,879.764160 389.003937,874.067810 
z"/>
<path fill="currentColor" opacity="1.000000" stroke="none" 
	d="
M519.250000,94.413574 
	C519.251892,116.987633 519.254089,139.106232 519.232727,161.224808 
	C519.230957,163.048996 519.302246,164.922256 518.929810,166.686203 
	C518.282837,169.750366 516.295532,171.862946 513.078918,171.868942 
	C509.619873,171.875381 507.646118,169.649368 507.028259,166.334305 
	C506.787292,165.041306 506.840790,163.684708 506.839935,162.357025 
	C506.826141,140.903625 506.824921,119.450218 506.822052,97.996811 
	C506.821930,96.999008 506.821808,96.000999 506.840179,95.003433 
	C506.913513,91.021362 507.943237,87.387917 512.549500,87.009132 
	C517.155701,86.630348 518.901428,89.810318 519.250000,94.413574 
z"/>
<path fill="currentColor" opacity="1.000000" stroke="none" 
	d="
M330.000061,322.663788 
	C340.153229,322.653992 349.806549,322.678497 359.459381,322.618439 
	C363.602173,322.592682 366.935577,323.799438 367.165833,328.471527 
	C367.402405,333.271210 363.964569,334.797729 359.932617,334.817871 
	C340.128540,334.916840 320.323578,334.919952 300.519379,334.844757 
	C296.444763,334.829285 293.740936,332.594116 293.836334,328.384674 
	C293.936371,323.969666 297.023773,322.623779 301.039917,322.644623 
	C310.526398,322.693817 320.013306,322.662598 330.000061,322.663788 
z"/>
<path fill="currentColor" opacity="1.000000" stroke="none" 
	d="
M663.954102,334.453888 
	C659.868713,332.943420 658.989075,330.046844 659.900208,326.652191 
	C660.776428,323.387817 663.528259,322.668243 666.595947,322.664978 
	C686.399048,322.643890 706.202087,322.591980 726.005188,322.551575 
	C729.882568,322.543640 732.654419,324.279480 732.820251,328.260498 
	C732.994690,332.449890 730.234497,334.686768 726.236389,334.892639 
	C721.423279,335.140533 716.587708,335.053284 711.764038,334.977783 
	C695.966309,334.730499 680.159851,335.496643 663.954102,334.453888 
z"/>
<path fill="currentColor" opacity="1.000000" stroke="none" 
	d="
M694.523682,224.499527 
	C695.935852,223.885086 696.960266,223.275482 698.068542,222.961441 
	C701.455200,222.001831 704.486267,222.523483 706.102051,225.985397 
	C707.830933,229.689636 706.232300,232.622482 702.936890,234.329147 
	C698.219849,236.772079 693.298401,238.825516 688.436829,240.983459 
	C676.129456,246.446426 663.816711,251.897461 651.485413,257.306030 
	C646.608093,259.445251 643.211365,258.624786 641.636902,255.086166 
	C640.068359,251.560959 641.690613,248.275223 646.420105,246.128098 
	C662.314270,238.912506 678.252808,231.794724 694.523682,224.499527 
z"/>
<path fill="currentColor" opacity="1.000000" stroke="none" 
	d="
M336.403290,226.497437 
	C351.310059,233.248672 365.866669,239.850906 380.443604,246.407898 
	C384.114655,248.059189 386.101227,250.623108 384.813507,254.695953 
	C383.653717,258.364136 380.162476,259.437683 375.665649,257.807098 
	C375.040009,257.580231 374.423004,257.324829 373.816315,257.050995 
	C360.308990,250.954788 346.804413,244.852585 333.297577,238.755417 
	C330.262695,237.385406 327.183990,236.106262 324.192535,234.647736 
	C320.803192,232.995178 318.874298,230.337036 320.472687,226.566025 
	C322.124481,222.669083 325.390381,221.855591 329.201813,223.321793 
	C331.529572,224.217239 333.777100,225.321289 336.403290,226.497437 
z"/>
<path fill="currentColor" opacity="1.000000" stroke="none" 
	d="
M623.510376,168.475739 
	C617.375671,176.813538 611.502197,184.897766 605.510071,192.893097 
	C602.707336,196.632812 598.832581,197.571686 596.091675,195.192947 
	C592.630737,192.189270 593.198364,188.872726 595.691650,185.466385 
	C606.216370,171.087326 616.697205,156.676163 627.199158,142.280380 
	C627.689270,141.608521 628.176697,140.922668 628.752136,140.327133 
	C631.271240,137.720169 634.188293,136.928085 637.222900,139.212509 
	C640.424194,141.622314 640.715454,144.742401 638.397095,147.972626 
	C633.542419,154.736679 628.618469,161.451019 623.510376,168.475739 
z"/>
<path fill="currentColor" opacity="1.000000" stroke="none" 
	d="
M691.270691,431.855347 
	C677.192810,423.601471 663.450073,415.512360 649.667542,407.491730 
	C646.582397,405.696381 644.137695,403.570801 644.949646,399.621552 
	C645.866943,395.159729 650.592651,393.662872 655.326843,396.398834 
	C668.414246,403.962250 681.446411,411.621307 694.502808,419.238373 
	C696.798157,420.577454 699.136780,421.845276 701.399414,423.236938 
	C704.778564,425.315308 706.432495,428.147522 704.482117,432.029846 
	C702.730896,435.515839 699.174622,436.208496 695.033813,434.054718 
	C693.856445,433.442352 692.737305,432.717926 691.270691,431.855347 
z"/>
<path fill="currentColor" opacity="1.000000" stroke="none" 
	d="
M395.571838,138.172058 
	C397.998718,138.832901 399.315430,140.295853 400.505859,141.948105 
	C410.722260,156.128052 420.958313,170.293854 431.164642,184.481064 
	C432.421112,186.227585 433.907562,187.948776 433.979950,190.225525 
	C434.069336,193.036850 432.581329,195.088867 430.013550,195.971451 
	C426.783081,197.081818 424.177734,195.832733 422.212738,193.098587 
	C416.773102,185.529587 411.304413,177.981476 405.864716,170.412521 
	C400.619843,163.114548 395.262115,155.892471 390.209351,148.463348 
	C386.551788,143.085617 388.598083,139.110626 395.571838,138.172058 
z"/>
<path fill="currentColor" opacity="1.000000" stroke="none" 
	d="
M379.567047,396.535950 
	C382.391754,401.943634 381.867371,404.392883 377.172913,407.152405 
	C361.985596,416.079895 346.758850,424.941071 331.500336,433.746368 
	C327.178253,436.240540 323.630341,435.700287 321.995605,432.346619 
	C320.026733,428.307343 321.611786,425.344116 325.302795,423.199371 
	C340.678070,414.264923 356.043121,405.312927 371.403381,396.352692 
	C374.027313,394.822052 376.622192,394.161560 379.567047,396.535950 
z"/>
</svg>
