<svg version="1.1" id="Layer_1" xmlns="http://www.w3.org/2000/svg" xmlns:xlink="http://www.w3.org/1999/xlink" x="0px" y="0px"
	 width="100%" viewBox="0 0 1254 1254" enable-background="new 0 0 1254 1254" xml:space="preserve">
<path fill="none" opacity="1.000000" stroke="currentColor" stroke-linecap="round" stroke-linejoin="round" stroke-width="14.000000"
	d="
M377.000000,984.500000 
	C378.596985,987.470825 378.966003,990.638733 379.052734,993.998657 
	C379.727875,1020.164185 395.077911,1043.393677 420.015533,1053.963379 
	C427.955963,1057.328857 436.335175,1058.577881 445.000183,1058.546143 
	C476.833099,1058.429688 508.666718,1058.531006 540.500000,1058.483765 
	C552.212280,1058.466431 561.191589,1054.130493 567.666809,1043.602539 
	C575.869812,1030.265259 584.135437,1016.886047 593.157288,1004.111084 
	C611.333557,978.373169 643.618896,982.429810 658.051514,1005.968445 
	C666.435303,1019.641907 675.159973,1033.115723 684.064148,1046.457153 
	C689.529724,1054.646606 697.891602,1058.373779 707.500427,1058.427246 
	C741.166077,1058.614746 774.848450,1059.119263 808.494995,1058.295532 
	C833.426208,1057.685181 851.569214,1044.618530 863.436157,1022.965027 
	C868.417664,1013.875244 870.133911,1003.818481 871.119324,993.511414 
	C872.175903,982.460815 870.516541,971.511108 870.913208,960.496887 
	C871.308838,949.511108 871.000000,938.500000 871.000000,927.500000 
	C871.000000,916.666687 871.000000,905.833313 871.000000,895.000000 
	C871.000000,894.166687 871.110046,893.315735 870.980286,892.503174 
	C870.497620,889.479858 873.578735,887.018066 872.470215,884.010986 
	C867.684326,871.028992 865.469116,856.983887 855.100525,846.401489 
	C848.147583,839.305054 840.478943,833.380554 831.438293,829.649536 
	C824.233826,826.676208 816.400024,825.498779 808.500000,825.498901 
	C686.166687,825.500427 563.833191,825.419189 441.500061,825.558289 
	C411.894348,825.591919 386.929840,845.710266 380.507690,874.001770 
	C379.734619,877.407227 379.260010,880.879150 377.554108,884.029297 
	C377.212616,884.659851 376.873962,885.514038 377.453094,886.526794 
	C379.780945,890.597534 378.969025,895.128052 378.977386,899.500061 
	C379.024353,923.999939 378.962036,948.500122 379.039429,972.999878 
	C379.051575,976.842102 378.651093,980.512329 377.000000,984.000000 
"/>
<path fill="none" opacity="1.000000" stroke="currentColor" stroke-linecap="round" stroke-linejoin="round" stroke-width="12.000000"
	d="
M826.000000,521.500000 
	C830.848083,518.364319 836.287537,519.665405 841.500977,519.542603 
	C849.012146,519.365723 850.491272,518.015076 850.499329,510.500000 
	C850.503052,507.000000 850.120117,503.447998 850.590454,500.012390 
	C851.269104,495.054443 848.722290,492.021576 844.967102,490.063141 
	C823.326050,478.776733 802.342407,466.316498 781.022522,454.459534 
	C748.936096,436.614868 717.010681,418.480988 684.995911,400.507294 
	C666.518494,390.133698 647.891174,380.019867 629.592163,369.342041 
	C625.947571,367.215363 623.118469,367.331970 620.021912,369.039703 
	C602.643127,378.624023 585.348694,388.361023 567.995667,397.992249 
	C550.515259,407.694153 532.992004,417.318878 515.502014,427.003693 
	C494.160126,438.821533 472.825226,450.652100 451.502686,462.504852 
	C435.655792,471.313782 419.865723,480.225586 403.980042,488.963684 
	C399.299042,491.538513 396.653809,494.725372 397.388275,500.514191 
	C397.950165,504.942871 397.529602,509.500244 397.490356,513.999939 
	C397.460541,517.420105 398.927582,519.293579 402.498474,519.523804 
	C409.501373,519.975342 416.665833,518.178223 423.500000,521.000000 
	C467.132751,517.538330 510.834503,520.091064 554.501160,519.606384 
	C598.162476,519.121643 641.833313,519.500000 685.500000,519.500000 
	C729.166687,519.500000 772.833313,519.517944 816.499939,519.462219 
	C819.632385,519.458191 822.622192,519.766663 825.500000,521.000000 
"/>
<path fill="none" opacity="1.000000" stroke="currentColor" stroke-linecap="round" stroke-linejoin="round" stroke-width="12.000000"
	d="
M289.500000,744.500000 
	C289.500000,724.333313 289.562012,704.166443 289.479156,684.000061 
	C289.419586,669.499634 289.139069,655.000244 289.022308,640.499817 
	C288.997650,637.439087 288.533997,634.323364 290.406616,631.439392 
	C290.908875,630.665833 290.663300,629.220032 290.068634,627.967407 
	C288.105499,623.831909 289.031586,619.333496 289.085327,615.001038 
	C289.125153,611.792908 291.607635,611.060608 294.498749,610.962830 
	C302.174896,610.703186 302.500000,610.282715 302.500000,602.500000 
	C302.500000,581.333313 302.371613,560.165405 302.586945,539.000854 
	C302.643402,533.450684 300.740814,530.885437 294.499695,530.980896 
	C288.667725,531.070068 282.832916,530.956116 277.000122,531.013489 
	C272.108063,531.061584 269.151398,532.552063 269.448792,538.502563 
	C269.698059,543.490112 269.578094,548.501587 269.476349,553.499512 
	C269.387939,557.840332 267.840271,559.402100 263.499573,559.474792 
	C257.501251,559.575317 251.498734,559.575317 245.500427,559.474792 
	C241.159729,559.402100 239.606964,557.840332 239.524261,553.499512 
	C239.422653,548.168152 239.577362,542.831848 239.475769,537.500488 
	C239.393036,533.159668 237.840134,531.586792 233.499634,531.526245 
	C226.500992,531.428589 219.499008,531.428528 212.500366,531.526184 
	C208.159866,531.586731 206.606964,533.159668 206.524231,537.500488 
	C206.422638,542.831848 206.577347,548.168152 206.475739,553.499512 
	C206.393036,557.840332 204.840256,559.404175 200.499588,559.474609 
	C194.334534,559.574707 188.166199,559.546570 182.000153,559.484863 
	C177.247269,559.437317 176.129593,558.357117 176.025909,553.499451 
	C175.912125,548.168579 176.088974,542.831421 175.973907,537.500549 
	C175.867828,532.585327 174.807617,531.496887 170.000214,531.530273 
	C162.999390,531.578918 156.000656,531.875366 148.999756,531.983887 
	C144.957230,532.046509 143.400452,533.941833 143.448914,538.000610 
	C143.721481,560.832642 143.862534,583.666565 143.971527,606.500122 
	C143.989899,610.349182 145.648651,612.144470 149.500488,612.014465 
	C151.831161,611.935852 154.166901,611.978882 156.499954,612.004089 
	C162.582108,612.069763 163.977600,613.417847 163.989288,619.500000 
	C164.020676,635.833252 163.636078,652.176697 164.085037,668.497681 
	C164.763672,693.167664 164.274521,717.833740 164.519592,742.499817 
	C164.536163,744.167969 164.833344,745.833313 165.000000,747.500000 
"/>
<path fill="none" opacity="1.000000" stroke="currentColor" stroke-linecap="round" stroke-linejoin="round" stroke-width="14.000000"
	d="
M579.500000,172.000000 
	C574.438782,174.025406 569.744934,176.842758 564.516174,178.549469 
	C555.053833,181.637970 545.138123,182.346146 535.480957,184.410995 
	C505.880981,190.739929 477.239471,199.736572 449.440887,211.864502 
	C413.817963,227.406067 381.196472,247.646072 351.570831,272.584167 
	C312.312622,305.630737 280.005066,344.562531 254.961960,389.478790 
	C236.459183,422.664642 222.205551,457.467804 213.413757,494.479523 
	C212.884949,496.705658 213.328369,499.877228 210.000000,500.750000 
"/>
<path fill="none" opacity="1.000000" stroke="currentColor" stroke-linecap="round" stroke-linejoin="round" stroke-width="12.000000"
	d="
M386.000000,807.000000 
	C386.633850,804.025940 384.775757,801.125061 386.356384,797.928955 
	C387.768921,795.072815 389.315857,793.571899 392.498688,793.462158 
	C397.025513,793.306152 401.508301,793.850525 406.086945,792.248535 
	C408.403015,791.438110 411.486969,793.566345 414.500031,793.564758 
	C554.833313,793.490356 695.166870,793.574036 835.499512,793.270691 
	C842.170044,793.256226 848.831482,793.652344 855.500488,793.527771 
	C861.917969,793.407898 863.491699,795.080139 863.499695,801.500000 
	C863.501587,803.000000 863.500000,804.500000 863.500000,806.000000 
"/>
<path fill="none" opacity="1.000000" stroke="currentColor" stroke-linecap="round" stroke-linejoin="round" stroke-width="14.000000"
	d="
M679.500000,172.000000 
	C687.402466,175.847992 695.329285,179.942551 704.020691,181.374496 
	C717.190857,183.544281 730.136047,186.513275 743.007385,189.972626 
	C765.923401,196.131622 788.084717,204.268372 809.509766,214.479462 
	C841.122314,229.545822 870.387451,248.337814 896.917664,271.096008 
	C931.340820,300.625000 960.230774,335.016541 983.465637,374.020477 
	C997.726440,397.959961 1009.471130,423.122650 1018.368103,449.544403 
	C1019.380005,452.549347 1021.336792,453.765076 1023.500000,455.250000 
"/>
<path fill="none" opacity="1.000000" stroke="currentColor" stroke-linecap="round" stroke-linejoin="round" stroke-width="13.000000"
	d="
M818.000000,871.000000 
	C691.000000,871.000000 564.000000,870.999023 437.000000,871.010376 
	C435.333344,871.010498 433.666656,871.166687 432.000000,871.250061 
"/>
<path fill="none" opacity="1.000000" stroke="currentColor" stroke-linecap="round" stroke-linejoin="round" stroke-width="11.000000"
	d="
M1062.500000,541.500000 
	C1076.666626,541.500000 1090.835571,541.360352 1104.998535,541.588318 
	C1109.046875,541.653442 1111.507202,540.229309 1112.471802,536.492737 
	C1116.276489,521.752563 1117.032593,507.502441 1106.026489,494.976685 
	C1097.930542,485.762817 1087.302734,485.268250 1076.528809,486.714661 
	C1071.617920,487.373932 1067.107666,488.926971 1062.464233,486.057800 
	C1061.545532,485.490082 1060.168335,485.534790 1058.999756,485.519958 
	C1043.500122,485.323395 1027.999146,485.221405 1012.500244,484.985626 
	C994.665955,484.714264 976.820129,484.648224 959.004150,483.900757 
	C944.661011,483.298950 930.331604,483.560303 916.000183,483.586884 
	C908.063477,483.601593 902.648743,488.598969 897.993225,494.494629 
	C891.960449,502.134369 889.709961,511.282715 888.074829,520.513245 
	C884.785400,539.082336 882.368896,557.786255 879.890015,576.485413 
	C876.649475,600.929321 873.538208,625.437012 867.906250,649.478027 
	C864.525024,663.911499 860.121338,678.070740 851.563416,690.543518 
	C850.100647,692.675354 848.782898,695.149841 849.000000,698.000000 
"/>
<path fill="none" opacity="1.000000" stroke="currentColor" stroke-linecap="round" stroke-linejoin="round" stroke-width="11.000000"
	d="
M798.500000,498.000000 
	C798.694641,495.138702 795.996643,494.936554 794.456543,494.077911 
	C763.181152,476.640747 731.819458,459.358368 700.504761,441.991455 
	C678.646729,429.869171 656.833984,417.665497 634.998840,405.502136 
	C633.174500,404.485931 631.282959,403.581207 629.510803,402.482605 
	C626.140198,400.393188 622.883911,400.743256 619.490906,402.482300 
	C607.212708,408.775299 595.173767,415.542511 583.114807,422.207672 
	C566.923218,431.156952 550.621765,439.920593 534.511536,449.020447 
	C516.060547,459.442505 497.274658,469.249908 478.904266,479.833862 
	C468.587524,485.777771 457.940643,491.223328 447.500000,497.000000 
"/>
<path fill="none" opacity="1.000000" stroke="currentColor" stroke-linecap="round" stroke-linejoin="round" stroke-width="11.000000"
	d="
M426.500000,629.750000 
	C422.666656,629.833313 418.833557,629.928589 414.999939,629.996399 
	C411.624329,630.056091 409.971161,628.376038 409.995758,624.999939 
	C410.016388,622.166809 410.077850,619.330688 409.982697,616.500610 
	C409.819366,611.643433 408.752747,610.566650 403.999847,610.514648 
	C398.333862,610.452637 392.666138,610.452637 387.000153,610.514648 
	C382.247253,610.566650 381.180664,611.643433 381.017334,616.500610 
	C380.922180,619.330688 380.983612,622.166809 381.004242,624.999939 
	C381.028839,628.376038 379.376007,630.018555 375.999969,630.005432 
	C370.666718,629.984741 365.333313,629.986938 360.000000,630.004272 
	C355.965240,630.017395 354.021271,627.971924 354.002380,624.000000 
	C353.989716,621.333374 354.010620,618.666626 353.997406,616.000000 
	C353.979401,612.361633 352.509583,610.345886 348.498810,610.456909 
	C342.503387,610.622864 336.498047,610.593018 330.500702,610.466919 
	C326.572723,610.384338 324.991394,612.321472 324.998962,616.000000 
	C325.004456,618.666687 324.888550,621.339050 325.024963,623.998718 
	C325.254303,628.470215 323.469940,630.113647 318.999329,630.043274 
	C309.834930,629.899048 300.666656,630.000000 291.500000,630.000000 
"/>
<path fill="none" opacity="1.000000" stroke="currentColor" stroke-linecap="round" stroke-linejoin="round" stroke-width="13.000000"
	d="
M873.500000,885.500000 
	C883.500000,886.000000 893.569946,885.937683 903.478760,887.170715 
	C912.028259,888.234558 919.556946,895.151184 919.846619,905.504272 
	C920.382446,924.656006 920.142761,943.834839 919.939819,962.999390 
	C919.838135,972.602234 912.176941,980.511353 902.503601,982.022949 
	C892.721741,983.551575 882.842773,983.778015 873.000000,984.500000 
"/>
<path fill="none" opacity="1.000000" stroke="currentColor" stroke-linecap="round" stroke-linejoin="round" stroke-width="13.000000"
	d="
M376.500000,885.500000 
	C366.663818,885.943787 356.804413,885.691345 346.994080,886.954102 
	C337.928436,888.121094 330.017578,896.733521 330.006592,906.000000 
	C329.984467,924.666687 329.995209,943.333313 330.001923,962.000000 
	C330.005707,972.509827 336.981506,980.480530 347.500275,981.997986 
	C357.116547,983.385254 366.776520,984.157104 376.500000,984.000000 
"/>
<path fill="none" opacity="1.000000" stroke="currentColor" stroke-linecap="round" stroke-linejoin="round" stroke-width="14.000000"
	d="
M304.000000,931.500000 
	C301.144592,918.580139 292.190338,909.477356 283.947968,900.045471 
	C270.261414,884.383667 258.669800,867.242004 248.088165,849.447571 
	C235.929321,829.000916 225.835861,807.493591 218.103470,784.964478 
	C216.792786,781.145752 213.595963,780.227661 211.000000,778.250000 
"/>
<path fill="none" opacity="1.000000" stroke="currentColor" stroke-linecap="round" stroke-linejoin="round" stroke-width="12.000000"
	d="
M803.500000,580.500000 
	C804.338623,582.415771 804.540649,584.429565 804.506470,586.500122 
	C803.786133,630.174561 806.149536,673.826111 805.484558,717.499756 
	C805.398315,723.167175 805.977234,728.857178 805.000000,734.500000 
"/>
<path fill="none" opacity="1.000000" stroke="currentColor" stroke-linecap="round" stroke-linejoin="round" stroke-width="12.000000"
	d="
M595.000061,581.000000 
	C595.166687,582.333313 595.455078,583.664185 595.482361,585.000366 
	C596.233276,621.829712 596.596252,658.660950 596.653381,695.499756 
	C596.669861,706.146606 597.682434,716.817017 597.503540,727.500061 
	C597.463684,729.878296 597.682190,732.287903 596.500000,734.500000 
"/>
<path fill="none" opacity="1.000000" stroke="currentColor" stroke-linecap="round" stroke-linejoin="round" stroke-width="12.000000"
	d="
M699.000061,581.000000 
	C699.166687,582.333313 699.462402,583.664917 699.480408,585.000244 
	C699.691833,600.666382 699.565247,616.331116 699.886536,632.002319 
	C700.457092,659.827332 700.257446,687.667480 700.557556,715.499390 
	C700.625916,721.836914 701.562195,728.166687 700.500000,734.500000 
"/>
<path fill="none" opacity="1.000000" stroke="currentColor" stroke-linecap="round" stroke-linejoin="round" stroke-width="12.000000"
	d="
M759.000061,581.000000 
	C758.833374,584.000000 758.525452,586.999817 758.521851,590.000000 
	C758.485840,620.000000 759.144043,650.019470 758.238220,679.992065 
	C757.759399,695.835938 757.890991,711.667847 757.510193,727.500244 
	C757.453064,729.877075 757.317810,732.287903 758.500000,734.500000 
"/>
<path fill="none" opacity="1.000000" stroke="currentColor" stroke-linecap="round" stroke-linejoin="round" stroke-width="12.000000"
	d="
M490.000000,581.000000 
	C490.166656,582.833313 490.458344,584.665405 490.477051,586.500244 
	C490.538239,592.499634 490.463989,598.500244 490.506500,604.499939 
	C490.656433,625.666748 490.469208,646.844177 491.100006,667.997009 
	C491.761200,690.169983 491.209991,712.334290 491.500000,734.500000 
"/>
<path fill="none" opacity="1.000000" stroke="currentColor" stroke-linecap="round" stroke-linejoin="round" stroke-width="12.000000"
	d="
M654.999939,581.500000 
	C654.833313,582.666687 654.527161,583.832458 654.520203,585.000122 
	C654.277100,625.500916 652.947937,665.991760 653.445312,706.500671 
	C653.510742,711.829102 652.913513,717.173279 652.474121,722.497864 
	C652.137573,726.575378 653.309204,730.488098 653.500000,734.500000 
"/>
<path fill="none" opacity="1.000000" stroke="currentColor" stroke-linecap="round" stroke-linejoin="round" stroke-width="12.000000"
	d="
M550.500000,581.000000 
	C550.500000,590.333313 550.776611,599.676392 550.450562,608.998291 
	C549.255615,643.159668 549.687561,677.331787 549.388611,711.499023 
	C549.321472,719.172363 547.965088,726.833313 549.500000,734.500000 
"/>
<path fill="none" opacity="1.000000" stroke="currentColor" stroke-linecap="round" stroke-linejoin="round" stroke-width="12.000000"
	d="
M146.500000,750.000000 
	C152.162582,749.453796 157.865234,749.774597 163.521393,748.603271 
	C167.578156,747.763123 171.811096,748.751953 176.003723,748.610352 
	C197.829056,747.873474 219.677475,747.768372 241.495560,746.889709 
	C252.840637,746.432861 264.181366,747.024353 275.496887,746.439941 
	C292.521301,745.560608 309.499756,746.863037 326.499603,747.037720 
	C331.874817,747.092957 337.230682,746.741272 342.521393,746.526123 
	C347.238403,746.334290 352.475830,747.218018 357.498871,747.518860 
	C361.504456,747.758728 365.495667,748.353149 369.501251,748.446289 
	C373.336914,748.535583 374.876160,745.740784 374.932953,742.498840 
	C375.113892,732.168701 375.460938,721.806152 374.854584,711.508545 
	C374.367218,703.231812 365.386261,697.467407 357.997253,697.958801 
	C349.580017,698.518677 343.116943,704.911316 342.981720,712.999695 
	C342.800629,723.832886 343.557343,734.680359 342.500000,745.500000 
"/>
<path fill="none" opacity="1.000000" stroke="currentColor" stroke-linecap="round" stroke-linejoin="round" stroke-width="13.000000"
	d="
M1024.000000,789.000000 
	C1013.256653,796.630432 1010.166687,808.966553 1005.020447,820.009521 
	C993.116821,845.552856 978.389465,869.333557 961.031921,891.524963 
	C955.898071,898.088623 949.772522,903.971680 947.321167,912.448303 
	C946.652832,914.759521 947.900269,918.195312 944.500000,919.500000 
"/>
<path fill="none" opacity="1.000000" stroke="currentColor" stroke-linecap="round" stroke-linejoin="round" stroke-width="12.000000"
	d="
M445.500000,581.000000 
	C445.500000,595.500000 446.286163,610.052673 445.318634,624.487854 
	C443.809296,647.006165 445.629578,669.537231 444.273132,691.986267 
	C443.556305,703.850159 443.908569,715.668701 443.513855,727.500488 
	C443.434601,729.875854 443.317841,732.287903 444.500000,734.500000 
"/>
<path fill="none" opacity="1.000000" stroke="currentColor" stroke-linecap="round" stroke-linejoin="round" stroke-width="11.000000"
	d="
M1068.500000,616.000000 
	C1073.987427,615.083313 1079.086670,611.804138 1085.011719,613.458130 
	C1086.828613,613.965332 1087.352173,612.026550 1087.943604,610.968445 
	C1092.792847,602.293579 1094.848511,592.798340 1095.428833,582.995789 
	C1095.661011,579.076111 1092.819092,576.706909 1088.503784,577.048523 
	C1078.962769,577.803589 1069.706055,580.026245 1061.047974,584.101868 
	C1057.770508,585.644714 1054.265259,586.467346 1051.121948,587.789856 
	C1039.397339,592.722656 1027.851562,598.381897 1019.049866,608.045410 
	C1016.707458,610.617188 1015.074951,613.763672 1011.006958,614.087585 
	C1009.960510,614.170959 1008.856873,615.189697 1008.021912,616.021973 
	C997.932556,626.076782 988.518799,636.425415 981.608765,649.289856 
	C977.679749,656.604431 973.003052,663.562927 970.609741,671.532959 
	C967.937500,680.432251 966.716492,689.607483 967.908569,699.011597 
	C968.277832,701.924438 968.983215,704.385010 970.976685,706.521729 
	C971.625061,707.216614 972.209534,708.107300 972.465332,709.009827 
	C973.925781,714.163391 975.434265,715.392456 981.000122,715.492859 
	C995.757629,715.759094 1009.221313,711.638611 1021.504395,703.506653 
	C1026.472656,700.217468 1032.169312,697.438965 1035.351685,692.406250 
	C1040.866821,683.684692 1050.267578,678.858582 1055.998779,670.499146 
	C1058.125366,667.397217 1060.957153,664.645203 1061.000000,660.500000 
"/>
<path fill="none" opacity="1.000000" stroke="currentColor" stroke-linecap="round" stroke-linejoin="round" stroke-width="10.000000"
	d="
M1012.500000,540.500000 
	C996.166992,540.152100 979.820740,541.208191 963.490112,539.600647 
	C957.217529,538.983215 950.831726,539.590271 944.500366,539.478943 
	C934.832275,539.309021 925.166687,538.999939 915.500000,538.749939 
"/>
<path fill="none" opacity="1.000000" stroke="currentColor" stroke-linecap="round" stroke-linejoin="round" stroke-width="10.000000"
	d="
M249.500000,713.000000 
	C250.320465,704.166687 250.877975,695.234314 249.334839,686.529297 
	C247.936493,678.641052 240.801254,673.133240 234.507507,674.051453 
	C226.030106,675.288147 220.896713,679.804565 220.553864,690.001831 
	C220.285202,697.992798 220.500000,706.000000 220.500000,714.000000 
"/>
<path fill="none" opacity="1.000000" stroke="currentColor" stroke-linecap="round" stroke-linejoin="round" stroke-width="12.000000"
	d="
M828.000000,699.500000 
	C834.503845,699.241455 841.029663,700.046936 847.516541,698.572754 
	C851.130920,697.751343 854.224731,700.542236 857.995850,700.648438 
	C874.999390,701.127197 892.014771,701.818420 908.981689,702.812561 
	C917.313171,703.300842 925.729858,702.447205 934.000000,704.000000 
"/>
<path fill="none" opacity="1.000000" stroke="currentColor" stroke-linecap="round" stroke-linejoin="round" stroke-width="10.000000"
	d="
M994.500000,575.000000 
	C983.010742,574.092834 971.425598,575.416931 960.019226,574.303040 
	C946.344421,572.967529 932.611084,574.392822 918.992981,572.551697 
	C916.876282,572.265503 914.666687,572.666748 912.500000,572.750061 
"/>
<path fill="none" opacity="1.000000" stroke="currentColor" stroke-linecap="round" stroke-linejoin="round" stroke-width="8.000000"
	d="
M1039.500000,626.500000 
	C1035.166748,631.166687 1030.946411,635.944702 1026.480103,640.480347 
	C1008.960876,658.271240 994.478210,678.433472 980.490967,698.993896 
	C978.281799,702.241150 975.933716,705.388550 972.500000,707.500000 
"/>
<path fill="none" opacity="1.000000" stroke="currentColor" stroke-linecap="round" stroke-linejoin="round" stroke-width="11.000000"
	d="
M1068.000000,489.000000 
	C1067.397095,491.470245 1066.183838,493.786438 1064.444946,495.442169 
	C1052.681396,506.643036 1048.977661,521.292725 1046.508057,536.501343 
	C1045.129150,544.993896 1043.632812,553.476624 1042.638672,562.016113 
	C1042.384277,564.200806 1041.266846,565.941711 1041.000000,568.000000 
"/>
<path fill="none" opacity="1.000000" stroke="currentColor" stroke-linecap="round" stroke-linejoin="round" stroke-width="11.000000"
	d="
M629.500000,127.500000 
	C629.500000,133.166672 629.476990,138.833481 629.513977,144.499908 
	C629.525146,146.217697 629.111511,147.332581 627.586548,148.603851 
	C623.828735,151.736511 622.850342,156.573410 621.572510,161.020844 
	C620.172791,165.892624 618.415100,170.658356 617.102783,175.527695 
	C615.098083,182.965912 610.416260,187.727234 604.052246,191.586121 
	C599.358704,194.432022 594.431580,196.730911 589.459167,198.906616 
	C586.132996,200.361984 583.216980,201.951111 581.500000,205.250000 
"/>
<path fill="none" opacity="1.000000" stroke="currentColor" stroke-linecap="round" stroke-linejoin="round" stroke-width="11.000000"
	d="
M630.000000,147.500000 
	C632.852112,149.877426 634.725586,152.713669 635.590637,156.479172 
	C636.720459,161.397537 638.880005,166.086273 639.922852,171.016312 
	C642.272644,182.124771 648.742676,189.543701 658.987976,194.027512 
	C662.397644,195.519730 665.601257,197.485397 669.019104,198.955658 
	C672.199036,200.323563 674.868347,202.124619 676.500000,205.250000 
"/>
<path fill="none" opacity="1.000000" stroke="currentColor" stroke-linecap="round" stroke-linejoin="round" stroke-width="11.000000"
	d="
M564.500000,205.500000 
	C568.500000,205.333328 572.513611,205.314926 576.495422,204.949905 
	C579.335083,204.689590 581.699097,205.289551 583.486511,207.510880 
	C586.082886,210.737579 590.030945,211.499695 593.535034,212.913071 
	C597.379822,214.463882 600.776855,216.788742 604.508911,218.480331 
	C613.397339,222.509171 616.545593,230.682373 619.483032,239.005981 
	C620.587585,242.135742 621.583740,245.309860 622.479492,248.505753 
	C623.680969,252.792343 625.939392,256.318176 629.500000,259.000000 
"/>
<path fill="none" opacity="1.000000" stroke="currentColor" stroke-linecap="round" stroke-linejoin="round" stroke-width="11.000000"
	d="
M691.000000,205.500000 
	C686.705750,204.317230 682.317261,205.641602 677.995544,205.031372 
	C677.528442,204.965393 676.778931,205.176529 676.532898,205.523331 
	C672.348389,211.421829 665.433167,212.867615 659.428589,215.325516 
	C647.935059,220.030243 641.876648,228.682602 638.468506,239.990509 
	C636.540344,246.388123 635.599243,252.986649 630.245605,258.249786 
	C627.540405,260.909210 628.773254,266.336609 629.126099,270.489288 
	C629.296143,272.490204 629.346069,274.498932 629.500000,276.500000 
"/>
<path fill="none" opacity="1.000000" stroke="currentColor" stroke-linecap="round" stroke-linejoin="round" stroke-width="12.000000"
	d="
M843.500000,791.500000 
	C843.500000,784.833313 843.534119,778.166443 843.489258,771.500061 
	C843.452698,766.056152 839.932800,762.771729 834.502869,762.451721 
	C828.313782,762.087036 822.046936,763.626038 815.892090,760.729309 
	C813.870544,759.777893 810.926453,762.565613 807.999695,762.549255 
	C790.333618,762.450317 772.644165,763.039673 755.008118,762.304688 
	C743.797913,761.837524 732.670227,763.351135 721.497803,762.529968 
	C718.273132,762.292847 714.981750,762.845154 711.969299,761.051575 
	C711.347595,760.681458 710.610291,760.251221 709.449829,760.911865 
	C705.426819,763.202026 700.882690,762.481384 696.500000,762.489868 
	C682.500061,762.517090 668.500000,762.507629 654.500000,762.494324 
	C651.260925,762.491211 647.981750,762.845154 644.969299,761.051575 
	C644.347595,760.681396 643.528931,760.627441 642.469971,760.867554 
	C630.851135,763.501465 619.159241,763.457153 607.516479,760.924255 
	C606.723694,760.751831 606.308105,760.516113 605.476074,760.954651 
	C601.375549,763.116150 596.882690,762.481812 592.500000,762.489929 
	C578.000061,762.516663 563.500000,762.506775 549.000000,762.493958 
	C546.297180,762.491577 543.528137,762.865967 541.003418,761.493652 
	C538.401062,760.079163 536.280273,762.517273 534.004456,762.407654 
	C523.504639,761.901855 512.865295,764.139648 502.520325,760.934387 
	C501.699432,760.680054 501.311737,760.576721 500.475922,760.945374 
	C495.840820,762.990112 490.882263,762.492737 486.000000,762.496277 
	C471.666656,762.506714 457.287720,763.191528 443.016479,762.250122 
	C433.928375,761.650574 425.010742,763.011841 415.996460,762.572571 
	C409.279053,762.245178 406.500000,765.305359 406.500000,772.000000 
	C406.500000,778.500000 406.500000,785.000000 406.500000,791.500000 
"/>
<path fill="none" opacity="1.000000" stroke="currentColor" stroke-linecap="round" stroke-linejoin="round" stroke-width="12.000000"
	d="
M860.500000,760.000000 
	C875.546997,762.722595 890.906799,761.339172 906.006775,763.451782 
	C908.458740,763.794800 911.013489,763.667114 913.497314,763.466919 
	C919.625793,762.972778 924.994568,764.641296 930.609009,767.266846 
	C936.528137,770.034851 943.344666,769.918457 950.008240,769.064209 
	C956.508240,768.230957 962.743774,765.669373 969.508057,766.428406 
	C973.159241,766.838135 976.730774,767.752197 980.504150,767.612305 
	C984.030151,767.481445 987.336975,767.018250 990.500000,765.500000 
"/>
<path fill="none" opacity="1.000000" stroke="currentColor" stroke-linecap="round" stroke-linejoin="round" stroke-width="13.000000"
	d="
M826.000000,522.000000 
	C827.030029,531.666687 826.612366,541.339233 825.929810,550.995056 
	C825.791443,552.951904 824.609924,555.196106 822.489990,555.391174 
	C818.660278,555.743591 814.929077,558.134583 811.030640,556.429932 
	C809.450378,555.739014 807.989197,556.041321 806.499878,556.035645 
	C791.333374,555.977356 776.164612,555.853027 761.000916,556.064453 
	C753.828979,556.164429 746.689819,556.566223 739.493469,556.100952 
	C732.356628,555.639465 725.113586,555.446777 718.012329,556.128540 
	C707.132019,557.173218 696.344604,555.510620 685.496765,555.913696 
	C674.844788,556.309570 664.149109,555.629700 653.506409,556.134827 
	C646.805420,556.452820 640.171692,556.257141 633.498596,556.044800 
	C627.005127,555.838135 620.446167,555.468018 614.012024,556.119080 
	C603.134827,557.219543 592.344604,555.510620 581.496765,555.913696 
	C570.844788,556.309570 560.134216,555.495728 549.511597,556.180176 
	C542.616638,556.624390 535.833374,556.025085 529.000000,556.004395 
	C522.333374,555.984192 515.613953,555.466736 509.011841,556.119812 
	C497.968475,557.212280 487.011810,555.495789 475.996643,555.911133 
	C465.178680,556.318970 454.333344,555.998779 443.500000,556.000610 
	C438.660767,556.001404 434.021240,557.247253 428.917450,555.788879 
	C424.397827,554.497437 423.432007,552.439331 423.471466,548.499695 
	C423.561676,539.500610 423.500000,530.500000 423.500000,521.500000 
"/>
<path fill="none" opacity="1.000000" stroke="currentColor" stroke-linecap="round" stroke-linejoin="round" stroke-width="10.000000"
	d="
M908.500000,605.750061 
	C925.166687,606.333374 941.833130,606.922119 958.500183,607.495483 
	C961.832397,607.610168 965.166687,607.666626 968.500000,607.750000 
"/>
<path fill="none" opacity="1.000000" stroke="currentColor" stroke-linecap="round" stroke-linejoin="round" stroke-width="11.000000"
	d="
M1026.750000,730.000000 
	C1025.280396,734.232117 1026.440063,738.695984 1025.537231,743.007812 
	C1023.412292,753.154663 1019.611755,762.072815 1008.980347,765.946106 
	C1005.327820,767.276794 1001.463196,767.461182 997.491333,767.093811 
	C993.395508,766.715088 991.341431,765.040100 989.836670,761.061768 
	C987.715332,755.453064 984.387573,750.296143 984.500000,744.000000 
"/>
<path fill="none" opacity="1.000000" stroke="currentColor" stroke-linecap="round" stroke-linejoin="round" stroke-width="11.000000"
	d="
M1085.500000,614.000000 
	C1085.666626,614.500000 1086.099121,615.093201 1085.961182,615.486389 
	C1082.391235,625.660767 1079.543579,636.063599 1068.585571,641.667297 
	C1062.563354,644.746948 1055.537720,646.799438 1051.569458,653.044189 
	C1051.139404,653.720947 1050.830200,653.426636 1050.496704,653.478638 
	C1044.192017,654.461731 1038.007568,656.471436 1031.500000,655.750000 
"/>
<path fill="none" opacity="1.000000" stroke="currentColor" stroke-linecap="round" stroke-linejoin="round" stroke-width="12.000000"
	d="
M539.000000,760.500000 
	C539.886169,756.194336 539.405701,751.835266 539.489563,747.499817 
	C539.610352,741.260925 542.531860,737.325684 548.499512,735.498352 
	C549.003296,735.344116 549.557678,734.929077 549.991638,735.034424 
	C563.231812,738.249146 576.678162,735.683228 590.002319,736.460388 
	C590.971680,736.516968 591.963501,736.410522 593.029724,736.102966 
	C599.843567,734.137756 606.230103,739.122437 606.472717,746.500916 
	C606.620544,750.996033 606.500000,755.500000 606.500000,760.000000 
"/>
<path fill="none" opacity="1.000000" stroke="currentColor" stroke-linecap="round" stroke-linejoin="round" stroke-width="12.000000"
	d="
M643.500000,760.000000 
	C643.500000,756.500000 643.809265,752.966370 643.433105,749.507263 
	C642.733704,743.074890 645.959290,739.096252 650.995850,735.993225 
	C652.602600,735.003357 654.158264,734.327271 656.009277,735.485168 
	C658.166809,736.834778 660.623718,736.492981 663.000000,736.495544 
	C672.833313,736.506165 682.666687,736.500000 692.500000,736.500000 
	C693.833313,736.500000 695.213074,736.725891 696.492432,736.463257 
	C704.586853,734.801758 710.462219,739.592896 710.497131,748.000000 
	C710.513733,751.999939 710.500000,756.000000 710.500000,760.000000 
"/>
<path fill="none" opacity="1.000000" stroke="currentColor" stroke-linecap="round" stroke-linejoin="round" stroke-width="12.000000"
	d="
M434.000000,760.500000 
	C432.762909,755.333313 433.530670,750.110107 434.122925,745.014282 
	C434.867645,738.607117 441.881592,734.277344 447.971161,736.096558 
	C449.557404,736.570435 451.010223,736.453796 452.500244,736.463684 
	C462.833130,736.532593 473.166656,736.500000 483.500000,736.500000 
	C484.666656,736.500000 485.985260,736.856018 486.972198,736.434875 
	C490.257538,735.033020 493.135040,734.730469 496.040192,737.457214 
	C499.435760,740.644226 501.976440,743.963562 501.558868,749.004883 
	C501.257202,752.646545 501.500000,756.333313 501.500000,760.000000 
"/>
<path fill="none" opacity="1.000000" stroke="currentColor" stroke-linecap="round" stroke-linejoin="round" stroke-width="12.000000"
	d="
M748.000000,760.500000 
	C748.937683,755.525696 748.295715,750.498474 748.507629,745.500305 
	C748.771973,739.267273 755.571594,734.261780 761.486572,736.044617 
	C763.177612,736.554382 764.825439,736.483887 766.500000,736.487915 
	C776.500000,736.512329 786.500000,736.500000 796.500000,736.500000 
	C797.833313,736.500000 799.213623,736.727478 800.492493,736.463562 
	C809.684998,734.566040 815.488953,739.181580 815.499329,748.500000 
	C815.503601,752.333313 815.500000,756.166687 815.500000,760.000000 
"/>
<path fill="none" opacity="1.000000" stroke="currentColor" stroke-linecap="round" stroke-linejoin="round" stroke-width="11.000000"
	d="
M500.500000,558.000000 
	C500.500000,561.000000 500.511719,564.000061 500.497833,567.000000 
	C500.454834,576.285278 494.764648,580.291809 485.478699,579.177612 
	C477.079620,578.169800 468.465027,578.143250 460.013885,578.707886 
	C455.384644,579.017212 450.591614,578.205261 445.911804,580.303284 
	C443.179260,581.528259 437.048004,574.898621 435.997375,570.500610 
	C435.009277,566.364441 435.711914,562.164856 435.500000,558.000000 
"/>
<path fill="none" opacity="1.000000" stroke="currentColor" stroke-linecap="round" stroke-linejoin="round" stroke-width="12.000000"
	d="
M605.500000,558.000000 
	C605.500000,561.166687 605.502747,564.333313 605.499390,567.500000 
	C605.492615,573.951050 602.841919,577.399719 596.522766,579.566406 
	C595.647339,579.866516 594.968567,580.336731 593.996643,580.010010 
	C584.474365,576.809265 574.649902,578.713684 565.000916,578.749695 
	C560.443970,578.766663 555.651978,578.461487 550.906982,580.253784 
	C547.163025,581.668030 540.686646,573.779785 540.520752,568.499329 
	C540.410950,565.002808 540.500000,561.500000 540.500000,558.000000 
"/>
<path fill="none" opacity="1.000000" stroke="currentColor" stroke-linecap="round" stroke-linejoin="round" stroke-width="10.000000"
	d="
M972.000000,714.000000 
	C965.435730,719.804810 962.226379,727.938477 957.591736,735.059692 
	C953.327148,741.612366 950.005127,748.772583 945.897400,755.436768 
	C944.633179,757.487732 944.541809,759.385437 944.500000,761.500000 
"/>
<path fill="none" opacity="1.000000" stroke="currentColor" stroke-linecap="round" stroke-linejoin="round" stroke-width="12.000000"
	d="
M814.000000,558.000000 
	C814.000000,560.833313 814.002502,563.666687 813.999451,566.500000 
	C813.992615,572.778625 811.093689,577.160217 805.510010,579.523743 
	C804.274841,580.046570 803.220825,579.713440 801.991699,579.572266 
	C788.318420,578.002502 774.619873,577.339783 761.009949,580.050110 
	C756.576111,580.933105 749.690491,574.929749 749.522888,569.499268 
	C749.404663,565.669617 749.500000,561.833313 749.500000,558.000000 
"/>
<path fill="none" opacity="1.000000" stroke="currentColor" stroke-linecap="round" stroke-linejoin="round" stroke-width="12.000000"
	d="
M709.500000,558.000000 
	C709.500000,561.000000 709.282410,564.019165 709.544983,566.996033 
	C710.104004,573.334290 706.652100,576.994019 701.456787,579.406860 
	C700.538147,579.833496 699.387573,580.554565 697.986206,580.037476 
	C689.162476,576.782104 679.970398,578.570862 671.005676,578.763916 
	C665.754761,578.877014 659.893799,577.353821 655.105530,581.110840 
	C654.651855,580.860168 654.341553,580.639954 653.997742,580.505859 
	C643.111145,576.259460 644.223999,566.953552 644.500000,558.000000 
"/>
<path fill="none" opacity="1.000000" stroke="currentColor" stroke-linecap="round" stroke-linejoin="round" stroke-width="10.000000"
	d="
M903.500000,639.250061 
	C911.166687,639.500061 918.833923,639.733398 926.499817,640.005249 
	C932.834045,640.229858 939.166687,640.500000 945.500000,640.750000 
"/>
<path fill="none" opacity="1.000000" stroke="currentColor" stroke-linecap="round" stroke-linejoin="round" stroke-width="7.000000"
	d="
M1039.000000,686.000000 
	C1035.569824,684.032898 1031.963867,683.397034 1027.990356,683.928162 
	C1025.206787,684.300232 1022.333313,684.000000 1019.500000,684.000000 
"/>
<path fill="none" opacity="1.000000" stroke="currentColor" stroke-linecap="round" stroke-linejoin="round" stroke-width="5.000000"
	d="
M1015.500000,613.500000 
	C1018.077942,619.337891 1014.564575,624.817505 1014.500000,630.500000 
"/>
<path fill="none" opacity="1.000000" stroke="currentColor" stroke-linecap="round" stroke-linejoin="round" stroke-width="6.000000"
	d="
M983.000000,652.500000 
	C986.439575,655.302979 985.596191,659.418091 985.774292,663.011169 
	C985.828552,664.105713 986.557800,665.333313 986.000000,666.500000 
"/>
<path fill="none" opacity="1.000000" stroke="currentColor" stroke-linecap="round" stroke-linejoin="round" stroke-width="3.000000"
	d="
M1056.000000,588.000000 
	C1057.260254,590.996704 1056.245239,593.519226 1054.533081,596.022644 
	C1053.360107,597.737610 1052.500000,599.666687 1051.500000,601.500000 
"/>
<path fill="none" opacity="1.000000" stroke="currentColor" stroke-linecap="round" stroke-linejoin="round" stroke-width="5.000000"
	d="
M906.500000,365.500000 
	C906.500000,367.333344 906.500000,369.166656 906.500000,371.500000 
	C908.486267,371.500000 910.493103,371.500000 912.500000,371.500000 
"/>
<path fill="none" opacity="1.000000" stroke="currentColor" stroke-linecap="round" stroke-linejoin="round" stroke-width="11.000000"
	d="
M620.500000,442.500000 
	C607.259094,446.343719 602.436768,456.019806 602.364929,464.998932 
	C602.295532,473.650299 609.193237,482.464325 615.516785,484.957428 
	C624.328186,488.431366 634.527893,485.623138 640.169983,480.176086 
	C650.086182,470.602783 649.337769,448.455719 629.512268,442.955780 
	C626.646118,442.160645 623.826233,442.787476 621.000000,442.500000 
"/>
</svg>
