<svg version="1.1" id="Layer_1" xmlns="http://www.w3.org/2000/svg" xmlns:xlink="http://www.w3.org/1999/xlink" x="0px" y="0px"
	 width="986" height="874" viewBox="0 0 986 874" enable-background="new 0 0 986 874" xml:space="preserve">
<path fill="none" opacity="1.000000" stroke="none" 
	d="
M605.000000,875.000000 
	C403.333344,875.000000 202.166672,875.000000 1.000000,875.000000 
	C1.000000,583.666687 1.000000,292.333344 1.000000,1.000000 
	C329.666656,1.000000 658.333313,1.000000 987.000000,1.000000 
	C987.000000,292.333344 987.000000,583.666687 987.000000,875.000000 
	C859.833313,875.000000 732.666687,875.000000 605.000000,875.000000 
M462.269867,370.287842 
	C463.295593,373.356293 465.055969,376.389008 465.207245,379.500031 
	C465.635742,388.312500 465.409454,397.157013 465.433502,405.988892 
	C465.443726,409.744202 465.435181,413.499603 465.435181,417.282715 
	C477.048187,417.282715 487.962982,417.282715 498.978058,417.282715 
	C499.041016,415.995972 499.131836,415.006775 499.131714,414.017578 
	C499.122375,321.029022 499.109528,228.040482 499.067413,135.051941 
	C499.066498,133.069519 498.937714,131.039230 498.506042,129.112488 
	C494.867249,112.871552 482.830444,103.501366 465.213470,103.487572 
	C383.057068,103.423264 300.900574,103.427582 218.744110,103.432854 
	C183.581940,103.435112 148.418823,103.358849 113.257950,103.592377 
	C94.498741,103.716980 81.175606,117.300964 81.172920,135.828522 
	C81.142586,344.636078 81.194923,553.443665 81.035675,762.251099 
	C81.021652,780.641357 96.242775,796.287598 114.586861,796.234680 
	C241.236862,795.869873 367.888428,796.051880 494.539490,796.046387 
	C495.974091,796.046326 497.408691,795.889404 498.826660,795.806641 
	C498.826660,707.515808 498.826660,619.593079 498.826660,531.501587 
	C487.554352,531.501587 476.511169,531.501587 465.142426,531.501587 
	C465.142426,544.639526 465.083344,557.448181 465.172485,570.255798 
	C465.206573,575.151245 463.025085,578.634644 458.796234,580.673950 
	C454.568390,582.712891 450.348846,582.261475 446.596924,579.287903 
	C445.035248,578.050171 443.591614,576.654419 442.160065,575.262939 
	C410.973297,544.949219 379.800781,514.620728 348.612946,484.308105 
	C340.872925,476.785309 340.920502,471.270874 348.821503,463.624207 
	C357.203278,455.512238 365.562103,447.376465 373.926300,439.246338 
	C396.987732,416.830292 420.017273,394.381256 443.125183,372.013184 
	C449.856812,365.497070 454.836334,365.009155 462.269867,370.287842 
M901.417664,103.424545 
	C824.592041,103.431923 747.766418,103.439529 670.940796,103.446602 
	C632.277039,103.450165 593.612915,103.345299 554.949768,103.499100 
	C534.181152,103.581718 521.098083,117.037254 521.101013,137.692642 
	C521.114014,229.185837 521.114624,320.679016 521.119568,412.172211 
	C521.119690,413.793823 521.119629,415.415436 521.119629,417.204742 
	C532.595093,417.204742 543.659241,417.204742 554.929260,417.204742 
	C554.929260,404.874512 555.048218,392.880249 554.878052,380.890076 
	C554.795471,375.075897 556.230530,370.181671 561.870789,367.733093 
	C567.622620,365.236053 572.451172,367.276611 576.771973,371.481354 
	C608.658875,402.511230 640.617310,433.467560 672.505859,464.495758 
	C679.578247,471.377411 679.446594,477.195648 672.340393,484.110535 
	C649.648071,506.191742 626.956421,528.273621 604.250854,550.341125 
	C594.690918,559.632385 585.109131,568.901184 575.512207,578.154236 
	C571.664246,581.864197 567.118469,583.014954 562.196960,580.826904 
	C557.346497,578.670471 554.908020,574.718506 554.980896,569.304626 
	C555.030212,565.638916 554.981812,561.971985 554.981262,558.305603 
	C554.979797,549.376099 554.980774,540.446594 554.980774,531.443298 
	C543.392639,531.443298 532.465576,531.443298 521.308838,531.443298 
	C521.308838,619.734253 521.308838,707.772339 521.308838,796.067505 
	C522.916138,796.067505 524.229980,796.067505 525.543823,796.067444 
	C652.201111,796.060791 778.858887,795.890991 905.515259,796.231628 
	C923.578857,796.280212 939.057617,781.341125 939.039429,762.356384 
	C938.839478,553.372070 938.912231,344.387482 938.863464,135.402969 
	C938.860840,124.148178 934.059631,115.190697 924.785156,108.740425 
	C918.031433,104.043373 910.346619,103.122292 901.417664,103.424545 
M642.858887,465.644257 
	C621.174866,444.547028 599.490784,423.449799 577.733337,402.281128 
	C577.733337,410.471161 577.733643,418.217285 577.733276,425.963409 
	C577.732788,435.429352 574.255676,438.981720 564.846863,438.990295 
	C528.687378,439.023224 492.527893,439.038239 456.368408,439.043701 
	C446.855469,439.045135 443.293060,435.336212 443.322357,425.624420 
	C443.345612,417.915039 443.327026,410.205536 443.327026,401.734955 
	C418.185577,426.200470 393.549438,450.174286 368.857269,474.202606 
	C393.742371,498.526031 418.223694,522.454773 443.562469,547.221619 
	C443.562469,538.266907 443.587219,530.501099 443.555969,522.735474 
	C443.520050,513.803040 447.568695,509.428467 456.530060,509.409088 
	C492.522705,509.331268 528.515686,509.335358 564.508362,509.404602 
	C573.009827,509.420959 577.251404,513.902527 577.305176,522.496582 
	C577.353516,530.229553 577.315369,537.963135 577.315369,546.784973 
	C602.553284,522.103699 626.981201,498.214600 651.469849,474.266083 
	C648.518555,471.307037 645.941772,468.723450 642.858887,465.644257 
z"/>
<path fill="currentColor" opacity="1.000000" stroke="none" 
	d="
M461.993103,370.010864 
	C454.836334,365.009155 449.856812,365.497070 443.125183,372.013184 
	C420.017273,394.381256 396.987732,416.830292 373.926300,439.246338 
	C365.562103,447.376465 357.203278,455.512238 348.821503,463.624207 
	C340.920502,471.270874 340.872925,476.785309 348.612946,484.308105 
	C379.800781,514.620728 410.973297,544.949219 442.160065,575.262939 
	C443.591614,576.654419 445.035248,578.050171 446.596924,579.287903 
	C450.348846,582.261475 454.568390,582.712891 458.796234,580.673950 
	C463.025085,578.634644 465.206573,575.151245 465.172485,570.255798 
	C465.083344,557.448181 465.142426,544.639526 465.142426,531.501587 
	C476.511169,531.501587 487.554352,531.501587 498.826660,531.501587 
	C498.826660,619.593079 498.826660,707.515808 498.826660,795.806641 
	C497.408691,795.889404 495.974091,796.046326 494.539490,796.046387 
	C367.888428,796.051880 241.236862,795.869873 114.586861,796.234680 
	C96.242775,796.287598 81.021652,780.641357 81.035675,762.251099 
	C81.194923,553.443665 81.142586,344.636078 81.172920,135.828522 
	C81.175606,117.300964 94.498741,103.716980 113.257950,103.592377 
	C148.418823,103.358849 183.581940,103.435112 218.744110,103.432854 
	C300.900574,103.427582 383.057068,103.423264 465.213470,103.487572 
	C482.830444,103.501366 494.867249,112.871552 498.506042,129.112488 
	C498.937714,131.039230 499.066498,133.069519 499.067413,135.051941 
	C499.109528,228.040482 499.122375,321.029022 499.131714,414.017578 
	C499.131836,415.006775 499.041016,415.995972 498.978058,417.282715 
	C487.962982,417.282715 477.048187,417.282715 465.435181,417.282715 
	C465.435181,413.499603 465.443726,409.744202 465.433502,405.988892 
	C465.409454,397.157013 465.635742,388.312500 465.207245,379.500031 
	C465.055969,376.389008 463.295593,373.356293 461.993103,370.010864 
M309.518097,498.348633 
	C307.873657,498.140228 306.229340,497.751007 304.584717,497.749725 
	C253.104218,497.709717 201.623657,497.685822 150.143158,497.723755 
	C142.747437,497.729187 137.902481,502.200958 137.890381,508.626770 
	C137.878128,515.128479 143.095810,519.925659 150.466446,519.929810 
	C201.947083,519.958740 253.427795,519.955444 304.908447,519.924438 
	C311.297089,519.920593 315.796173,516.762024 317.103729,511.659668 
	C318.440308,506.444031 316.143494,502.123932 309.518097,498.348633 
M414.499329,261.206421 
	C390.027618,261.206818 365.555939,261.208618 341.084229,261.207214 
	C324.936249,261.206268 308.788208,261.228394 292.640381,261.181519 
	C287.339294,261.166138 283.139130,262.960236 281.047241,268.091705 
	C277.749359,276.181610 283.262909,283.556183 292.727997,283.583252 
	C317.865356,283.655151 343.003021,283.618164 368.140564,283.609222 
	C388.450317,283.602020 408.760498,283.639160 429.069672,283.520630 
	C437.393646,283.472046 442.157471,279.227722 442.129028,272.365906 
	C442.100861,265.569824 437.074402,261.282410 428.983093,261.210419 
	C424.488678,261.170441 419.993561,261.206329 414.499329,261.206421 
M242.418793,261.192810 
	C212.924240,261.195526 183.429688,261.197571 153.935135,261.202637 
	C152.102234,261.202942 150.260101,261.112946 148.438141,261.260773 
	C142.486511,261.743622 138.186966,266.221893 137.992798,272.025879 
	C137.799805,277.794373 141.828323,282.523743 147.772278,283.384827 
	C149.246429,283.598389 150.762817,283.568726 152.259811,283.569183 
	C183.254059,283.578735 214.248291,283.579132 245.242538,283.568359 
	C246.739212,283.567841 248.249619,283.555908 249.730072,283.365784 
	C255.668381,282.603149 259.860107,277.897797 259.744507,272.218781 
	C259.630005,266.593048 255.224091,261.878998 249.380737,261.291107 
	C247.399139,261.091766 245.385040,261.215210 242.418793,261.192810 
M168.500061,644.907715 
	C192.164078,644.899170 215.828232,644.936462 239.492004,644.854248 
	C246.579147,644.829590 251.737900,640.014771 251.806168,633.755310 
	C251.875763,627.372681 246.962143,622.992310 239.502625,622.985413 
	C209.672699,622.957886 179.842697,622.957703 150.012787,623.000366 
	C142.443207,623.011169 137.786926,627.247375 137.820786,633.841431 
	C137.854553,640.418579 142.535812,644.718445 150.002548,644.854553 
	C155.833466,644.960815 161.667526,644.896240 168.500061,644.907715 
M353.195221,393.557587 
	C354.534332,385.241699 350.014923,379.740265 341.318512,379.693359 
	C316.359863,379.558777 291.400024,379.554688 266.441010,379.620056 
	C258.630829,379.640503 253.387238,384.185486 253.417328,390.438843 
	C253.447098,396.624115 259.369843,401.668396 266.857361,401.680725 
	C291.650269,401.721558 316.443298,401.672180 341.236206,401.716034 
	C346.798523,401.725861 350.854218,399.572937 353.195221,393.557587 
M226.944153,448.725525 
	C225.074402,441.592072 221.766266,438.789886 214.741608,438.775787 
	C193.250412,438.732605 171.758972,438.743103 150.267807,438.797150 
	C142.682419,438.816223 137.939758,442.994598 137.883667,449.469513 
	C137.826630,456.053772 142.887436,460.708069 150.409088,460.729889 
	C171.733643,460.791748 193.058487,460.797913 214.383102,460.759430 
	C222.008026,460.745697 225.955612,457.132568 226.944153,448.725525 
M432.036530,611.115417 
	C430.943176,608.908447 430.217316,606.395081 428.683411,604.555420 
	C424.977875,600.111145 420.049988,598.582825 414.332886,599.786438 
	C409.055328,600.897461 405.766266,604.248657 404.618591,609.327576 
	C404.235779,611.021973 405.246826,614.599426 405.920990,614.676147 
	C408.111359,614.925232 410.478485,614.071289 412.691620,613.370544 
	C413.286743,613.182129 413.410156,611.761658 414.038757,611.370178 
	C415.600891,610.397156 417.600281,608.757507 418.915527,609.138977 
	C420.250305,609.526062 421.900452,612.071716 421.807343,613.572449 
	C421.410706,619.966187 420.419373,626.322998 419.617157,632.923279 
	C405.451569,632.923279 392.304352,632.922668 379.157135,632.923584 
	C373.168823,632.923950 372.270416,632.096741 372.081970,626.078735 
	C371.863068,619.086426 371.808075,612.088074 371.508698,605.099731 
	C371.373230,601.937195 369.859070,599.506165 366.302704,599.677368 
	C362.799774,599.846069 361.469635,602.299866 361.528992,605.514648 
	C361.676575,613.508667 361.550873,621.531860 362.220154,629.485779 
	C363.036346,639.186279 368.708099,643.922668 378.434998,643.946472 
	C382.672180,643.956848 386.909393,643.948181 391.303955,643.948181 
	C388.683746,655.751648 389.615814,660.132629 395.175415,663.772278 
	C402.097961,658.302429 402.770538,654.238342 398.141724,643.724365 
	C407.294983,643.724365 416.205505,643.735474 425.115936,643.719238 
	C428.946716,643.712219 432.933746,644.275208 436.548767,643.373047 
	C438.679382,642.841309 441.400330,640.147461 441.756531,638.066589 
	C442.328400,634.726074 439.684204,632.748779 436.068481,632.783875 
	C433.994995,632.804016 431.921173,632.787537 430.184326,632.787537 
	C430.864563,625.499329 431.495148,618.742737 432.036530,611.115417 
M148.927597,682.295898 
	C143.546799,681.704529 140.549179,684.759705 138.624054,689.219604 
	C137.247559,692.408447 138.105698,695.202148 141.079666,696.967529 
	C143.951111,698.671997 146.311890,697.595886 148.623825,695.328857 
	C149.963745,694.015015 152.038986,692.771545 153.825897,692.708801 
	C162.311005,692.410583 170.817749,692.338684 179.299759,692.649902 
	C181.130600,692.717102 183.613953,694.275635 184.551788,695.876587 
	C187.658096,701.178833 191.387238,705.415100 198.247787,706.541382 
	C189.981293,715.341492 180.075684,717.573364 169.213745,716.735779 
	C168.313538,716.666321 167.038406,714.645813 166.861282,713.400452 
	C166.466034,710.621765 167.282745,707.542480 166.402695,705.002502 
	C165.728516,703.056702 163.397781,700.916077 161.443466,700.481018 
	C160.332260,700.233704 157.700012,703.008240 157.168457,704.834106 
	C156.306229,707.795959 156.545563,711.094238 156.429398,714.254517 
	C156.123276,722.582275 158.986710,725.886780 167.147766,726.736450 
	C189.751740,729.089844 208.059540,717.837341 216.173294,696.466736 
	C217.223419,693.700745 218.139130,690.726807 218.237701,687.819397 
	C218.291153,686.243469 216.755173,683.593079 215.454483,683.249023 
	C213.812027,682.814758 211.116074,683.707153 209.901062,684.995422 
	C208.426025,686.559387 208.208862,689.236084 207.105255,691.243286 
	C205.822510,693.576355 203.538803,697.784363 202.787338,697.556580 
	C199.831299,696.660583 197.197433,694.478821 194.678482,692.478943 
	C193.737869,691.732117 193.190399,690.235962 192.890915,688.979675 
	C191.594376,683.540955 187.888763,682.272217 182.820679,682.344910 
	C171.830582,682.502625 160.835739,682.330383 148.927597,682.295898 
M184.576263,379.661987 
	C172.595978,379.676239 160.614594,379.597931 148.635880,379.742889 
	C142.417007,379.818085 138.096710,384.044159 137.807663,389.844391 
	C137.517776,395.661346 141.922653,401.397156 147.788879,401.502625 
	C164.254990,401.798584 180.733505,401.813782 197.199066,401.506561 
	C202.908051,401.400055 207.260513,395.817383 207.087296,390.283112 
	C206.920441,384.952393 202.521408,380.287964 196.909027,379.863312 
	C193.100922,379.575165 189.260452,379.714874 184.576263,379.661987 
M297.477112,438.750610 
	C284.653076,438.759827 271.827789,438.665009 259.005554,438.821686 
	C252.485138,438.901367 247.447876,443.666473 247.245590,449.419495 
	C247.045441,455.111359 251.929581,460.505554 258.409241,460.617188 
	C274.559113,460.895416 290.719818,460.911255 306.869568,460.639862 
	C312.889435,460.538757 317.195679,455.508118 317.215729,449.867615 
	C317.235260,444.377899 312.795135,439.495331 306.952148,438.892426 
	C304.148285,438.603149 301.295959,438.783356 297.477112,438.750610 
M426.353699,342.774933 
	C428.019867,342.757050 429.693787,342.836121 431.350861,342.704193 
	C437.853485,342.186340 442.114227,337.835999 442.082672,331.832367 
	C442.050537,325.717072 437.374054,320.903625 430.916534,320.835632 
	C418.085724,320.700531 405.252411,320.810577 392.420197,320.787384 
	C388.155151,320.779694 385.099487,322.795441 383.069885,326.381348 
	C378.761963,333.992432 384.344513,342.610626 393.894348,342.781738 
	C404.389801,342.969757 414.891815,342.792938 426.353699,342.774933 
M369.255646,693.331238 
	C368.730835,685.216125 364.983673,681.523499 357.074036,681.494019 
	C345.943817,681.452576 334.813110,681.452515 323.682983,681.507812 
	C316.488251,681.543579 311.956207,685.713562 311.925018,692.160278 
	C311.893372,698.703979 316.679535,703.552734 323.719116,703.640564 
	C335.013733,703.781494 346.312653,703.763489 357.607544,703.627258 
	C364.088135,703.549133 367.426392,700.637329 369.255646,693.331238 
M332.485046,585.903748 
	C335.649933,585.902344 338.815765,585.950378 341.979523,585.889465 
	C348.890106,585.756592 353.941040,581.225159 354.015778,575.156311 
	C354.089691,569.154175 349.011749,564.123352 342.294647,564.034119 
	C330.636688,563.879211 318.973999,563.882874 307.315735,564.023560 
	C300.238525,564.109009 295.004364,569.204956 295.225433,575.354614 
	C295.441864,581.375183 300.542542,585.818787 307.503906,585.882080 
	C315.498749,585.954834 323.494690,585.901611 332.485046,585.903748 
M231.063492,568.453552 
	C226.924210,564.296570 223.001907,563.183167 219.212936,566.019409 
	C209.014709,573.653259 203.688614,584.428833 201.134476,596.587219 
	C200.820740,598.080688 202.907333,601.022278 204.531342,601.674133 
	C205.783203,602.176697 208.727173,600.595520 209.720200,599.129150 
	C211.350708,596.721436 211.916199,593.615417 213.097519,590.875793 
	C215.586472,585.103577 218.031403,579.273865 223.669250,575.158875 
	C224.987885,577.982727 226.094788,580.562683 227.375748,583.053162 
	C230.121155,588.390869 233.892456,589.042053 238.580032,585.096924 
	C240.832108,583.201477 243.113464,581.340881 245.437485,579.418213 
	C245.657867,579.731262 246.287750,580.673828 246.965256,581.580750 
	C251.324692,587.416687 257.853088,589.729187 264.576050,587.833069 
	C271.173370,585.972351 276.637054,579.263672 277.111755,572.542358 
	C277.334625,569.386780 276.560822,566.774170 273.151184,566.042236 
	C269.835419,565.330444 268.313446,567.457581 267.525085,570.323425 
	C267.260986,571.283386 267.271088,572.534241 266.653595,573.141235 
	C264.749603,575.012817 262.694153,577.846619 260.524536,578.010010 
	C258.457245,578.165771 256.000397,575.628906 254.053726,573.895264 
	C253.032837,572.986023 252.788086,571.235535 252.107697,569.908630 
	C249.351318,564.533325 245.869904,563.813416 241.523270,568.093018 
	C239.248734,570.332581 237.565018,573.172180 235.221603,576.258179 
	C233.315308,572.571594 232.402267,570.805908 231.063492,568.453552 
M238.398941,346.825531 
	C240.253632,341.579285 242.860275,336.457397 243.753906,331.052246 
	C244.667694,325.525238 241.280334,322.922668 235.619339,323.124207 
	C232.648117,323.229980 229.670029,323.142883 225.896576,323.142883 
	C230.704422,317.047394 234.686218,312.158966 238.477325,307.126892 
	C240.436020,304.527008 241.322327,301.511627 238.104233,299.249817 
	C234.746155,296.889587 232.362762,298.791504 230.109741,301.548218 
	C224.221191,308.753296 218.094620,315.763519 212.179276,322.947235 
	C210.030090,325.557281 205.340057,327.394836 207.861343,331.882996 
	C210.250656,336.136200 214.370621,333.480957 217.821060,333.421204 
	C222.817001,333.334656 227.815536,333.399048 233.045670,333.399048 
	C230.507202,341.775208 226.536850,346.381866 219.549149,348.717560 
	C215.477371,350.078552 211.047150,350.390869 207.014801,351.835449 
	C205.201843,352.484924 203.967743,354.750214 202.470978,356.282288 
	C204.179352,357.827911 205.813904,359.470825 207.642090,360.858612 
	C208.174957,361.263153 209.268509,361.020294 210.091385,360.937836 
	C221.037979,359.841156 230.860367,356.408997 238.398941,346.825531 
M389.210083,690.103943 
	C388.758423,698.494324 392.594269,703.499390 400.090363,703.647278 
	C410.401672,703.850708 420.722198,703.835510 431.034363,703.657532 
	C437.749115,703.541687 442.510315,698.618835 442.529541,692.321655 
	C442.548920,685.978333 437.869934,681.602905 430.787537,681.554382 
	C420.971893,681.487061 411.152954,681.683289 401.340149,681.505859 
	C395.422211,681.398865 391.472748,683.787354 389.210083,690.103943 
M175.765182,354.334686 
	C181.661301,347.172791 187.432892,339.902618 193.517593,332.904724 
	C195.805878,330.273010 196.808243,327.467041 194.869400,324.845337 
	C193.538940,323.046265 190.777634,321.335480 188.613617,321.281525 
	C175.463516,320.953613 162.300766,321.046021 149.143326,321.143707 
	C144.230698,321.180176 139.856903,324.502014 139.115967,328.602631 
	C138.214798,333.590027 140.836624,336.885315 144.879227,339.213867 
	C147.619675,340.792389 150.936478,341.761902 152.857697,338.662170 
	C153.783325,337.168762 152.561768,334.344543 152.303497,332.042725 
	C161.028336,332.042725 170.710815,332.042725 181.296097,332.042725 
	C172.118439,339.506561 166.674713,348.714142 162.392731,358.646271 
	C161.212555,361.383698 160.439407,364.884644 164.177078,366.406494 
	C167.696930,367.839661 170.234802,365.807312 171.800873,362.636597 
	C173.050690,360.106262 174.169449,357.511200 175.765182,354.334686 
M157.708038,574.212891 
	C164.933640,574.212891 172.159241,574.212891 180.193192,574.212891 
	C178.442566,576.236572 177.084122,577.455444 176.153198,578.942078 
	C171.336319,586.633911 166.510727,594.325500 161.943512,602.165894 
	C160.215958,605.131409 161.466293,607.646301 164.577301,609.043457 
	C167.815613,610.497620 169.561951,608.647705 170.826385,605.995605 
	C176.177689,594.771545 183.438766,584.927734 192.387634,576.332275 
	C194.768906,574.045044 196.523941,571.112244 194.565445,568.468872 
	C192.963455,566.306641 189.698608,564.235657 187.100708,564.145386 
	C174.478928,563.706604 161.832870,564.021301 149.196762,563.912781 
	C144.255814,563.870361 140.703934,565.803345 139.324982,570.545227 
	C137.959213,575.241882 139.759628,579.427551 143.851486,581.653992 
	C146.074783,582.863770 149.824249,583.146057 152.022217,582.075195 
	C155.146805,580.552856 153.152512,577.534241 151.955566,575.171814 
	C151.864731,574.992493 152.176376,574.609314 152.346771,574.214722 
	C153.796814,574.214722 155.284775,574.214722 157.708038,574.212891 
M275.034943,625.369751 
	C271.211487,628.866394 269.848175,633.052429 271.858795,637.951538 
	C273.948242,643.042664 278.060608,644.967102 283.379028,644.929321 
	C292.188507,644.866699 300.999634,644.979858 309.808350,644.874695 
	C316.943604,644.789490 321.985077,640.090210 321.997803,633.766663 
	C322.010620,627.394653 317.126984,623.083740 309.653717,623.030945 
	C300.678009,622.967529 291.698425,622.884888 282.727509,623.100708 
	C280.360809,623.157593 278.019836,624.283325 275.034943,625.369751 
M282.438202,194.070740 
	C285.077759,195.761383 287.543427,198.008804 290.429504,198.910141 
	C291.894501,199.367691 294.689545,197.823227 295.773285,196.361084 
	C296.380432,195.541946 295.190918,192.553268 293.988770,191.396484 
	C291.017578,188.537430 287.492584,186.262482 284.373871,183.542206 
	C283.586182,182.855164 282.865082,181.150543 283.174988,180.300583 
	C285.050446,175.156235 287.233856,170.124146 289.454620,164.712708 
	C292.685425,171.944534 295.678375,178.643967 298.798401,185.627792 
	C303.932312,181.000183 305.079071,176.756241 301.985809,171.337570 
	C299.697235,167.328461 298.407806,162.761002 296.299316,158.633286 
	C294.614807,155.335495 294.880920,149.785446 289.530334,150.010254 
	C284.508972,150.221207 284.403564,155.535507 282.795746,158.927475 
	C279.779785,165.290009 277.214661,171.866211 274.618805,177.984085 
	C270.310822,177.558609 266.688446,176.965881 263.057892,176.910645 
	C259.664276,176.859055 254.622955,175.229385 254.319885,180.619675 
	C254.011246,186.108765 259.171478,185.640686 262.825012,185.699615 
	C270.299286,185.820160 276.979614,187.488541 282.438202,194.070740 
M286.032074,694.325562 
	C283.949280,700.091064 282.261719,700.699890 277.918427,696.402649 
	C274.519562,693.039856 271.983398,688.808533 268.607483,685.417480 
	C267.156128,683.959595 264.150269,682.506592 262.553528,683.064148 
	C259.435486,684.152954 259.052063,687.523071 260.637421,690.217834 
	C265.014587,697.658081 269.679321,704.945740 279.138885,706.794189 
	C275.765961,712.111267 271.927948,714.419861 261.423248,717.395935 
	C258.555939,718.208191 255.672455,719.201538 256.444763,722.930542 
	C257.230225,726.723206 260.144012,728.054688 263.672791,727.096619 
	C267.649475,726.017029 271.739716,724.891663 275.336243,722.959167 
	C288.478424,715.897583 295.422852,704.556824 297.141418,689.858398 
	C297.568939,686.201782 296.508240,683.487732 292.505676,683.031433 
	C288.488800,682.573608 287.470612,685.348816 287.065979,688.624756 
	C286.863159,690.266785 286.498688,691.888794 286.032074,694.325562 
M262.983032,332.429016 
	C267.824554,337.456604 272.666107,342.484192 277.712463,347.724518 
	C277.038788,348.269226 275.437012,350.094696 273.424011,351.079926 
	C269.434692,353.032440 265.022003,354.175659 261.184113,356.356842 
	C259.434906,357.351013 258.635712,360.016693 257.405579,361.924194 
	C259.232758,363.036713 260.972351,364.360687 262.925323,365.169586 
	C263.855713,365.554962 265.215881,365.061401 266.340729,364.794647 
	C283.288971,360.775208 296.363525,345.628174 297.784515,328.356689 
	C298.033112,325.334717 297.570374,322.537262 293.947845,321.863098 
	C290.237000,321.172546 288.413849,323.218292 287.664062,326.621399 
	C286.814178,330.478882 285.899017,334.321991 284.962830,338.385803 
	C277.599976,337.195526 274.375214,331.986938 271.175995,326.706024 
	C269.173706,323.400848 266.509125,320.173279 262.418976,322.602386 
	C258.564423,324.891693 260.863159,328.409668 262.331848,331.385406 
	C262.404572,331.532776 262.520447,331.658813 262.983032,332.429016 
M359.822693,341.779572 
	C364.928253,340.675598 366.730804,337.617920 363.664276,333.930634 
	C361.114685,330.864990 357.641907,327.998047 353.981689,326.518707 
	C332.553558,317.858124 308.274292,337.406586 311.835327,360.368195 
	C312.103058,362.094452 314.643768,364.832886 315.905273,364.715210 
	C317.722015,364.545654 320.179901,362.508575 320.867065,360.699799 
	C322.561493,356.239716 322.894897,351.248505 324.690613,346.843872 
	C328.763489,336.853546 338.079865,332.416718 348.291901,335.644714 
	C352.138855,336.860718 355.536102,339.499512 359.822693,341.779572 
M307.631226,204.193527 
	C308.239899,204.063980 309.307373,203.690369 309.387878,203.841766 
	C310.475708,205.886826 311.358276,208.040070 312.422913,210.098633 
	C316.461365,217.907089 316.782715,218.045471 325.854523,216.514938 
	C323.224457,211.504669 320.810791,206.437485 317.971924,201.620880 
	C314.640839,195.969162 312.495483,190.563461 316.617340,184.239136 
	C318.228760,181.766739 318.075928,178.519928 314.767914,177.047531 
	C311.531677,175.607071 309.343536,177.414383 308.093964,180.365921 
	C303.768921,190.581497 299.369904,200.770355 295.352936,211.106934 
	C294.731842,212.705139 295.421387,216.324738 296.447632,216.753632 
	C299.022064,217.829559 302.033752,217.499542 303.392242,214.020676 
	C304.596191,210.937653 305.968597,207.920410 307.631226,204.193527 
M234.864731,385.158173 
	C234.309509,382.264099 232.735901,379.547699 229.720154,380.549072 
	C227.721909,381.212524 226.214890,384.008881 225.009491,386.144775 
	C224.358780,387.297791 224.868256,389.074707 224.744843,390.561096 
	C223.899063,400.747437 219.773209,408.675507 209.637634,412.483521 
	C208.252090,413.004089 206.470322,413.424774 205.732498,414.488556 
	C204.653320,416.044434 203.400177,418.549652 203.978607,419.894287 
	C204.598328,421.334900 207.169037,422.214142 209.054504,422.725830 
	C210.147324,423.022430 211.594772,422.187408 212.836273,421.734528 
	C227.766891,416.288452 234.994400,404.580414 234.864731,385.158173 
M331.516083,651.126404 
	C329.189880,652.402222 326.911530,653.777100 324.525482,654.928894 
	C321.501160,656.388733 320.133026,658.651550 321.442902,661.789124 
	C322.753296,664.927979 325.305115,665.469421 328.496277,664.438232 
	C342.733643,659.837341 353.248352,643.031799 350.736115,628.142090 
	C350.443756,626.409302 347.718170,623.615173 346.561005,623.818542 
	C344.413757,624.195862 342.366577,626.216064 340.742371,627.979980 
	C340.070038,628.710083 340.553314,630.542114 340.580017,631.871704 
	C340.733124,639.493530 338.170319,645.887207 331.516083,651.126404 
M221.259247,658.599365 
	C216.335251,659.010803 212.762100,661.464844 211.017456,666.052063 
	C210.416977,667.630798 210.833771,669.596497 210.785873,671.385498 
	C212.752579,671.372803 214.782639,671.666321 216.671158,671.275696 
	C219.505753,670.689453 222.321564,668.721741 225.000885,668.960754 
	C229.694061,669.379456 234.223907,671.444336 238.921356,672.048889 
	C244.208420,672.729370 249.630508,672.894775 254.934677,672.496277 
	C256.117950,672.407410 258.125092,668.815857 257.802460,667.235046 
	C257.482086,665.665344 254.416718,663.250183 253.051865,663.540527 
	C246.880478,664.853455 241.743805,662.246521 236.201569,660.609009 
	C231.682068,659.273682 226.805054,659.148376 221.259247,658.599365 
M346.121857,311.640381 
	C349.907257,309.615936 353.764252,307.712250 357.454041,305.526428 
	C360.109772,303.953125 361.663391,301.585938 360.014252,298.432617 
	C358.295929,295.146881 355.327972,295.455750 352.698242,296.812012 
	C343.274567,301.672150 333.908722,306.458344 323.032318,307.437134 
	C321.575104,307.568268 319.271942,310.752289 319.389862,312.375092 
	C319.504120,313.947845 322.013367,315.863739 323.881439,316.637543 
	C325.545441,317.326843 327.861237,317.008270 329.731964,316.525024 
	C335.002777,315.163513 340.192535,313.488312 346.121857,311.640381 
M235.466217,551.282043 
	C237.790222,551.268982 240.114594,551.224548 242.438171,551.250244 
	C245.921249,551.288635 249.013428,550.542358 248.960571,546.300537 
	C248.911606,542.372681 245.938309,541.581909 242.678787,541.579346 
	C232.552567,541.571350 222.426270,541.574463 212.300110,541.606140 
	C209.039276,541.616394 206.071594,542.455505 206.033630,546.370117 
	C205.992615,550.599487 209.075974,551.332092 212.564774,551.312927 
	C219.868774,551.272888 227.173111,551.290894 235.466217,551.282043 
M238.333298,710.043518 
	C238.288651,702.549072 238.383743,695.050110 238.139709,687.562195 
	C238.019836,683.883728 235.739487,681.736145 231.965652,681.850891 
	C228.280334,681.962952 228.005951,684.770691 228.003082,687.579468 
	C227.996140,694.408752 227.737839,701.256653 228.194473,708.055847 
	C228.331223,710.092041 230.057358,712.773560 231.833984,713.767090 
	C234.353561,715.176147 237.028168,714.087708 238.333298,710.043518 
M258.665405,217.138535 
	C264.007294,218.119629 267.312653,216.126358 269.064880,210.823578 
	C270.199829,207.388855 272.253693,204.262405 273.842072,200.971878 
	C276.818451,194.805939 276.321930,193.872635 268.876862,192.015549 
	C264.911041,199.738831 260.884857,207.534271 256.956055,215.378494 
	C256.778625,215.732712 257.481995,216.528076 258.665405,217.138535 
z"/>
<path fill="currentColor" opacity="1.000000" stroke="none" 
	d="
M901.902954,103.424423 
	C910.346619,103.122292 918.031433,104.043373 924.785156,108.740425 
	C934.059631,115.190697 938.860840,124.148178 938.863464,135.402969 
	C938.912231,344.387482 938.839478,553.372070 939.039429,762.356384 
	C939.057617,781.341125 923.578857,796.280212 905.515259,796.231628 
	C778.858887,795.890991 652.201111,796.060791 525.543823,796.067444 
	C524.229980,796.067505 522.916138,796.067505 521.308838,796.067505 
	C521.308838,707.772339 521.308838,619.734253 521.308838,531.443298 
	C532.465576,531.443298 543.392639,531.443298 554.980774,531.443298 
	C554.980774,540.446594 554.979797,549.376099 554.981262,558.305603 
	C554.981812,561.971985 555.030212,565.638916 554.980896,569.304626 
	C554.908020,574.718506 557.346497,578.670471 562.196960,580.826904 
	C567.118469,583.014954 571.664246,581.864197 575.512207,578.154236 
	C585.109131,568.901184 594.690918,559.632385 604.250854,550.341125 
	C626.956421,528.273621 649.648071,506.191742 672.340393,484.110535 
	C679.446594,477.195648 679.578247,471.377411 672.505859,464.495758 
	C640.617310,433.467560 608.658875,402.511230 576.771973,371.481354 
	C572.451172,367.276611 567.622620,365.236053 561.870789,367.733093 
	C556.230530,370.181671 554.795471,375.075897 554.878052,380.890076 
	C555.048218,392.880249 554.929260,404.874512 554.929260,417.204742 
	C543.659241,417.204742 532.595093,417.204742 521.119629,417.204742 
	C521.119629,415.415436 521.119690,413.793823 521.119568,412.172211 
	C521.114624,320.679016 521.114014,229.185837 521.101013,137.692642 
	C521.098083,117.037254 534.181152,103.581718 554.949768,103.499100 
	C593.612915,103.345299 632.277039,103.450165 670.940796,103.446602 
	C747.766418,103.439529 824.592041,103.431923 901.902954,103.424423 
M758.500061,261.219452 
	C731.837280,261.211487 705.174438,261.199677 678.511658,261.196594 
	C649.349365,261.193237 620.186951,261.233704 591.024780,261.166534 
	C585.719727,261.154327 581.529419,262.825226 579.160706,267.776764 
	C575.529846,275.366669 581.161743,283.795532 591.858032,283.766876 
	C683.677002,283.520874 775.496826,283.619781 867.316406,283.595093 
	C869.306396,283.594574 871.338806,283.564240 873.278015,283.178650 
	C878.420410,282.156128 881.775024,278.141602 882.005615,273.043457 
	C882.228333,268.119476 879.117859,263.335724 874.382446,261.961670 
	C872.194031,261.326660 869.790344,261.236938 867.483948,261.234558 
	C831.489380,261.197266 795.494751,261.214722 758.500061,261.219452 
M716.500000,622.941284 
	C679.851440,622.936035 643.202942,622.928345 606.554382,622.927917 
	C600.390869,622.927856 594.222046,622.806213 588.065552,623.021851 
	C582.736145,623.208496 578.661926,627.174500 577.972412,632.347778 
	C577.257751,637.709412 579.957092,642.394470 585.071716,644.113647 
	C586.909180,644.731323 588.977356,644.875183 590.940369,644.875916 
	C683.227905,644.910767 775.515442,644.906189 867.802979,644.903015 
	C869.135376,644.902954 870.483398,644.987671 871.797424,644.821350 
	C878.116760,644.021423 882.441833,639.259155 882.178040,633.486084 
	C881.915405,627.741150 877.175964,623.286438 870.923157,622.973633 
	C869.095032,622.882141 867.258972,622.942322 865.426575,622.942261 
	C816.117737,622.941040 766.808838,622.941040 716.500000,622.941284 
M864.450928,320.744720 
	C775.301941,320.738129 686.152893,320.730621 597.003906,320.729034 
	C594.004944,320.728973 590.992065,320.617432 588.010254,320.860046 
	C583.191528,321.252136 580.064941,323.944427 578.634460,328.552521 
	C577.243347,333.033630 578.369019,337.196350 582.060242,339.679138 
	C584.755493,341.492035 588.455383,342.664429 591.709534,342.669098 
	C683.357666,342.800293 775.006104,342.747833 866.654480,342.712708 
	C868.649292,342.711914 870.679993,342.773407 872.631958,342.441284 
	C878.095093,341.511749 882.227539,336.306335 881.866638,331.062378 
	C881.495850,325.674194 876.950256,321.166168 871.426575,320.810486 
	C869.434387,320.682190 867.428955,320.759766 864.450928,320.744720 
M666.751953,389.657806 
	C667.459473,397.648071 671.884949,401.653046 680.271362,401.657379 
	C743.235779,401.689941 806.200195,401.695251 869.164612,401.680939 
	C870.811462,401.680573 872.517029,401.576080 874.093933,401.147400 
	C878.772400,399.875641 882.022095,395.629944 882.060181,390.856750 
	C882.100647,385.788025 879.515381,382.230896 874.992249,380.406616 
	C872.928406,379.574158 870.420898,379.645050 868.114075,379.641113 
	C838.797424,379.591309 809.480774,379.601196 780.164062,379.598450 
	C747.016174,379.595367 713.868225,379.577698 680.720337,379.605133 
	C672.249390,379.612152 668.968506,381.864014 666.751953,389.657806 
M736.500000,563.886963 
	C717.019775,563.890503 697.539368,563.856201 678.059326,563.918274 
	C671.369263,563.939575 666.915955,568.288452 666.789551,574.623779 
	C666.652649,581.479187 671.655762,585.871948 679.663635,585.872314 
	C742.599731,585.875183 805.535828,585.869690 868.471924,585.865906 
	C869.470886,585.865845 870.474915,585.918518 871.467896,585.838440 
	C877.214905,585.375000 881.854553,580.608337 881.976074,575.081238 
	C882.096802,569.589661 877.577271,564.571411 871.859680,563.966125 
	C870.211121,563.791565 868.533081,563.872986 866.868591,563.873047 
	C823.745728,563.874573 780.622864,563.880920 736.500000,563.886963 
M600.509277,681.390015 
	C596.180908,681.428711 591.837280,681.252502 587.528076,681.560059 
	C581.999268,681.954590 578.129028,686.285339 577.906860,691.819702 
	C577.618774,698.996704 582.665649,703.685913 590.768982,703.687317 
	C645.550415,703.696838 700.331909,703.698364 755.113342,703.669189 
	C757.261047,703.668030 759.473877,703.598877 761.543701,703.096802 
	C767.125671,701.742615 770.562988,696.813843 770.085632,691.249878 
	C769.614807,685.761719 765.275696,681.734253 759.355408,681.431885 
	C756.697632,681.295959 754.028320,681.376160 751.364197,681.376282 
	C701.411560,681.378662 651.458862,681.383667 600.509277,681.390015 
M876.253357,498.997803 
	C873.175537,498.492401 870.099365,497.558563 867.019714,497.547302 
	C833.049438,497.422974 799.078674,497.432892 765.108032,497.426086 
	C748.123047,497.422668 731.136963,497.353271 714.153625,497.530121 
	C707.237671,497.602112 702.752808,502.334167 702.793335,508.795624 
	C702.833191,515.149414 707.621887,519.956970 714.350403,519.960571 
	C766.139038,519.988342 817.927673,519.959839 869.716309,519.902771 
	C875.535095,519.896301 879.814331,517.057617 881.572998,512.426758 
	C883.334167,507.789398 881.823364,503.546692 876.253357,498.997803 
M812.500000,460.729797 
	C831.649658,460.730469 850.799622,460.789337 869.948914,460.701416 
	C876.977478,460.669128 882.156311,455.691681 882.068054,449.456696 
	C881.978638,443.145477 877.256104,438.800507 870.162964,438.785004 
	C844.685730,438.729218 819.208191,438.718811 793.730957,438.760986 
	C786.098999,438.773621 780.910339,443.402710 781.014404,449.831116 
	C781.117004,456.165466 786.442871,460.670319 794.015747,460.734375 
	C799.843384,460.783691 805.671936,460.734375 812.500000,460.729797 
M724.819336,171.522217 
	C724.815491,182.187531 724.719727,192.854065 724.861267,203.517456 
	C724.906494,206.922989 724.646667,209.215561 720.286804,209.362701 
	C719.063782,209.403992 717.379578,212.131729 717.022095,213.858093 
	C716.867188,214.606216 719.485107,216.771500 720.931274,216.860046 
	C726.742188,217.215790 732.602600,217.243317 738.410522,216.865967 
	C740.064880,216.758469 741.603699,214.872101 743.195435,213.801453 
	C741.882629,212.185425 740.757935,209.442947 739.218262,209.185928 
	C735.928467,208.636719 735.663086,206.939240 735.669006,204.376068 
	C735.696228,192.544434 735.653015,180.712631 735.637024,168.880890 
	C735.633118,165.952484 735.636475,163.024078 735.636475,160.081482 
	C742.117004,160.081482 747.904724,160.081482 753.692505,160.081482 
	C753.410217,160.539719 753.127991,160.997955 752.845703,161.456192 
	C755.036438,163.093018 757.246704,166.106277 759.413757,166.075516 
	C763.713013,166.014450 762.362183,161.806763 762.630188,159.009048 
	C762.693481,158.348343 762.651367,157.676666 762.643921,157.010193 
	C762.580872,151.344666 761.595459,150.328186 755.908752,150.319183 
	C740.077393,150.294098 724.246033,150.292542 708.414673,150.302429 
	C697.501709,150.309250 697.354187,150.482635 697.863464,161.570251 
	C697.886353,162.069443 697.693420,162.722336 697.940125,163.041809 
	C698.862915,164.236862 699.897095,166.199707 700.945007,166.235229 
	C702.360474,166.283218 704.091675,165.069260 705.183472,163.918610 
	C705.975037,163.084427 705.948608,161.474030 706.389771,159.825607 
	C709.389954,159.825607 712.367126,159.825607 715.344299,159.825607 
	C718.430237,159.825607 721.516174,159.825607 724.818787,159.825607 
	C724.818787,163.904068 724.818787,167.217331 724.819336,171.522217 
M758.887207,456.236389 
	C764.731506,448.803680 758.500549,438.494873 748.770203,438.700348 
	C737.462646,438.939148 726.145020,438.658905 714.833191,438.760223 
	C707.562500,438.825317 702.609009,443.475342 702.688965,449.818939 
	C702.768799,456.153595 707.743347,460.615967 715.088196,460.671387 
	C726.234070,460.755463 737.393311,460.976898 748.520142,460.506195 
	C751.862000,460.364868 755.114563,458.114532 758.887207,456.236389 
z"/>
<path fill="currentColor" opacity="1.000000" stroke="none" 
	d="
M643.111938,465.892059 
	C645.941772,468.723450 648.518555,471.307037 651.469849,474.266083 
	C626.981201,498.214600 602.553284,522.103699 577.315369,546.784973 
	C577.315369,537.963135 577.353516,530.229553 577.305176,522.496582 
	C577.251404,513.902527 573.009827,509.420959 564.508362,509.404602 
	C528.515686,509.335358 492.522705,509.331268 456.530060,509.409088 
	C447.568695,509.428467 443.520050,513.803040 443.555969,522.735474 
	C443.587219,530.501099 443.562469,538.266907 443.562469,547.221619 
	C418.223694,522.454773 393.742371,498.526031 368.857269,474.202606 
	C393.549438,450.174286 418.185577,426.200470 443.327026,401.734955 
	C443.327026,410.205536 443.345612,417.915039 443.322357,425.624420 
	C443.293060,435.336212 446.855469,439.045135 456.368408,439.043701 
	C492.527893,439.038239 528.687378,439.023224 564.846863,438.990295 
	C574.255676,438.981720 577.732788,435.429352 577.733276,425.963409 
	C577.733643,418.217285 577.733337,410.471161 577.733337,402.281128 
	C599.490784,423.449799 621.174866,444.547028 643.111938,465.892059 
z"/>
<path fill="none" opacity="1.000000" stroke="none" 
	d="
M309.879761,498.550507 
	C316.143494,502.123932 318.440308,506.444031 317.103729,511.659668 
	C315.796173,516.762024 311.297089,519.920593 304.908447,519.924438 
	C253.427795,519.955444 201.947083,519.958740 150.466446,519.929810 
	C143.095810,519.925659 137.878128,515.128479 137.890381,508.626770 
	C137.902481,502.200958 142.747437,497.729187 150.143158,497.723755 
	C201.623657,497.685822 253.104218,497.709717 304.584717,497.749725 
	C306.229340,497.751007 307.873657,498.140228 309.879761,498.550507 
z"/>
<path fill="none" opacity="1.000000" stroke="none" 
	d="
M414.999054,261.207214 
	C419.993561,261.206329 424.488678,261.170441 428.983093,261.210419 
	C437.074402,261.282410 442.100861,265.569824 442.129028,272.365906 
	C442.157471,279.227722 437.393646,283.472046 429.069672,283.520630 
	C408.760498,283.639160 388.450317,283.602020 368.140564,283.609222 
	C343.003021,283.618164 317.865356,283.655151 292.727997,283.583252 
	C283.262909,283.556183 277.749359,276.181610 281.047241,268.091705 
	C283.139130,262.960236 287.339294,261.166138 292.640381,261.181519 
	C308.788208,261.228394 324.936249,261.206268 341.084229,261.207214 
	C365.555939,261.208618 390.027618,261.206818 414.999054,261.207214 
z"/>
<path fill="none" opacity="1.000000" stroke="none" 
	d="
M242.902298,261.191956 
	C245.385040,261.215210 247.399139,261.091766 249.380737,261.291107 
	C255.224091,261.878998 259.630005,266.593048 259.744507,272.218781 
	C259.860107,277.897797 255.668381,282.603149 249.730072,283.365784 
	C248.249619,283.555908 246.739212,283.567841 245.242538,283.568359 
	C214.248291,283.579132 183.254059,283.578735 152.259811,283.569183 
	C150.762817,283.568726 149.246429,283.598389 147.772278,283.384827 
	C141.828323,282.523743 137.799805,277.794373 137.992798,272.025879 
	C138.186966,266.221893 142.486511,261.743622 148.438141,261.260773 
	C150.260101,261.112946 152.102234,261.202942 153.935135,261.202637 
	C183.429688,261.197571 212.924240,261.195526 242.902298,261.191956 
z"/>
<path fill="none" opacity="1.000000" stroke="none" 
	d="
M168.000122,644.907654 
	C161.667526,644.896240 155.833466,644.960815 150.002548,644.854553 
	C142.535812,644.718445 137.854553,640.418579 137.820786,633.841431 
	C137.786926,627.247375 142.443207,623.011169 150.012787,623.000366 
	C179.842697,622.957703 209.672699,622.957886 239.502625,622.985413 
	C246.962143,622.992310 251.875763,627.372681 251.806168,633.755310 
	C251.737900,640.014771 246.579147,644.829590 239.492004,644.854248 
	C215.828232,644.936462 192.164078,644.899170 168.000122,644.907654 
z"/>
<path fill="none" opacity="1.000000" stroke="none" 
	d="
M353.108917,393.929871 
	C350.854218,399.572937 346.798523,401.725861 341.236206,401.716034 
	C316.443298,401.672180 291.650269,401.721558 266.857361,401.680725 
	C259.369843,401.668396 253.447098,396.624115 253.417328,390.438843 
	C253.387238,384.185486 258.630829,379.640503 266.441010,379.620056 
	C291.400024,379.554688 316.359863,379.558777 341.318512,379.693359 
	C350.014923,379.740265 354.534332,385.241699 353.108917,393.929871 
z"/>
<path fill="none" opacity="1.000000" stroke="none" 
	d="
M226.961716,449.125244 
	C225.955612,457.132568 222.008026,460.745697 214.383102,460.759430 
	C193.058487,460.797913 171.733643,460.791748 150.409088,460.729889 
	C142.887436,460.708069 137.826630,456.053772 137.883667,449.469513 
	C137.939758,442.994598 142.682419,438.816223 150.267807,438.797150 
	C171.758972,438.743103 193.250412,438.732605 214.741608,438.775787 
	C221.766266,438.789886 225.074402,441.592072 226.961716,449.125244 
z"/>
<path fill="none" opacity="1.000000" stroke="none" 
	d="
M432.081146,611.550781 
	C431.495148,618.742737 430.864563,625.499329 430.184326,632.787537 
	C431.921173,632.787537 433.994995,632.804016 436.068481,632.783875 
	C439.684204,632.748779 442.328400,634.726074 441.756531,638.066589 
	C441.400330,640.147461 438.679382,642.841309 436.548767,643.373047 
	C432.933746,644.275208 428.946716,643.712219 425.115936,643.719238 
	C416.205505,643.735474 407.294983,643.724365 398.141724,643.724365 
	C402.770538,654.238342 402.097961,658.302429 395.175415,663.772278 
	C389.615814,660.132629 388.683746,655.751648 391.303955,643.948181 
	C386.909393,643.948181 382.672180,643.956848 378.434998,643.946472 
	C368.708099,643.922668 363.036346,639.186279 362.220154,629.485779 
	C361.550873,621.531860 361.676575,613.508667 361.528992,605.514648 
	C361.469635,602.299866 362.799774,599.846069 366.302704,599.677368 
	C369.859070,599.506165 371.373230,601.937195 371.508698,605.099731 
	C371.808075,612.088074 371.863068,619.086426 372.081970,626.078735 
	C372.270416,632.096741 373.168823,632.923950 379.157135,632.923584 
	C392.304352,632.922668 405.451569,632.923279 419.617157,632.923279 
	C420.419373,626.322998 421.410706,619.966187 421.807343,613.572449 
	C421.900452,612.071716 420.250305,609.526062 418.915527,609.138977 
	C417.600281,608.757507 415.600891,610.397156 414.038757,611.370178 
	C413.410156,611.761658 413.286743,613.182129 412.691620,613.370544 
	C410.478485,614.071289 408.111359,614.925232 405.920990,614.676147 
	C405.246826,614.599426 404.235779,611.021973 404.618591,609.327576 
	C405.766266,604.248657 409.055328,600.897461 414.332886,599.786438 
	C420.049988,598.582825 424.977875,600.111145 428.683411,604.555420 
	C430.217316,606.395081 430.943176,608.908447 432.081146,611.550781 
z"/>
<path fill="none" opacity="1.000000" stroke="none" 
	d="
M149.385223,682.294434 
	C160.835739,682.330383 171.830582,682.502625 182.820679,682.344910 
	C187.888763,682.272217 191.594376,683.540955 192.890915,688.979675 
	C193.190399,690.235962 193.737869,691.732117 194.678482,692.478943 
	C197.197433,694.478821 199.831299,696.660583 202.787338,697.556580 
	C203.538803,697.784363 205.822510,693.576355 207.105255,691.243286 
	C208.208862,689.236084 208.426025,686.559387 209.901062,684.995422 
	C211.116074,683.707153 213.812027,682.814758 215.454483,683.249023 
	C216.755173,683.593079 218.291153,686.243469 218.237701,687.819397 
	C218.139130,690.726807 217.223419,693.700745 216.173294,696.466736 
	C208.059540,717.837341 189.751740,729.089844 167.147766,726.736450 
	C158.986710,725.886780 156.123276,722.582275 156.429398,714.254517 
	C156.545563,711.094238 156.306229,707.795959 157.168457,704.834106 
	C157.700012,703.008240 160.332260,700.233704 161.443466,700.481018 
	C163.397781,700.916077 165.728516,703.056702 166.402695,705.002502 
	C167.282745,707.542480 166.466034,710.621765 166.861282,713.400452 
	C167.038406,714.645813 168.313538,716.666321 169.213745,716.735779 
	C180.075684,717.573364 189.981293,715.341492 198.247787,706.541382 
	C191.387238,705.415100 187.658096,701.178833 184.551788,695.876587 
	C183.613953,694.275635 181.130600,692.717102 179.299759,692.649902 
	C170.817749,692.338684 162.311005,692.410583 153.825897,692.708801 
	C152.038986,692.771545 149.963745,694.015015 148.623825,695.328857 
	C146.311890,697.595886 143.951111,698.671997 141.079666,696.967529 
	C138.105698,695.202148 137.247559,692.408447 138.624054,689.219604 
	C140.549179,684.759705 143.546799,681.704529 149.385223,682.294434 
z"/>
<path fill="none" opacity="1.000000" stroke="none" 
	d="
M185.005356,379.662598 
	C189.260452,379.714874 193.100922,379.575165 196.909027,379.863312 
	C202.521408,380.287964 206.920441,384.952393 207.087296,390.283112 
	C207.260513,395.817383 202.908051,401.400055 197.199066,401.506561 
	C180.733505,401.813782 164.254990,401.798584 147.788879,401.502625 
	C141.922653,401.397156 137.517776,395.661346 137.807663,389.844391 
	C138.096710,384.044159 142.417007,379.818085 148.635880,379.742889 
	C160.614594,379.597931 172.595978,379.676239 185.005356,379.662598 
z"/>
<path fill="none" opacity="1.000000" stroke="none" 
	d="
M297.971344,438.750793 
	C301.295959,438.783356 304.148285,438.603149 306.952148,438.892426 
	C312.795135,439.495331 317.235260,444.377899 317.215729,449.867615 
	C317.195679,455.508118 312.889435,460.538757 306.869568,460.639862 
	C290.719818,460.911255 274.559113,460.895416 258.409241,460.617188 
	C251.929581,460.505554 247.045441,455.111359 247.245590,449.419495 
	C247.447876,443.666473 252.485138,438.901367 259.005554,438.821686 
	C271.827789,438.665009 284.653076,438.759827 297.971344,438.750793 
z"/>
<path fill="none" opacity="1.000000" stroke="none" 
	d="
M425.872314,342.775024 
	C414.891815,342.792938 404.389801,342.969757 393.894348,342.781738 
	C384.344513,342.610626 378.761963,333.992432 383.069885,326.381348 
	C385.099487,322.795441 388.155151,320.779694 392.420197,320.787384 
	C405.252411,320.810577 418.085724,320.700531 430.916534,320.835632 
	C437.374054,320.903625 442.050537,325.717072 442.082672,331.832367 
	C442.114227,337.835999 437.853485,342.186340 431.350861,342.704193 
	C429.693787,342.836121 428.019867,342.757050 425.872314,342.775024 
z"/>
<path fill="none" opacity="1.000000" stroke="none" 
	d="
M369.208710,693.746460 
	C367.426392,700.637329 364.088135,703.549133 357.607544,703.627258 
	C346.312653,703.763489 335.013733,703.781494 323.719116,703.640564 
	C316.679535,703.552734 311.893372,698.703979 311.925018,692.160278 
	C311.956207,685.713562 316.488251,681.543579 323.682983,681.507812 
	C334.813110,681.452515 345.943817,681.452576 357.074036,681.494019 
	C364.983673,681.523499 368.730835,685.216125 369.208710,693.746460 
z"/>
<path fill="none" opacity="1.000000" stroke="none" 
	d="
M331.987610,585.903442 
	C323.494690,585.901611 315.498749,585.954834 307.503906,585.882080 
	C300.542542,585.818787 295.441864,581.375183 295.225433,575.354614 
	C295.004364,569.204956 300.238525,564.109009 307.315735,564.023560 
	C318.973999,563.882874 330.636688,563.879211 342.294647,564.034119 
	C349.011749,564.123352 354.089691,569.154175 354.015778,575.156311 
	C353.941040,581.225159 348.890106,585.756592 341.979523,585.889465 
	C338.815765,585.950378 335.649933,585.902344 331.987610,585.903442 
z"/>
<path fill="none" opacity="1.000000" stroke="none" 
	d="
M231.276367,568.746826 
	C232.402267,570.805908 233.315308,572.571594 235.221603,576.258179 
	C237.565018,573.172180 239.248734,570.332581 241.523270,568.093018 
	C245.869904,563.813416 249.351318,564.533325 252.107697,569.908630 
	C252.788086,571.235535 253.032837,572.986023 254.053726,573.895264 
	C256.000397,575.628906 258.457245,578.165771 260.524536,578.010010 
	C262.694153,577.846619 264.749603,575.012817 266.653595,573.141235 
	C267.271088,572.534241 267.260986,571.283386 267.525085,570.323425 
	C268.313446,567.457581 269.835419,565.330444 273.151184,566.042236 
	C276.560822,566.774170 277.334625,569.386780 277.111755,572.542358 
	C276.637054,579.263672 271.173370,585.972351 264.576050,587.833069 
	C257.853088,589.729187 251.324692,587.416687 246.965256,581.580750 
	C246.287750,580.673828 245.657867,579.731262 245.437485,579.418213 
	C243.113464,581.340881 240.832108,583.201477 238.580032,585.096924 
	C233.892456,589.042053 230.121155,588.390869 227.375748,583.053162 
	C226.094788,580.562683 224.987885,577.982727 223.669250,575.158875 
	C218.031403,579.273865 215.586472,585.103577 213.097519,590.875793 
	C211.916199,593.615417 211.350708,596.721436 209.720200,599.129150 
	C208.727173,600.595520 205.783203,602.176697 204.531342,601.674133 
	C202.907333,601.022278 200.820740,598.080688 201.134476,596.587219 
	C203.688614,584.428833 209.014709,573.653259 219.212936,566.019409 
	C223.001907,563.183167 226.924210,564.296570 231.276367,568.746826 
z"/>
<path fill="none" opacity="1.000000" stroke="none" 
	d="
M238.189789,347.119934 
	C230.860367,356.408997 221.037979,359.841156 210.091385,360.937836 
	C209.268509,361.020294 208.174957,361.263153 207.642090,360.858612 
	C205.813904,359.470825 204.179352,357.827911 202.470978,356.282288 
	C203.967743,354.750214 205.201843,352.484924 207.014801,351.835449 
	C211.047150,350.390869 215.477371,350.078552 219.549149,348.717560 
	C226.536850,346.381866 230.507202,341.775208 233.045670,333.399048 
	C227.815536,333.399048 222.817001,333.334656 217.821060,333.421204 
	C214.370621,333.480957 210.250656,336.136200 207.861343,331.882996 
	C205.340057,327.394836 210.030090,325.557281 212.179276,322.947235 
	C218.094620,315.763519 224.221191,308.753296 230.109741,301.548218 
	C232.362762,298.791504 234.746155,296.889587 238.104233,299.249817 
	C241.322327,301.511627 240.436020,304.527008 238.477325,307.126892 
	C234.686218,312.158966 230.704422,317.047394 225.896576,323.142883 
	C229.670029,323.142883 232.648117,323.229980 235.619339,323.124207 
	C241.280334,322.922668 244.667694,325.525238 243.753906,331.052246 
	C242.860275,336.457397 240.253632,341.579285 238.189789,347.119934 
z"/>
<path fill="none" opacity="1.000000" stroke="none" 
	d="
M389.330872,689.725281 
	C391.472748,683.787354 395.422211,681.398865 401.340149,681.505859 
	C411.152954,681.683289 420.971893,681.487061 430.787537,681.554382 
	C437.869934,681.602905 442.548920,685.978333 442.529541,692.321655 
	C442.510315,698.618835 437.749115,703.541687 431.034363,703.657532 
	C420.722198,703.835510 410.401672,703.850708 400.090363,703.647278 
	C392.594269,703.499390 388.758423,698.494324 389.330872,689.725281 
z"/>
<path fill="none" opacity="1.000000" stroke="none" 
	d="
M175.555786,354.639771 
	C174.169449,357.511200 173.050690,360.106262 171.800873,362.636597 
	C170.234802,365.807312 167.696930,367.839661 164.177078,366.406494 
	C160.439407,364.884644 161.212555,361.383698 162.392731,358.646271 
	C166.674713,348.714142 172.118439,339.506561 181.296097,332.042725 
	C170.710815,332.042725 161.028336,332.042725 152.303497,332.042725 
	C152.561768,334.344543 153.783325,337.168762 152.857697,338.662170 
	C150.936478,341.761902 147.619675,340.792389 144.879227,339.213867 
	C140.836624,336.885315 138.214798,333.590027 139.115967,328.602631 
	C139.856903,324.502014 144.230698,321.180176 149.143326,321.143707 
	C162.300766,321.046021 175.463516,320.953613 188.613617,321.281525 
	C190.777634,321.335480 193.538940,323.046265 194.869400,324.845337 
	C196.808243,327.467041 195.805878,330.273010 193.517593,332.904724 
	C187.432892,339.902618 181.661301,347.172791 175.555786,354.639771 
z"/>
<path fill="none" opacity="1.000000" stroke="none" 
	d="
M157.240387,574.213806 
	C155.284775,574.214722 153.796814,574.214722 152.346771,574.214722 
	C152.176376,574.609314 151.864731,574.992493 151.955566,575.171814 
	C153.152512,577.534241 155.146805,580.552856 152.022217,582.075195 
	C149.824249,583.146057 146.074783,582.863770 143.851486,581.653992 
	C139.759628,579.427551 137.959213,575.241882 139.324982,570.545227 
	C140.703934,565.803345 144.255814,563.870361 149.196762,563.912781 
	C161.832870,564.021301 174.478928,563.706604 187.100708,564.145386 
	C189.698608,564.235657 192.963455,566.306641 194.565445,568.468872 
	C196.523941,571.112244 194.768906,574.045044 192.387634,576.332275 
	C183.438766,584.927734 176.177689,594.771545 170.826385,605.995605 
	C169.561951,608.647705 167.815613,610.497620 164.577301,609.043457 
	C161.466293,607.646301 160.215958,605.131409 161.943512,602.165894 
	C166.510727,594.325500 171.336319,586.633911 176.153198,578.942078 
	C177.084122,577.455444 178.442566,576.236572 180.193192,574.212891 
	C172.159241,574.212891 164.933640,574.212891 157.240387,574.213806 
z"/>
<path fill="none" opacity="1.000000" stroke="none" 
	d="
M275.351013,625.144043 
	C278.019836,624.283325 280.360809,623.157593 282.727509,623.100708 
	C291.698425,622.884888 300.678009,622.967529 309.653717,623.030945 
	C317.126984,623.083740 322.010620,627.394653 321.997803,633.766663 
	C321.985077,640.090210 316.943604,644.789490 309.808350,644.874695 
	C300.999634,644.979858 292.188507,644.866699 283.379028,644.929321 
	C278.060608,644.967102 273.948242,643.042664 271.858795,637.951538 
	C269.848175,633.052429 271.211487,628.866394 275.351013,625.144043 
z"/>
<path fill="none" opacity="1.000000" stroke="none" 
	d="
M282.168823,193.836929 
	C276.979614,187.488541 270.299286,185.820160 262.825012,185.699615 
	C259.171478,185.640686 254.011246,186.108765 254.319885,180.619675 
	C254.622955,175.229385 259.664276,176.859055 263.057892,176.910645 
	C266.688446,176.965881 270.310822,177.558609 274.618805,177.984085 
	C277.214661,171.866211 279.779785,165.290009 282.795746,158.927475 
	C284.403564,155.535507 284.508972,150.221207 289.530334,150.010254 
	C294.880920,149.785446 294.614807,155.335495 296.299316,158.633286 
	C298.407806,162.761002 299.697235,167.328461 301.985809,171.337570 
	C305.079071,176.756241 303.932312,181.000183 298.798401,185.627792 
	C295.678375,178.643967 292.685425,171.944534 289.454620,164.712708 
	C287.233856,170.124146 285.050446,175.156235 283.174988,180.300583 
	C282.865082,181.150543 283.586182,182.855164 284.373871,183.542206 
	C287.492584,186.262482 291.017578,188.537430 293.988770,191.396484 
	C295.190918,192.553268 296.380432,195.541946 295.773285,196.361084 
	C294.689545,197.823227 291.894501,199.367691 290.429504,198.910141 
	C287.543427,198.008804 285.077759,195.761383 282.168823,193.836929 
z"/>
<path fill="none" opacity="1.000000" stroke="none" 
	d="
M286.119690,693.922729 
	C286.498688,691.888794 286.863159,690.266785 287.065979,688.624756 
	C287.470612,685.348816 288.488800,682.573608 292.505676,683.031433 
	C296.508240,683.487732 297.568939,686.201782 297.141418,689.858398 
	C295.422852,704.556824 288.478424,715.897583 275.336243,722.959167 
	C271.739716,724.891663 267.649475,726.017029 263.672791,727.096619 
	C260.144012,728.054688 257.230225,726.723206 256.444763,722.930542 
	C255.672455,719.201538 258.555939,718.208191 261.423248,717.395935 
	C271.927948,714.419861 275.765961,712.111267 279.138885,706.794189 
	C269.679321,704.945740 265.014587,697.658081 260.637421,690.217834 
	C259.052063,687.523071 259.435486,684.152954 262.553528,683.064148 
	C264.150269,682.506592 267.156128,683.959595 268.607483,685.417480 
	C271.983398,688.808533 274.519562,693.039856 277.918427,696.402649 
	C282.261719,700.699890 283.949280,700.091064 286.119690,693.922729 
z"/>
<path fill="none" opacity="1.000000" stroke="none" 
	d="
M262.799622,332.111908 
	C262.520447,331.658813 262.404572,331.532776 262.331848,331.385406 
	C260.863159,328.409668 258.564423,324.891693 262.418976,322.602386 
	C266.509125,320.173279 269.173706,323.400848 271.175995,326.706024 
	C274.375214,331.986938 277.599976,337.195526 284.962830,338.385803 
	C285.899017,334.321991 286.814178,330.478882 287.664062,326.621399 
	C288.413849,323.218292 290.237000,321.172546 293.947845,321.863098 
	C297.570374,322.537262 298.033112,325.334717 297.784515,328.356689 
	C296.363525,345.628174 283.288971,360.775208 266.340729,364.794647 
	C265.215881,365.061401 263.855713,365.554962 262.925323,365.169586 
	C260.972351,364.360687 259.232758,363.036713 257.405579,361.924194 
	C258.635712,360.016693 259.434906,357.351013 261.184113,356.356842 
	C265.022003,354.175659 269.434692,353.032440 273.424011,351.079926 
	C275.437012,350.094696 277.038788,348.269226 277.712463,347.724518 
	C272.666107,342.484192 267.824554,337.456604 262.799622,332.111908 
z"/>
<path fill="none" opacity="1.000000" stroke="none" 
	d="
M359.480530,341.634613 
	C355.536102,339.499512 352.138855,336.860718 348.291901,335.644714 
	C338.079865,332.416718 328.763489,336.853546 324.690613,346.843872 
	C322.894897,351.248505 322.561493,356.239716 320.867065,360.699799 
	C320.179901,362.508575 317.722015,364.545654 315.905273,364.715210 
	C314.643768,364.832886 312.103058,362.094452 311.835327,360.368195 
	C308.274292,337.406586 332.553558,317.858124 353.981689,326.518707 
	C357.641907,327.998047 361.114685,330.864990 363.664276,333.930634 
	C366.730804,337.617920 364.928253,340.675598 359.480530,341.634613 
z"/>
<path fill="none" opacity="1.000000" stroke="none" 
	d="
M307.448914,204.533829 
	C305.968597,207.920410 304.596191,210.937653 303.392242,214.020676 
	C302.033752,217.499542 299.022064,217.829559 296.447632,216.753632 
	C295.421387,216.324738 294.731842,212.705139 295.352936,211.106934 
	C299.369904,200.770355 303.768921,190.581497 308.093964,180.365921 
	C309.343536,177.414383 311.531677,175.607071 314.767914,177.047531 
	C318.075928,178.519928 318.228760,181.766739 316.617340,184.239136 
	C312.495483,190.563461 314.640839,195.969162 317.971924,201.620880 
	C320.810791,206.437485 323.224457,211.504669 325.854523,216.514938 
	C316.782715,218.045471 316.461365,217.907089 312.422913,210.098633 
	C311.358276,208.040070 310.475708,205.886826 309.387878,203.841766 
	C309.307373,203.690369 308.239899,204.063980 307.448914,204.533829 
z"/>
<path fill="none" opacity="1.000000" stroke="none" 
	d="
M234.893829,385.581116 
	C234.994400,404.580414 227.766891,416.288452 212.836273,421.734528 
	C211.594772,422.187408 210.147324,423.022430 209.054504,422.725830 
	C207.169037,422.214142 204.598328,421.334900 203.978607,419.894287 
	C203.400177,418.549652 204.653320,416.044434 205.732498,414.488556 
	C206.470322,413.424774 208.252090,413.004089 209.637634,412.483521 
	C219.773209,408.675507 223.899063,400.747437 224.744843,390.561096 
	C224.868256,389.074707 224.358780,387.297791 225.009491,386.144775 
	C226.214890,384.008881 227.721909,381.212524 229.720154,380.549072 
	C232.735901,379.547699 234.309509,382.264099 234.893829,385.581116 
z"/>
<path fill="none" opacity="1.000000" stroke="none" 
	d="
M331.816864,650.922363 
	C338.170319,645.887207 340.733124,639.493530 340.580017,631.871704 
	C340.553314,630.542114 340.070038,628.710083 340.742371,627.979980 
	C342.366577,626.216064 344.413757,624.195862 346.561005,623.818542 
	C347.718170,623.615173 350.443756,626.409302 350.736115,628.142090 
	C353.248352,643.031799 342.733643,659.837341 328.496277,664.438232 
	C325.305115,665.469421 322.753296,664.927979 321.442902,661.789124 
	C320.133026,658.651550 321.501160,656.388733 324.525482,654.928894 
	C326.911530,653.777100 329.189880,652.402222 331.816864,650.922363 
z"/>
<path fill="none" opacity="1.000000" stroke="none" 
	d="
M221.672913,658.542969 
	C226.805054,659.148376 231.682068,659.273682 236.201569,660.609009 
	C241.743805,662.246521 246.880478,664.853455 253.051865,663.540527 
	C254.416718,663.250183 257.482086,665.665344 257.802460,667.235046 
	C258.125092,668.815857 256.117950,672.407410 254.934677,672.496277 
	C249.630508,672.894775 244.208420,672.729370 238.921356,672.048889 
	C234.223907,671.444336 229.694061,669.379456 225.000885,668.960754 
	C222.321564,668.721741 219.505753,670.689453 216.671158,671.275696 
	C214.782639,671.666321 212.752579,671.372803 210.785873,671.385498 
	C210.833771,669.596497 210.416977,667.630798 211.017456,666.052063 
	C212.762100,661.464844 216.335251,659.010803 221.672913,658.542969 
z"/>
<path fill="none" opacity="1.000000" stroke="none" 
	d="
M345.768066,311.788574 
	C340.192535,313.488312 335.002777,315.163513 329.731964,316.525024 
	C327.861237,317.008270 325.545441,317.326843 323.881439,316.637543 
	C322.013367,315.863739 319.504120,313.947845 319.389862,312.375092 
	C319.271942,310.752289 321.575104,307.568268 323.032318,307.437134 
	C333.908722,306.458344 343.274567,301.672150 352.698242,296.812012 
	C355.327972,295.455750 358.295929,295.146881 360.014252,298.432617 
	C361.663391,301.585938 360.109772,303.953125 357.454041,305.526428 
	C353.764252,307.712250 349.907257,309.615936 345.768066,311.788574 
z"/>
<path fill="none" opacity="1.000000" stroke="none" 
	d="
M234.971771,551.283569 
	C227.173111,551.290894 219.868774,551.272888 212.564774,551.312927 
	C209.075974,551.332092 205.992615,550.599487 206.033630,546.370117 
	C206.071594,542.455505 209.039276,541.616394 212.300110,541.606140 
	C222.426270,541.574463 232.552567,541.571350 242.678787,541.579346 
	C245.938309,541.581909 248.911606,542.372681 248.960571,546.300537 
	C249.013428,550.542358 245.921249,551.288635 242.438171,551.250244 
	C240.114594,551.224548 237.790222,551.268982 234.971771,551.283569 
z"/>
<path fill="none" opacity="1.000000" stroke="none" 
	d="
M238.251633,710.490051 
	C237.028168,714.087708 234.353561,715.176147 231.833984,713.767090 
	C230.057358,712.773560 228.331223,710.092041 228.194473,708.055847 
	C227.737839,701.256653 227.996140,694.408752 228.003082,687.579468 
	C228.005951,684.770691 228.280334,681.962952 231.965652,681.850891 
	C235.739487,681.736145 238.019836,683.883728 238.139709,687.562195 
	C238.383743,695.050110 238.288651,702.549072 238.251633,710.490051 
z"/>
<path fill="none" opacity="1.000000" stroke="none" 
	d="
M258.220276,217.128235 
	C257.481995,216.528076 256.778625,215.732712 256.956055,215.378494 
	C260.884857,207.534271 264.911041,199.738831 268.876862,192.015549 
	C276.321930,193.872635 276.818451,194.805939 273.842072,200.971878 
	C272.253693,204.262405 270.199829,207.388855 269.064880,210.823578 
	C267.312653,216.126358 264.007294,218.119629 258.220276,217.128235 
z"/>
<path fill="none" opacity="1.000000" stroke="none" 
	d="
M759.000122,261.219513 
	C795.494751,261.214722 831.489380,261.197266 867.483948,261.234558 
	C869.790344,261.236938 872.194031,261.326660 874.382446,261.961670 
	C879.117859,263.335724 882.228333,268.119476 882.005615,273.043457 
	C881.775024,278.141602 878.420410,282.156128 873.278015,283.178650 
	C871.338806,283.564240 869.306396,283.594574 867.316406,283.595093 
	C775.496826,283.619781 683.677002,283.520874 591.858032,283.766876 
	C581.161743,283.795532 575.529846,275.366669 579.160706,267.776764 
	C581.529419,262.825226 585.719727,261.154327 591.024780,261.166534 
	C620.186951,261.233704 649.349365,261.193237 678.511658,261.196594 
	C705.174438,261.199677 731.837280,261.211487 759.000122,261.219513 
z"/>
<path fill="none" opacity="1.000000" stroke="none" 
	d="
M717.000000,622.941040 
	C766.808838,622.941040 816.117737,622.941040 865.426575,622.942261 
	C867.258972,622.942322 869.095032,622.882141 870.923157,622.973633 
	C877.175964,623.286438 881.915405,627.741150 882.178040,633.486084 
	C882.441833,639.259155 878.116760,644.021423 871.797424,644.821350 
	C870.483398,644.987671 869.135376,644.902954 867.802979,644.903015 
	C775.515442,644.906189 683.227905,644.910767 590.940369,644.875916 
	C588.977356,644.875183 586.909180,644.731323 585.071716,644.113647 
	C579.957092,642.394470 577.257751,637.709412 577.972412,632.347778 
	C578.661926,627.174500 582.736145,623.208496 588.065552,623.021851 
	C594.222046,622.806213 600.390869,622.927856 606.554382,622.927917 
	C643.202942,622.928345 679.851440,622.936035 717.000000,622.941040 
z"/>
<path fill="none" opacity="1.000000" stroke="none" 
	d="
M864.940247,320.744080 
	C867.428955,320.759766 869.434387,320.682190 871.426575,320.810486 
	C876.950256,321.166168 881.495850,325.674194 881.866638,331.062378 
	C882.227539,336.306335 878.095093,341.511749 872.631958,342.441284 
	C870.679993,342.773407 868.649292,342.711914 866.654480,342.712708 
	C775.006104,342.747833 683.357666,342.800293 591.709534,342.669098 
	C588.455383,342.664429 584.755493,341.492035 582.060242,339.679138 
	C578.369019,337.196350 577.243347,333.033630 578.634460,328.552521 
	C580.064941,323.944427 583.191528,321.252136 588.010254,320.860046 
	C590.992065,320.617432 594.004944,320.728973 597.003906,320.729034 
	C686.152893,320.730621 775.301941,320.738129 864.940247,320.744080 
z"/>
<path fill="none" opacity="1.000000" stroke="none" 
	d="
M666.796021,389.246704 
	C668.968506,381.864014 672.249390,379.612152 680.720337,379.605133 
	C713.868225,379.577698 747.016174,379.595367 780.164062,379.598450 
	C809.480774,379.601196 838.797424,379.591309 868.114075,379.641113 
	C870.420898,379.645050 872.928406,379.574158 874.992249,380.406616 
	C879.515381,382.230896 882.100647,385.788025 882.060181,390.856750 
	C882.022095,395.629944 878.772400,399.875641 874.093933,401.147400 
	C872.517029,401.576080 870.811462,401.680573 869.164612,401.680939 
	C806.200195,401.695251 743.235779,401.689941 680.271362,401.657379 
	C671.884949,401.653046 667.459473,397.648071 666.796021,389.246704 
z"/>
<path fill="none" opacity="1.000000" stroke="none" 
	d="
M737.000000,563.886719 
	C780.622864,563.880920 823.745728,563.874573 866.868591,563.873047 
	C868.533081,563.872986 870.211121,563.791565 871.859680,563.966125 
	C877.577271,564.571411 882.096802,569.589661 881.976074,575.081238 
	C881.854553,580.608337 877.214905,585.375000 871.467896,585.838440 
	C870.474915,585.918518 869.470886,585.865845 868.471924,585.865906 
	C805.535828,585.869690 742.599731,585.875183 679.663635,585.872314 
	C671.655762,585.871948 666.652649,581.479187 666.789551,574.623779 
	C666.915955,568.288452 671.369263,563.939575 678.059326,563.918274 
	C697.539368,563.856201 717.019775,563.890503 737.000000,563.886719 
z"/>
<path fill="none" opacity="1.000000" stroke="none" 
	d="
M601.007751,681.389099 
	C651.458862,681.383667 701.411560,681.378662 751.364197,681.376282 
	C754.028320,681.376160 756.697632,681.295959 759.355408,681.431885 
	C765.275696,681.734253 769.614807,685.761719 770.085632,691.249878 
	C770.562988,696.813843 767.125671,701.742615 761.543701,703.096802 
	C759.473877,703.598877 757.261047,703.668030 755.113342,703.669189 
	C700.331909,703.698364 645.550415,703.696838 590.768982,703.687317 
	C582.665649,703.685913 577.618774,698.996704 577.906860,691.819702 
	C578.129028,686.285339 581.999268,681.954590 587.528076,681.560059 
	C591.837280,681.252502 596.180908,681.428711 601.007751,681.389099 
z"/>
<path fill="none" opacity="1.000000" stroke="none" 
	d="
M876.589478,499.186707 
	C881.823364,503.546692 883.334167,507.789398 881.572998,512.426758 
	C879.814331,517.057617 875.535095,519.896301 869.716309,519.902771 
	C817.927673,519.959839 766.139038,519.988342 714.350403,519.960571 
	C707.621887,519.956970 702.833191,515.149414 702.793335,508.795624 
	C702.752808,502.334167 707.237671,497.602112 714.153625,497.530121 
	C731.136963,497.353271 748.123047,497.422668 765.108032,497.426086 
	C799.078674,497.432892 833.049438,497.422974 867.019714,497.547302 
	C870.099365,497.558563 873.175537,498.492401 876.589478,499.186707 
z"/>
<path fill="none" opacity="1.000000" stroke="none" 
	d="
M812.000000,460.729370 
	C805.671936,460.734375 799.843384,460.783691 794.015747,460.734375 
	C786.442871,460.670319 781.117004,456.165466 781.014404,449.831116 
	C780.910339,443.402710 786.098999,438.773621 793.730957,438.760986 
	C819.208191,438.718811 844.685730,438.729218 870.162964,438.785004 
	C877.256104,438.800507 881.978638,443.145477 882.068054,449.456696 
	C882.156311,455.691681 876.977478,460.669128 869.948914,460.701416 
	C850.799622,460.789337 831.649658,460.730469 812.000000,460.729370 
z"/>
<path fill="none" opacity="1.000000" stroke="none" 
	d="
M724.819092,171.026398 
	C724.818787,167.217331 724.818787,163.904068 724.818787,159.825607 
	C721.516174,159.825607 718.430237,159.825607 715.344299,159.825607 
	C712.367126,159.825607 709.389954,159.825607 706.389771,159.825607 
	C705.948608,161.474030 705.975037,163.084427 705.183472,163.918610 
	C704.091675,165.069260 702.360474,166.283218 700.945007,166.235229 
	C699.897095,166.199707 698.862915,164.236862 697.940125,163.041809 
	C697.693420,162.722336 697.886353,162.069443 697.863464,161.570251 
	C697.354187,150.482635 697.501709,150.309250 708.414673,150.302429 
	C724.246033,150.292542 740.077393,150.294098 755.908752,150.319183 
	C761.595459,150.328186 762.580872,151.344666 762.643921,157.010193 
	C762.651367,157.676666 762.693481,158.348343 762.630188,159.009048 
	C762.362183,161.806763 763.713013,166.014450 759.413757,166.075516 
	C757.246704,166.106277 755.036438,163.093018 752.845703,161.456192 
	C753.127991,160.997955 753.410217,160.539719 753.692505,160.081482 
	C747.904724,160.081482 742.117004,160.081482 735.636475,160.081482 
	C735.636475,163.024078 735.633118,165.952484 735.637024,168.880890 
	C735.653015,180.712631 735.696228,192.544434 735.669006,204.376068 
	C735.663086,206.939240 735.928467,208.636719 739.218262,209.185928 
	C740.757935,209.442947 741.882629,212.185425 743.195435,213.801468 
	C741.603699,214.872101 740.064880,216.758469 738.410522,216.865967 
	C732.602600,217.243317 726.742188,217.215790 720.931274,216.860046 
	C719.485107,216.771500 716.867188,214.606216 717.022095,213.858093 
	C717.379578,212.131729 719.063782,209.403992 720.286804,209.362701 
	C724.646667,209.215561 724.906494,206.922989 724.861267,203.517456 
	C724.719727,192.854065 724.815491,182.187531 724.819092,171.026398 
z"/>
<path fill="none" opacity="1.000000" stroke="none" 
	d="
M758.647644,456.533386 
	C755.114563,458.114532 751.862000,460.364868 748.520142,460.506195 
	C737.393311,460.976898 726.234070,460.755463 715.088196,460.671387 
	C707.743347,460.615967 702.768799,456.153595 702.688965,449.818939 
	C702.609009,443.475342 707.562500,438.825317 714.833191,438.760223 
	C726.145020,438.658905 737.462646,438.939148 748.770203,438.700348 
	C758.500549,438.494873 764.731506,448.803680 758.647644,456.533386 
z"/>
</svg>
